<?xml version="1.0" encoding="utf-8" standalone="no"?>
<!DOCTYPE svg PUBLIC "-//W3C//DTD SVG 1.1//EN"
  "http://www.w3.org/Graphics/SVG/1.1/DTD/svg11.dtd">
<!-- Created with matplotlib (http://matplotlib.org/) -->
<svg height="323pt" version="1.1" viewBox="0 0 315 323" width="315pt" xmlns="http://www.w3.org/2000/svg" xmlns:xlink="http://www.w3.org/1999/xlink">
 <defs>
  <style type="text/css">
*{stroke-linecap:butt;stroke-linejoin:round;}
  </style>
 </defs>
 <g id="figure_1">
  <g id="patch_1">
   <path d="
M0 323.821
L315.899 323.821
L315.899 0
L0 0
z
" style="fill:#ffffff;"/>
  </g>
  <g id="axes_1">
   <g id="patch_2">
    <path d="
M26.5113 301.007
L305.511 301.007
L305.511 13.0069
L26.5113 13.0069
z
" style="fill:#ffffff;"/>
   </g>
   <g id="PathCollection_1">
    <defs>
     <path d="
M176.85 -66.7958
L177.549 -66.7202
L178.248 -66.6497
L178.947 -66.5843
L179.647 -66.524
L180.346 -66.469
L181.045 -66.4191
L181.744 -66.3745
L182.444 -66.3351
L183.143 -66.301
L183.842 -66.2722
L184.541 -66.2486
L185.241 -66.2304
L185.94 -66.2176
L186.639 -66.21
L187.338 -66.2078
L188.038 -66.211
L188.737 -66.2194
L189.436 -66.2333
L190.135 -66.2524
L190.835 -66.2769
L191.534 -66.3067
L192.233 -66.3419
L192.932 -66.3823
L193.632 -66.428
L194.331 -66.479
L195.03 -66.5352
L195.729 -66.5967
L196.429 -66.6633
L197.128 -66.7351
L197.827 -66.8121
L198.097 -66.8438
L198.526 -66.8954
L199.226 -66.9848
L199.925 -67.0794
L200.624 -67.179
L201.323 -67.2838
L202.023 -67.3936
L202.722 -67.5083
L203.056 -67.5656
L203.421 -67.6296
L204.12 -67.7575
L204.82 -67.8903
L205.519 -68.028
L206.218 -68.1705
L206.773 -68.2874
L206.917 -68.3185
L207.617 -68.4745
L208.316 -68.6353
L209.015 -68.8007
L209.714 -68.9708
L209.868 -69.0092
L210.414 -69.149
L211.113 -69.3328
L211.812 -69.521
L212.511 -69.7137
L212.573 -69.731
L213.21 -69.9155
L213.91 -70.1221
L214.609 -70.333
L214.998 -70.4528
L215.308 -70.5505
L216.007 -70.7755
L216.707 -71.0045
L217.217 -71.1747
L217.406 -71.2391
L218.105 -71.4823
L218.804 -71.7293
L219.27 -71.8965
L219.504 -71.9824
L220.203 -72.2437
L220.902 -72.5085
L221.187 -72.6183
L221.601 -72.7812
L222.301 -73.0603
L222.994 -73.3401
L223 -73.3427
L223.699 -73.6362
L224.398 -73.9327
L224.699 -74.0619
L225.098 -74.237
L225.797 -74.5477
L226.322 -74.7837
L226.496 -74.8633
L227.195 -75.1883
L227.873 -75.5055
L227.895 -75.516
L228.594 -75.8551
L229.293 -76.1964
L229.356 -76.2273
L229.992 -76.5488
L230.692 -76.904
L230.779 -76.9491
L231.391 -77.27
L232.09 -77.6389
L232.15 -77.6709
L232.789 -78.0191
L233.472 -78.3927
L233.489 -78.4018
L234.188 -78.7966
L234.749 -79.1145
L234.887 -79.1947
L235.586 -79.6029
L235.984 -79.8363
L236.286 -80.0169
L236.985 -80.4382
L237.182 -80.5581
L237.684 -80.8688
L238.346 -81.2799
L238.383 -81.3036
L239.083 -81.7505
L239.474 -82.0017
L239.782 -82.2029
L240.481 -82.6622
L240.574 -82.7235
L241.18 -83.1326
L241.643 -83.4453
L241.88 -83.6086
L242.579 -84.0927
L242.686 -84.1671
L243.278 -84.5878
L243.701 -84.8889
L243.977 -85.0891
L244.677 -85.5975
L244.695 -85.6107
L245.376 -86.1188
L245.662 -86.3325
L246.075 -86.6472
L246.609 -87.0544
L246.774 -87.183
L247.474 -87.7281
L247.535 -87.7762
L248.173 -88.285
L248.439 -88.498
L248.872 -88.8502
L249.325 -89.2198
L249.571 -89.4239
L250.194 -89.9416
L250.271 -90.0064
L250.97 -90.6002
L251.044 -90.6634
L251.669 -91.2053
L251.876 -91.3852
L252.368 -91.8201
L252.692 -92.107
L253.068 -92.4447
L253.493 -92.8288
L253.767 -93.0797
L254.279 -93.5506
L254.466 -93.7252
L255.05 -94.2724
L255.165 -94.3816
L255.808 -94.9942
L255.865 -95.0493
L256.551 -95.716
L256.564 -95.7286
L257.263 -96.4203
L257.281 -96.4378
L257.962 -97.1243
L257.997 -97.1596
L258.662 -97.8405
L258.701 -97.8814
L259.361 -98.5691
L259.393 -98.6032
L260.06 -99.3104
L260.074 -99.325
L260.742 -100.047
L260.759 -100.065
L261.399 -100.769
L261.459 -100.835
L262.045 -101.49
L262.158 -101.618
L262.681 -102.212
L262.857 -102.415
L263.306 -102.934
L263.556 -103.227
L263.921 -103.656
L264.256 -104.054
L264.526 -104.378
L264.955 -104.896
L265.122 -105.099
L265.654 -105.754
L265.709 -105.821
L266.285 -106.543
L266.353 -106.629
L266.852 -107.265
L267.053 -107.524
L267.41 -107.987
L267.752 -108.435
L267.96 -108.708
L268.451 -109.362
L268.502 -109.43
L269.034 -110.152
L269.15 -110.311
L269.557 -110.874
L269.85 -111.281
L270.074 -111.596
L270.549 -112.268
L270.583 -112.318
L271.082 -113.039
L271.248 -113.282
L271.574 -113.761
L271.947 -114.315
L272.059 -114.483
L272.536 -115.205
L272.647 -115.374
L273.005 -115.927
L273.346 -116.457
L273.468 -116.648
L273.923 -117.37
L274.045 -117.567
L274.369 -118.092
L274.744 -118.704
L274.811 -118.814
L275.243 -119.536
L275.444 -119.873
L275.669 -120.257
L276.091 -120.979
L276.143 -121.07
L276.501 -121.701
L276.842 -122.303
L276.909 -122.423
L277.307 -123.145
L277.541 -123.573
L277.7 -123.866
L278.086 -124.588
L278.241 -124.881
L278.465 -125.31
L278.839 -126.032
L278.94 -126.23
L279.204 -126.754
L279.566 -127.475
L279.639 -127.625
L279.917 -128.197
L280.266 -128.919
L280.338 -129.071
L280.605 -129.641
L280.941 -130.363
L281.038 -130.573
L281.268 -131.084
L281.59 -131.806
L281.737 -132.139
L281.906 -132.528
L282.214 -133.25
L282.436 -133.774
L282.519 -133.972
L282.813 -134.693
L283.106 -135.415
L283.135 -135.489
L283.387 -136.137
L283.665 -136.859
L283.835 -137.306
L283.937 -137.581
L284.199 -138.302
L284.459 -139.024
L284.534 -139.236
L284.709 -139.746
L284.953 -140.468
L285.194 -141.19
L285.233 -141.311
L285.422 -141.911
L285.646 -142.633
L285.865 -143.355
L285.932 -143.583
L286.074 -144.077
L286.275 -144.799
L286.471 -145.521
L286.632 -146.127
L286.661 -146.242
L286.837 -146.964
L287.008 -147.686
L287.173 -148.408
L287.331 -149.129
L287.331 -149.13
L287.473 -149.851
L287.607 -150.573
L287.733 -151.295
L287.85 -152.017
L287.957 -152.739
L288.03 -153.291
L288.052 -153.46
L288.13 -154.182
L288.195 -154.904
L288.246 -155.626
L288.281 -156.348
L288.299 -157.069
L288.296 -157.791
L288.27 -158.513
L288.217 -159.235
L288.133 -159.957
L288.03 -160.577
L288.01 -160.678
L287.817 -161.4
L287.557 -162.122
L287.331 -162.608
L287.181 -162.844
L286.632 -163.518
L286.57 -163.566
L285.932 -163.973
L285.233 -164.176
L284.534 -164.203
L283.835 -164.102
L283.135 -163.904
L282.436 -163.635
L282.297 -163.566
L281.737 -163.3
L281.038 -162.919
L280.917 -162.844
L280.338 -162.495
L279.768 -162.122
L279.639 -162.04
L278.94 -161.555
L278.731 -161.4
L278.241 -161.047
L277.755 -160.678
L277.541 -160.521
L276.842 -159.98
L276.813 -159.957
L276.143 -159.423
L275.915 -159.235
L275.444 -158.856
L275.031 -158.513
L274.744 -158.281
L274.158 -157.791
L274.045 -157.7
L273.346 -157.113
L273.296 -157.069
L272.647 -156.52
L272.447 -156.348
L271.947 -155.925
L271.6 -155.626
L271.248 -155.33
L270.752 -154.904
L270.549 -154.734
L269.902 -154.182
L269.85 -154.138
L269.15 -153.542
L269.055 -153.46
L268.451 -152.947
L268.207 -152.739
L267.752 -152.355
L267.353 -152.017
L267.053 -151.766
L266.492 -151.295
L266.353 -151.18
L265.654 -150.598
L265.624 -150.573
L264.955 -150.018
L264.754 -149.851
L264.256 -149.443
L263.874 -149.13
L263.556 -148.872
L262.982 -148.408
L262.857 -148.308
L262.158 -147.748
L262.081 -147.686
L261.459 -147.191
L261.173 -146.964
L260.759 -146.64
L260.249 -146.242
L260.06 -146.096
L259.361 -145.558
L259.312 -145.521
L258.662 -145.024
L258.365 -144.799
L257.962 -144.496
L257.4 -144.077
L257.263 -143.976
L256.564 -143.461
L256.42 -143.355
L255.865 -142.951
L255.424 -142.633
L255.165 -142.449
L254.466 -141.954
L254.407 -141.911
L253.767 -141.462
L253.374 -141.19
L253.068 -140.979
L252.368 -140.503
L252.317 -140.468
L251.669 -140.031
L251.241 -139.746
L250.97 -139.567
L250.271 -139.11
L250.138 -139.024
L249.571 -138.658
L249.011 -138.302
L248.872 -138.215
L248.173 -137.776
L247.857 -137.581
L247.474 -137.344
L246.774 -136.921
L246.671 -136.859
L246.075 -136.501
L245.453 -136.137
L245.376 -136.092
L244.677 -135.685
L244.202 -135.415
L243.977 -135.288
L243.278 -134.896
L242.911 -134.693
L242.579 -134.511
L241.88 -134.132
L241.577 -133.972
L241.18 -133.76
L240.481 -133.395
L240.198 -133.25
L239.782 -133.036
L239.083 -132.684
L238.767 -132.528
L238.383 -132.338
L237.684 -131.998
L237.279 -131.806
L236.985 -131.666
L236.286 -131.339
L235.726 -131.084
L235.586 -131.021
L234.887 -130.706
L234.188 -130.4
L234.1 -130.363
L233.489 -130.098
L232.789 -129.804
L232.39 -129.641
L232.09 -129.517
L231.391 -129.235
L230.692 -128.961
L230.581 -128.919
L229.992 -128.691
L229.293 -128.429
L228.656 -128.197
L228.594 -128.174
L227.895 -127.923
L227.195 -127.679
L226.589 -127.475
L226.496 -127.444
L225.797 -127.211
L225.098 -126.986
L224.398 -126.77
L224.345 -126.754
L223.699 -126.556
L223 -126.349
L222.301 -126.15
L221.87 -126.032
L221.601 -125.957
L220.902 -125.768
L220.203 -125.587
L219.504 -125.412
L219.077 -125.31
L218.804 -125.244
L218.105 -125.079
L217.406 -124.922
L216.707 -124.772
L216.007 -124.629
L215.802 -124.588
L215.308 -124.489
L214.609 -124.356
L213.91 -124.229
L213.21 -124.109
L212.511 -123.996
L211.812 -123.888
L211.659 -123.866
L211.113 -123.786
L210.414 -123.689
L209.714 -123.598
L209.015 -123.514
L208.316 -123.436
L207.617 -123.365
L206.917 -123.299
L206.218 -123.24
L205.519 -123.187
L204.892 -123.145
L204.82 -123.14
L204.12 -123.097
L203.421 -123.061
L202.722 -123.032
L202.023 -123.008
L201.323 -122.99
L200.624 -122.979
L199.925 -122.974
L199.226 -122.975
L198.526 -122.981
L197.827 -122.995
L197.128 -123.014
L196.429 -123.039
L195.729 -123.071
L195.03 -123.109
L194.464 -123.145
L194.331 -123.153
L193.632 -123.202
L192.932 -123.257
L192.233 -123.319
L191.534 -123.387
L190.835 -123.461
L190.135 -123.542
L189.436 -123.629
L188.737 -123.723
L188.038 -123.824
L187.759 -123.866
L187.338 -123.929
L186.639 -124.041
L185.94 -124.159
L185.241 -124.283
L184.541 -124.415
L183.842 -124.554
L183.679 -124.588
L183.143 -124.698
L182.444 -124.847
L181.744 -125.004
L181.045 -125.168
L180.469 -125.31
L180.346 -125.34
L179.647 -125.515
L178.947 -125.698
L178.248 -125.889
L177.743 -126.032
L177.549 -126.086
L176.85 -126.288
L176.15 -126.498
L175.451 -126.716
L175.335 -126.754
L174.752 -126.939
L174.053 -127.169
L173.353 -127.408
L173.161 -127.475
L172.654 -127.651
L171.955 -127.902
L171.256 -128.162
L171.163 -128.197
L170.556 -128.426
L169.857 -128.699
L169.31 -128.919
L169.158 -128.979
L168.459 -129.265
L167.759 -129.56
L167.574 -129.641
L167.06 -129.861
L166.361 -130.17
L165.937 -130.363
L165.662 -130.487
L164.962 -130.81
L164.387 -131.084
L164.263 -131.143
L163.564 -131.48
L162.91 -131.806
L162.865 -131.829
L162.165 -132.182
L161.501 -132.528
L161.466 -132.546
L160.767 -132.914
L160.15 -133.25
L160.068 -133.294
L159.368 -133.679
L158.852 -133.972
L158.669 -134.074
L157.97 -134.476
L157.602 -134.693
L157.271 -134.887
L156.571 -135.307
L156.395 -135.415
L155.872 -135.734
L155.229 -136.137
L155.173 -136.172
L154.474 -136.616
L154.1 -136.859
L153.774 -137.07
L153.075 -137.534
L153.006 -137.581
L152.376 -138.004
L151.943 -138.302
L151.677 -138.486
L150.977 -138.977
L150.911 -139.024
L150.278 -139.475
L149.906 -139.746
L149.579 -139.984
L148.928 -140.468
L148.88 -140.503
L148.18 -141.031
L147.974 -141.19
L147.481 -141.568
L147.043 -141.911
L146.782 -142.117
L146.136 -142.633
L146.083 -142.676
L145.383 -143.244
L145.249 -143.355
L144.684 -143.822
L144.382 -144.077
L143.985 -144.412
L143.534 -144.799
L143.286 -145.012
L142.704 -145.521
L142.586 -145.624
L141.893 -146.242
L141.887 -146.247
L141.188 -146.881
L141.097 -146.964
L140.489 -147.526
L140.317 -147.686
L139.789 -148.183
L139.553 -148.408
L139.09 -148.852
L138.804 -149.13
L138.391 -149.533
L138.069 -149.851
L137.692 -150.227
L137.348 -150.573
L136.992 -150.933
L136.64 -151.295
L136.293 -151.653
L135.944 -152.017
L135.594 -152.386
L135.261 -152.739
L134.895 -153.132
L134.591 -153.46
L134.195 -153.892
L133.932 -154.182
L133.496 -154.666
L133.284 -154.904
L132.797 -155.455
L132.647 -155.626
L132.098 -156.259
L132.021 -156.348
L131.405 -157.069
L131.398 -157.077
L130.799 -157.791
L130.699 -157.911
L130.202 -158.513
L130 -158.76
L129.615 -159.235
L129.301 -159.627
L129.037 -159.957
L128.601 -160.51
L128.469 -160.678
L127.91 -161.4
L127.902 -161.411
L127.358 -162.122
L127.203 -162.328
L126.815 -162.844
L126.504 -163.264
L126.281 -163.566
L125.804 -164.22
L125.755 -164.287
L125.236 -165.009
L125.105 -165.194
L124.724 -165.731
L124.406 -166.188
L124.221 -166.453
L123.726 -167.175
L123.707 -167.204
L123.236 -167.896
L123.007 -168.239
L122.754 -168.618
L122.308 -169.299
L122.281 -169.34
L121.812 -170.062
L121.609 -170.379
L121.35 -170.784
L120.91 -171.485
L120.897 -171.505
L120.447 -172.227
L120.21 -172.615
L120.005 -172.949
L119.57 -173.671
L119.511 -173.77
L119.139 -174.393
L118.812 -174.953
L118.717 -175.115
L118.298 -175.836
L118.113 -176.163
L117.886 -176.558
L117.481 -177.28
L117.414 -177.402
L117.079 -178.002
L116.714 -178.672
L116.686 -178.724
L116.294 -179.445
L116.015 -179.973
L115.911 -180.167
L115.532 -180.889
L115.316 -181.308
L115.158 -181.611
L114.79 -182.333
L114.617 -182.679
L114.426 -183.054
L114.068 -183.776
L113.917 -184.086
L113.714 -184.498
L113.366 -185.22
L113.218 -185.533
L113.022 -185.942
L112.683 -186.663
L112.519 -187.021
L112.349 -187.385
L112.019 -188.107
L111.82 -188.554
L111.695 -188.829
L111.373 -189.551
L111.12 -190.134
L111.059 -190.272
L110.745 -190.994
L110.441 -191.716
L110.421 -191.763
L110.135 -192.438
L109.838 -193.16
L109.722 -193.447
L109.543 -193.881
L109.252 -194.603
L109.023 -195.188
L108.968 -195.325
L108.684 -196.047
L108.407 -196.769
L108.323 -196.993
L108.132 -197.49
L107.862 -198.212
L107.624 -198.865
L107.598 -198.934
L107.334 -199.656
L107.076 -200.378
L106.925 -200.812
L106.822 -201.099
L106.57 -201.821
L106.324 -202.543
L106.226 -202.839
L106.08 -203.265
L105.84 -203.987
L105.605 -204.708
L105.526 -204.957
L105.372 -205.43
L105.142 -206.152
L104.918 -206.874
L104.827 -207.175
L104.696 -207.596
L104.476 -208.318
L104.263 -209.039
L104.128 -209.506
L104.052 -209.761
L103.842 -210.483
L103.637 -211.205
L103.438 -211.927
L103.429 -211.963
L103.238 -212.648
L103.042 -213.37
L102.852 -214.092
L102.729 -214.568
L102.664 -214.814
L102.477 -215.536
L102.294 -216.257
L102.117 -216.979
L102.03 -217.342
L101.941 -217.701
L101.767 -218.423
L101.597 -219.145
L101.431 -219.866
L101.331 -220.318
L101.268 -220.588
L101.106 -221.31
L100.947 -222.032
L100.793 -222.754
L100.644 -223.475
L100.632 -223.535
L100.492 -224.197
L100.345 -224.919
L100.202 -225.641
L100.062 -226.363
L99.9323 -227.055
L99.9266 -227.084
L99.7892 -227.806
L99.6557 -228.528
L99.5261 -229.25
L99.4001 -229.972
L99.2778 -230.693
L99.2331 -230.965
L99.1556 -231.415
L99.035 -232.137
L98.9179 -232.859
L98.8043 -233.581
L98.6941 -234.302
L98.5871 -235.024
L98.5338 -235.395
L98.4809 -235.746
L98.3755 -236.468
L98.2732 -237.19
L98.1741 -237.911
L98.0781 -238.633
L97.985 -239.355
L97.8949 -240.077
L97.8346 -240.576
L97.8062 -240.799
L97.7174 -241.521
L97.6315 -242.242
L97.5483 -242.964
L97.4678 -243.686
L97.3899 -244.408
L97.3146 -245.13
L97.2418 -245.851
L97.1715 -246.573
L97.1353 -246.958
L97.1018 -247.295
L97.0326 -248.017
L96.9658 -248.739
L96.9013 -249.46
L96.839 -250.182
L96.7789 -250.904
L96.7208 -251.626
L96.6648 -252.348
L96.6108 -253.069
L96.5587 -253.791
L96.5085 -254.513
L96.46 -255.235
L96.4361 -255.605
L96.4119 -255.957
L96.364 -256.678
L96.3179 -257.4
L96.2733 -258.122
L96.2301 -258.844
L96.1884 -259.566
L96.148 -260.287
L96.1089 -261.009
L96.0709 -261.731
L96.034 -262.453
L95.9981 -263.175
L95.963 -263.896
L95.9287 -264.618
L95.895 -265.34
L95.8619 -266.062
L95.8293 -266.784
L95.7969 -267.505
L95.7646 -268.227
L95.7368 -268.851
L95.732 -268.949
L95.6972 -269.671
L95.662 -270.393
L95.6261 -271.115
L95.5894 -271.836
L95.5516 -272.558
L95.5125 -273.28
L95.4718 -274.002
L95.4292 -274.724
L95.3842 -275.445
L95.3367 -276.167
L95.2861 -276.889
L95.232 -277.611
L95.1738 -278.333
L95.1111 -279.054
L95.0431 -279.776
L95.0376 -279.832
L94.9618 -280.498
L94.8719 -281.22
L94.7729 -281.942
L94.6635 -282.663
L94.5422 -283.385
L94.4073 -284.107
L94.3383 -284.444
L94.2442 -284.829
L94.0483 -285.551
L93.8252 -286.272
L93.6391 -286.806
L93.5557 -286.994
L93.1962 -287.716
L92.9398 -288.163
L92.7173 -288.438
L92.2406 -288.951
L91.9129 -289.16
L91.5413 -289.369
L90.8421 -289.521
L90.1428 -289.474
L89.4436 -289.266
L89.2335 -289.16
L88.7443 -288.923
L88.0451 -288.467
L88.0094 -288.438
L87.3458 -287.908
L87.1433 -287.716
L86.6466 -287.26
L86.3981 -286.994
L85.9473 -286.528
L85.7313 -286.272
L85.2481 -285.718
L85.1186 -285.551
L84.5488 -284.834
L84.5448 -284.829
L84.0211 -284.107
L83.8496 -283.877
L83.519 -283.385
L83.1503 -282.85
L83.0329 -282.663
L82.5723 -281.942
L82.4511 -281.755
L82.1338 -281.22
L81.7519 -280.59
L81.7006 -280.498
L81.2946 -279.776
L81.0526 -279.353
L80.8944 -279.054
L80.5083 -278.333
L80.3534 -278.046
L80.1351 -277.611
L79.7687 -276.889
L79.6541 -276.665
L79.4176 -276.167
L79.0705 -275.445
L78.9549 -275.206
L78.7374 -274.724
L78.4091 -274.002
L78.2556 -273.666
L78.0905 -273.28
L77.7804 -272.558
L77.5564 -272.04
L77.4736 -271.836
L77.181 -271.115
L76.8858 -270.393
L76.8571 -270.322
L76.6077 -269.671
L76.33 -268.949
L76.1579 -268.503
L76.058 -268.227
L75.7968 -267.505
L75.5345 -266.784
L75.4586 -266.574
L75.2839 -266.062
L75.0379 -265.34
L74.7915 -264.618
L74.7594 -264.524
L74.5587 -263.896
L74.328 -263.175
L74.0975 -262.453
L74.0601 -262.335
L73.8793 -261.731
L73.664 -261.009
L73.4493 -260.287
L73.3609 -259.988
L73.2428 -259.566
L73.0426 -258.844
L72.8435 -258.122
L72.6616 -257.459
L72.6464 -257.4
L72.461 -256.678
L72.277 -255.957
L72.0944 -255.235
L71.9624 -254.708
L71.9161 -254.513
L71.7468 -253.791
L71.5792 -253.069
L71.4134 -252.348
L71.2631 -251.686
L71.2501 -251.626
L71.0969 -250.904
L70.9456 -250.182
L70.7964 -249.46
L70.6494 -248.739
L70.5639 -248.312
L70.5076 -248.017
L70.3724 -247.295
L70.2395 -246.573
L70.109 -245.851
L69.9808 -245.13
L69.8646 -244.462
L69.8556 -244.408
L69.7385 -243.686
L69.6239 -242.964
L69.5119 -242.242
L69.4024 -241.521
L69.2955 -240.799
L69.1914 -240.077
L69.1654 -239.892
L69.0935 -239.355
L68.9996 -238.633
L68.9083 -237.911
L68.8197 -237.19
L68.7339 -236.468
L68.651 -235.746
L68.5708 -235.024
L68.4936 -234.302
L68.4661 -234.036
L68.4214 -233.581
L68.3532 -232.859
L68.2878 -232.137
L68.2253 -231.415
L68.1657 -230.693
L68.109 -229.972
L68.0552 -229.25
L68.0043 -228.528
L67.9564 -227.806
L67.9115 -227.084
L67.8696 -226.363
L67.8306 -225.641
L67.7947 -224.919
L67.7669 -224.308
L67.7621 -224.197
L67.7335 -223.475
L67.7078 -222.754
L67.685 -222.032
L67.6651 -221.31
L67.6482 -220.588
L67.6341 -219.866
L67.623 -219.145
L67.6148 -218.423
L67.6096 -217.701
L67.6072 -216.979
L67.6078 -216.257
L67.6112 -215.536
L67.6176 -214.814
L67.6269 -214.092
L67.639 -213.37
L67.654 -212.648
L67.6719 -211.927
L67.6926 -211.205
L67.7162 -210.483
L67.7426 -209.761
L67.7669 -209.161
L67.772 -209.039
L67.8053 -208.318
L67.8414 -207.596
L67.8804 -206.874
L67.9222 -206.152
L67.9669 -205.43
L68.0143 -204.708
L68.0646 -203.987
L68.1175 -203.265
L68.1733 -202.543
L68.2317 -201.821
L68.2928 -201.099
L68.3566 -200.378
L68.423 -199.656
L68.4661 -199.206
L68.493 -198.934
L68.5673 -198.212
L68.6442 -197.49
L68.7237 -196.769
L68.8058 -196.047
L68.8905 -195.325
L68.9777 -194.603
L69.0673 -193.881
L69.1595 -193.16
L69.1654 -193.115
L69.2572 -192.438
L69.3577 -191.716
L69.4605 -190.994
L69.5658 -190.272
L69.6734 -189.551
L69.7834 -188.829
L69.8646 -188.308
L69.8968 -188.107
L70.0153 -187.385
L70.1362 -186.663
L70.2592 -185.942
L70.3846 -185.22
L70.5121 -184.498
L70.5639 -184.211
L70.6444 -183.776
L70.7807 -183.054
L70.919 -182.333
L71.0595 -181.611
L71.202 -180.889
L71.2631 -180.585
L71.3494 -180.167
L71.5008 -179.445
L71.6541 -178.724
L71.8095 -178.002
L71.9624 -177.3
L71.9668 -177.28
L72.1312 -176.558
L72.2974 -175.836
L72.4654 -175.115
L72.6352 -174.393
L72.6616 -174.282
L72.8115 -173.671
L72.9903 -172.949
L73.1709 -172.227
L73.353 -171.505
L73.3609 -171.475
L73.5425 -170.784
L73.7338 -170.062
L73.9266 -169.34
L74.0601 -168.845
L74.1229 -168.618
L74.3249 -167.896
L74.5283 -167.175
L74.7331 -166.453
L74.7594 -166.362
L74.945 -165.731
L75.1589 -165.009
L75.3742 -164.287
L75.4586 -164.008
L75.5949 -163.566
L75.8193 -162.844
L76.0449 -162.122
L76.1579 -161.764
L76.2752 -161.4
L76.51 -160.678
L76.7458 -159.957
L76.8571 -159.619
L76.9865 -159.235
L77.2316 -158.513
L77.4775 -157.791
L77.5564 -157.562
L77.7294 -157.069
L77.9845 -156.348
L78.2404 -155.626
L78.2556 -155.584
L78.5043 -154.904
L78.7693 -154.182
L78.9549 -153.68
L79.0373 -153.46
L79.3115 -152.739
L79.5861 -152.017
L79.6541 -151.84
L79.8674 -151.295
L80.1512 -150.573
L80.3534 -150.061
L80.4377 -149.851
L80.7305 -149.13
L81.0236 -148.408
L81.0526 -148.337
L81.3247 -147.686
L81.6267 -146.964
L81.7519 -146.667
L81.9341 -146.242
L82.2451 -145.521
L82.4511 -145.044
L82.5591 -144.799
L82.8791 -144.077
L83.1503 -143.466
L83.2003 -143.355
L83.5291 -142.633
L83.8496 -141.93
L83.858 -141.911
L84.1957 -141.19
L84.533 -140.468
L84.5488 -140.434
L84.879 -139.746
L85.2251 -139.024
L85.2481 -138.977
L85.5796 -138.302
L85.9342 -137.581
L85.9473 -137.554
L86.2977 -136.859
L86.6466 -136.166
L86.6613 -136.137
L87.0337 -135.415
L87.3458 -134.81
L87.407 -134.693
L87.7879 -133.972
L88.0451 -133.485
L88.1712 -133.25
L88.5605 -132.528
L88.7443 -132.189
L88.9543 -131.806
L89.3519 -131.084
L89.4436 -130.919
L89.7565 -130.363
L90.1428 -129.676
L90.1628 -129.641
L90.5781 -128.919
L90.8421 -128.461
L90.996 -128.197
L91.4193 -127.475
L91.5413 -127.268
L91.849 -126.754
L92.2406 -126.099
L92.2814 -126.032
L92.7222 -125.31
L92.9398 -124.955
L93.1671 -124.588
L93.6158 -123.866
L93.6391 -123.829
L94.0736 -123.145
L94.3383 -122.728
L94.5349 -122.423
L95.0009 -121.701
L95.0376 -121.645
L95.4757 -120.979
L95.7368 -120.583
L95.9546 -120.257
L96.4361 -119.538
L96.4379 -119.536
L96.9309 -118.814
L97.1353 -118.515
L97.4286 -118.092
L97.8346 -117.508
L97.9313 -117.37
L98.4414 -116.648
L98.5338 -116.518
L98.9591 -115.927
L99.2331 -115.547
L99.4823 -115.205
L99.9323 -114.59
L100.011 -114.483
L100.548 -113.761
L100.632 -113.65
L101.093 -113.039
L101.331 -112.726
L101.645 -112.318
L102.03 -111.817
L102.202 -111.596
L102.729 -110.922
L102.767 -110.874
L103.341 -110.152
L103.429 -110.042
L103.923 -109.43
L104.128 -109.177
L104.512 -108.708
L104.827 -108.326
L105.109 -107.987
L105.526 -107.487
L105.714 -107.265
L106.226 -106.661
L106.327 -106.543
L106.925 -105.848
L106.948 -105.821
L107.579 -105.099
L107.624 -105.049
L108.22 -104.378
L108.323 -104.262
L108.869 -103.656
L109.023 -103.487
L109.528 -102.934
L109.722 -102.724
L110.197 -102.212
L110.421 -101.972
L110.875 -101.49
L111.12 -101.232
L111.564 -100.769
L111.82 -100.503
L112.262 -100.047
L112.519 -99.7847
L112.972 -99.325
L113.218 -99.0774
L113.693 -98.6032
L113.917 -98.3807
L114.425 -97.8814
L114.617 -97.6943
L115.169 -97.1596
L115.316 -97.0181
L115.924 -96.4378
L116.015 -96.3519
L116.692 -95.716
L116.714 -95.6954
L117.414 -95.0496
L117.474 -94.9942
L118.113 -94.4139
L118.27 -94.2724
L118.812 -93.7874
L119.079 -93.5506
L119.511 -93.17
L119.902 -92.8288
L120.21 -92.5615
L120.739 -92.107
L120.91 -91.9616
L121.591 -91.3852
L121.609 -91.3701
L122.308 -90.7896
L122.461 -90.6634
L123.007 -90.2175
L123.348 -89.9416
L123.707 -89.6534
L124.25 -89.2198
L124.406 -89.0969
L125.105 -88.549
L125.171 -88.498
L125.804 -88.0113
L126.113 -87.7762
L126.504 -87.4806
L127.072 -87.0544
L127.203 -86.9569
L127.902 -86.4423
L128.053 -86.3325
L128.601 -85.9364
L129.056 -85.6107
L129.301 -85.4369
L130 -84.9447
L130.08 -84.8889
L130.699 -84.4625
L131.131 -84.1671
L131.398 -83.986
L132.098 -83.5166
L132.205 -83.4453
L132.797 -83.0568
L133.308 -82.7235
L133.496 -82.6021
L134.195 -82.1558
L134.439 -82.0017
L134.895 -81.7171
L135.594 -81.283
L135.599 -81.2799
L136.293 -80.8598
L136.795 -80.5581
L136.992 -80.4408
L137.692 -80.0301
L138.025 -79.8363
L138.391 -79.6259
L139.09 -79.2279
L139.292 -79.1145
L139.789 -78.8381
L140.489 -78.4528
L140.599 -78.3927
L141.188 -78.0769
L141.887 -77.7045
L141.951 -77.6709
L142.586 -77.3421
L143.286 -76.9828
L143.352 -76.9491
L143.985 -76.6333
L144.684 -76.2871
L144.807 -76.2273
L145.383 -75.9501
L146.083 -75.6172
L146.321 -75.5055
L146.782 -75.2921
L147.481 -74.9725
L147.899 -74.7837
L148.18 -74.6587
L148.88 -74.3524
L149.55 -74.0619
L149.579 -74.0496
L150.278 -73.7566
L150.977 -73.4669
L151.289 -73.3401
L151.677 -73.1843
L152.376 -72.908
L153.075 -72.6353
L153.12 -72.6183
L153.774 -72.3721
L154.474 -72.1129
L155.067 -71.8965
L155.173 -71.8584
L155.872 -71.6126
L156.571 -71.3707
L157.148 -71.1747
L157.271 -71.1338
L157.97 -70.9053
L158.669 -70.6809
L159.368 -70.4606
L159.394 -70.4528
L160.068 -70.2493
L160.767 -70.0425
L161.466 -69.8399
L161.851 -69.731
L162.165 -69.6438
L162.865 -69.4545
L163.564 -69.2697
L164.263 -69.0893
L164.583 -69.0092
L164.962 -68.9158
L165.662 -68.7486
L166.361 -68.5861
L167.06 -68.4282
L167.703 -68.2874
L167.759 -68.2753
L168.459 -68.1304
L169.158 -67.9902
L169.857 -67.8548
L170.556 -67.7243
L171.256 -67.5986
L171.447 -67.5656
L171.955 -67.48
L172.654 -67.3671
L173.353 -67.2591
L174.053 -67.1561
L174.752 -67.0581
L175.451 -66.9652
L176.15 -66.8773
L176.434 -66.8438
L176.85 -66.7958" id="C0_0_27bbb6bdb5"/>
    </defs>
    <g clip-path="url(#p9ec8629a4e)">
     <use style="fill:#ffe135;" x="0.0" xlink:href="#C0_0_27bbb6bdb5" y="323.820625"/>
    </g>
   </g>
   <g id="LineCollection_1">
    <defs>
     <path d="
M103.429 -110.152
L268.451 -110.152" id="C1_0_94aea9c22a"/>
    </defs>
    <g clip-path="url(#p9ec8629a4e)">
     <use style="fill:none;stroke:#000000;" x="0.0" xlink:href="#C1_0_94aea9c22a" y="323.820625"/>
    </g>
   </g>
   <g id="LineCollection_2">
    <defs>
     <path d="
M143.286 -77.6709
L143.286 -144.799" id="C2_0_b3f41a06c3"/>
    </defs>
    <g clip-path="url(#p9ec8629a4e)">
     <use style="fill:none;stroke:#000000;" x="0.0" xlink:href="#C2_0_b3f41a06c3" y="323.820625"/>
    </g>
   </g>
   <g id="line2d_1">
    <defs>
     <path d="
M0 3
L0 -3" id="mca62528ba1" style="stroke:#000000;stroke-width:0.5;"/>
    </defs>
    <g clip-path="url(#p9ec8629a4e)">
     <use style="stroke:#000000;stroke-width:0.5;" x="103.428543233" xlink:href="#mca62528ba1" y="213.668529135"/>
    </g>
   </g>
   <g id="line2d_2">
    <g clip-path="url(#p9ec8629a4e)">
     <use style="stroke:#000000;stroke-width:0.5;" x="268.451099624" xlink:href="#mca62528ba1" y="213.668529135"/>
    </g>
   </g>
   <g id="line2d_3">
    <defs>
     <path d="
M3 1.83697e-16
L-3 -1.83697e-16" id="m81edfc9aba" style="stroke:#000000;stroke-width:0.5;"/>
    </defs>
    <g clip-path="url(#p9ec8629a4e)">
     <use style="stroke:#000000;stroke-width:0.5;" x="143.28568609" xlink:href="#m81edfc9aba" y="246.149732143"/>
    </g>
   </g>
   <g id="line2d_4">
    <g clip-path="url(#p9ec8629a4e)">
     <use style="stroke:#000000;stroke-width:0.5;" x="143.28568609" xlink:href="#m81edfc9aba" y="179.021912594"/>
    </g>
   </g>
   <g id="line2d_5">
    <path clip-path="url(#p9ec8629a4e)" d="
M143.286 213.669" style="fill:none;stroke:#000000;stroke-linecap:square;"/>
    <defs>
     <path d="
M0 3
C0.795609 3 1.55874 2.6839 2.12132 2.12132
C2.6839 1.55874 3 0.795609 3 0
C3 -0.795609 2.6839 -1.55874 2.12132 -2.12132
C1.55874 -2.6839 0.795609 -3 0 -3
C-0.795609 -3 -1.55874 -2.6839 -2.12132 -2.12132
C-2.6839 -1.55874 -3 -0.795609 -3 0
C-3 0.795609 -2.6839 1.55874 -2.12132 2.12132
C-1.55874 2.6839 -0.795609 3 0 3
z
" id="m8b0675cc3b" style="stroke:#000000;stroke-width:0.5;"/>
    </defs>
    <g clip-path="url(#p9ec8629a4e)">
     <use style="stroke:#000000;stroke-width:0.5;" x="143.28568609" xlink:href="#m8b0675cc3b" y="213.668529135"/>
    </g>
   </g>
   <g id="matplotlib.axis_1">
    <g id="xtick_1">
     <g id="line2d_6">
      <defs>
       <path d="
M0 0
L0 -4" id="m93b0483c22" style="stroke:#000000;stroke-width:0.5;"/>
      </defs>
      <g>
       <use style="stroke:#000000;stroke-width:0.5;" x="82.31125" xlink:href="#m93b0483c22" y="301.006875"/>
      </g>
     </g>
     <g id="line2d_7">
      <defs>
       <path d="
M0 0
L0 4" id="m741efc42ff" style="stroke:#000000;stroke-width:0.5;"/>
      </defs>
      <g>
       <use style="stroke:#000000;stroke-width:0.5;" x="82.31125" xlink:href="#m741efc42ff" y="13.006875"/>
      </g>
     </g>
     <g id="text_1">
      <!-- 0 -->
      <defs>
       <path d="
M31.7812 66.4062
Q24.1719 66.4062 20.3281 58.9062
Q16.5 51.4219 16.5 36.375
Q16.5 21.3906 20.3281 13.8906
Q24.1719 6.39062 31.7812 6.39062
Q39.4531 6.39062 43.2812 13.8906
Q47.125 21.3906 47.125 36.375
Q47.125 51.4219 43.2812 58.9062
Q39.4531 66.4062 31.7812 66.4062
M31.7812 74.2188
Q44.0469 74.2188 50.5156 64.5156
Q56.9844 54.8281 56.9844 36.375
Q56.9844 17.9688 50.5156 8.26562
Q44.0469 -1.42188 31.7812 -1.42188
Q19.5312 -1.42188 13.0625 8.26562
Q6.59375 17.9688 6.59375 36.375
Q6.59375 54.8281 13.0625 64.5156
Q19.5312 74.2188 31.7812 74.2188" id="BitstreamVeraSans-Roman-30"/>
      </defs>
      <g transform="translate(79.2878125 314.125)scale(0.12 -0.12)">
       <use xlink:href="#BitstreamVeraSans-Roman-30"/>
      </g>
     </g>
    </g>
    <g id="xtick_2">
     <g id="line2d_8">
      <g>
       <use style="stroke:#000000;stroke-width:0.5;" x="193.91125" xlink:href="#m93b0483c22" y="301.006875"/>
      </g>
     </g>
     <g id="line2d_9">
      <g>
       <use style="stroke:#000000;stroke-width:0.5;" x="193.91125" xlink:href="#m741efc42ff" y="13.006875"/>
      </g>
     </g>
     <g id="text_2">
      <!-- 2 -->
      <defs>
       <path d="
M19.1875 8.29688
L53.6094 8.29688
L53.6094 0
L7.32812 0
L7.32812 8.29688
Q12.9375 14.1094 22.625 23.8906
Q32.3281 33.6875 34.8125 36.5312
Q39.5469 41.8438 41.4219 45.5312
Q43.3125 49.2188 43.3125 52.7812
Q43.3125 58.5938 39.2344 62.25
Q35.1562 65.9219 28.6094 65.9219
Q23.9688 65.9219 18.8125 64.3125
Q13.6719 62.7031 7.8125 59.4219
L7.8125 69.3906
Q13.7656 71.7812 18.9375 73
Q24.125 74.2188 28.4219 74.2188
Q39.75 74.2188 46.4844 68.5469
Q53.2188 62.8906 53.2188 53.4219
Q53.2188 48.9219 51.5312 44.8906
Q49.8594 40.875 45.4062 35.4062
Q44.1875 33.9844 37.6406 27.2188
Q31.1094 20.4531 19.1875 8.29688" id="BitstreamVeraSans-Roman-32"/>
      </defs>
      <g transform="translate(191.134375 314.125)scale(0.12 -0.12)">
       <use xlink:href="#BitstreamVeraSans-Roman-32"/>
      </g>
     </g>
    </g>
    <g id="xtick_3">
     <g id="line2d_10">
      <g>
       <use style="stroke:#000000;stroke-width:0.5;" x="305.51125" xlink:href="#m93b0483c22" y="301.006875"/>
      </g>
     </g>
     <g id="line2d_11">
      <g>
       <use style="stroke:#000000;stroke-width:0.5;" x="305.51125" xlink:href="#m741efc42ff" y="13.006875"/>
      </g>
     </g>
     <g id="text_3">
      <!-- 4 -->
      <defs>
       <path d="
M37.7969 64.3125
L12.8906 25.3906
L37.7969 25.3906
z

M35.2031 72.9062
L47.6094 72.9062
L47.6094 25.3906
L58.0156 25.3906
L58.0156 17.1875
L47.6094 17.1875
L47.6094 0
L37.7969 0
L37.7969 17.1875
L4.89062 17.1875
L4.89062 26.7031
z
" id="BitstreamVeraSans-Roman-34"/>
      </defs>
      <g transform="translate(302.32375 314.125)scale(0.12 -0.12)">
       <use xlink:href="#BitstreamVeraSans-Roman-34"/>
      </g>
     </g>
    </g>
   </g>
   <g id="matplotlib.axis_2">
    <g id="ytick_1">
     <g id="line2d_12">
      <defs>
       <path d="
M0 0
L4 0" id="m728421d6d4" style="stroke:#000000;stroke-width:0.5;"/>
      </defs>
      <g>
       <use style="stroke:#000000;stroke-width:0.5;" x="26.51125" xlink:href="#m728421d6d4" y="301.006875"/>
      </g>
     </g>
     <g id="line2d_13">
      <defs>
       <path d="
M0 0
L-4 0" id="mcb0005524f" style="stroke:#000000;stroke-width:0.5;"/>
      </defs>
      <g>
       <use style="stroke:#000000;stroke-width:0.5;" x="305.51125" xlink:href="#mcb0005524f" y="301.006875"/>
      </g>
     </g>
     <g id="text_4">
      <!-- −1 -->
      <defs>
       <path d="
M10.5938 35.5
L73.1875 35.5
L73.1875 27.2031
L10.5938 27.2031
z
" id="BitstreamVeraSans-Roman-2212"/>
       <path d="
M12.4062 8.29688
L28.5156 8.29688
L28.5156 63.9219
L10.9844 60.4062
L10.9844 69.3906
L28.4219 72.9062
L38.2812 72.9062
L38.2812 8.29688
L54.3906 8.29688
L54.3906 0
L12.4062 0
z
" id="BitstreamVeraSans-Roman-31"/>
      </defs>
      <g transform="translate(7.2 304.318125)scale(0.12 -0.12)">
       <use xlink:href="#BitstreamVeraSans-Roman-2212"/>
       <use x="83.7890625" xlink:href="#BitstreamVeraSans-Roman-31"/>
      </g>
     </g>
    </g>
    <g id="ytick_2">
     <g id="line2d_14">
      <g>
       <use style="stroke:#000000;stroke-width:0.5;" x="26.51125" xlink:href="#m728421d6d4" y="229.006875"/>
      </g>
     </g>
     <g id="line2d_15">
      <g>
       <use style="stroke:#000000;stroke-width:0.5;" x="305.51125" xlink:href="#mcb0005524f" y="229.006875"/>
      </g>
     </g>
     <g id="text_5">
      <!-- 0 -->
      <g transform="translate(16.464375 232.318125)scale(0.12 -0.12)">
       <use xlink:href="#BitstreamVeraSans-Roman-30"/>
      </g>
     </g>
    </g>
    <g id="ytick_3">
     <g id="line2d_16">
      <g>
       <use style="stroke:#000000;stroke-width:0.5;" x="26.51125" xlink:href="#m728421d6d4" y="157.006875"/>
      </g>
     </g>
     <g id="line2d_17">
      <g>
       <use style="stroke:#000000;stroke-width:0.5;" x="305.51125" xlink:href="#mcb0005524f" y="157.006875"/>
      </g>
     </g>
     <g id="text_6">
      <!-- 1 -->
      <g transform="translate(17.3025 160.318125)scale(0.12 -0.12)">
       <use xlink:href="#BitstreamVeraSans-Roman-31"/>
      </g>
     </g>
    </g>
    <g id="ytick_4">
     <g id="line2d_18">
      <g>
       <use style="stroke:#000000;stroke-width:0.5;" x="26.51125" xlink:href="#m728421d6d4" y="85.006875"/>
      </g>
     </g>
     <g id="line2d_19">
      <g>
       <use style="stroke:#000000;stroke-width:0.5;" x="305.51125" xlink:href="#mcb0005524f" y="85.006875"/>
      </g>
     </g>
     <g id="text_7">
      <!-- 2 -->
      <g transform="translate(16.9575 88.318125)scale(0.12 -0.12)">
       <use xlink:href="#BitstreamVeraSans-Roman-32"/>
      </g>
     </g>
    </g>
    <g id="ytick_5">
     <g id="line2d_20">
      <g>
       <use style="stroke:#000000;stroke-width:0.5;" x="26.51125" xlink:href="#m728421d6d4" y="13.006875"/>
      </g>
     </g>
     <g id="line2d_21">
      <g>
       <use style="stroke:#000000;stroke-width:0.5;" x="305.51125" xlink:href="#mcb0005524f" y="13.006875"/>
      </g>
     </g>
     <g id="text_8">
      <!-- 3 -->
      <defs>
       <path d="
M40.5781 39.3125
Q47.6562 37.7969 51.625 33
Q55.6094 28.2188 55.6094 21.1875
Q55.6094 10.4062 48.1875 4.48438
Q40.7656 -1.42188 27.0938 -1.42188
Q22.5156 -1.42188 17.6562 -0.515625
Q12.7969 0.390625 7.625 2.20312
L7.625 11.7188
Q11.7188 9.32812 16.5938 8.10938
Q21.4844 6.89062 26.8125 6.89062
Q36.0781 6.89062 40.9375 10.5469
Q45.7969 14.2031 45.7969 21.1875
Q45.7969 27.6406 41.2812 31.2656
Q36.7656 34.9062 28.7188 34.9062
L20.2188 34.9062
L20.2188 43.0156
L29.1094 43.0156
Q36.375 43.0156 40.2344 45.9219
Q44.0938 48.8281 44.0938 54.2969
Q44.0938 59.9062 40.1094 62.9062
Q36.1406 65.9219 28.7188 65.9219
Q24.6562 65.9219 20.0156 65.0312
Q15.375 64.1562 9.8125 62.3125
L9.8125 71.0938
Q15.4375 72.6562 20.3438 73.4375
Q25.25 74.2188 29.5938 74.2188
Q40.8281 74.2188 47.3594 69.1094
Q53.9062 64.0156 53.9062 55.3281
Q53.9062 49.2656 50.4375 45.0938
Q46.9688 40.9219 40.5781 39.3125" id="BitstreamVeraSans-Roman-33"/>
      </defs>
      <g transform="translate(16.753125 16.318125)scale(0.12 -0.12)">
       <use xlink:href="#BitstreamVeraSans-Roman-33"/>
      </g>
     </g>
    </g>
   </g>
   <g id="patch_3">
    <path d="
M26.5112 13.0069
L305.511 13.0069" style="fill:none;stroke:#000000;"/>
   </g>
   <g id="patch_4">
    <path d="
M305.511 301.007
L305.511 13.0069" style="fill:none;stroke:#000000;"/>
   </g>
   <g id="patch_5">
    <path d="
M26.5112 301.007
L305.511 301.007" style="fill:none;stroke:#000000;"/>
   </g>
   <g id="patch_6">
    <path d="
M26.5113 301.007
L26.5113 13.0069" style="fill:none;stroke:#000000;"/>
   </g>
  </g>
 </g>
 <defs>
  <clipPath id="p9ec8629a4e">
   <rect height="288.0" width="279.0" x="26.51125" y="13.006875"/>
  </clipPath>
 </defs>
</svg>
