<?xml version="1.0" encoding="utf-8" standalone="no"?>
<!DOCTYPE svg PUBLIC "-//W3C//DTD SVG 1.1//EN"
  "http://www.w3.org/Graphics/SVG/1.1/DTD/svg11.dtd">
<!-- Created with matplotlib (http://matplotlib.org/) -->
<svg height="282pt" version="1.1" viewBox="0 0 278 282" width="278pt" xmlns="http://www.w3.org/2000/svg" xmlns:xlink="http://www.w3.org/1999/xlink">
 <defs>
  <style type="text/css">
*{stroke-linecap:butt;stroke-linejoin:round;}
  </style>
 </defs>
 <g id="figure_1">
  <g id="patch_1">
   <path d="
M0 282.834
L278.936 282.834
L278.936 0
L0 0
z
" style="fill:#ffffff;"/>
  </g>
  <g id="axes_1">
   <g id="patch_2">
    <path d="
M41.5313 243.407
L264.731 243.407
L264.731 13.0069
L41.5313 13.0069
z
" style="fill:#ffffff;"/>
   </g>
   <g id="LineCollection_1">
    <defs>
     <path d="
M75.3274 -39.4275
L75.3316 -41.7548
L75.3365 -44.082
L75.3421 -46.4093
L75.3433 -46.8731" id="C0_0_e795659bec"/>
     <path d="
M75.5183 -73.8724
L75.5241 -74.3366
L75.5576 -76.6639
L75.5961 -78.9911
L75.6403 -81.3184
L75.6911 -83.6457
L75.7494 -85.973
L75.8164 -88.3002
L75.8934 -90.6275
L75.9817 -92.9548
L76.0832 -95.282
L76.1997 -97.6093
L76.3333 -99.9366
L76.4867 -102.264
L76.6626 -104.591
L76.8643 -106.918
L77.0954 -109.246
L77.3602 -111.573
L77.604 -113.446
L77.6622 -113.9
L78.0021 -116.227
L78.3903 -118.555
L78.8333 -120.882
L79.3383 -123.209
L79.8585 -125.317
L79.9125 -125.537
L80.5547 -127.864
L81.2827 -130.191
L82.1066 -132.518
L82.1131 -132.535
L83.0232 -134.846
L84.054 -137.173
L84.3676 -137.813
L85.2012 -139.5
L86.4786 -141.827
L86.6222 -142.067
L87.8916 -144.155
L88.8767 -145.632
L89.4552 -146.482
L91.1312 -148.747
L91.1783 -148.809
L93.0755 -151.137
L93.3858 -151.49
L95.164 -153.464
L95.6403 -153.957
L97.4633 -155.791
L97.8949 -156.198
L99.9978 -158.118
L100.149 -158.248
L102.404 -160.124
L102.805 -160.446
L104.659 -161.85
L105.92 -162.773
L106.913 -163.458
L109.168 -164.962
L109.382 -165.1
L111.422 -166.341
L113.264 -167.427
L113.677 -167.657
L115.931 -168.868
L117.63 -169.755
L118.186 -170.03
L120.44 -171.101
L122.547 -172.082
L122.695 -172.147
L124.949 -173.095
L127.204 -174.026
L128.162 -174.409
L129.459 -174.899
L131.713 -175.718
L133.968 -176.535
L134.554 -176.737
L136.222 -177.276
L138.477 -177.978
L140.731 -178.685
L141.973 -179.064
L142.986 -179.348
L145.24 -179.922
L147.495 -180.484
L149.749 -181.061
L151.114 -181.391
L152.004 -181.566
L154.259 -181.788
L156.192 -181.391
L154.793 -179.064
L154.259 -178.601
L152.775 -176.737
L152.004 -176.012
L150.684 -174.409
L149.749 -173.462
L148.619 -172.082
L147.495 -170.841
L146.635 -169.755
L145.24 -168.056
L144.771 -167.427
L143.049 -165.1
L142.986 -165.014
L141.388 -162.773
L140.731 -161.74
L139.916 -160.446
L138.633 -158.118
L138.477 -157.816
L137.402 -155.791
L136.381 -153.464
L136.222 -153.074
L135.385 -151.137
L134.525 -148.809
L133.968 -147.094
L133.752 -146.482
L132.973 -144.155
L132.287 -141.827
L131.713 -139.666
L131.664 -139.5
L130.988 -137.173
L130.38 -134.846
L129.83 -132.518
L129.459 -130.803
L129.307 -130.191
L128.765 -127.864
L128.281 -125.537
L127.852 -123.209
L127.471 -120.882
L127.204 -119.046
L127.12 -118.555
L126.758 -116.227
L126.441 -113.9
L126.164 -111.573
L125.922 -109.246
L125.71 -106.918
L125.525 -104.591
L125.364 -102.264
L125.224 -99.9366
L125.101 -97.6093
L124.995 -95.282
L124.949 -94.15
L124.891 -92.9548
L124.792 -90.6275
L124.706 -88.3002
L124.631 -85.973
L124.566 -83.6457
L124.509 -81.3184
L124.46 -78.9911
L124.417 -76.6639
L124.38 -74.3366
L124.347 -72.0093
L124.319 -69.682
L124.295 -67.3548
L124.273 -65.0275
L124.255 -62.7002
L124.239 -60.373
L124.225 -58.0457
L124.213 -55.7184
L124.202 -53.3911
L124.193 -51.0639
L124.185 -48.7366
L124.178 -46.4093
L124.172 -44.082
L124.166 -41.7548
L124.162 -39.4275" id="C0_1_90de629d5c"/>
     <path d="
M187.135 -269.827
L187.135 -267.5
L187.135 -265.173
L187.135 -262.846
L187.135 -260.518
L187.135 -260.055" id="C0_2_a6db023cbb"/>
     <path d="
M187.135 -233.055
L187.135 -232.591
L187.135 -230.264
L187.135 -227.937
L187.135 -225.609
L187.135 -223.282
L187.134 -220.955
L187.129 -218.627
L187.11 -216.3
L187.043 -213.973
L186.85 -211.646
L186.388 -209.318
L185.822 -207.887
L185.461 -206.991
L183.92 -204.664
L183.568 -204.272
L181.768 -202.337
L181.313 -201.907
L179.182 -200.009
L179.059 -199.897
L176.804 -198.008
L176.382 -197.682
L174.549 -196.097
L173.568 -195.355
L172.295 -194.14
L170.87 -193.027
L170.04 -192.087
L168.376 -190.7
L167.786 -189.772
L166.274 -188.373
L167.786 -186.829
L170.04 -187.003
L172.295 -187.319
L174.549 -187.654
L176.804 -187.986
L179.059 -188.31
L179.431 -188.373
L181.313 -188.792
L183.568 -189.254
L185.822 -189.671
L188.077 -190.057
L190.331 -190.418
L192.13 -190.7
L192.586 -190.794
L194.84 -191.29
L197.095 -191.746
L199.349 -192.17
L201.604 -192.57
L203.859 -192.949
L204.297 -193.027
L206.113 -193.464
L208.368 -193.986
L210.622 -194.477
L212.877 -194.942
L214.952 -195.355
L215.131 -195.405
L217.386 -196.081
L219.64 -196.717
L221.895 -197.32
L223.248 -197.682
L224.149 -198.044
L226.404 -198.965
L228.659 -199.83
L229.104 -200.009
L230.913 -201.19
L232.713 -202.337
L233.168 -202.863
L234.622 -204.664
L235.422 -206.678
L235.531 -206.991
L235.838 -209.318
L235.941 -211.646
L235.971 -213.973
L235.979 -216.3
L235.981 -218.627
L235.981 -220.955
L235.981 -223.282
L235.981 -225.609
L235.981 -227.937
L235.981 -230.264
L235.981 -232.591
L235.981 -234.918
L235.981 -237.246
L235.981 -239.573
L235.981 -241.9
L235.981 -244.227
L235.981 -246.555
L235.981 -248.882
L235.981 -251.209
L235.981 -253.537
L235.981 -255.864
L235.981 -258.191
L235.981 -260.518
L235.981 -262.846
L235.981 -265.173
L235.981 -267.5
L235.981 -269.827" id="C0_3_8b425578f2"/>
    </defs>
    <g clip-path="url(#pdbeca97742)">
     <use style="fill:none;stroke:#1a1a1a;stroke-width:3;" x="0.0" xlink:href="#C0_0_e795659bec" y="282.834375"/>
    </g>
    <g clip-path="url(#pdbeca97742)">
     <use style="fill:none;stroke:#1a1a1a;stroke-width:3;" x="0.0" xlink:href="#C0_1_90de629d5c" y="282.834375"/>
    </g>
    <g clip-path="url(#pdbeca97742)">
     <use style="fill:none;stroke:#1a1a1a;stroke-width:3;" x="0.0" xlink:href="#C0_2_a6db023cbb" y="282.834375"/>
    </g>
    <g clip-path="url(#pdbeca97742)">
     <use style="fill:none;stroke:#1a1a1a;stroke-width:3;" x="0.0" xlink:href="#C0_3_8b425578f2" y="282.834375"/>
    </g>
   </g>
   <g id="LineCollection_2">
    <defs>
     <path d="
M94.9428 -39.4275
L94.9479 -41.7548
L94.9508 -42.8912" id="C1_0_c009725a93"/>
     <path d="
M95.058 -63.8909
L95.0681 -65.0275
L95.092 -67.3548
L95.1194 -69.682
L95.151 -72.0093
L95.1872 -74.3366
L95.2288 -76.6639
L95.2765 -78.9911
L95.3314 -81.3184
L95.3943 -83.6457
L95.4666 -85.973
L95.5495 -88.3002
L95.6403 -90.523
L95.6451 -90.6275
L95.7666 -92.9548
L95.9054 -95.282
L96.0641 -97.6093
L96.2451 -99.9366
L96.4517 -102.264
L96.6871 -104.591
L96.9552 -106.918
L97.2602 -109.246
L97.6069 -111.573
L97.8949 -113.272
L98.0144 -113.9
L98.5156 -116.227
L99.0777 -118.555
L99.7075 -120.882
L100.149 -122.334
L100.452 -123.209
L101.347 -125.537
L102.33 -127.864
L102.404 -128.022
L103.582 -130.191
L104.659 -132.035
L104.998 -132.518
L106.741 -134.846
L106.913 -135.06
L109.013 -137.173
L109.168 -137.322
L111.422 -138.891
L113.007 -139.5
L113.677 -139.757
L115.931 -139.533
L115.972 -139.5
L117.77 -137.173
L118.186 -136.073
L118.407 -134.846
L118.602 -132.518
L118.638 -130.191
L118.578 -127.864
L118.462 -125.537
L118.316 -123.209
L118.186 -121.322
L118.145 -120.882
L117.919 -118.555
L117.703 -116.227
L117.502 -113.9
L117.317 -111.573
L117.15 -109.246
L116.999 -106.918
L116.865 -104.591
L116.746 -102.264
L116.64 -99.9366
L116.547 -97.6093
L116.465 -95.282
L116.392 -92.9548
L116.329 -90.6275
L116.273 -88.3002
L116.225 -85.973
L116.182 -83.6457
L116.145 -81.3184
L116.113 -78.9911
L116.085 -76.6639
L116.06 -74.3366
L116.039 -72.0093
L116.02 -69.682
L116.003 -67.3548
L115.989 -65.0275
L115.977 -62.7002
L115.966 -60.373
L115.957 -58.0457
L115.948 -55.7184
L115.941 -53.3911
L115.935 -51.0639
L115.931 -49.37
L115.929 -48.7366
L115.923 -46.4093
L115.917 -44.082
L115.912 -41.7548
L115.908 -39.4275" id="C1_1_b72c7b2aff"/>
     <path d="
M206.749 -269.827
L206.749 -267.5
L206.749 -266.364" id="C1_2_f3c6cb7b3c"/>
     <path d="
M206.749 -245.364
L206.749 -244.227
L206.749 -241.9
L206.749 -239.573
L206.749 -237.246
L206.749 -234.918
L206.749 -232.591
L206.749 -230.264
L206.749 -227.937
L206.749 -225.609
L206.749 -223.282
L206.748 -220.955
L206.742 -218.627
L206.718 -216.3
L206.637 -213.973
L206.408 -211.646
L206.113 -210.348
L205.899 -209.318
L205 -206.991
L203.859 -204.957
L203.698 -204.664
L202.46 -202.337
L202.269 -200.009
L203.859 -199.149
L206.113 -198.638
L208.368 -198.544
L210.622 -198.679
L212.877 -198.952
L215.131 -199.314
L217.386 -199.734
L218.65 -200.009
L219.64 -200.397
L221.895 -201.369
L224.149 -202.323
L224.178 -202.337
L226.404 -204.473
L226.588 -204.664
L227.43 -206.991
L227.657 -209.318
L227.673 -211.646
L227.655 -213.973
L227.644 -216.3
L227.64 -218.627
L227.638 -220.955
L227.638 -223.282
L227.638 -225.609
L227.638 -227.937
L227.638 -230.264
L227.638 -232.591
L227.638 -234.918
L227.638 -237.246
L227.638 -239.573
L227.638 -241.9
L227.638 -244.227
L227.638 -246.555
L227.638 -248.882
L227.638 -251.209
L227.638 -253.537
L227.638 -255.864
L227.638 -258.191
L227.638 -260.518
L227.638 -262.846
L227.638 -265.173
L227.638 -267.5
L227.638 -269.827" id="C1_3_8a990c2247"/>
    </defs>
    <g clip-path="url(#pdbeca97742)">
     <use style="fill:none;stroke:#e48066;stroke-width:3;" x="0.0" xlink:href="#C1_0_c009725a93" y="282.834375"/>
    </g>
    <g clip-path="url(#pdbeca97742)">
     <use style="fill:none;stroke:#e48066;stroke-width:3;" x="0.0" xlink:href="#C1_1_b72c7b2aff" y="282.834375"/>
    </g>
    <g clip-path="url(#pdbeca97742)">
     <use style="fill:none;stroke:#e48066;stroke-width:3;" x="0.0" xlink:href="#C1_2_f3c6cb7b3c" y="282.834375"/>
    </g>
    <g clip-path="url(#pdbeca97742)">
     <use style="fill:none;stroke:#e48066;stroke-width:3;" x="0.0" xlink:href="#C1_3_8a990c2247" y="282.834375"/>
    </g>
   </g>
   <g id="LineCollection_3">
    <defs>
     <path d="
M101.483 -39.4275
L101.49 -41.7548
L101.497 -44.082
L101.505 -46.4093
L101.515 -48.7366
L101.526 -51.0639
L101.539 -53.3911
L101.554 -55.7184
L101.571 -58.0457
L101.591 -60.373
L101.613 -62.7002
L101.639 -65.0275
L101.669 -67.3548
L101.702 -69.682
L101.741 -72.0093
L101.786 -74.3366
L101.837 -76.6639
L101.895 -78.9911
L101.962 -81.3184
L102.038 -83.6457
L102.126 -85.973
L102.226 -88.3002
L102.34 -90.6275
L102.404 -91.7759
L102.5 -92.9548
L102.713 -95.282
L102.952 -97.6093
L103.218 -99.9366
L103.515 -102.264
L103.844 -104.591
L104.209 -106.918
L104.614 -109.246
L104.659 -109.471
L105.323 -111.573
L106.085 -113.9
L106.873 -116.227
L106.913 -116.334
L108.717 -118.555
L109.168 -119.144
L109.984 -118.555
L111.422 -116.388
L111.444 -116.227
L111.645 -113.9
L111.753 -111.573
L111.804 -109.246
L111.82 -106.918
L111.815 -104.591
L111.799 -102.264
L111.775 -99.9366
L111.748 -97.6093
L111.72 -95.282
L111.693 -92.9548
L111.667 -90.6275
L111.642 -88.3002
L111.631 -87.1635" id="C2_0_4c16e185ad"/>
     <path d="
M111.502 -66.164
L111.498 -65.0275
L111.491 -62.7002
L111.485 -60.373
L111.48 -58.0457
L111.475 -55.7184
L111.471 -53.3911
L111.467 -51.0639
L111.464 -48.7366
L111.462 -46.4093
L111.459 -44.082
L111.457 -41.7548
L111.455 -39.4275" id="C2_1_80cd6c0319"/>
     <path d="
M213.242 -269.827
L213.242 -267.5
L213.242 -265.173
L213.242 -262.846
L213.242 -260.518
L213.242 -258.191
L213.242 -255.864
L213.242 -253.537
L213.242 -251.209
L213.242 -248.882
L213.242 -246.555
L213.242 -244.227
L213.242 -241.9
L213.242 -239.573
L213.242 -237.246
L213.242 -234.918
L213.242 -232.591
L213.242 -230.264
L213.242 -227.937
L213.242 -225.609
L213.241 -223.282
L213.24 -220.955
L213.23 -218.627
L213.189 -216.3
L213.052 -213.973
L212.877 -212.903
L212.727 -211.646
L212.102 -209.318
L210.977 -206.991
L210.622 -206.374
L209.749 -204.664
L209.342 -202.337
L210.622 -201.638
L212.877 -201.28
L215.131 -201.42
L217.386 -201.818
L219.507 -202.337
L219.64 -202.414
L221.895 -204.077
L222.611 -204.664
L223.511 -206.991
L223.534 -209.318
L223.345 -211.646
L223.214 -213.973
L223.158 -216.3
L223.14 -218.627
L223.136 -220.955
L223.135 -223.282
L223.135 -225.609
L223.135 -227.937
L223.135 -230.264
L223.135 -232.591
L223.135 -234.918
L223.135 -237.246
L223.135 -238.382" id="C2_2_00281e0f1d"/>
     <path d="
M223.135 -259.382
L223.135 -260.518
L223.135 -262.846
L223.135 -265.173
L223.135 -267.5
L223.135 -269.827" id="C2_3_9ca63751ea"/>
    </defs>
    <g clip-path="url(#pdbeca97742)">
     <use style="fill:none;stroke:#a51429;stroke-width:3;" x="0.0" xlink:href="#C2_0_4c16e185ad" y="282.834375"/>
    </g>
    <g clip-path="url(#pdbeca97742)">
     <use style="fill:none;stroke:#a51429;stroke-width:3;" x="0.0" xlink:href="#C2_1_80cd6c0319" y="282.834375"/>
    </g>
    <g clip-path="url(#pdbeca97742)">
     <use style="fill:none;stroke:#a51429;stroke-width:3;" x="0.0" xlink:href="#C2_2_00281e0f1d" y="282.834375"/>
    </g>
    <g clip-path="url(#pdbeca97742)">
     <use style="fill:none;stroke:#a51429;stroke-width:3;" x="0.0" xlink:href="#C2_3_9ca63751ea" y="282.834375"/>
    </g>
   </g>
   <g id="LineCollection_4">
    <defs/>
   </g>
   <g id="line2d_1">
    <defs>
     <path d="
M0 3
C0.795609 3 1.55874 2.6839 2.12132 2.12132
C2.6839 1.55874 3 0.795609 3 0
C3 -0.795609 2.6839 -1.55874 2.12132 -2.12132
C1.55874 -2.6839 0.795609 -3 0 -3
C-0.795609 -3 -1.55874 -2.6839 -2.12132 -2.12132
C-2.6839 -1.55874 -3 -0.795609 -3 0
C-3 0.795609 -2.6839 1.55874 -2.12132 2.12132
C-1.55874 2.6839 -0.795609 3 0 3
z
" id="m8b0675cc3b" style="stroke:#000000;stroke-width:0.5;"/>
    </defs>
    <g clip-path="url(#pdbeca97742)">
     <use style="stroke:#000000;stroke-width:0.5;" x="217.385795455" xlink:href="#m8b0675cc3b" y="78.1705113636"/>
    </g>
   </g>
   <g id="matplotlib.axis_1">
    <g id="xtick_1">
     <g id="line2d_2">
      <defs>
       <path d="
M0 0
L0 -4" id="m93b0483c22" style="stroke:#000000;stroke-width:0.5;"/>
      </defs>
      <g>
       <use style="stroke:#000000;stroke-width:0.5;" x="41.53125" xlink:href="#m93b0483c22" y="243.406875"/>
      </g>
     </g>
     <g id="line2d_3">
      <defs>
       <path d="
M0 0
L0 4" id="m741efc42ff" style="stroke:#000000;stroke-width:0.5;"/>
      </defs>
      <g>
       <use style="stroke:#000000;stroke-width:0.5;" x="41.53125" xlink:href="#m741efc42ff" y="13.006875"/>
      </g>
     </g>
     <g id="text_1">
      <!-- 40 -->
      <defs>
       <path d="
M31.7812 66.4062
Q24.1719 66.4062 20.3281 58.9062
Q16.5 51.4219 16.5 36.375
Q16.5 21.3906 20.3281 13.8906
Q24.1719 6.39062 31.7812 6.39062
Q39.4531 6.39062 43.2812 13.8906
Q47.125 21.3906 47.125 36.375
Q47.125 51.4219 43.2812 58.9062
Q39.4531 66.4062 31.7812 66.4062
M31.7812 74.2188
Q44.0469 74.2188 50.5156 64.5156
Q56.9844 54.8281 56.9844 36.375
Q56.9844 17.9688 50.5156 8.26562
Q44.0469 -1.42188 31.7812 -1.42188
Q19.5312 -1.42188 13.0625 8.26562
Q6.59375 17.9688 6.59375 36.375
Q6.59375 54.8281 13.0625 64.5156
Q19.5312 74.2188 31.7812 74.2188" id="BitstreamVeraSans-Roman-30"/>
       <path d="
M37.7969 64.3125
L12.8906 25.3906
L37.7969 25.3906
z

M35.2031 72.9062
L47.6094 72.9062
L47.6094 25.3906
L58.0156 25.3906
L58.0156 17.1875
L47.6094 17.1875
L47.6094 0
L37.7969 0
L37.7969 17.1875
L4.89062 17.1875
L4.89062 26.7031
z
" id="BitstreamVeraSans-Roman-34"/>
      </defs>
      <g transform="translate(34.588125 256.525)scale(0.12 -0.12)">
       <use xlink:href="#BitstreamVeraSans-Roman-34"/>
       <use x="63.623046875" xlink:href="#BitstreamVeraSans-Roman-30"/>
      </g>
     </g>
    </g>
    <g id="xtick_2">
     <g id="line2d_4">
      <g>
       <use style="stroke:#000000;stroke-width:0.5;" x="97.33125" xlink:href="#m93b0483c22" y="243.406875"/>
      </g>
     </g>
     <g id="line2d_5">
      <g>
       <use style="stroke:#000000;stroke-width:0.5;" x="97.33125" xlink:href="#m741efc42ff" y="13.006875"/>
      </g>
     </g>
     <g id="text_2">
      <!-- 41 -->
      <defs>
       <path d="
M12.4062 8.29688
L28.5156 8.29688
L28.5156 63.9219
L10.9844 60.4062
L10.9844 69.3906
L28.4219 72.9062
L38.2812 72.9062
L38.2812 8.29688
L54.3906 8.29688
L54.3906 0
L12.4062 0
z
" id="BitstreamVeraSans-Roman-31"/>
      </defs>
      <g transform="translate(90.54375 256.525)scale(0.12 -0.12)">
       <use xlink:href="#BitstreamVeraSans-Roman-34"/>
       <use x="63.623046875" xlink:href="#BitstreamVeraSans-Roman-31"/>
      </g>
     </g>
    </g>
    <g id="xtick_3">
     <g id="line2d_6">
      <g>
       <use style="stroke:#000000;stroke-width:0.5;" x="153.13125" xlink:href="#m93b0483c22" y="243.406875"/>
      </g>
     </g>
     <g id="line2d_7">
      <g>
       <use style="stroke:#000000;stroke-width:0.5;" x="153.13125" xlink:href="#m741efc42ff" y="13.006875"/>
      </g>
     </g>
     <g id="text_3">
      <!-- 42 -->
      <defs>
       <path d="
M19.1875 8.29688
L53.6094 8.29688
L53.6094 0
L7.32812 0
L7.32812 8.29688
Q12.9375 14.1094 22.625 23.8906
Q32.3281 33.6875 34.8125 36.5312
Q39.5469 41.8438 41.4219 45.5312
Q43.3125 49.2188 43.3125 52.7812
Q43.3125 58.5938 39.2344 62.25
Q35.1562 65.9219 28.6094 65.9219
Q23.9688 65.9219 18.8125 64.3125
Q13.6719 62.7031 7.8125 59.4219
L7.8125 69.3906
Q13.7656 71.7812 18.9375 73
Q24.125 74.2188 28.4219 74.2188
Q39.75 74.2188 46.4844 68.5469
Q53.2188 62.8906 53.2188 53.4219
Q53.2188 48.9219 51.5312 44.8906
Q49.8594 40.875 45.4062 35.4062
Q44.1875 33.9844 37.6406 27.2188
Q31.1094 20.4531 19.1875 8.29688" id="BitstreamVeraSans-Roman-32"/>
      </defs>
      <g transform="translate(146.390625 256.525)scale(0.12 -0.12)">
       <use xlink:href="#BitstreamVeraSans-Roman-34"/>
       <use x="63.623046875" xlink:href="#BitstreamVeraSans-Roman-32"/>
      </g>
     </g>
    </g>
    <g id="xtick_4">
     <g id="line2d_8">
      <g>
       <use style="stroke:#000000;stroke-width:0.5;" x="208.93125" xlink:href="#m93b0483c22" y="243.406875"/>
      </g>
     </g>
     <g id="line2d_9">
      <g>
       <use style="stroke:#000000;stroke-width:0.5;" x="208.93125" xlink:href="#m741efc42ff" y="13.006875"/>
      </g>
     </g>
     <g id="text_4">
      <!-- 43 -->
      <defs>
       <path d="
M40.5781 39.3125
Q47.6562 37.7969 51.625 33
Q55.6094 28.2188 55.6094 21.1875
Q55.6094 10.4062 48.1875 4.48438
Q40.7656 -1.42188 27.0938 -1.42188
Q22.5156 -1.42188 17.6562 -0.515625
Q12.7969 0.390625 7.625 2.20312
L7.625 11.7188
Q11.7188 9.32812 16.5938 8.10938
Q21.4844 6.89062 26.8125 6.89062
Q36.0781 6.89062 40.9375 10.5469
Q45.7969 14.2031 45.7969 21.1875
Q45.7969 27.6406 41.2812 31.2656
Q36.7656 34.9062 28.7188 34.9062
L20.2188 34.9062
L20.2188 43.0156
L29.1094 43.0156
Q36.375 43.0156 40.2344 45.9219
Q44.0938 48.8281 44.0938 54.2969
Q44.0938 59.9062 40.1094 62.9062
Q36.1406 65.9219 28.7188 65.9219
Q24.6562 65.9219 20.0156 65.0312
Q15.375 64.1562 9.8125 62.3125
L9.8125 71.0938
Q15.4375 72.6562 20.3438 73.4375
Q25.25 74.2188 29.5938 74.2188
Q40.8281 74.2188 47.3594 69.1094
Q53.9062 64.0156 53.9062 55.3281
Q53.9062 49.2656 50.4375 45.0938
Q46.9688 40.9219 40.5781 39.3125" id="BitstreamVeraSans-Roman-33"/>
      </defs>
      <g transform="translate(202.070625 256.525)scale(0.12 -0.12)">
       <use xlink:href="#BitstreamVeraSans-Roman-34"/>
       <use x="63.623046875" xlink:href="#BitstreamVeraSans-Roman-33"/>
      </g>
     </g>
    </g>
    <g id="xtick_5">
     <g id="line2d_10">
      <g>
       <use style="stroke:#000000;stroke-width:0.5;" x="264.73125" xlink:href="#m93b0483c22" y="243.406875"/>
      </g>
     </g>
     <g id="line2d_11">
      <g>
       <use style="stroke:#000000;stroke-width:0.5;" x="264.73125" xlink:href="#m741efc42ff" y="13.006875"/>
      </g>
     </g>
     <g id="text_5">
      <!-- 44 -->
      <g transform="translate(257.72625 256.525)scale(0.12 -0.12)">
       <use xlink:href="#BitstreamVeraSans-Roman-34"/>
       <use x="63.623046875" xlink:href="#BitstreamVeraSans-Roman-34"/>
      </g>
     </g>
    </g>
    <g id="text_6">
     <!-- $\log L$ -->
     <defs>
      <path d="
M25 -1.125
Q19 -1.125 13.8594 1.92188
Q8.73438 4.98438 5.75 10.1094
Q2.78125 15.2344 2.78125 21.2969
Q2.78125 25.875 4.42188 30.125
Q6.0625 34.375 9.10938 37.7188
Q12.1562 41.0625 16.2031 42.9375
Q20.2656 44.8281 25 44.8281
Q31.1562 44.8281 36.2031 41.5781
Q41.2656 38.3281 44.1875 32.875
Q47.125 27.4375 47.125 21.2969
Q47.125 15.2812 44.1406 10.125
Q41.1562 4.98438 36.0469 1.92188
Q30.9531 -1.125 25 -1.125
M25 1.8125
Q33.0156 1.8125 35.6875 7.60938
Q38.375 13.4219 38.375 22.4062
Q38.375 27.4375 37.8438 30.7344
Q37.3125 34.0312 35.5 36.7188
Q34.375 38.375 32.6406 39.625
Q30.9062 40.875 28.9688 41.5312
Q27.0469 42.1875 25 42.1875
Q21.875 42.1875 19.0625 40.7656
Q16.2656 39.3594 14.4062 36.7188
Q12.5469 33.8906 12.0312 30.4844
Q11.5312 27.0938 11.5312 22.4062
Q11.5312 16.7969 12.5 12.3281
Q13.4844 7.85938 16.4375 4.82812
Q19.3906 1.8125 25 1.8125" id="Cmr10-6f"/>
      <path d="
M2.78125 -7.8125
Q2.78125 -4.25 5.35938 -1.57812
Q7.95312 1.07812 11.5312 2.20312
Q9.51562 3.71875 8.46875 6
Q7.42188 8.29688 7.42188 10.8906
Q7.42188 15.5781 10.4062 19.1875
Q5.8125 23.6875 5.8125 29.5
Q5.8125 32.625 7.15625 35.3594
Q8.5 38.0938 10.8906 40.0938
Q13.2812 42.0938 16.2031 43.1406
Q19.1406 44.1875 22.2188 44.1875
Q28.1719 44.1875 32.9062 40.7188
Q34.9688 42.9219 37.7656 44.1094
Q40.5781 45.3125 43.6094 45.3125
Q45.75 45.3125 47.1094 43.7656
Q48.4844 42.2344 48.4844 40.0938
Q48.4844 38.875 47.5469 37.9375
Q46.625 37.0156 45.4062 37.0156
Q44.1406 37.0156 43.2031 37.9375
Q42.2812 38.875 42.2812 40.0938
Q42.2812 41.9375 43.5 42.6719
Q38.3281 42.6719 34.625 39.1094
Q36.4219 37.3125 37.5156 34.6875
Q38.625 32.0781 38.625 29.5
Q38.625 25.25 36.2812 21.8438
Q33.9375 18.4531 30.0938 16.5781
Q26.2656 14.7031 22.2188 14.7031
Q16.75 14.7031 12.2031 17.6719
Q10.7969 15.7188 10.7969 13.2812
Q10.7969 10.6406 12.5312 8.65625
Q14.2656 6.6875 16.8906 6.6875
L25.0938 6.6875
Q31.0625 6.6875 35.8438 5.60938
Q40.625 4.54688 43.875 1.3125
Q47.125 -1.90625 47.125 -7.8125
Q47.125 -12.2031 43.4062 -15.1094
Q39.7031 -18.0156 34.5469 -19.3125
Q29.3906 -20.6094 25 -20.6094
Q20.5625 -20.6094 15.375 -19.3125
Q10.2031 -18.0156 6.48438 -15.1094
Q2.78125 -12.2031 2.78125 -7.8125
M8.40625 -7.8125
Q8.40625 -11.1875 11.1406 -13.4531
Q13.875 -15.7188 17.7188 -16.8125
Q21.5781 -17.9219 25 -17.9219
Q28.375 -17.9219 32.2188 -16.8125
Q36.0781 -15.7188 38.7812 -13.4531
Q41.5 -11.1875 41.5 -7.8125
Q41.5 -2.59375 36.7188 -1.04688
Q31.9375 0.484375 25.0938 0.484375
L16.8906 0.484375
Q14.5938 0.484375 12.6719 -0.609375
Q10.75 -1.70312 9.57812 -3.6875
Q8.40625 -5.67188 8.40625 -7.8125
M22.2188 17.3906
Q30.7188 17.3906 30.7188 29.5
Q30.7188 34.7188 28.9062 38.1094
Q27.0938 41.5 22.2188 41.5
Q17.3281 41.5 15.5156 38.1094
Q13.7188 34.7188 13.7188 29.5
Q13.7188 26.1719 14.4062 23.4844
Q15.0938 20.7969 16.9375 19.0938
Q18.7969 17.3906 22.2188 17.3906" id="Cmr10-67"/>
      <path d="
M4.6875 0
Q3.71875 0 3.71875 1.3125
Q3.76562 1.5625 3.90625 2.17188
Q4.04688 2.78125 4.3125 3.14062
Q4.59375 3.51562 4.98438 3.51562
Q11.0781 3.51562 13.4844 4.20312
Q14.7969 4.64062 15.375 6.89062
L29.1094 61.8125
Q29.2969 62.7969 29.2969 63.1875
Q29.2969 64.2656 28.0781 64.4062
Q26.2188 64.7969 20.9062 64.7969
Q19.9219 64.7969 19.9219 66.1094
Q20.2656 67.3906 20.4531 67.8438
Q20.6562 68.3125 21.5781 68.3125
L51.125 68.3125
Q52 68.3125 52 67
Q51.8594 65.9688 51.6562 65.375
Q51.4688 64.7969 50.6875 64.7969
Q43.3125 64.7969 40.8281 64.3125
Q38.375 63.875 37.7969 61.375
L24.125 6.5
Q23.6875 5.28125 23.6875 4.29688
Q23.6875 3.51562 27.0938 3.51562
L36.375 3.51562
Q44.2344 3.51562 49.1094 6.64062
Q54 9.76562 56.3438 13.6875
Q58.6875 17.625 60.2656 21.8438
Q61.8594 26.0781 62.5938 26.2188
L63.4844 26.2188
Q64.5 26.2188 64.5 24.9062
L55.6094 0.6875
Q55.4688 0 54.6875 0
z
" id="Cmmi10-4c"/>
      <path d="
M3.07812 0
L3.07812 3.51562
Q6.5 3.51562 8.6875 4.04688
Q10.8906 4.59375 10.8906 6.6875
L10.8906 59.1875
Q10.8906 61.8594 10.0781 63.0625
Q9.28125 64.2656 7.76562 64.5312
Q6.25 64.7969 3.07812 64.7969
L3.07812 68.3125
L17.9219 69.3906
L17.9219 6.6875
Q17.9219 4.59375 20.1094 4.04688
Q22.3125 3.51562 25.6875 3.51562
L25.6875 0
z
" id="Cmr10-6c"/>
     </defs>
     <g transform="translate(141.37125 273.114375)scale(0.12 -0.12)">
      <use transform="translate(0.0 0.609375)" xlink:href="#Cmr10-6c"/>
      <use transform="translate(27.685546875 0.609375)" xlink:href="#Cmr10-6f"/>
      <use transform="translate(77.685546875 0.609375)" xlink:href="#Cmr10-67"/>
      <use transform="translate(127.685546875 0.609375)" xlink:href="#Cmmi10-4c"/>
     </g>
    </g>
   </g>
   <g id="matplotlib.axis_2">
    <g id="ytick_1">
     <g id="line2d_12">
      <defs>
       <path d="
M0 0
L4 0" id="m728421d6d4" style="stroke:#000000;stroke-width:0.5;"/>
      </defs>
      <g>
       <use style="stroke:#000000;stroke-width:0.5;" x="41.53125" xlink:href="#m728421d6d4" y="243.406875"/>
      </g>
     </g>
     <g id="line2d_13">
      <defs>
       <path d="
M0 0
L-4 0" id="mcb0005524f" style="stroke:#000000;stroke-width:0.5;"/>
      </defs>
      <g>
       <use style="stroke:#000000;stroke-width:0.5;" x="264.73125" xlink:href="#mcb0005524f" y="243.406875"/>
      </g>
     </g>
     <g id="text_7">
      <!-- 20 -->
      <g transform="translate(23.9375 246.718125)scale(0.12 -0.12)">
       <use xlink:href="#BitstreamVeraSans-Roman-32"/>
       <use x="63.623046875" xlink:href="#BitstreamVeraSans-Roman-30"/>
      </g>
     </g>
    </g>
    <g id="ytick_2">
     <g id="line2d_14">
      <g>
       <use style="stroke:#000000;stroke-width:0.5;" x="41.53125" xlink:href="#m728421d6d4" y="166.606875"/>
      </g>
     </g>
     <g id="line2d_15">
      <g>
       <use style="stroke:#000000;stroke-width:0.5;" x="264.73125" xlink:href="#mcb0005524f" y="166.606875"/>
      </g>
     </g>
     <g id="text_8">
      <!-- 22 -->
      <g transform="translate(24.3425 169.918125)scale(0.12 -0.12)">
       <use xlink:href="#BitstreamVeraSans-Roman-32"/>
       <use x="63.623046875" xlink:href="#BitstreamVeraSans-Roman-32"/>
      </g>
     </g>
    </g>
    <g id="ytick_3">
     <g id="line2d_16">
      <g>
       <use style="stroke:#000000;stroke-width:0.5;" x="41.53125" xlink:href="#m728421d6d4" y="89.806875"/>
      </g>
     </g>
     <g id="line2d_17">
      <g>
       <use style="stroke:#000000;stroke-width:0.5;" x="264.73125" xlink:href="#mcb0005524f" y="89.806875"/>
      </g>
     </g>
     <g id="text_9">
      <!-- 24 -->
      <g transform="translate(23.81375 93.118125)scale(0.12 -0.12)">
       <use xlink:href="#BitstreamVeraSans-Roman-32"/>
       <use x="63.623046875" xlink:href="#BitstreamVeraSans-Roman-34"/>
      </g>
     </g>
    </g>
    <g id="ytick_4">
     <g id="line2d_18">
      <g>
       <use style="stroke:#000000;stroke-width:0.5;" x="41.53125" xlink:href="#m728421d6d4" y="13.006875"/>
      </g>
     </g>
     <g id="line2d_19">
      <g>
       <use style="stroke:#000000;stroke-width:0.5;" x="264.73125" xlink:href="#mcb0005524f" y="13.006875"/>
      </g>
     </g>
     <g id="text_10">
      <!-- 26 -->
      <defs>
       <path d="
M33.0156 40.375
Q26.375 40.375 22.4844 35.8281
Q18.6094 31.2969 18.6094 23.3906
Q18.6094 15.5312 22.4844 10.9531
Q26.375 6.39062 33.0156 6.39062
Q39.6562 6.39062 43.5312 10.9531
Q47.4062 15.5312 47.4062 23.3906
Q47.4062 31.2969 43.5312 35.8281
Q39.6562 40.375 33.0156 40.375
M52.5938 71.2969
L52.5938 62.3125
Q48.875 64.0625 45.0938 64.9844
Q41.3125 65.9219 37.5938 65.9219
Q27.8281 65.9219 22.6719 59.3281
Q17.5312 52.7344 16.7969 39.4062
Q19.6719 43.6562 24.0156 45.9219
Q28.375 48.1875 33.5938 48.1875
Q44.5781 48.1875 50.9531 41.5156
Q57.3281 34.8594 57.3281 23.3906
Q57.3281 12.1562 50.6875 5.35938
Q44.0469 -1.42188 33.0156 -1.42188
Q20.3594 -1.42188 13.6719 8.26562
Q6.98438 17.9688 6.98438 36.375
Q6.98438 53.6562 15.1875 63.9375
Q23.3906 74.2188 37.2031 74.2188
Q40.9219 74.2188 44.7031 73.4844
Q48.4844 72.75 52.5938 71.2969" id="BitstreamVeraSans-Roman-36"/>
      </defs>
      <g transform="translate(23.89625 16.318125)scale(0.12 -0.12)">
       <use xlink:href="#BitstreamVeraSans-Roman-32"/>
       <use x="63.623046875" xlink:href="#BitstreamVeraSans-Roman-36"/>
      </g>
     </g>
    </g>
    <g id="text_11">
     <!-- $\log N_H$ -->
     <defs>
      <path d="
M4.6875 0
Q3.71875 0 3.71875 1.3125
Q3.76562 1.5625 3.90625 2.17188
Q4.04688 2.78125 4.3125 3.14062
Q4.59375 3.51562 4.98438 3.51562
Q14.5469 3.51562 16.1094 9.625
L29.6875 64.3125
Q26.9062 64.7969 20.9062 64.7969
Q19.9219 64.7969 19.9219 66.1094
Q19.9688 66.3594 20.1094 66.9688
Q20.2656 67.5781 20.5312 67.9375
Q20.7969 68.3125 21.1875 68.3125
L38.4844 68.3125
Q39.2031 68.3125 39.4062 67.6719
L61.625 14.7969
L72.7031 59.0781
Q72.9062 60.1562 72.9062 60.5938
Q72.9062 64.7969 65.1875 64.7969
Q64.2031 64.7969 64.2031 66.1094
Q64.5469 67.3906 64.7344 67.8438
Q64.9375 68.3125 65.9219 68.3125
L87.3125 68.3125
Q88.2812 68.3125 88.2812 67
Q88.2344 66.75 88.0781 66.1406
Q87.9375 65.5312 87.6719 65.1562
Q87.4062 64.7969 87.0156 64.7969
Q77.4375 64.7969 75.875 58.6875
L61.5312 0.875
Q61.1875 0 60.5 0
L59.2812 0
Q58.5938 0 58.4062 0.6875
L32.9062 61.1875
L32.7188 61.8125
Q32.5156 62.0156 32.5156 62.1094
L19.2812 9.1875
Q19.1875 8.9375 19.1406 8.5625
Q19.0938 8.20312 19 7.71875
Q19 5.125 21.2344 4.3125
Q23.4844 3.51562 26.8125 3.51562
Q27.7812 3.51562 27.7812 2.20312
Q27.4375 0.828125 27.1875 0.40625
Q26.9531 0 26.125 0
z
" id="Cmmi10-4e"/>
      <path d="
M4.6875 0
Q3.71875 0 3.71875 1.3125
Q3.76562 1.5625 3.90625 2.17188
Q4.04688 2.78125 4.3125 3.14062
Q4.59375 3.51562 4.98438 3.51562
Q11.0781 3.51562 13.4844 4.20312
Q14.7969 4.64062 15.375 6.89062
L29.1094 61.8125
Q29.2969 62.7969 29.2969 63.1875
Q29.2969 64.2656 28.0781 64.4062
Q26.2188 64.7969 20.9062 64.7969
Q19.9219 64.7969 19.9219 66.1094
Q20.2656 67.3906 20.4531 67.8438
Q20.6562 68.3125 21.5781 68.3125
L48.4844 68.3125
Q49.5156 68.3125 49.5156 67
Q49.4688 66.75 49.3125 66.1562
Q49.1719 65.5781 48.9219 65.1875
Q48.6875 64.7969 48.1875 64.7969
Q42.0938 64.7969 39.7031 64.1094
Q38.375 63.625 37.7969 61.375
L31.7812 37.3125
L61.8125 37.3125
L67.9219 61.8125
Q68.1094 62.7969 68.1094 63.1875
Q68.1094 64.2656 66.8906 64.4062
Q64.9844 64.7969 59.7188 64.7969
Q58.6875 64.7969 58.6875 66.1094
Q59.0312 67.3906 59.2188 67.8438
Q59.4219 68.3125 60.4062 68.3125
L87.3125 68.3125
Q88.2812 68.3125 88.2812 67
Q88.2344 66.75 88.0781 66.1406
Q87.9375 65.5312 87.6719 65.1562
Q87.4062 64.7969 87.0156 64.7969
Q80.9062 64.7969 78.5156 64.1094
Q77.2031 63.6719 76.6094 61.375
L62.8906 6.5
Q62.7031 5.51562 62.7031 5.07812
Q62.7031 4.04688 63.9219 3.90625
Q65.8281 3.51562 71.0938 3.51562
Q72.125 3.51562 72.125 2.20312
Q71.8281 1.03125 71.5312 0.515625
Q71.2344 0 70.4062 0
L43.5 0
Q42.4844 0 42.4844 1.3125
Q42.6719 2.04688 42.7656 2.39062
Q42.875 2.73438 43.1406 3.125
Q43.4062 3.51562 43.7969 3.51562
Q49.9062 3.51562 52.2969 4.20312
Q53.6094 4.64062 54.2031 6.89062
L60.8906 33.7969
L30.9062 33.7969
L24.125 6.5
Q23.875 5.28125 23.875 5.07812
Q23.875 4.04688 25.0938 3.90625
Q27 3.51562 32.3281 3.51562
Q33.2969 3.51562 33.2969 2.20312
Q32.9531 0.875 32.7344 0.4375
Q32.5156 0 31.5938 0
z
" id="Cmmi10-48"/>
     </defs>
     <g transform="translate(15.69375 145.726875)rotate(-90.0)scale(0.12 -0.12)">
      <use transform="translate(0.0 0.609375)" xlink:href="#Cmr10-6c"/>
      <use transform="translate(27.685546875 0.609375)" xlink:href="#Cmr10-6f"/>
      <use transform="translate(77.685546875 0.609375)" xlink:href="#Cmr10-67"/>
      <use transform="translate(127.685546875 0.609375)" xlink:href="#Cmmi10-4e"/>
      <use transform="translate(208.0078125 -24.9)scale(0.7)" xlink:href="#Cmmi10-48"/>
     </g>
    </g>
   </g>
   <g id="patch_3">
    <path d="
M41.5312 13.0069
L264.731 13.0069" style="fill:none;stroke:#000000;"/>
   </g>
   <g id="patch_4">
    <path d="
M264.731 243.407
L264.731 13.0069" style="fill:none;stroke:#000000;"/>
   </g>
   <g id="patch_5">
    <path d="
M41.5312 243.407
L264.731 243.407" style="fill:none;stroke:#000000;"/>
   </g>
   <g id="patch_6">
    <path d="
M41.5313 243.407
L41.5313 13.0069" style="fill:none;stroke:#000000;"/>
   </g>
   <g id="text_12">
    <g clip-path="url(#pdbeca97742)">
     <!-- -12 -->
     <defs>
      <path d="
M4.89062 31.3906
L31.2031 31.3906
L31.2031 23.3906
L4.89062 23.3906
z
" id="BitstreamVeraSans-Roman-2d"/>
     </defs>
     <g style="fill:#1a1a1a;" transform="translate(78.1112487061 229.899222887)rotate(-89.6501860841)scale(0.1 -0.1)">
      <use xlink:href="#BitstreamVeraSans-Roman-2d"/>
      <use x="36.083984375" xlink:href="#BitstreamVeraSans-Roman-31"/>
      <use x="99.70703125" xlink:href="#BitstreamVeraSans-Roman-32"/>
     </g>
    </g>
   </g>
   <g id="text_13">
    <g clip-path="url(#pdbeca97742)">
     <!-- -12 -->
     <g style="fill:#1a1a1a;" transform="translate(184.375355367 28.8585085227)rotate(-270.0)scale(0.1 -0.1)">
      <use xlink:href="#BitstreamVeraSans-Roman-2d"/>
      <use x="36.083984375" xlink:href="#BitstreamVeraSans-Roman-31"/>
      <use x="99.70703125" xlink:href="#BitstreamVeraSans-Roman-32"/>
     </g>
    </g>
   </g>
   <g id="text_14">
    <g clip-path="url(#pdbeca97742)">
     <!-- -3 -->
     <g style="fill:#e48066;" transform="translate(97.7260505971 233.796511124)rotate(-89.7200886504)scale(0.1 -0.1)">
      <use xlink:href="#BitstreamVeraSans-Roman-2d"/>
      <use x="36.083984375" xlink:href="#BitstreamVeraSans-Roman-33"/>
     </g>
    </g>
   </g>
   <g id="text_15">
    <g clip-path="url(#pdbeca97742)">
     <!-- -3 -->
     <g style="fill:#e48066;" transform="translate(203.989648393 22.6306676136)rotate(-270.0)scale(0.1 -0.1)">
      <use xlink:href="#BitstreamVeraSans-Roman-2d"/>
      <use x="36.083984375" xlink:href="#BitstreamVeraSans-Roman-33"/>
     </g>
    </g>
   </g>
   <g id="text_16">
    <g clip-path="url(#pdbeca97742)">
     <!-- -1 -->
     <g style="fill:#a51429;" transform="translate(114.283359697 210.466012068)rotate(-89.6538081221)scale(0.1 -0.1)">
      <use xlink:href="#BitstreamVeraSans-Roman-2d"/>
      <use x="36.083984375" xlink:href="#BitstreamVeraSans-Roman-31"/>
     </g>
    </g>
   </g>
   <g id="text_17">
    <g clip-path="url(#pdbeca97742)">
     <!-- -1 -->
     <g style="fill:#a51429;" transform="translate(225.894224695 38.2312357955)rotate(-90.0)scale(0.1 -0.1)">
      <use xlink:href="#BitstreamVeraSans-Roman-2d"/>
      <use x="36.083984375" xlink:href="#BitstreamVeraSans-Roman-31"/>
     </g>
    </g>
   </g>
  </g>
 </g>
 <defs>
  <clipPath id="pdbeca97742">
   <rect height="230.4" width="223.2" x="41.53125" y="13.006875"/>
  </clipPath>
 </defs>
</svg>
