<?xml version="1.0" standalone="no"?>
<!DOCTYPE svg PUBLIC "-//W3C//DTD SVG 1.1//EN" 
  "http://www.w3.org/Graphics/SVG/1.1/DTD/svg11.dtd">
<svg width="355.66px" height="248.96px" version="1.1"
     xmlns="http://www.w3.org/2000/svg"
     xmlns:xlink="http://www.w3.org/1999/xlink">
<desc>Veusz output document</desc>
<g stroke-linejoin="bevel" stroke-linecap="square" stroke="#000000" fill-rule="evenodd">
<g clip-path="url(#c0)">
<g stroke-width="0.62" fill="#ffffff">
<path d="m35.57,7.11l312.98,0l0,181.39l-312.98,0l0,-181.39"/>
</g>
</g>
<g clip-path="url(#c1)">
<g stroke-width="1.25" stroke-dasharray="5.0,2.5" fill="none">
<polyline fill="none" points="35.57,188.5 41.95,188.5 48.34,188.5 54.73,188.5 61.12,188.5 67.5,188.5 73.89,188.5 80.28,188.5 86.66,188.5 93.05,188.5 99.44,188.5 105.83,188.5 112.21,188.5 118.6,188.5 124.99,188.5 131.38,188.5 137.76,188.5 144.15,188.5 150.54,188.5 156.93,188.5 163.31,188.5 169.7,188.5 176.09,188.5 182.48,188.5 188.86,188.5 195.25,183.78 201.64,147.84 208.02,97.17 214.41,62.08 220.8,43.09 227.19,32.63 233.57,26.42 239.96,22.48 246.35,19.82 252.74,17.95 259.12,16.59 265.51,15.57 271.9,14.78 278.29,14.16 284.67,13.66 291.06,13.26 297.45,12.92 303.83,12.65 310.22,12.41 316.61,12.21 323,12.04 329.38,11.9 335.77,11.77 342.16,11.66 348.55,11.56"/>
</g>
<g fill-opacity="0.5" stroke="none" stroke-width="1" fill="#0000ff">
<polygon points="54.73,11.24 61.12,11.3 67.5,11.37 73.89,11.44 80.28,11.53 86.66,11.62 93.05,11.73 99.44,11.85 105.83,11.99 112.21,12.15 118.6,12.34 124.99,12.56 131.38,12.82 137.76,13.13 144.15,13.51 150.54,13.97 156.93,14.54 163.31,15.27 169.7,16.2 176.09,17.43 182.48,19.1 188.86,21.43 195.25,24.85 201.64,30.11 208.02,38.75 214.41,54.04 220.8,82.57 227.19,129.75 233.57,174.92 239.96,188.5 246.35,188.5 252.74,188.5 259.12,188.5 265.51,188.5 271.9,188.5 278.29,188.5 284.67,188.5 291.06,188.5 297.45,188.5 303.83,188.5 310.22,188.5 316.61,188.5 323,188.5 329.38,188.5 335.77,188.5 342.16,188.5 348.55,188.5 348.55,188.5 35.57,188.5 35.57,11.09 41.95,11.14 48.34,11.19"/>
</g>
<g stroke-width="0.62" fill="none">
<polyline fill="none" points="35.57,11.09 41.95,11.14 48.34,11.19 54.73,11.24 61.12,11.3 67.5,11.37 73.89,11.44 80.28,11.53 86.66,11.62 93.05,11.73 99.44,11.85 105.83,11.99 112.21,12.15 118.6,12.34 124.99,12.56 131.38,12.82 137.76,13.13 144.15,13.51 150.54,13.97 156.93,14.54 163.31,15.27 169.7,16.2 176.09,17.43 182.48,19.1 188.86,21.43 195.25,24.85 201.64,30.11 208.02,38.75 214.41,54.04 220.8,82.57 227.19,129.75 233.57,174.92 239.96,188.5 246.35,188.5 252.74,188.5 259.12,188.5 265.51,188.5 271.9,188.5 278.29,188.5 284.67,188.5 291.06,188.5 297.45,188.5 303.83,188.5 310.22,188.5 316.61,188.5 323,188.5 329.38,188.5 335.77,188.5 342.16,188.5 348.55,188.5"/>
</g>
</g>
<g clip-path="url(#c0)">
<g stroke-width="0.62" stroke-linecap="butt" fill="none">
<path d="M35.57,188.5l0,-181.39"/>
<path d="M35.57,188.5l3.75,0M35.57,179.43l3.75,0M35.57,170.36l3.75,0M35.57,161.29l3.75,0M35.57,152.22l3.75,0M35.57,143.15l3.75,0M35.57,134.08l3.75,0M35.57,125.01l3.75,0M35.57,115.94l3.75,0M35.57,106.88l3.75,0M35.57,97.81l3.75,0M35.57,88.74l3.75,0M35.57,79.67l3.75,0M35.57,70.6l3.75,0M35.57,61.53l3.75,0M35.57,52.46l3.75,0M35.57,43.39l3.75,0M35.57,34.32l3.75,0M35.57,25.25l3.75,0M35.57,16.18l3.75,0"/>
<path d="M35.57,188.5l7.5,0M35.57,143.15l7.5,0M35.57,97.81l7.5,0M35.57,52.46l7.5,0M35.57,7.11l7.5,0"/>
<path d="M348.55,188.5l0,-181.39"/>
<path d="M348.55,188.5l-3.75,0M348.55,179.43l-3.75,0M348.55,170.36l-3.75,0M348.55,161.29l-3.75,0M348.55,152.22l-3.75,0M348.55,143.15l-3.75,0M348.55,134.08l-3.75,0M348.55,125.01l-3.75,0M348.55,115.94l-3.75,0M348.55,106.88l-3.75,0M348.55,97.81l-3.75,0M348.55,88.74l-3.75,0M348.55,79.67l-3.75,0M348.55,70.6l-3.75,0M348.55,61.53l-3.75,0M348.55,52.46l-3.75,0M348.55,43.39l-3.75,0M348.55,34.32l-3.75,0M348.55,25.25l-3.75,0M348.55,16.18l-3.75,0"/>
<path d="M348.55,188.5l-7.5,0M348.55,143.15l-7.5,0M348.55,97.81l-7.5,0M348.55,52.46l-7.5,0M348.55,7.11l-7.5,0"/>
</g>
<g stroke-width="1" transform="matrix(0 -1 1 0 28.57 114.31)" fill="none">
<path d="m-0.02,-7.05l2.41,-0.98l0.33,0l0,1.84c0.41,-0.7,0.81,-1.18,1.22,-1.46c0.41,-0.28,0.83,-0.41,1.28,-0.41c0.79,0,1.45,0.31,1.97,0.92c0.65,0.76,0.97,1.74,0.97,2.94c0,1.35,-0.39,2.47,-1.17,3.36c-0.64,0.72,-1.44,1.08,-2.41,1.08c-0.42,0,-0.78,-0.06,-1.09,-0.17c-0.23,-0.08,-0.48,-0.26,-0.77,-0.52l0,2.39c0,0.53,0.03,0.87,0.09,1.02c0.06,0.15,0.18,0.26,0.34,0.34c0.17,0.08,0.46,0.12,0.89,0.12l0,0.33l-4.11,0l0,-0.33l0.22,0c0.31,0.01,0.58,-0.05,0.8,-0.17c0.11,-0.06,0.2,-0.16,0.26,-0.3c0.06,-0.14,0.09,-0.5,0.09,-1.07l0,-7.39c0,-0.51,-0.02,-0.83,-0.07,-0.97c-0.05,-0.14,-0.12,-0.24,-0.22,-0.3c-0.1,-0.07,-0.23,-0.1,-0.4,-0.1c-0.14,0,-0.31,0.04,-0.53,0.11l-0.09,-0.27m2.73,1.36l0,2.92c0,0.64,0.03,1.05,0.08,1.25c0.07,0.32,0.27,0.61,0.58,0.86c0.31,0.25,0.7,0.37,1.17,0.37c0.57,0,1.04,-0.22,1.39,-0.66c0.46,-0.58,0.69,-1.4,0.69,-2.45c0,-1.2,-0.26,-2.12,-0.78,-2.77c-0.36,-0.44,-0.8,-0.66,-1.3,-0.66c-0.27,0,-0.54,0.07,-0.81,0.2c-0.21,0.1,-0.55,0.41,-1.02,0.92m9.12,-2.37l0,1.77c0.65,-1.18,1.32,-1.77,2.02,-1.77c0.31,0,0.57,0.1,0.77,0.29c0.2,0.19,0.3,0.41,0.3,0.66c0,0.22,-0.07,0.41,-0.22,0.56c-0.15,0.16,-0.32,0.23,-0.53,0.23c-0.2,0,-0.42,-0.1,-0.67,-0.3c-0.25,-0.2,-0.43,-0.3,-0.55,-0.3c-0.1,0,-0.22,0.06,-0.34,0.17c-0.25,0.23,-0.51,0.61,-0.78,1.16l0,3.75c0,0.44,0.05,0.77,0.16,0.98c0.07,0.16,0.2,0.28,0.39,0.38c0.19,0.1,0.46,0.15,0.81,0.15l0,0.31l-4,0l0,-0.31c0.4,0,0.69,-0.06,0.87,-0.19c0.15,-0.08,0.25,-0.23,0.31,-0.44c0.02,-0.09,0.03,-0.37,0.03,-0.83l0,-3.03c0,-0.91,-0.02,-1.45,-0.05,-1.62c-0.04,-0.18,-0.1,-0.3,-0.2,-0.38c-0.1,-0.08,-0.22,-0.12,-0.37,-0.12c-0.18,0,-0.37,0.04,-0.59,0.12l-0.09,-0.3l2.37,-0.97l0.36,0m7.53,0c1.19,0,2.14,0.45,2.86,1.36c0.6,0.77,0.91,1.65,0.91,2.64c0,0.7,-0.17,1.41,-0.5,2.12c-0.33,0.72,-0.8,1.26,-1.39,1.62c-0.59,0.36,-1.25,0.55,-1.97,0.55c-1.18,0,-2.11,-0.47,-2.81,-1.41c-0.58,-0.79,-0.87,-1.68,-0.87,-2.67c0,-0.71,0.18,-1.42,0.53,-2.13c0.35,-0.71,0.82,-1.24,1.41,-1.58c0.58,-0.34,1.2,-0.51,1.84,-0.51m-0.27,0.56c-0.3,0,-0.6,0.09,-0.91,0.27c-0.3,0.18,-0.55,0.49,-0.74,0.95c-0.19,0.45,-0.29,1.03,-0.29,1.74c0,1.14,0.23,2.11,0.68,2.94c0.45,0.82,1.05,1.23,1.8,1.23c0.55,0,1.01,-0.23,1.36,-0.68c0.35,-0.45,0.53,-1.24,0.53,-2.35c0,-1.39,-0.3,-2.48,-0.89,-3.28c-0.41,-0.54,-0.92,-0.81,-1.55,-0.81m7.58,1.02c0.76,-1.05,1.58,-1.58,2.45,-1.58c0.8,0,1.5,0.34,2.1,1.03c0.6,0.69,0.9,1.62,0.9,2.81c0,1.4,-0.46,2.52,-1.37,3.36c-0.79,0.73,-1.68,1.09,-2.66,1.09c-0.46,0,-0.92,-0.08,-1.39,-0.24c-0.47,-0.16,-0.95,-0.41,-1.44,-0.74l0,-8.11c0,-0.89,-0.02,-1.43,-0.06,-1.64c-0.04,-0.21,-0.11,-0.35,-0.2,-0.42c-0.09,-0.07,-0.21,-0.11,-0.34,-0.11c-0.16,0,-0.35,0.05,-0.59,0.14l-0.12,-0.3l2.36,-0.97l0.37,0l0,5.67m0,0.55l0,4.69c0.29,0.28,0.59,0.49,0.91,0.64c0.31,0.15,0.63,0.22,0.95,0.22c0.52,0,1.01,-0.28,1.45,-0.85c0.45,-0.57,0.67,-1.39,0.67,-2.48c0,-1.01,-0.22,-1.78,-0.67,-2.32c-0.45,-0.54,-0.96,-0.8,-1.53,-0.8c-0.3,0,-0.6,0.08,-0.91,0.23c-0.23,0.11,-0.52,0.34,-0.87,0.67" fill="#000000" stroke="none" fill-opacity="1"/>
</g>
<g stroke-width="0.62" stroke-linecap="butt" fill="none">
<path d="M35.57,188.5l312.98,0"/>
<path d="M35.57,188.5l0,-3.75M51.21,188.5l0,-3.75M66.86,188.5l0,-3.75M82.51,188.5l0,-3.75M98.16,188.5l0,-3.75M113.81,188.5l0,-3.75M129.46,188.5l0,-3.75M145.11,188.5l0,-3.75M160.76,188.5l0,-3.75M176.41,188.5l0,-3.75M192.06,188.5l0,-3.75M207.71,188.5l0,-3.75M223.35,188.5l0,-3.75M239,188.5l0,-3.75M254.65,188.5l0,-3.75M270.3,188.5l0,-3.75M285.95,188.5l0,-3.75M301.6,188.5l0,-3.75M317.25,188.5l0,-3.75M332.9,188.5l0,-3.75M348.55,188.5l0,-3.75"/>
<path d="M35.57,188.5l0,-7.5M113.81,188.5l0,-7.5M192.06,188.5l0,-7.5M270.3,188.5l0,-7.5M348.55,188.5l0,-7.5"/>
<path d="M35.57,7.11l312.98,0"/>
<path d="M35.57,7.11l0,3.75M51.21,7.11l0,3.75M66.86,7.11l0,3.75M82.51,7.11l0,3.75M98.16,7.11l0,3.75M113.81,7.11l0,3.75M129.46,7.11l0,3.75M145.11,7.11l0,3.75M160.76,7.11l0,3.75M176.41,7.11l0,3.75M192.06,7.11l0,3.75M207.71,7.11l0,3.75M223.35,7.11l0,3.75M239,7.11l0,3.75M254.65,7.11l0,3.75M270.3,7.11l0,3.75M285.95,7.11l0,3.75M301.6,7.11l0,3.75M317.25,7.11l0,3.75M332.9,7.11l0,3.75M348.55,7.11l0,3.75"/>
<path d="M35.57,7.11l0,7.5M113.81,7.11l0,7.5M192.06,7.11l0,7.5M270.3,7.11l0,7.5M348.55,7.11l0,7.5"/>
</g>
<g stroke-width="1" fill="none">
<path d="m196.58,229.28l0.28,0.06l-0.98,3.14l-8.98,0l0,-0.31l0.44,0c0.49,0,0.84,-0.16,1.06,-0.48c0.11,-0.18,0.17,-0.6,0.17,-1.27l0,-7.47c0,-0.73,-0.08,-1.18,-0.23,-1.36c-0.23,-0.25,-0.56,-0.37,-1,-0.37l-0.44,0l0,-0.33l5.25,0l0,0.33c-0.61,-0.01,-1.04,0.04,-1.29,0.16c-0.24,0.12,-0.41,0.27,-0.51,0.45c-0.09,0.18,-0.14,0.62,-0.14,1.3l0,7.28c0,0.48,0.05,0.81,0.14,0.98c0.06,0.11,0.17,0.2,0.31,0.26c0.15,0.06,0.59,0.09,1.33,0.09l0.86,0c0.89,0,1.51,-0.07,1.87,-0.2c0.36,-0.13,0.69,-0.36,0.98,-0.7c0.3,-0.33,0.59,-0.86,0.88,-1.58" fill="#000000" stroke="none" fill-opacity="1"/>
<path d="m27.45,199.11c0.33,-0.78,0.75,-1.39,1.25,-1.81c0.5,-0.43,1.13,-0.64,1.89,-0.64c0.93,0,1.64,0.3,2.12,0.91c0.37,0.45,0.56,0.93,0.56,1.45c0,0.83,-0.53,1.7,-1.58,2.61c0.71,0.28,1.24,0.68,1.61,1.2c0.36,0.52,0.55,1.12,0.55,1.82c0,1.01,-0.32,1.88,-0.95,2.61c-0.83,0.96,-2.04,1.44,-3.62,1.44c-0.77,0,-1.3,-0.1,-1.59,-0.29c-0.29,-0.19,-0.43,-0.4,-0.43,-0.62c0,-0.17,0.07,-0.31,0.2,-0.44c0.14,-0.12,0.3,-0.19,0.48,-0.19c0.15,0,0.29,0.02,0.44,0.06c0.09,0.03,0.31,0.14,0.66,0.31c0.34,0.18,0.58,0.29,0.72,0.33c0.21,0.06,0.43,0.09,0.67,0.09c0.58,0,1.09,-0.23,1.52,-0.68c0.43,-0.45,0.64,-0.99,0.64,-1.6c0,-0.45,-0.1,-0.89,-0.3,-1.31c-0.15,-0.32,-0.31,-0.57,-0.48,-0.73c-0.25,-0.23,-0.59,-0.43,-1.02,-0.62c-0.43,-0.18,-0.86,-0.27,-1.3,-0.27l-0.28,0l0,-0.25c0.45,-0.06,0.9,-0.23,1.35,-0.49c0.45,-0.27,0.78,-0.59,0.99,-0.97c0.21,-0.38,0.31,-0.79,0.31,-1.24c0,-0.58,-0.18,-1.06,-0.55,-1.42c-0.37,-0.36,-0.83,-0.55,-1.37,-0.55c-0.89,0,-1.62,0.47,-2.22,1.42l-0.28,-0.12m8.73,3.66c0,-1.32,0.2,-2.46,0.6,-3.41c0.4,-0.95,0.93,-1.66,1.59,-2.13c0.52,-0.37,1.05,-0.56,1.59,-0.56c0.9,0,1.69,0.45,2.39,1.36c0.89,1.12,1.33,2.65,1.33,4.56c0,1.34,-0.19,2.49,-0.58,3.43c-0.39,0.94,-0.88,1.62,-1.48,2.05c-0.6,0.42,-1.18,0.63,-1.73,0.63c-1.1,0,-2.03,-0.65,-2.77,-1.95c-0.62,-1.1,-0.94,-2.43,-0.94,-3.97m1.69,0.2c0,1.59,0.19,2.9,0.58,3.91c0.33,0.85,0.82,1.28,1.45,1.28c0.31,0,0.63,-0.14,0.96,-0.41c0.33,-0.28,0.58,-0.74,0.76,-1.4c0.26,-0.98,0.39,-2.36,0.39,-4.14c0,-1.32,-0.14,-2.43,-0.41,-3.31c-0.21,-0.65,-0.47,-1.11,-0.8,-1.39c-0.24,-0.19,-0.52,-0.28,-0.84,-0.28c-0.4,0,-0.74,0.18,-1.05,0.53c-0.41,0.47,-0.68,1.21,-0.83,2.23c-0.15,1.02,-0.22,2.01,-0.22,2.99" fill="#000000" stroke="none" fill-opacity="1"/>
<path d="m105.69,199.11c0.33,-0.78,0.75,-1.39,1.25,-1.81c0.5,-0.43,1.13,-0.64,1.89,-0.64c0.93,0,1.64,0.3,2.12,0.91c0.37,0.45,0.56,0.93,0.56,1.45c0,0.83,-0.53,1.7,-1.58,2.61c0.71,0.28,1.24,0.68,1.61,1.2c0.36,0.52,0.55,1.12,0.55,1.82c0,1.01,-0.32,1.88,-0.95,2.61c-0.83,0.96,-2.04,1.44,-3.62,1.44c-0.77,0,-1.3,-0.1,-1.59,-0.29c-0.29,-0.19,-0.43,-0.4,-0.43,-0.62c0,-0.17,0.07,-0.31,0.2,-0.44c0.14,-0.12,0.3,-0.19,0.48,-0.19c0.15,0,0.29,0.02,0.44,0.06c0.09,0.03,0.31,0.14,0.66,0.31c0.34,0.18,0.58,0.29,0.72,0.33c0.21,0.06,0.43,0.09,0.67,0.09c0.58,0,1.09,-0.23,1.52,-0.68c0.43,-0.45,0.64,-0.99,0.64,-1.6c0,-0.45,-0.1,-0.89,-0.3,-1.31c-0.15,-0.32,-0.31,-0.57,-0.48,-0.73c-0.25,-0.23,-0.59,-0.43,-1.02,-0.62c-0.43,-0.18,-0.86,-0.27,-1.3,-0.27l-0.28,0l0,-0.25c0.45,-0.06,0.9,-0.23,1.35,-0.49c0.45,-0.27,0.78,-0.59,0.99,-0.97c0.21,-0.38,0.31,-0.79,0.31,-1.24c0,-0.58,-0.18,-1.06,-0.55,-1.42c-0.37,-0.36,-0.83,-0.55,-1.37,-0.55c-0.89,0,-1.62,0.47,-2.22,1.42l-0.28,-0.12m15.7,-2.22l-0.66,1.45l-3.5,0l-0.75,1.56c1.51,0.22,2.7,0.78,3.58,1.69c0.76,0.77,1.14,1.68,1.14,2.73c0,0.6,-0.12,1.17,-0.37,1.69c-0.24,0.52,-0.56,0.96,-0.94,1.33c-0.38,0.36,-0.8,0.66,-1.26,0.87c-0.66,0.31,-1.33,0.47,-2.02,0.47c-0.7,0,-1.2,-0.12,-1.52,-0.35c-0.31,-0.23,-0.47,-0.5,-0.47,-0.79c0,-0.16,0.07,-0.29,0.2,-0.41c0.13,-0.12,0.29,-0.18,0.49,-0.18c0.15,0,0.27,0.02,0.38,0.06c0.11,0.04,0.3,0.16,0.57,0.34c0.43,0.3,0.86,0.45,1.3,0.45c0.67,0,1.25,-0.25,1.76,-0.76c0.51,-0.51,0.76,-1.12,0.76,-1.84c0,-0.71,-0.22,-1.36,-0.67,-1.97c-0.45,-0.6,-1.07,-1.07,-1.86,-1.41c-0.62,-0.26,-1.47,-0.41,-2.55,-0.44l2.22,-4.52l4.16,0" fill="#000000" stroke="none" fill-opacity="1"/>
<path d="m191.19,204.22l0,1.2l-1.55,0l0,3.06l-1.42,0l0,-3.06l-4.89,0l0,-1.09l5.36,-7.67l0.95,0l0,7.56l1.55,0m-2.97,0l0,-5.75l-4.06,5.75l4.06,0m4.45,-1.45c0,-1.32,0.2,-2.46,0.6,-3.41c0.4,-0.95,0.93,-1.66,1.59,-2.13c0.52,-0.37,1.05,-0.56,1.59,-0.56c0.9,0,1.69,0.45,2.39,1.36c0.89,1.12,1.33,2.65,1.33,4.56c0,1.34,-0.19,2.49,-0.58,3.43c-0.39,0.94,-0.88,1.62,-1.48,2.05c-0.6,0.42,-1.18,0.63,-1.73,0.63c-1.1,0,-2.03,-0.65,-2.77,-1.95c-0.62,-1.1,-0.94,-2.43,-0.94,-3.97m1.69,0.2c0,1.59,0.19,2.9,0.58,3.91c0.33,0.85,0.82,1.28,1.45,1.28c0.31,0,0.63,-0.14,0.96,-0.41c0.33,-0.28,0.58,-0.74,0.76,-1.4c0.26,-0.98,0.39,-2.36,0.39,-4.14c0,-1.32,-0.14,-2.43,-0.41,-3.31c-0.21,-0.65,-0.47,-1.11,-0.8,-1.39c-0.24,-0.19,-0.52,-0.28,-0.84,-0.28c-0.4,0,-0.74,0.18,-1.05,0.53c-0.41,0.47,-0.68,1.21,-0.83,2.23c-0.15,1.02,-0.22,2.01,-0.22,2.99" fill="#000000" stroke="none" fill-opacity="1"/>
<path d="m269.44,204.22l0,1.2l-1.55,0l0,3.06l-1.42,0l0,-3.06l-4.89,0l0,-1.09l5.36,-7.67l0.95,0l0,7.56l1.55,0m-2.97,0l0,-5.75l-4.06,5.75l4.06,0m11.42,-7.33l-0.66,1.45l-3.5,0l-0.75,1.56c1.51,0.22,2.7,0.78,3.58,1.69c0.76,0.77,1.14,1.68,1.14,2.73c0,0.6,-0.12,1.17,-0.37,1.69c-0.24,0.52,-0.56,0.96,-0.94,1.33c-0.38,0.36,-0.8,0.66,-1.26,0.87c-0.66,0.31,-1.33,0.47,-2.02,0.47c-0.7,0,-1.2,-0.12,-1.52,-0.35c-0.31,-0.23,-0.47,-0.5,-0.47,-0.79c0,-0.16,0.07,-0.29,0.2,-0.41c0.13,-0.12,0.29,-0.18,0.49,-0.18c0.15,0,0.27,0.02,0.38,0.06c0.11,0.04,0.3,0.16,0.57,0.34c0.43,0.3,0.86,0.45,1.3,0.45c0.67,0,1.25,-0.25,1.76,-0.76c0.51,-0.51,0.76,-1.12,0.76,-1.84c0,-0.71,-0.22,-1.36,-0.67,-1.97c-0.45,-0.6,-1.07,-1.07,-1.86,-1.41c-0.62,-0.26,-1.47,-0.41,-2.55,-0.44l2.22,-4.52l4.16,0" fill="#000000" stroke="none" fill-opacity="1"/>
<path d="m345.25,196.89l-0.66,1.45l-3.5,0l-0.75,1.56c1.51,0.22,2.7,0.78,3.58,1.69c0.76,0.77,1.14,1.68,1.14,2.73c0,0.6,-0.12,1.17,-0.37,1.69c-0.24,0.52,-0.56,0.96,-0.94,1.33c-0.38,0.36,-0.8,0.66,-1.26,0.87c-0.66,0.31,-1.33,0.47,-2.02,0.47c-0.7,0,-1.2,-0.12,-1.52,-0.35c-0.31,-0.23,-0.47,-0.5,-0.47,-0.79c0,-0.16,0.07,-0.29,0.2,-0.41c0.13,-0.12,0.29,-0.18,0.49,-0.18c0.15,0,0.27,0.02,0.38,0.06c0.11,0.04,0.3,0.16,0.57,0.34c0.43,0.3,0.86,0.45,1.3,0.45c0.67,0,1.25,-0.25,1.76,-0.76c0.51,-0.51,0.76,-1.12,0.76,-1.84c0,-0.71,-0.22,-1.36,-0.67,-1.97c-0.45,-0.6,-1.07,-1.07,-1.86,-1.41c-0.62,-0.26,-1.47,-0.41,-2.55,-0.44l2.22,-4.52l4.16,0m2.03,5.87c0,-1.32,0.2,-2.46,0.6,-3.41c0.4,-0.95,0.93,-1.66,1.59,-2.13c0.52,-0.37,1.05,-0.56,1.59,-0.56c0.9,0,1.69,0.45,2.39,1.36c0.89,1.12,1.33,2.65,1.33,4.56c0,1.34,-0.19,2.49,-0.58,3.43c-0.39,0.94,-0.88,1.62,-1.48,2.05c-0.6,0.42,-1.18,0.63,-1.73,0.63c-1.1,0,-2.03,-0.65,-2.77,-1.95c-0.62,-1.1,-0.94,-2.43,-0.94,-3.97m1.69,0.2c0,1.59,0.19,2.9,0.58,3.91c0.33,0.85,0.82,1.28,1.45,1.28c0.31,0,0.63,-0.14,0.96,-0.41c0.33,-0.28,0.58,-0.74,0.76,-1.4c0.26,-0.98,0.39,-2.36,0.39,-4.14c0,-1.32,-0.14,-2.43,-0.41,-3.31c-0.21,-0.65,-0.47,-1.11,-0.8,-1.39c-0.24,-0.19,-0.52,-0.28,-0.84,-0.28c-0.4,0,-0.74,0.18,-1.05,0.53c-0.41,0.47,-0.68,1.21,-0.83,2.23c-0.15,1.02,-0.22,2.01,-0.22,2.99" fill="#000000" stroke="none" fill-opacity="1"/>
</g>
</g>
</g>
<defs>
<clipPath id="c0"><path d="m0,0l355.66,0l0,248.96l-355.66,0l0,-248.96"/></clipPath>
<clipPath id="c1"><path d="m35.57,7.11l312.98,0l0,181.39l-312.98,0l0,-181.39"/></clipPath>
</defs>
</svg>
