<?xml version="1.0" standalone="no"?>
<!DOCTYPE svg PUBLIC "-//W3C//DTD SVG 1.1//EN" 
  "http://www.w3.org/Graphics/SVG/1.1/DTD/svg11.dtd">
<svg width="533.49px" height="497.92px" version="1.1"
     xmlns="http://www.w3.org/2000/svg"
     xmlns:xlink="http://www.w3.org/1999/xlink">
<desc>Veusz output document</desc>
<g stroke-linejoin="bevel" stroke-linecap="square" stroke="#000000" fill-rule="evenodd">
<g clip-path="url(#c0)">
<g stroke-width="0.62" fill="#ffffff">
<path d="m60.46,7.11l465.91,0l0,98.4l-465.91,0l0,-98.4"/>
</g>
<g stroke-width="1" fill="none">
<path d="m90.77,43.05l2.83,-1.37l0.28,0l0,9.78c0,0.66,0.03,1.06,0.08,1.22c0.05,0.16,0.16,0.28,0.34,0.37c0.17,0.09,0.52,0.14,1.04,0.15l0,0.31l-4.36,0l0,-0.31c0.55,-0.01,0.91,-0.06,1.07,-0.14c0.16,-0.08,0.27,-0.2,0.34,-0.34c0.06,-0.14,0.09,-0.56,0.09,-1.26l0,-6.25c0,-0.84,-0.03,-1.39,-0.09,-1.62c-0.04,-0.18,-0.11,-0.31,-0.22,-0.4c-0.1,-0.09,-0.23,-0.13,-0.37,-0.13c-0.21,0,-0.51,0.09,-0.89,0.27l-0.12,-0.27m7.58,4.73c0,-1.32,0.2,-2.46,0.6,-3.41c0.4,-0.95,0.93,-1.66,1.59,-2.13c0.52,-0.37,1.05,-0.56,1.59,-0.56c0.9,0,1.69,0.45,2.39,1.36c0.89,1.12,1.33,2.65,1.33,4.56c0,1.34,-0.19,2.49,-0.58,3.43c-0.39,0.94,-0.88,1.62,-1.48,2.05c-0.6,0.42,-1.18,0.63,-1.73,0.63c-1.1,0,-2.03,-0.65,-2.77,-1.95c-0.62,-1.1,-0.94,-2.43,-0.94,-3.97m1.69,0.2c0,1.59,0.19,2.9,0.58,3.91c0.33,0.85,0.82,1.28,1.45,1.28c0.31,0,0.63,-0.14,0.96,-0.41c0.33,-0.28,0.58,-0.74,0.76,-1.4c0.26,-0.98,0.39,-2.36,0.39,-4.14c0,-1.32,-0.14,-2.43,-0.41,-3.31c-0.21,-0.65,-0.47,-1.11,-0.8,-1.39c-0.24,-0.19,-0.52,-0.28,-0.84,-0.28c-0.4,0,-0.74,0.18,-1.05,0.53c-0.41,0.47,-0.68,1.21,-0.83,2.23c-0.15,1.02,-0.22,2.01,-0.22,2.99m6.92,-2.31l3.67,0l0,0.31c-0.23,0,-0.39,0.04,-0.48,0.12c-0.09,0.08,-0.14,0.19,-0.14,0.31c0,0.14,0.1,0.35,0.3,0.64c0.06,0.08,0.16,0.22,0.28,0.42l0.56,0.89l0.64,-0.89c0.41,-0.56,0.61,-0.92,0.61,-1.06c0,-0.12,-0.05,-0.23,-0.14,-0.31c-0.09,-0.08,-0.25,-0.12,-0.47,-0.12l0,-0.31l2.64,0l0,0.31c-0.28,0.02,-0.52,0.1,-0.72,0.23c-0.28,0.2,-0.66,0.62,-1.14,1.27l-1.08,1.42l1.95,2.81c0.48,0.69,0.82,1.1,1.02,1.24c0.2,0.14,0.47,0.22,0.79,0.23l0,0.31l-3.69,0l0,-0.31c0.26,0,0.46,-0.06,0.59,-0.17c0.11,-0.07,0.17,-0.18,0.17,-0.31c0,-0.12,-0.18,-0.45,-0.55,-0.98l-1.16,-1.67l-1.25,1.67c-0.39,0.51,-0.58,0.82,-0.58,0.92c0,0.14,0.07,0.26,0.2,0.37c0.13,0.11,0.32,0.17,0.57,0.18l0,0.31l-2.55,0l0,-0.31c0.2,-0.02,0.37,-0.09,0.53,-0.2c0.22,-0.17,0.58,-0.59,1.09,-1.27l1.64,-2.19l-1.48,-2.16c-0.43,-0.61,-0.76,-1,-0.98,-1.16c-0.23,-0.16,-0.52,-0.23,-0.86,-0.23l0,-0.31" fill="#000000" stroke="none" fill-opacity="1"/>
</g>
</g>
<g clip-path="url(#c1)">
<g fill-opacity="0.5" stroke="none" stroke-width="1" fill="#0000ff">
<polygon points="88.99,105.51 98.5,105.51 108,105.51 117.51,105.51 127.02,105.51 136.53,105.51 146.04,105.51 155.55,105.51 165.06,105.51 174.56,105.51 184.07,105.51 193.58,105.51 203.09,105.51 212.6,105.51 222.11,7.11 231.61,7.11 241.12,7.11 250.63,7.11 260.14,7.11 269.65,7.11 279.16,7.11 288.66,7.11 298.17,105.51 307.68,105.51 317.19,105.51 326.7,105.51 336.21,105.51 345.72,105.51 355.22,105.51 364.73,105.51 374.24,7.11 383.75,7.11 393.26,7.11 402.77,7.11 412.27,7.11 421.78,7.11 431.29,7.11 440.8,7.11 450.31,7.11 459.82,7.11 469.33,7.11 478.83,7.11 488.34,7.11 497.85,7.11 507.36,7.11 516.87,7.11 526.38,7.11 526.38,105.51 60.46,105.51 60.46,105.51 69.97,105.51 79.48,105.51"/>
</g>
<g stroke-width="0.62" fill="none">
<polyline fill="none" points="60.46,105.51 69.97,105.51 79.48,105.51 88.99,105.51 98.5,105.51 108,105.51 117.51,105.51 127.02,105.51 136.53,105.51 146.04,105.51 155.55,105.51 165.06,105.51 174.56,105.51 184.07,105.51 193.58,105.51 203.09,105.51 212.6,105.51"/>
<polyline fill="none" points="222.11,7.11 231.61,7.11 241.12,7.11 250.63,7.11 260.14,7.11 269.65,7.11 279.16,7.11 288.66,7.11"/>
<polyline fill="none" points="298.17,105.51 307.68,105.51 317.19,105.51 326.7,105.51 336.21,105.51 345.72,105.51 355.22,105.51 364.73,105.51"/>
<polyline fill="none" points="374.24,7.11 383.75,7.11 393.26,7.11 402.77,7.11 412.27,7.11 421.78,7.11 431.29,7.11 440.8,7.11 450.31,7.11 459.82,7.11 469.33,7.11 478.83,7.11 488.34,7.11 497.85,7.11 507.36,7.11 516.87,7.11 526.38,7.11"/>
</g>
</g>
<g clip-path="url(#c0)">
<g stroke-width="0.62" stroke-linecap="butt" fill="none">
<path d="M60.46,105.51l0,-98.4"/>
<path d="M60.46,105.51l3.75,0M60.46,100.59l3.75,0M60.46,95.67l3.75,0M60.46,90.75l3.75,0M60.46,85.83l3.75,0M60.46,80.91l3.75,0M60.46,75.99l3.75,0M60.46,71.07l3.75,0M60.46,66.15l3.75,0M60.46,61.23l3.75,0M60.46,56.31l3.75,0M60.46,51.39l3.75,0M60.46,46.47l3.75,0M60.46,41.55l3.75,0M60.46,36.63l3.75,0M60.46,31.71l3.75,0M60.46,26.79l3.75,0M60.46,21.87l3.75,0M60.46,16.95l3.75,0M60.46,12.03l3.75,0M60.46,7.11l3.75,0"/>
<path d="M60.46,105.51l7.5,0M60.46,85.83l7.5,0M60.46,66.15l7.5,0M60.46,46.47l7.5,0M60.46,26.79l7.5,0M60.46,7.11l7.5,0"/>
<path d="M526.38,105.51l0,-98.4"/>
<path d="M526.38,105.51l-3.75,0M526.38,100.59l-3.75,0M526.38,95.67l-3.75,0M526.38,90.75l-3.75,0M526.38,85.83l-3.75,0M526.38,80.91l-3.75,0M526.38,75.99l-3.75,0M526.38,71.07l-3.75,0M526.38,66.15l-3.75,0M526.38,61.23l-3.75,0M526.38,56.31l-3.75,0M526.38,51.39l-3.75,0M526.38,46.47l-3.75,0M526.38,41.55l-3.75,0M526.38,36.63l-3.75,0M526.38,31.71l-3.75,0M526.38,26.79l-3.75,0M526.38,21.87l-3.75,0M526.38,16.95l-3.75,0M526.38,12.03l-3.75,0M526.38,7.11l-3.75,0"/>
<path d="M526.38,105.51l-7.5,0M526.38,85.83l-7.5,0M526.38,66.15l-7.5,0M526.38,46.47l-7.5,0M526.38,26.79l-7.5,0M526.38,7.11l-7.5,0"/>
<path d="M60.46,105.51l465.91,0"/>
<path d="M60.46,105.51l0,-3.75M99.29,105.51l0,-3.75M138.11,105.51l0,-3.75M176.94,105.51l0,-3.75M215.77,105.51l0,-3.75M254.59,105.51l0,-3.75M293.42,105.51l0,-3.75M332.25,105.51l0,-3.75M371.07,105.51l0,-3.75M409.9,105.51l0,-3.75M448.72,105.51l0,-3.75M487.55,105.51l0,-3.75M526.38,105.51l0,-3.75"/>
<path d="M60.46,105.51l0,-7.5M138.11,105.51l0,-7.5M215.77,105.51l0,-7.5M293.42,105.51l0,-7.5M371.07,105.51l0,-7.5M448.72,105.51l0,-7.5M526.38,105.51l0,-7.5"/>
<path d="M60.46,7.11l465.91,0"/>
<path d="M60.46,7.11l0,3.75M99.29,7.11l0,3.75M138.11,7.11l0,3.75M176.94,7.11l0,3.75M215.77,7.11l0,3.75M254.59,7.11l0,3.75M293.42,7.11l0,3.75M332.25,7.11l0,3.75M371.07,7.11l0,3.75M409.9,7.11l0,3.75M448.72,7.11l0,3.75M487.55,7.11l0,3.75M526.38,7.11l0,3.75"/>
<path d="M60.46,7.11l0,7.5M138.11,7.11l0,7.5M215.77,7.11l0,7.5M293.42,7.11l0,7.5M371.07,7.11l0,7.5M448.72,7.11l0,7.5M526.38,7.11l0,7.5"/>
</g>
<g stroke-width="1" fill="none">
<path d="m282.67,137.91l3.14,0l7.09,8.7l0,-6.69c0,-0.71,-0.08,-1.15,-0.23,-1.33c-0.22,-0.24,-0.55,-0.36,-1,-0.36l-0.41,0l0,-0.33l4.03,0l0,0.33l-0.41,0c-0.49,0,-0.84,0.15,-1.05,0.44c-0.12,0.19,-0.19,0.6,-0.19,1.25l0,9.77l-0.31,0l-7.64,-9.33l0,7.12c0,0.72,0.08,1.17,0.23,1.34c0.22,0.24,0.55,0.36,1,0.36l0.41,0l0,0.31l-4.03,0l0,-0.31l0.41,0c0.5,0,0.85,-0.15,1.05,-0.45c0.12,-0.18,0.19,-0.59,0.19,-1.25l0,-8.05c-0.33,-0.4,-0.59,-0.66,-0.76,-0.78c-0.17,-0.12,-0.43,-0.24,-0.77,-0.34c-0.16,-0.05,-0.41,-0.08,-0.75,-0.08l0,-0.33" fill="#000000" stroke="none" fill-opacity="1"/>
<path d="m298.06,146.77l3.23,0l0,-1.98c0,-0.35,-0.02,-0.59,-0.06,-0.7c-0.04,-0.08,-0.11,-0.16,-0.22,-0.22c-0.15,-0.08,-0.3,-0.12,-0.47,-0.12l-0.25,0l0,-0.19l2.98,0l0,0.19l-0.25,0c-0.17,0,-0.32,0.04,-0.47,0.12c-0.11,0.05,-0.19,0.13,-0.23,0.24c-0.04,0.11,-0.05,0.34,-0.05,0.68l0,4.48c0,0.35,0.02,0.59,0.06,0.7c0.03,0.08,0.1,0.16,0.22,0.22c0.15,0.08,0.3,0.12,0.47,0.12l0.25,0l0,0.19l-2.98,0l0,-0.19l0.25,0c0.28,0,0.49,-0.08,0.62,-0.25c0.08,-0.11,0.12,-0.38,0.12,-0.8l0,-2.11l-3.23,0l0,2.11c0,0.35,0.02,0.59,0.06,0.7c0.04,0.08,0.11,0.16,0.22,0.22c0.15,0.08,0.3,0.12,0.47,0.12l0.25,0l0,0.19l-2.98,0l0,-0.19l0.25,0c0.29,0,0.5,-0.08,0.62,-0.25c0.08,-0.11,0.12,-0.38,0.12,-0.8l0,-4.48c0,-0.35,-0.02,-0.59,-0.06,-0.7c-0.03,-0.08,-0.1,-0.16,-0.22,-0.22c-0.15,-0.08,-0.3,-0.12,-0.47,-0.12l-0.25,0l0,-0.19l2.98,0l0,0.19l-0.25,0c-0.17,0,-0.32,0.04,-0.47,0.12c-0.1,0.05,-0.18,0.13,-0.22,0.24c-0.04,0.11,-0.06,0.34,-0.06,0.68l0,1.98" fill="#000000" stroke="none" fill-opacity="1"/>
<path d="m59.48,123.27l-0.81,2.23l-6.84,0l0,-0.31c2.01,-1.83,3.43,-3.33,4.25,-4.49c0.82,-1.16,1.23,-2.23,1.23,-3.2c0,-0.73,-0.23,-1.33,-0.68,-1.8c-0.45,-0.47,-0.99,-0.71,-1.62,-0.71c-0.57,0,-1.09,0.17,-1.54,0.5c-0.45,0.33,-0.78,0.82,-0.99,1.47l-0.33,0c0.15,-1.06,0.51,-1.87,1.1,-2.44c0.59,-0.56,1.33,-0.84,2.21,-0.84c0.94,0,1.72,0.3,2.35,0.91c0.63,0.6,0.95,1.32,0.95,2.14c0,0.58,-0.14,1.17,-0.41,1.75c-0.43,0.93,-1.11,1.91,-2.05,2.94c-1.43,1.55,-2.31,2.48,-2.66,2.8l3.02,0c0.61,0,1.05,-0.02,1.3,-0.06c0.25,-0.04,0.47,-0.13,0.67,-0.27c0.2,-0.14,0.37,-0.34,0.52,-0.6l0.33,0m1.59,-3.48c0,-1.32,0.2,-2.46,0.6,-3.41c0.4,-0.95,0.93,-1.66,1.59,-2.13c0.52,-0.37,1.05,-0.56,1.59,-0.56c0.9,0,1.69,0.45,2.39,1.36c0.89,1.12,1.33,2.65,1.33,4.56c0,1.34,-0.19,2.49,-0.58,3.43c-0.39,0.94,-0.88,1.62,-1.48,2.05c-0.6,0.42,-1.18,0.63,-1.73,0.63c-1.1,0,-2.03,-0.65,-2.77,-1.95c-0.62,-1.1,-0.94,-2.43,-0.94,-3.97m1.69,0.2c0,1.59,0.19,2.9,0.58,3.91c0.33,0.85,0.82,1.28,1.45,1.28c0.31,0,0.63,-0.14,0.96,-0.41c0.33,-0.28,0.58,-0.74,0.76,-1.4c0.26,-0.98,0.39,-2.36,0.39,-4.14c0,-1.32,-0.14,-2.43,-0.41,-3.31c-0.21,-0.65,-0.47,-1.11,-0.8,-1.39c-0.24,-0.19,-0.52,-0.28,-0.84,-0.28c-0.4,0,-0.74,0.18,-1.05,0.53c-0.41,0.47,-0.68,1.21,-0.83,2.23c-0.15,1.02,-0.22,2.01,-0.22,2.99" fill="#000000" stroke="none" fill-opacity="1"/>
<path d="m137.14,123.27l-0.81,2.23l-6.84,0l0,-0.31c2.01,-1.83,3.43,-3.33,4.25,-4.49c0.82,-1.16,1.23,-2.23,1.23,-3.2c0,-0.73,-0.23,-1.33,-0.68,-1.8c-0.45,-0.47,-0.99,-0.71,-1.62,-0.71c-0.57,0,-1.09,0.17,-1.54,0.5c-0.45,0.33,-0.78,0.82,-0.99,1.47l-0.33,0c0.15,-1.06,0.51,-1.87,1.1,-2.44c0.59,-0.56,1.33,-0.84,2.21,-0.84c0.94,0,1.72,0.3,2.35,0.91c0.63,0.6,0.95,1.32,0.95,2.14c0,0.58,-0.14,1.17,-0.41,1.75c-0.43,0.93,-1.11,1.91,-2.05,2.94c-1.43,1.55,-2.31,2.48,-2.66,2.8l3.02,0c0.61,0,1.05,-0.02,1.3,-0.06c0.25,-0.04,0.47,-0.13,0.67,-0.27c0.2,-0.14,0.37,-0.34,0.52,-0.6l0.33,0m3.02,-8.22l2.83,-1.37l0.28,0l0,9.78c0,0.66,0.03,1.06,0.08,1.22c0.05,0.16,0.16,0.28,0.34,0.37c0.17,0.09,0.52,0.14,1.04,0.15l0,0.31l-4.36,0l0,-0.31c0.55,-0.01,0.91,-0.06,1.07,-0.14c0.16,-0.08,0.27,-0.2,0.34,-0.34c0.06,-0.14,0.09,-0.56,0.09,-1.26l0,-6.25c0,-0.84,-0.03,-1.39,-0.09,-1.62c-0.04,-0.18,-0.11,-0.31,-0.22,-0.4c-0.1,-0.09,-0.23,-0.13,-0.37,-0.13c-0.21,0,-0.51,0.09,-0.89,0.27l-0.12,-0.27" fill="#000000" stroke="none" fill-opacity="1"/>
<path d="m214.8,123.27l-0.81,2.23l-6.84,0l0,-0.31c2.01,-1.83,3.43,-3.33,4.25,-4.49c0.82,-1.16,1.23,-2.23,1.23,-3.2c0,-0.73,-0.23,-1.33,-0.68,-1.8c-0.45,-0.47,-0.99,-0.71,-1.62,-0.71c-0.57,0,-1.09,0.17,-1.54,0.5c-0.45,0.33,-0.78,0.82,-0.99,1.47l-0.33,0c0.15,-1.06,0.51,-1.87,1.1,-2.44c0.59,-0.56,1.33,-0.84,2.21,-0.84c0.94,0,1.72,0.3,2.35,0.91c0.63,0.6,0.95,1.32,0.95,2.14c0,0.58,-0.14,1.17,-0.41,1.75c-0.43,0.93,-1.11,1.91,-2.05,2.94c-1.43,1.55,-2.31,2.48,-2.66,2.8l3.02,0c0.61,0,1.05,-0.02,1.3,-0.06c0.25,-0.04,0.47,-0.13,0.67,-0.27c0.2,-0.14,0.37,-0.34,0.52,-0.6l0.33,0m9,0l-0.81,2.23l-6.84,0l0,-0.31c2.01,-1.83,3.43,-3.33,4.25,-4.49c0.82,-1.16,1.23,-2.23,1.23,-3.2c0,-0.73,-0.23,-1.33,-0.68,-1.8c-0.45,-0.47,-0.99,-0.71,-1.62,-0.71c-0.57,0,-1.09,0.17,-1.54,0.5c-0.45,0.33,-0.78,0.82,-0.99,1.47l-0.33,0c0.15,-1.06,0.51,-1.87,1.1,-2.44c0.59,-0.56,1.33,-0.84,2.21,-0.84c0.94,0,1.72,0.3,2.35,0.91c0.63,0.6,0.95,1.32,0.95,2.14c0,0.58,-0.14,1.17,-0.41,1.75c-0.43,0.93,-1.11,1.91,-2.05,2.94c-1.43,1.55,-2.31,2.48,-2.66,2.8l3.02,0c0.61,0,1.05,-0.02,1.3,-0.06c0.25,-0.04,0.47,-0.13,0.67,-0.27c0.2,-0.14,0.37,-0.34,0.52,-0.6l0.33,0" fill="#000000" stroke="none" fill-opacity="1"/>
<path d="m292.44,123.27l-0.81,2.23l-6.84,0l0,-0.31c2.01,-1.83,3.43,-3.33,4.25,-4.49c0.82,-1.16,1.23,-2.23,1.23,-3.2c0,-0.73,-0.23,-1.33,-0.68,-1.8c-0.45,-0.47,-0.99,-0.71,-1.62,-0.71c-0.57,0,-1.09,0.17,-1.54,0.5c-0.45,0.33,-0.78,0.82,-0.99,1.47l-0.33,0c0.15,-1.06,0.51,-1.87,1.1,-2.44c0.59,-0.56,1.33,-0.84,2.21,-0.84c0.94,0,1.72,0.3,2.35,0.91c0.63,0.6,0.95,1.32,0.95,2.14c0,0.58,-0.14,1.17,-0.41,1.75c-0.43,0.93,-1.11,1.91,-2.05,2.94c-1.43,1.55,-2.31,2.48,-2.66,2.8l3.02,0c0.61,0,1.05,-0.02,1.3,-0.06c0.25,-0.04,0.47,-0.13,0.67,-0.27c0.2,-0.14,0.37,-0.34,0.52,-0.6l0.33,0m1.86,-7.14c0.33,-0.78,0.75,-1.39,1.25,-1.81c0.5,-0.43,1.13,-0.64,1.89,-0.64c0.93,0,1.64,0.3,2.12,0.91c0.37,0.45,0.56,0.93,0.56,1.45c0,0.83,-0.53,1.7,-1.58,2.61c0.71,0.28,1.24,0.68,1.61,1.2c0.36,0.52,0.55,1.12,0.55,1.82c0,1.01,-0.32,1.88,-0.95,2.61c-0.83,0.96,-2.04,1.44,-3.62,1.44c-0.77,0,-1.3,-0.1,-1.59,-0.29c-0.29,-0.19,-0.43,-0.4,-0.43,-0.62c0,-0.17,0.07,-0.31,0.2,-0.44c0.14,-0.12,0.3,-0.19,0.48,-0.19c0.15,0,0.29,0.02,0.44,0.06c0.09,0.03,0.31,0.14,0.66,0.31c0.34,0.18,0.58,0.29,0.72,0.33c0.21,0.06,0.43,0.09,0.67,0.09c0.58,0,1.09,-0.23,1.52,-0.68c0.43,-0.45,0.64,-0.99,0.64,-1.6c0,-0.45,-0.1,-0.89,-0.3,-1.31c-0.15,-0.32,-0.31,-0.57,-0.48,-0.73c-0.25,-0.23,-0.59,-0.43,-1.02,-0.62c-0.43,-0.18,-0.86,-0.27,-1.3,-0.27l-0.28,0l0,-0.25c0.45,-0.06,0.9,-0.23,1.35,-0.49c0.45,-0.27,0.78,-0.59,0.99,-0.97c0.21,-0.38,0.31,-0.79,0.31,-1.24c0,-0.58,-0.18,-1.06,-0.55,-1.42c-0.37,-0.36,-0.83,-0.55,-1.37,-0.55c-0.89,0,-1.62,0.47,-2.22,1.42l-0.28,-0.12" fill="#000000" stroke="none" fill-opacity="1"/>
<path d="m370.09,123.27l-0.81,2.23l-6.84,0l0,-0.31c2.01,-1.83,3.43,-3.33,4.25,-4.49c0.82,-1.16,1.23,-2.23,1.23,-3.2c0,-0.73,-0.23,-1.33,-0.68,-1.8c-0.45,-0.47,-0.99,-0.71,-1.62,-0.71c-0.57,0,-1.09,0.17,-1.54,0.5c-0.45,0.33,-0.78,0.82,-0.99,1.47l-0.33,0c0.15,-1.06,0.51,-1.87,1.1,-2.44c0.59,-0.56,1.33,-0.84,2.21,-0.84c0.94,0,1.72,0.3,2.35,0.91c0.63,0.6,0.95,1.32,0.95,2.14c0,0.58,-0.14,1.17,-0.41,1.75c-0.43,0.93,-1.11,1.91,-2.05,2.94c-1.43,1.55,-2.31,2.48,-2.66,2.8l3.02,0c0.61,0,1.05,-0.02,1.3,-0.06c0.25,-0.04,0.47,-0.13,0.67,-0.27c0.2,-0.14,0.37,-0.34,0.52,-0.6l0.33,0m9.11,-2.03l0,1.2l-1.55,0l0,3.06l-1.42,0l0,-3.06l-4.89,0l0,-1.09l5.36,-7.67l0.95,0l0,7.56l1.55,0m-2.97,0l0,-5.75l-4.06,5.75l4.06,0" fill="#000000" stroke="none" fill-opacity="1"/>
<path d="m447.75,123.27l-0.81,2.23l-6.84,0l0,-0.31c2.01,-1.83,3.43,-3.33,4.25,-4.49c0.82,-1.16,1.23,-2.23,1.23,-3.2c0,-0.73,-0.23,-1.33,-0.68,-1.8c-0.45,-0.47,-0.99,-0.71,-1.62,-0.71c-0.57,0,-1.09,0.17,-1.54,0.5c-0.45,0.33,-0.78,0.82,-0.99,1.47l-0.33,0c0.15,-1.06,0.51,-1.87,1.1,-2.44c0.59,-0.56,1.33,-0.84,2.21,-0.84c0.94,0,1.72,0.3,2.35,0.91c0.63,0.6,0.95,1.32,0.95,2.14c0,0.58,-0.14,1.17,-0.41,1.75c-0.43,0.93,-1.11,1.91,-2.05,2.94c-1.43,1.55,-2.31,2.48,-2.66,2.8l3.02,0c0.61,0,1.05,-0.02,1.3,-0.06c0.25,-0.04,0.47,-0.13,0.67,-0.27c0.2,-0.14,0.37,-0.34,0.52,-0.6l0.33,0m8.56,-9.36l-0.66,1.45l-3.5,0l-0.75,1.56c1.51,0.22,2.7,0.78,3.58,1.69c0.76,0.77,1.14,1.68,1.14,2.73c0,0.6,-0.12,1.17,-0.37,1.69c-0.24,0.52,-0.56,0.96,-0.94,1.33c-0.38,0.36,-0.8,0.66,-1.26,0.87c-0.66,0.31,-1.33,0.47,-2.02,0.47c-0.7,0,-1.2,-0.12,-1.52,-0.35c-0.31,-0.23,-0.47,-0.5,-0.47,-0.79c0,-0.16,0.07,-0.29,0.2,-0.41c0.13,-0.12,0.29,-0.18,0.49,-0.18c0.15,0,0.27,0.02,0.38,0.06c0.11,0.04,0.3,0.16,0.57,0.34c0.43,0.3,0.86,0.45,1.3,0.45c0.67,0,1.25,-0.25,1.76,-0.76c0.51,-0.51,0.76,-1.12,0.76,-1.84c0,-0.71,-0.22,-1.36,-0.67,-1.97c-0.45,-0.6,-1.07,-1.07,-1.86,-1.41c-0.62,-0.26,-1.47,-0.41,-2.55,-0.44l2.22,-4.52l4.16,0" fill="#000000" stroke="none" fill-opacity="1"/>
<path d="m523.52,123.27l-0.81,2.23l-6.84,0l0,-0.31c2.01,-1.83,3.43,-3.33,4.25,-4.49c0.82,-1.16,1.23,-2.23,1.23,-3.2c0,-0.73,-0.23,-1.33,-0.68,-1.8c-0.45,-0.47,-0.99,-0.71,-1.62,-0.71c-0.57,0,-1.09,0.17,-1.54,0.5c-0.45,0.33,-0.78,0.82,-0.99,1.47l-0.33,0c0.15,-1.06,0.51,-1.87,1.1,-2.44c0.59,-0.56,1.33,-0.84,2.21,-0.84c0.94,0,1.72,0.3,2.35,0.91c0.63,0.6,0.95,1.32,0.95,2.14c0,0.58,-0.14,1.17,-0.41,1.75c-0.43,0.93,-1.11,1.91,-2.05,2.94c-1.43,1.55,-2.31,2.48,-2.66,2.8l3.02,0c0.61,0,1.05,-0.02,1.3,-0.06c0.25,-0.04,0.47,-0.13,0.67,-0.27c0.2,-0.14,0.37,-0.34,0.52,-0.6l0.33,0m8.81,-9.59l0,0.31c-0.75,0.07,-1.36,0.22,-1.84,0.45c-0.47,0.23,-0.95,0.57,-1.41,1.03c-0.47,0.46,-0.85,0.97,-1.16,1.54c-0.3,0.57,-0.56,1.24,-0.77,2.02c0.82,-0.56,1.65,-0.84,2.47,-0.84c0.79,0,1.48,0.32,2.06,0.95c0.58,0.64,0.87,1.46,0.87,2.47c0,0.97,-0.3,1.85,-0.89,2.64c-0.7,0.97,-1.63,1.45,-2.8,1.45c-0.79,0,-1.46,-0.26,-2.02,-0.78c-1.08,-1.02,-1.62,-2.34,-1.62,-3.97c0,-1.03,0.21,-2.02,0.62,-2.95c0.42,-0.94,1.01,-1.77,1.78,-2.49c0.77,-0.72,1.51,-1.21,2.22,-1.46c0.71,-0.25,1.36,-0.37,1.97,-0.37l0.5,0m-5.31,5.98c-0.1,0.77,-0.16,1.39,-0.16,1.86c0,0.55,0.1,1.15,0.3,1.79c0.2,0.64,0.5,1.15,0.9,1.52c0.29,0.26,0.65,0.39,1.06,0.39c0.5,0,0.94,-0.23,1.33,-0.7c0.39,-0.46,0.58,-1.13,0.58,-1.99c0,-0.98,-0.19,-1.83,-0.58,-2.54c-0.39,-0.71,-0.93,-1.07,-1.64,-1.07c-0.22,0,-0.45,0.05,-0.7,0.14c-0.25,0.09,-0.61,0.29,-1.09,0.59" fill="#000000" stroke="none" fill-opacity="1"/>
</g>
<g stroke-width="0.62" fill="#ffffff">
<path d="m60.46,173.09l465.91,0l0,98.4l-465.91,0l0,-98.4"/>
</g>
<g stroke-width="1" fill="none">
<path d="m108.41,217.77c-0.98,0.85,-1.85,1.28,-2.62,1.28c-0.46,0,-0.84,-0.15,-1.14,-0.45c-0.3,-0.3,-0.45,-0.67,-0.45,-1.13c0,-0.6,0.26,-1.15,0.79,-1.64c0.53,-0.49,1.67,-1.14,3.43,-1.94l0,-0.81c0,-0.6,-0.03,-0.98,-0.1,-1.14c-0.07,-0.16,-0.19,-0.29,-0.37,-0.41c-0.18,-0.11,-0.39,-0.17,-0.62,-0.17c-0.36,0,-0.67,0.08,-0.91,0.25c-0.15,0.1,-0.22,0.22,-0.22,0.36c0,0.11,0.08,0.26,0.23,0.44c0.22,0.25,0.33,0.49,0.33,0.72c0,0.27,-0.1,0.51,-0.31,0.7c-0.21,0.2,-0.48,0.3,-0.81,0.3c-0.36,0,-0.67,-0.11,-0.91,-0.32c-0.24,-0.21,-0.36,-0.47,-0.36,-0.76c0,-0.42,0.16,-0.81,0.48,-1.18c0.32,-0.37,0.78,-0.66,1.36,-0.86c0.58,-0.2,1.19,-0.3,1.81,-0.3c0.76,0,1.36,0.16,1.8,0.48c0.44,0.32,0.72,0.67,0.86,1.05c0.08,0.24,0.12,0.79,0.12,1.66l0,3.09c0,0.36,0.01,0.59,0.04,0.69c0.03,0.09,0.07,0.16,0.12,0.21c0.06,0.05,0.12,0.07,0.2,0.07c0.15,0,0.3,-0.1,0.45,-0.31l0.25,0.2c-0.28,0.42,-0.57,0.72,-0.87,0.91c-0.3,0.19,-0.65,0.29,-1.05,0.29c-0.45,0,-0.8,-0.11,-1.06,-0.32c-0.26,-0.21,-0.42,-0.53,-0.47,-0.96m0,-0.62l0,-2.69c-0.69,0.41,-1.2,0.84,-1.55,1.31c-0.22,0.3,-0.33,0.61,-0.33,0.92c0,0.26,0.09,0.49,0.28,0.69c0.15,0.16,0.34,0.23,0.59,0.23c0.29,0,0.62,-0.16,1,-0.47m7.72,-9.8l0,9.94c0,0.56,0.07,0.92,0.2,1.08c0.13,0.16,0.39,0.24,0.77,0.27l0,0.31l-4.31,0l0,-0.31c0.34,-0.01,0.6,-0.11,0.78,-0.3c0.11,-0.14,0.17,-0.48,0.17,-1.05l0,-8.27c0,-0.56,-0.07,-0.92,-0.2,-1.08c-0.13,-0.16,-0.38,-0.24,-0.76,-0.27l0,-0.33l3.34,0m5,0l0,9.94c0,0.56,0.07,0.92,0.2,1.08c0.13,0.16,0.39,0.24,0.77,0.27l0,0.31l-4.31,0l0,-0.31c0.34,-0.01,0.6,-0.11,0.78,-0.3c0.11,-0.14,0.17,-0.48,0.17,-1.05l0,-8.27c0,-0.56,-0.07,-0.92,-0.2,-1.08c-0.13,-0.16,-0.38,-0.24,-0.76,-0.27l0,-0.33l3.34,0m17.97,-0.27l0,4.03l-0.34,0c-0.25,-1.05,-0.72,-1.86,-1.4,-2.41c-0.68,-0.56,-1.46,-0.84,-2.32,-0.84c-0.73,0,-1.4,0.21,-2,0.62c-0.6,0.42,-1.04,0.96,-1.31,1.62c-0.36,0.86,-0.55,1.82,-0.55,2.87c0,1.03,0.13,1.97,0.39,2.83c0.26,0.85,0.67,1.5,1.23,1.94c0.56,0.44,1.29,0.66,2.17,0.66c0.73,0,1.4,-0.16,2,-0.48c0.6,-0.32,1.24,-0.87,1.92,-1.66l0,1c-0.65,0.68,-1.32,1.17,-2.02,1.48c-0.7,0.31,-1.53,0.46,-2.48,0.46c-1.23,0,-2.33,-0.25,-3.29,-0.74c-0.96,-0.49,-1.71,-1.21,-2.23,-2.13c-0.52,-0.93,-0.78,-1.92,-0.78,-2.97c0,-1.1,0.29,-2.15,0.87,-3.15c0.58,-0.99,1.36,-1.77,2.34,-2.31c0.98,-0.55,2.03,-0.82,3.13,-0.82c0.81,0,1.67,0.18,2.58,0.53c0.53,0.21,0.86,0.31,1,0.31c0.19,0,0.35,-0.07,0.48,-0.2c0.13,-0.14,0.22,-0.35,0.26,-0.64l0.34,0m12.36,0.27l0,3.14l-0.31,0c-0.19,-0.72,-0.39,-1.24,-0.61,-1.55c-0.22,-0.32,-0.52,-0.57,-0.91,-0.76c-0.22,-0.1,-0.6,-0.16,-1.14,-0.16l-0.86,0l0,8.94c0,0.59,0.03,0.96,0.09,1.11c0.06,0.15,0.19,0.28,0.38,0.39c0.19,0.11,0.46,0.17,0.79,0.17l0.37,0l0,0.31l-6.06,0l0,-0.31l0.37,0c0.34,0,0.61,-0.06,0.81,-0.19c0.16,-0.07,0.28,-0.21,0.36,-0.41c0.06,-0.14,0.09,-0.49,0.09,-1.08l0,-8.94l-0.84,0c-0.78,0,-1.35,0.17,-1.7,0.5c-0.49,0.46,-0.8,1.11,-0.94,1.97l-0.33,0l0,-3.14l10.42,0" fill="#000000" stroke="none" fill-opacity="1"/>
</g>
<g stroke="#ff0000" stroke-width="1" fill="none">
<path d="m378.52,212.06l0,1.03c0.41,-0.45,0.8,-0.77,1.17,-0.98c0.37,-0.2,0.78,-0.3,1.22,-0.3c0.52,0,0.95,0.15,1.29,0.44c0.34,0.29,0.57,0.65,0.68,1.08c0.09,0.32,0.14,0.94,0.14,1.86l0,3.11c0,0.61,0.05,1,0.16,1.15c0.11,0.15,0.34,0.25,0.7,0.29l0,0.31l-4.05,0l0,-0.31c0.3,-0.04,0.52,-0.17,0.66,-0.37c0.09,-0.14,0.14,-0.49,0.14,-1.06l0,-3.55c0,-0.66,-0.03,-1.07,-0.08,-1.24c-0.05,-0.17,-0.14,-0.3,-0.27,-0.4c-0.12,-0.09,-0.26,-0.14,-0.41,-0.14c-0.49,0,-0.94,0.35,-1.36,1.05l0,4.28c0,0.6,0.05,0.98,0.16,1.14c0.11,0.16,0.32,0.26,0.62,0.3l0,0.31l-4.05,0l0,-0.31c0.34,-0.03,0.58,-0.14,0.72,-0.31c0.1,-0.14,0.16,-0.51,0.16,-1.12l0,-4.5c0,-0.6,-0.06,-0.98,-0.17,-1.13c-0.11,-0.15,-0.35,-0.25,-0.7,-0.29l0,-0.31l3.27,0m10.5,-0.25c0.7,0,1.34,0.18,1.94,0.54c0.59,0.36,1.05,0.87,1.36,1.53c0.31,0.66,0.47,1.39,0.47,2.18c0,1.12,-0.29,2.07,-0.86,2.84c-0.7,0.92,-1.66,1.37,-2.87,1.37c-1.21,0,-2.14,-0.42,-2.79,-1.27c-0.65,-0.84,-0.98,-1.82,-0.98,-2.92c0,-1.15,0.33,-2.15,1,-3c0.67,-0.85,1.58,-1.28,2.73,-1.28m0.03,0.61c-0.29,0,-0.54,0.11,-0.75,0.33c-0.21,0.22,-0.34,0.65,-0.41,1.3c-0.06,0.65,-0.09,1.55,-0.09,2.7c0,0.6,0.04,1.17,0.11,1.7c0.06,0.41,0.2,0.72,0.41,0.93c0.21,0.21,0.44,0.32,0.7,0.32c0.26,0,0.47,-0.07,0.64,-0.22c0.22,-0.2,0.36,-0.47,0.44,-0.81c0.11,-0.54,0.17,-1.64,0.17,-3.28c0,-0.97,-0.05,-1.63,-0.16,-1.99c-0.1,-0.36,-0.27,-0.62,-0.48,-0.79c-0.15,-0.12,-0.34,-0.19,-0.58,-0.19m22.3,-4.23l0,4.03l-0.34,0c-0.25,-1.05,-0.72,-1.86,-1.4,-2.41c-0.68,-0.56,-1.46,-0.84,-2.32,-0.84c-0.73,0,-1.4,0.21,-2,0.62c-0.6,0.42,-1.04,0.96,-1.31,1.62c-0.36,0.86,-0.55,1.82,-0.55,2.87c0,1.03,0.13,1.97,0.39,2.83c0.26,0.85,0.67,1.5,1.23,1.94c0.56,0.44,1.29,0.66,2.17,0.66c0.73,0,1.4,-0.16,2,-0.48c0.6,-0.32,1.24,-0.87,1.92,-1.66l0,1c-0.65,0.68,-1.32,1.17,-2.02,1.48c-0.7,0.31,-1.53,0.46,-2.48,0.46c-1.23,0,-2.33,-0.25,-3.29,-0.74c-0.96,-0.49,-1.71,-1.21,-2.23,-2.13c-0.52,-0.93,-0.78,-1.92,-0.78,-2.97c0,-1.1,0.29,-2.15,0.87,-3.15c0.58,-0.99,1.36,-1.77,2.34,-2.31c0.98,-0.55,2.03,-0.82,3.13,-0.82c0.81,0,1.67,0.18,2.58,0.53c0.53,0.21,0.86,0.31,1,0.31c0.19,0,0.35,-0.07,0.48,-0.2c0.13,-0.14,0.22,-0.35,0.26,-0.64l0.34,0m12.36,0.27l0,3.14l-0.31,0c-0.19,-0.72,-0.39,-1.24,-0.61,-1.55c-0.22,-0.32,-0.52,-0.57,-0.91,-0.76c-0.22,-0.1,-0.6,-0.16,-1.14,-0.16l-0.86,0l0,8.94c0,0.59,0.03,0.96,0.09,1.11c0.06,0.15,0.19,0.28,0.38,0.39c0.19,0.11,0.46,0.17,0.79,0.17l0.37,0l0,0.31l-6.06,0l0,-0.31l0.37,0c0.34,0,0.61,-0.06,0.81,-0.19c0.16,-0.07,0.28,-0.21,0.36,-0.41c0.06,-0.14,0.09,-0.49,0.09,-1.08l0,-8.94l-0.84,0c-0.78,0,-1.35,0.17,-1.7,0.5c-0.49,0.46,-0.8,1.11,-0.94,1.97l-0.33,0l0,-3.14l10.42,0" fill="#ff0000" stroke="none" fill-opacity="1"/>
</g>
</g>
<g clip-path="url(#c2)">
<g stroke="none" stroke-width="1" fill="#ff0000">
<polygon points="88.99,271.49 98.5,271.49 108,271.49 117.51,271.49 127.02,271.49 136.53,271.49 146.04,271.49 155.55,271.49 165.06,271.49 174.56,271.49 184.07,271.49 193.58,271.49 203.09,271.49 212.6,271.49 222.11,271.49 231.61,271.49 241.12,271.49 250.63,271.49 260.14,271.49 269.65,271.49 279.16,271.49 288.66,271.49 298.17,271.49 307.68,271.49 317.19,271.49 326.7,271.49 336.21,271.49 345.72,271.49 355.22,271.49 364.73,271.49 374.24,271.49 383.75,271.49 393.26,271.49 402.77,271.49 412.27,271.49 421.78,271.49 431.29,271.49 440.8,173.09 450.31,173.09 459.82,271.49 469.33,271.49 478.83,271.49 488.34,271.49 497.85,271.49 507.36,271.49 516.87,271.49 526.38,271.49 526.38,271.49 60.46,271.49 60.46,271.49 69.97,271.49 79.48,271.49"/>
</g>
<g stroke-width="0.62" fill="none">
<polyline fill="none" points="60.46,271.49 69.97,271.49 79.48,271.49 88.99,271.49 98.5,271.49 108,271.49 117.51,271.49 127.02,271.49 136.53,271.49 146.04,271.49 155.55,271.49 165.06,271.49 174.56,271.49 184.07,271.49 193.58,271.49 203.09,271.49 212.6,271.49 222.11,271.49 231.61,271.49 241.12,271.49 250.63,271.49 260.14,271.49 269.65,271.49 279.16,271.49 288.66,271.49 298.17,271.49 307.68,271.49 317.19,271.49 326.7,271.49 336.21,271.49 345.72,271.49 355.22,271.49 364.73,271.49 374.24,271.49 383.75,271.49 393.26,271.49 402.77,271.49 412.27,271.49 421.78,271.49 431.29,271.49"/>
<polyline fill="none" points="440.8,173.09 450.31,173.09"/>
<polyline fill="none" points="459.82,271.49 469.33,271.49 478.83,271.49 488.34,271.49 497.85,271.49 507.36,271.49 516.87,271.49 526.38,271.49"/>
</g>
<g stroke="none" stroke-width="1" fill="#000000">
<polygon points="88.99,173.09 98.5,271.49 108,271.49 117.51,271.49 127.02,271.49 136.53,271.49 146.04,271.49 155.55,271.49 165.06,271.49 174.56,271.49 184.07,271.49 193.58,271.49 203.09,271.49 212.6,271.49 222.11,271.49 231.61,271.49 241.12,271.49 250.63,271.49 260.14,271.49 269.65,271.49 279.16,271.49 288.66,271.49 298.17,271.49 307.68,271.49 317.19,271.49 326.7,271.49 336.21,271.49 345.72,271.49 355.22,271.49 364.73,271.49 374.24,271.49 383.75,271.49 393.26,271.49 402.77,271.49 412.27,271.49 421.78,271.49 431.29,271.49 440.8,271.49 450.31,271.49 459.82,271.49 469.33,271.49 478.83,271.49 488.34,271.49 497.85,271.49 507.36,271.49 516.87,271.49 526.38,271.49 526.38,271.49 60.46,271.49 60.46,173.09 69.97,173.09 79.48,173.09"/>
</g>
<g stroke-width="0.62" fill="none">
<polyline fill="none" points="60.46,173.09 69.97,173.09 79.48,173.09 88.99,173.09"/>
<polyline fill="none" points="98.5,271.49 108,271.49 117.51,271.49 127.02,271.49 136.53,271.49 146.04,271.49 155.55,271.49 165.06,271.49 174.56,271.49 184.07,271.49 193.58,271.49 203.09,271.49 212.6,271.49 222.11,271.49 231.61,271.49 241.12,271.49 250.63,271.49 260.14,271.49 269.65,271.49 279.16,271.49 288.66,271.49 298.17,271.49 307.68,271.49 317.19,271.49 326.7,271.49 336.21,271.49 345.72,271.49 355.22,271.49 364.73,271.49 374.24,271.49 383.75,271.49 393.26,271.49 402.77,271.49 412.27,271.49 421.78,271.49 431.29,271.49 440.8,271.49 450.31,271.49 459.82,271.49 469.33,271.49 478.83,271.49 488.34,271.49 497.85,271.49 507.36,271.49 516.87,271.49 526.38,271.49"/>
</g>
</g>
<g clip-path="url(#c0)">
<g stroke-width="0.62" stroke-linecap="butt" fill="none">
<path d="M60.46,271.49l0,-98.4"/>
<path d="M60.46,271.49l3.75,0M60.46,266.57l3.75,0M60.46,261.65l3.75,0M60.46,256.73l3.75,0M60.46,251.81l3.75,0M60.46,246.89l3.75,0M60.46,241.97l3.75,0M60.46,237.05l3.75,0M60.46,232.13l3.75,0M60.46,227.21l3.75,0M60.46,222.29l3.75,0M60.46,217.37l3.75,0M60.46,212.45l3.75,0M60.46,207.53l3.75,0M60.46,202.61l3.75,0M60.46,197.69l3.75,0M60.46,192.77l3.75,0M60.46,187.85l3.75,0M60.46,182.93l3.75,0M60.46,178.01l3.75,0M60.46,173.09l3.75,0"/>
<path d="M60.46,271.49l7.5,0M60.46,251.81l7.5,0M60.46,232.13l7.5,0M60.46,212.45l7.5,0M60.46,192.77l7.5,0M60.46,173.09l7.5,0"/>
<path d="M526.38,271.49l0,-98.4"/>
<path d="M526.38,271.49l-3.75,0M526.38,266.57l-3.75,0M526.38,261.65l-3.75,0M526.38,256.73l-3.75,0M526.38,251.81l-3.75,0M526.38,246.89l-3.75,0M526.38,241.97l-3.75,0M526.38,237.05l-3.75,0M526.38,232.13l-3.75,0M526.38,227.21l-3.75,0M526.38,222.29l-3.75,0M526.38,217.37l-3.75,0M526.38,212.45l-3.75,0M526.38,207.53l-3.75,0M526.38,202.61l-3.75,0M526.38,197.69l-3.75,0M526.38,192.77l-3.75,0M526.38,187.85l-3.75,0M526.38,182.93l-3.75,0M526.38,178.01l-3.75,0M526.38,173.09l-3.75,0"/>
<path d="M526.38,271.49l-7.5,0M526.38,251.81l-7.5,0M526.38,232.13l-7.5,0M526.38,212.45l-7.5,0M526.38,192.77l-7.5,0M526.38,173.09l-7.5,0"/>
<path d="M60.46,271.49l465.91,0"/>
<path d="M60.46,271.49l0,-3.75M79.1,271.49l0,-3.75M97.74,271.49l0,-3.75M116.37,271.49l0,-3.75M135.01,271.49l0,-3.75M153.64,271.49l0,-3.75M172.28,271.49l0,-3.75M190.92,271.49l0,-3.75M209.55,271.49l0,-3.75M228.19,271.49l0,-3.75M246.83,271.49l0,-3.75M265.46,271.49l0,-3.75M284.1,271.49l0,-3.75M302.74,271.49l0,-3.75M321.37,271.49l0,-3.75M340.01,271.49l0,-3.75M358.65,271.49l0,-3.75M377.28,271.49l0,-3.75M395.92,271.49l0,-3.75M414.56,271.49l0,-3.75M433.19,271.49l0,-3.75M451.83,271.49l0,-3.75M470.47,271.49l0,-3.75M489.1,271.49l0,-3.75M507.74,271.49l0,-3.75M526.38,271.49l0,-3.75"/>
<path d="M60.46,271.49l0,-7.5M153.64,271.49l0,-7.5M246.83,271.49l0,-7.5M340.01,271.49l0,-7.5M433.19,271.49l0,-7.5M526.38,271.49l0,-7.5"/>
<path d="M60.46,173.09l465.91,0"/>
<path d="M60.46,173.09l0,3.75M79.1,173.09l0,3.75M97.74,173.09l0,3.75M116.37,173.09l0,3.75M135.01,173.09l0,3.75M153.64,173.09l0,3.75M172.28,173.09l0,3.75M190.92,173.09l0,3.75M209.55,173.09l0,3.75M228.19,173.09l0,3.75M246.83,173.09l0,3.75M265.46,173.09l0,3.75M284.1,173.09l0,3.75M302.74,173.09l0,3.75M321.37,173.09l0,3.75M340.01,173.09l0,3.75M358.65,173.09l0,3.75M377.28,173.09l0,3.75M395.92,173.09l0,3.75M414.56,173.09l0,3.75M433.19,173.09l0,3.75M451.83,173.09l0,3.75M470.47,173.09l0,3.75M489.1,173.09l0,3.75M507.74,173.09l0,3.75M526.38,173.09l0,3.75"/>
<path d="M60.46,173.09l0,7.5M153.64,173.09l0,7.5M246.83,173.09l0,7.5M340.01,173.09l0,7.5M433.19,173.09l0,7.5M526.38,173.09l0,7.5"/>
</g>
<g stroke-width="1" fill="none">
<path d="m267.12,313.86c0.07,0.87,0.62,1.31,1.64,1.31l0,0.31l-4.92,0l0,-0.31c1.01,0,1.56,-0.44,1.64,-1.31c-1.51,0,-2.72,-0.41,-3.62,-1.22c-0.9,-0.81,-1.35,-1.8,-1.35,-2.95c0,-1.23,0.46,-2.21,1.37,-2.95c0.92,-0.74,2.11,-1.14,3.59,-1.2c-0.07,-0.87,-0.62,-1.31,-1.64,-1.31l0,-0.33l4.92,0l0,0.33c-1.02,0,-1.57,0.44,-1.64,1.31c1.62,0.05,2.86,0.48,3.7,1.29c0.84,0.81,1.26,1.76,1.26,2.87c0,1.16,-0.45,2.14,-1.35,2.95c-0.9,0.81,-2.1,1.22,-3.6,1.22m-1.64,-7.86c-0.98,0.05,-1.74,0.35,-2.3,0.91c-0.55,0.55,-0.83,1.53,-0.83,2.94c0,2.24,1.04,3.42,3.12,3.53l0,-7.37m1.64,0l0,7.37c0.94,-0.03,1.69,-0.32,2.27,-0.86c0.57,-0.54,0.86,-1.53,0.86,-2.97c0,-2.25,-1.04,-3.43,-3.12,-3.55" fill="#000000" stroke="none" fill-opacity="1"/>
<path d="m278.34,318.91l0,0.33c-0.86,-0.44,-1.58,-0.95,-2.16,-1.53c-0.82,-0.82,-1.46,-1.8,-1.9,-2.92c-0.44,-1.12,-0.66,-2.29,-0.66,-3.5c0,-1.76,0.43,-3.37,1.3,-4.83c0.87,-1.46,2.01,-2.5,3.41,-3.12l0,0.36c-0.7,0.39,-1.27,0.92,-1.73,1.59c-0.45,0.68,-0.79,1.53,-1.02,2.56c-0.22,1.03,-0.34,2.1,-0.34,3.22c0,1.22,0.1,2.33,0.3,3.33c0.15,0.78,0.32,1.41,0.53,1.89c0.21,0.48,0.49,0.94,0.85,1.37c0.36,0.44,0.83,0.85,1.4,1.25m8.59,-5.66l-0.81,2.23l-6.84,0l0,-0.31c2.01,-1.83,3.43,-3.33,4.25,-4.49c0.82,-1.16,1.23,-2.23,1.23,-3.2c0,-0.73,-0.23,-1.33,-0.68,-1.8c-0.45,-0.47,-0.99,-0.71,-1.62,-0.71c-0.57,0,-1.09,0.17,-1.54,0.5c-0.45,0.33,-0.78,0.82,-0.99,1.47l-0.33,0c0.15,-1.06,0.51,-1.87,1.1,-2.44c0.59,-0.56,1.33,-0.84,2.21,-0.84c0.94,0,1.72,0.3,2.35,0.91c0.63,0.6,0.95,1.32,0.95,2.14c0,0.58,-0.14,1.17,-0.41,1.75c-0.43,0.93,-1.11,1.91,-2.05,2.94c-1.43,1.55,-2.31,2.48,-2.66,2.8l3.02,0c0.61,0,1.05,-0.02,1.3,-0.06c0.25,-0.04,0.47,-0.13,0.67,-0.27c0.2,-0.14,0.37,-0.34,0.52,-0.6l0.33,0m9,0l-0.81,2.23l-6.84,0l0,-0.31c2.01,-1.83,3.43,-3.33,4.25,-4.49c0.82,-1.16,1.23,-2.23,1.23,-3.2c0,-0.73,-0.23,-1.33,-0.68,-1.8c-0.45,-0.47,-0.99,-0.71,-1.62,-0.71c-0.57,0,-1.09,0.17,-1.54,0.5c-0.45,0.33,-0.78,0.82,-0.99,1.47l-0.33,0c0.15,-1.06,0.51,-1.87,1.1,-2.44c0.59,-0.56,1.33,-0.84,2.21,-0.84c0.94,0,1.72,0.3,2.35,0.91c0.63,0.6,0.95,1.32,0.95,2.14c0,0.58,-0.14,1.17,-0.41,1.75c-0.43,0.93,-1.11,1.91,-2.05,2.94c-1.43,1.55,-2.31,2.48,-2.66,2.8l3.02,0c0.61,0,1.05,-0.02,1.3,-0.06c0.25,-0.04,0.47,-0.13,0.67,-0.27c0.2,-0.14,0.37,-0.34,0.52,-0.6l0.33,0m1.67,-2.34l4.42,0l0,1.3l-4.42,0l0,-1.3m13.33,2.34l-0.81,2.23l-6.84,0l0,-0.31c2.01,-1.83,3.43,-3.33,4.25,-4.49c0.82,-1.16,1.23,-2.23,1.23,-3.2c0,-0.73,-0.23,-1.33,-0.68,-1.8c-0.45,-0.47,-0.99,-0.71,-1.62,-0.71c-0.57,0,-1.09,0.17,-1.54,0.5c-0.45,0.33,-0.78,0.82,-0.99,1.47l-0.33,0c0.15,-1.06,0.51,-1.87,1.1,-2.44c0.59,-0.56,1.33,-0.84,2.21,-0.84c0.94,0,1.72,0.3,2.35,0.91c0.63,0.6,0.95,1.32,0.95,2.14c0,0.58,-0.14,1.17,-0.41,1.75c-0.43,0.93,-1.11,1.91,-2.05,2.94c-1.43,1.55,-2.31,2.48,-2.66,2.8l3.02,0c0.61,0,1.05,-0.02,1.3,-0.06c0.25,-0.04,0.47,-0.13,0.67,-0.27c0.2,-0.14,0.37,-0.34,0.52,-0.6l0.33,0m1.86,-7.14c0.33,-0.78,0.75,-1.39,1.25,-1.81c0.5,-0.43,1.13,-0.64,1.89,-0.64c0.93,0,1.64,0.3,2.12,0.91c0.37,0.45,0.56,0.93,0.56,1.45c0,0.83,-0.53,1.7,-1.58,2.61c0.71,0.28,1.24,0.68,1.61,1.2c0.36,0.52,0.55,1.12,0.55,1.82c0,1.01,-0.32,1.88,-0.95,2.61c-0.83,0.96,-2.04,1.44,-3.62,1.44c-0.77,0,-1.3,-0.1,-1.59,-0.29c-0.29,-0.19,-0.43,-0.4,-0.43,-0.62c0,-0.17,0.07,-0.31,0.2,-0.44c0.14,-0.12,0.3,-0.19,0.48,-0.19c0.15,0,0.29,0.02,0.44,0.06c0.09,0.03,0.31,0.14,0.66,0.31c0.34,0.18,0.58,0.29,0.72,0.33c0.21,0.06,0.43,0.09,0.67,0.09c0.58,0,1.09,-0.23,1.52,-0.68c0.43,-0.45,0.64,-0.99,0.64,-1.6c0,-0.45,-0.1,-0.89,-0.3,-1.31c-0.15,-0.32,-0.31,-0.57,-0.48,-0.73c-0.25,-0.23,-0.59,-0.43,-1.02,-0.62c-0.43,-0.18,-0.86,-0.27,-1.3,-0.27l-0.28,0l0,-0.25c0.45,-0.06,0.9,-0.23,1.35,-0.49c0.45,-0.27,0.78,-0.59,0.99,-0.97c0.21,-0.38,0.31,-0.79,0.31,-1.24c0,-0.58,-0.18,-1.06,-0.55,-1.42c-0.37,-0.36,-0.83,-0.55,-1.37,-0.55c-0.89,0,-1.62,0.47,-2.22,1.42l-0.28,-0.12m8.5,-2.42l0,-0.36c0.86,0.43,1.59,0.93,2.17,1.52c0.81,0.83,1.44,1.81,1.88,2.93c0.44,1.12,0.66,2.28,0.66,3.49c0,1.77,-0.43,3.38,-1.3,4.84c-0.87,1.45,-2.01,2.5,-3.41,3.13l0,-0.33c0.7,-0.39,1.27,-0.91,1.73,-1.59c0.45,-0.67,0.79,-1.52,1.01,-2.55c0.22,-1.03,0.33,-2.11,0.33,-3.23c0,-1.22,-0.09,-2.33,-0.28,-3.33c-0.14,-0.78,-0.31,-1.41,-0.52,-1.88c-0.21,-0.47,-0.5,-0.93,-0.85,-1.37c-0.35,-0.44,-0.82,-0.86,-1.41,-1.27" fill="#000000" stroke="none" fill-opacity="1"/>
<path d="m56.58,285.77c0,-1.32,0.2,-2.46,0.6,-3.41c0.4,-0.95,0.93,-1.66,1.59,-2.13c0.52,-0.37,1.05,-0.56,1.59,-0.56c0.9,0,1.69,0.45,2.39,1.36c0.89,1.12,1.33,2.65,1.33,4.56c0,1.34,-0.19,2.49,-0.58,3.43c-0.39,0.94,-0.88,1.62,-1.48,2.05c-0.6,0.42,-1.18,0.63,-1.73,0.63c-1.1,0,-2.03,-0.65,-2.77,-1.95c-0.62,-1.1,-0.94,-2.43,-0.94,-3.97m1.69,0.2c0,1.59,0.19,2.9,0.58,3.91c0.33,0.85,0.82,1.28,1.45,1.28c0.31,0,0.63,-0.14,0.96,-0.41c0.33,-0.28,0.58,-0.74,0.76,-1.4c0.26,-0.98,0.39,-2.36,0.39,-4.14c0,-1.32,-0.14,-2.43,-0.41,-3.31c-0.21,-0.65,-0.47,-1.11,-0.8,-1.39c-0.24,-0.19,-0.52,-0.28,-0.84,-0.28c-0.4,0,-0.74,0.18,-1.05,0.53c-0.41,0.47,-0.68,1.21,-0.83,2.23c-0.15,1.02,-0.22,2.01,-0.22,2.99" fill="#000000" stroke="none" fill-opacity="1"/>
<path d="m150.17,289.25l-0.81,2.23l-6.84,0l0,-0.31c2.01,-1.83,3.43,-3.33,4.25,-4.49c0.82,-1.16,1.23,-2.23,1.23,-3.2c0,-0.73,-0.23,-1.33,-0.68,-1.8c-0.45,-0.47,-0.99,-0.71,-1.62,-0.71c-0.57,0,-1.09,0.17,-1.54,0.5c-0.45,0.33,-0.78,0.82,-0.99,1.47l-0.33,0c0.15,-1.06,0.51,-1.87,1.1,-2.44c0.59,-0.56,1.33,-0.84,2.21,-0.84c0.94,0,1.72,0.3,2.35,0.91c0.63,0.6,0.95,1.32,0.95,2.14c0,0.58,-0.14,1.17,-0.41,1.75c-0.43,0.93,-1.11,1.91,-2.05,2.94c-1.43,1.55,-2.31,2.48,-2.66,2.8l3.02,0c0.61,0,1.05,-0.02,1.3,-0.06c0.25,-0.04,0.47,-0.13,0.67,-0.27c0.2,-0.14,0.37,-0.34,0.52,-0.6l0.33,0m3.16,0.58c0.27,0,0.5,0.09,0.68,0.27c0.18,0.18,0.27,0.41,0.27,0.68c0,0.26,-0.09,0.48,-0.28,0.66c-0.19,0.18,-0.41,0.27,-0.67,0.27c-0.26,0,-0.48,-0.09,-0.67,-0.27c-0.19,-0.18,-0.28,-0.4,-0.28,-0.66c0,-0.27,0.09,-0.5,0.28,-0.68c0.19,-0.18,0.41,-0.27,0.67,-0.27m10.41,-9.94l-0.66,1.45l-3.5,0l-0.75,1.56c1.51,0.22,2.7,0.78,3.58,1.69c0.76,0.77,1.14,1.68,1.14,2.73c0,0.6,-0.12,1.17,-0.37,1.69c-0.24,0.52,-0.56,0.96,-0.94,1.33c-0.38,0.36,-0.8,0.66,-1.26,0.87c-0.66,0.31,-1.33,0.47,-2.02,0.47c-0.7,0,-1.2,-0.12,-1.52,-0.35c-0.31,-0.23,-0.47,-0.5,-0.47,-0.79c0,-0.16,0.07,-0.29,0.2,-0.41c0.13,-0.12,0.29,-0.18,0.49,-0.18c0.15,0,0.27,0.02,0.38,0.06c0.11,0.04,0.3,0.16,0.57,0.34c0.43,0.3,0.86,0.45,1.3,0.45c0.67,0,1.25,-0.25,1.76,-0.76c0.51,-0.51,0.76,-1.12,0.76,-1.84c0,-0.71,-0.22,-1.36,-0.67,-1.97c-0.45,-0.6,-1.07,-1.07,-1.86,-1.41c-0.62,-0.26,-1.47,-0.41,-2.55,-0.44l2.22,-4.52l4.16,0" fill="#000000" stroke="none" fill-opacity="1"/>
<path d="m249.91,279.89l-0.66,1.45l-3.5,0l-0.75,1.56c1.51,0.22,2.7,0.78,3.58,1.69c0.76,0.77,1.14,1.68,1.14,2.73c0,0.6,-0.12,1.17,-0.37,1.69c-0.24,0.52,-0.56,0.96,-0.94,1.33c-0.38,0.36,-0.8,0.66,-1.26,0.87c-0.66,0.31,-1.33,0.47,-2.02,0.47c-0.7,0,-1.2,-0.12,-1.52,-0.35c-0.31,-0.23,-0.47,-0.5,-0.47,-0.79c0,-0.16,0.07,-0.29,0.2,-0.41c0.13,-0.12,0.29,-0.18,0.49,-0.18c0.15,0,0.27,0.02,0.38,0.06c0.11,0.04,0.3,0.16,0.57,0.34c0.43,0.3,0.86,0.45,1.3,0.45c0.67,0,1.25,-0.25,1.76,-0.76c0.51,-0.51,0.76,-1.12,0.76,-1.84c0,-0.71,-0.22,-1.36,-0.67,-1.97c-0.45,-0.6,-1.07,-1.07,-1.86,-1.41c-0.62,-0.26,-1.47,-0.41,-2.55,-0.44l2.22,-4.52l4.16,0" fill="#000000" stroke="none" fill-opacity="1"/>
<path d="m330.27,279.89l6.2,0l0,0.33l-3.86,11.5l-0.95,0l3.45,-10.42l-3.19,0c-0.64,0,-1.09,0.07,-1.37,0.22c-0.48,0.26,-0.86,0.67,-1.16,1.22l-0.23,-0.09l1.11,-2.75m9.42,9.94c0.27,0,0.5,0.09,0.68,0.27c0.18,0.18,0.27,0.41,0.27,0.68c0,0.26,-0.09,0.48,-0.28,0.66c-0.19,0.18,-0.41,0.27,-0.67,0.27c-0.26,0,-0.48,-0.09,-0.67,-0.27c-0.19,-0.18,-0.28,-0.4,-0.28,-0.66c0,-0.27,0.09,-0.5,0.28,-0.68c0.19,-0.18,0.41,-0.27,0.67,-0.27m10.41,-9.94l-0.66,1.45l-3.5,0l-0.75,1.56c1.51,0.22,2.7,0.78,3.58,1.69c0.76,0.77,1.14,1.68,1.14,2.73c0,0.6,-0.12,1.17,-0.37,1.69c-0.24,0.52,-0.56,0.96,-0.94,1.33c-0.38,0.36,-0.8,0.66,-1.26,0.87c-0.66,0.31,-1.33,0.47,-2.02,0.47c-0.7,0,-1.2,-0.12,-1.52,-0.35c-0.31,-0.23,-0.47,-0.5,-0.47,-0.79c0,-0.16,0.07,-0.29,0.2,-0.41c0.13,-0.12,0.29,-0.18,0.49,-0.18c0.15,0,0.27,0.02,0.38,0.06c0.11,0.04,0.3,0.16,0.57,0.34c0.43,0.3,0.86,0.45,1.3,0.45c0.67,0,1.25,-0.25,1.76,-0.76c0.51,-0.51,0.76,-1.12,0.76,-1.84c0,-0.71,-0.22,-1.36,-0.67,-1.97c-0.45,-0.6,-1.07,-1.07,-1.86,-1.41c-0.62,-0.26,-1.47,-0.41,-2.55,-0.44l2.22,-4.52l4.16,0" fill="#000000" stroke="none" fill-opacity="1"/>
<path d="m426.23,281.03l2.83,-1.37l0.28,0l0,9.78c0,0.66,0.03,1.06,0.08,1.22c0.05,0.16,0.16,0.28,0.34,0.37c0.17,0.09,0.52,0.14,1.04,0.15l0,0.31l-4.36,0l0,-0.31c0.55,-0.01,0.91,-0.06,1.07,-0.14c0.16,-0.08,0.27,-0.2,0.34,-0.34c0.06,-0.14,0.09,-0.56,0.09,-1.26l0,-6.25c0,-0.84,-0.03,-1.39,-0.09,-1.62c-0.04,-0.18,-0.11,-0.31,-0.22,-0.4c-0.1,-0.09,-0.23,-0.13,-0.37,-0.13c-0.21,0,-0.51,0.09,-0.89,0.27l-0.12,-0.27m7.58,4.73c0,-1.32,0.2,-2.46,0.6,-3.41c0.4,-0.95,0.93,-1.66,1.59,-2.13c0.52,-0.37,1.05,-0.56,1.59,-0.56c0.9,0,1.69,0.45,2.39,1.36c0.89,1.12,1.33,2.65,1.33,4.56c0,1.34,-0.19,2.49,-0.58,3.43c-0.39,0.94,-0.88,1.62,-1.48,2.05c-0.6,0.42,-1.18,0.63,-1.73,0.63c-1.1,0,-2.03,-0.65,-2.77,-1.95c-0.62,-1.1,-0.94,-2.43,-0.94,-3.97m1.69,0.2c0,1.59,0.19,2.9,0.58,3.91c0.33,0.85,0.82,1.28,1.45,1.28c0.31,0,0.63,-0.14,0.96,-0.41c0.33,-0.28,0.58,-0.74,0.76,-1.4c0.26,-0.98,0.39,-2.36,0.39,-4.14c0,-1.32,-0.14,-2.43,-0.41,-3.31c-0.21,-0.65,-0.47,-1.11,-0.8,-1.39c-0.24,-0.19,-0.52,-0.28,-0.84,-0.28c-0.4,0,-0.74,0.18,-1.05,0.53c-0.41,0.47,-0.68,1.21,-0.83,2.23c-0.15,1.02,-0.22,2.01,-0.22,2.99" fill="#000000" stroke="none" fill-opacity="1"/>
<path d="m503.53,281.03l2.83,-1.37l0.28,0l0,9.78c0,0.66,0.03,1.06,0.08,1.22c0.05,0.16,0.16,0.28,0.34,0.37c0.17,0.09,0.52,0.14,1.04,0.15l0,0.31l-4.36,0l0,-0.31c0.55,-0.01,0.91,-0.06,1.07,-0.14c0.16,-0.08,0.27,-0.2,0.34,-0.34c0.06,-0.14,0.09,-0.56,0.09,-1.26l0,-6.25c0,-0.84,-0.03,-1.39,-0.09,-1.62c-0.04,-0.18,-0.11,-0.31,-0.22,-0.4c-0.1,-0.09,-0.23,-0.13,-0.37,-0.13c-0.21,0,-0.51,0.09,-0.89,0.27l-0.12,-0.27m14.98,8.22l-0.81,2.23l-6.84,0l0,-0.31c2.01,-1.83,3.43,-3.33,4.25,-4.49c0.82,-1.16,1.23,-2.23,1.23,-3.2c0,-0.73,-0.23,-1.33,-0.68,-1.8c-0.45,-0.47,-0.99,-0.71,-1.62,-0.71c-0.57,0,-1.09,0.17,-1.54,0.5c-0.45,0.33,-0.78,0.82,-0.99,1.47l-0.33,0c0.15,-1.06,0.51,-1.87,1.1,-2.44c0.59,-0.56,1.33,-0.84,2.21,-0.84c0.94,0,1.72,0.3,2.35,0.91c0.63,0.6,0.95,1.32,0.95,2.14c0,0.58,-0.14,1.17,-0.41,1.75c-0.43,0.93,-1.11,1.91,-2.05,2.94c-1.43,1.55,-2.31,2.48,-2.66,2.8l3.02,0c0.61,0,1.05,-0.02,1.3,-0.06c0.25,-0.04,0.47,-0.13,0.67,-0.27c0.2,-0.14,0.37,-0.34,0.52,-0.6l0.33,0m3.16,0.58c0.27,0,0.5,0.09,0.68,0.27c0.18,0.18,0.27,0.41,0.27,0.68c0,0.26,-0.09,0.48,-0.28,0.66c-0.19,0.18,-0.41,0.27,-0.67,0.27c-0.26,0,-0.48,-0.09,-0.67,-0.27c-0.19,-0.18,-0.28,-0.4,-0.28,-0.66c0,-0.27,0.09,-0.5,0.28,-0.68c0.19,-0.18,0.41,-0.27,0.67,-0.27m10.41,-9.94l-0.66,1.45l-3.5,0l-0.75,1.56c1.51,0.22,2.7,0.78,3.58,1.69c0.76,0.77,1.14,1.68,1.14,2.73c0,0.6,-0.12,1.17,-0.37,1.69c-0.24,0.52,-0.56,0.96,-0.94,1.33c-0.38,0.36,-0.8,0.66,-1.26,0.87c-0.66,0.31,-1.33,0.47,-2.02,0.47c-0.7,0,-1.2,-0.12,-1.52,-0.35c-0.31,-0.23,-0.47,-0.5,-0.47,-0.79c0,-0.16,0.07,-0.29,0.2,-0.41c0.13,-0.12,0.29,-0.18,0.49,-0.18c0.15,0,0.27,0.02,0.38,0.06c0.11,0.04,0.3,0.16,0.57,0.34c0.43,0.3,0.86,0.45,1.3,0.45c0.67,0,1.25,-0.25,1.76,-0.76c0.51,-0.51,0.76,-1.12,0.76,-1.84c0,-0.71,-0.22,-1.36,-0.67,-1.97c-0.45,-0.6,-1.07,-1.07,-1.86,-1.41c-0.62,-0.26,-1.47,-0.41,-2.55,-0.44l2.22,-4.52l4.16,0" fill="#000000" stroke="none" fill-opacity="1"/>
</g>
<g stroke-width="0.62" fill="#ffffff">
<path d="m60.46,339.06l465.91,0l0,98.4l-465.91,0l0,-98.4"/>
</g>
<g stroke-width="1" fill="none">
<path d="m385.91,404.94c-0.98,0.85,-1.85,1.28,-2.62,1.28c-0.46,0,-0.84,-0.15,-1.14,-0.45c-0.3,-0.3,-0.45,-0.67,-0.45,-1.13c0,-0.6,0.26,-1.15,0.79,-1.64c0.53,-0.49,1.67,-1.14,3.43,-1.94l0,-0.81c0,-0.6,-0.03,-0.98,-0.1,-1.14c-0.07,-0.16,-0.19,-0.29,-0.37,-0.41c-0.18,-0.11,-0.39,-0.17,-0.62,-0.17c-0.36,0,-0.67,0.08,-0.91,0.25c-0.15,0.1,-0.22,0.22,-0.22,0.36c0,0.11,0.08,0.26,0.23,0.44c0.22,0.25,0.33,0.49,0.33,0.72c0,0.27,-0.1,0.51,-0.31,0.7c-0.21,0.2,-0.48,0.3,-0.81,0.3c-0.36,0,-0.67,-0.11,-0.91,-0.32c-0.24,-0.21,-0.36,-0.47,-0.36,-0.76c0,-0.42,0.16,-0.81,0.48,-1.18c0.32,-0.37,0.78,-0.66,1.36,-0.86c0.58,-0.2,1.19,-0.3,1.81,-0.3c0.76,0,1.36,0.16,1.8,0.48c0.44,0.32,0.72,0.67,0.86,1.05c0.08,0.24,0.12,0.79,0.12,1.66l0,3.09c0,0.36,0.01,0.59,0.04,0.69c0.03,0.09,0.07,0.16,0.12,0.21c0.06,0.05,0.12,0.07,0.2,0.07c0.15,0,0.3,-0.1,0.45,-0.31l0.25,0.2c-0.28,0.42,-0.57,0.72,-0.87,0.91c-0.3,0.19,-0.65,0.29,-1.05,0.29c-0.45,0,-0.8,-0.11,-1.06,-0.32c-0.26,-0.21,-0.42,-0.53,-0.47,-0.96m0,-0.62l0,-2.69c-0.69,0.41,-1.2,0.84,-1.55,1.31c-0.22,0.3,-0.33,0.61,-0.33,0.92c0,0.26,0.09,0.49,0.28,0.69c0.15,0.16,0.34,0.23,0.59,0.23c0.29,0,0.62,-0.16,1,-0.47m7.72,-9.8l0,9.94c0,0.56,0.07,0.92,0.2,1.08c0.13,0.16,0.39,0.24,0.77,0.27l0,0.31l-4.31,0l0,-0.31c0.34,-0.01,0.6,-0.11,0.78,-0.3c0.11,-0.14,0.17,-0.48,0.17,-1.05l0,-8.27c0,-0.56,-0.07,-0.92,-0.2,-1.08c-0.13,-0.16,-0.38,-0.24,-0.76,-0.27l0,-0.33l3.34,0m5,0l0,9.94c0,0.56,0.07,0.92,0.2,1.08c0.13,0.16,0.39,0.24,0.77,0.27l0,0.31l-4.31,0l0,-0.31c0.34,-0.01,0.6,-0.11,0.78,-0.3c0.11,-0.14,0.17,-0.48,0.17,-1.05l0,-8.27c0,-0.56,-0.07,-0.92,-0.2,-1.08c-0.13,-0.16,-0.38,-0.24,-0.76,-0.27l0,-0.33l3.34,0m17.97,-0.27l0,4.03l-0.34,0c-0.25,-1.05,-0.72,-1.86,-1.4,-2.41c-0.68,-0.56,-1.46,-0.84,-2.32,-0.84c-0.73,0,-1.4,0.21,-2,0.62c-0.6,0.42,-1.04,0.96,-1.31,1.62c-0.36,0.86,-0.55,1.82,-0.55,2.87c0,1.03,0.13,1.97,0.39,2.83c0.26,0.85,0.67,1.5,1.23,1.94c0.56,0.44,1.29,0.66,2.17,0.66c0.73,0,1.4,-0.16,2,-0.48c0.6,-0.32,1.24,-0.87,1.92,-1.66l0,1c-0.65,0.68,-1.32,1.17,-2.02,1.48c-0.7,0.31,-1.53,0.46,-2.48,0.46c-1.23,0,-2.33,-0.25,-3.29,-0.74c-0.96,-0.49,-1.71,-1.21,-2.23,-2.13c-0.52,-0.93,-0.78,-1.92,-0.78,-2.97c0,-1.1,0.29,-2.15,0.87,-3.15c0.58,-0.99,1.36,-1.77,2.34,-2.31c0.98,-0.55,2.03,-0.82,3.13,-0.82c0.81,0,1.67,0.18,2.58,0.53c0.53,0.21,0.86,0.31,1,0.31c0.19,0,0.35,-0.07,0.48,-0.2c0.13,-0.14,0.22,-0.35,0.26,-0.64l0.34,0m12.36,0.27l0,3.14l-0.31,0c-0.19,-0.72,-0.39,-1.24,-0.61,-1.55c-0.22,-0.32,-0.52,-0.57,-0.91,-0.76c-0.22,-0.1,-0.6,-0.16,-1.14,-0.16l-0.86,0l0,8.94c0,0.59,0.03,0.96,0.09,1.11c0.06,0.15,0.19,0.28,0.38,0.39c0.19,0.11,0.46,0.17,0.79,0.17l0.37,0l0,0.31l-6.06,0l0,-0.31l0.37,0c0.34,0,0.61,-0.06,0.81,-0.19c0.16,-0.07,0.28,-0.21,0.36,-0.41c0.06,-0.14,0.09,-0.49,0.09,-1.08l0,-8.94l-0.84,0c-0.78,0,-1.35,0.17,-1.7,0.5c-0.49,0.46,-0.8,1.11,-0.94,1.97l-0.33,0l0,-3.14l10.42,0" fill="#000000" stroke="none" fill-opacity="1"/>
</g>
<g stroke="#ff0000" stroke-width="1" fill="none">
<path d="m106.02,389.19l0,1.03c0.41,-0.45,0.8,-0.77,1.17,-0.98c0.37,-0.2,0.78,-0.3,1.22,-0.3c0.52,0,0.95,0.15,1.29,0.44c0.34,0.29,0.57,0.65,0.68,1.08c0.09,0.32,0.14,0.94,0.14,1.86l0,3.11c0,0.61,0.05,1,0.16,1.15c0.11,0.15,0.34,0.25,0.7,0.29l0,0.31l-4.05,0l0,-0.31c0.3,-0.04,0.52,-0.17,0.66,-0.37c0.09,-0.14,0.14,-0.49,0.14,-1.06l0,-3.55c0,-0.66,-0.03,-1.07,-0.08,-1.24c-0.05,-0.17,-0.14,-0.3,-0.27,-0.4c-0.12,-0.09,-0.26,-0.14,-0.41,-0.14c-0.49,0,-0.94,0.35,-1.36,1.05l0,4.28c0,0.6,0.05,0.98,0.16,1.14c0.11,0.16,0.32,0.26,0.62,0.3l0,0.31l-4.05,0l0,-0.31c0.34,-0.03,0.58,-0.14,0.72,-0.31c0.1,-0.14,0.16,-0.51,0.16,-1.12l0,-4.5c0,-0.6,-0.06,-0.98,-0.17,-1.13c-0.11,-0.15,-0.35,-0.25,-0.7,-0.29l0,-0.31l3.27,0m10.5,-0.25c0.7,0,1.34,0.18,1.94,0.54c0.59,0.36,1.05,0.87,1.36,1.53c0.31,0.66,0.47,1.39,0.47,2.18c0,1.12,-0.29,2.07,-0.86,2.84c-0.7,0.92,-1.66,1.37,-2.87,1.37c-1.21,0,-2.14,-0.42,-2.79,-1.27c-0.65,-0.84,-0.98,-1.82,-0.98,-2.92c0,-1.15,0.33,-2.15,1,-3c0.67,-0.85,1.58,-1.28,2.73,-1.28m0.03,0.61c-0.29,0,-0.54,0.11,-0.75,0.33c-0.21,0.22,-0.34,0.65,-0.41,1.3c-0.06,0.65,-0.09,1.55,-0.09,2.7c0,0.6,0.04,1.17,0.11,1.7c0.06,0.41,0.2,0.72,0.41,0.93c0.21,0.21,0.44,0.32,0.7,0.32c0.26,0,0.47,-0.07,0.64,-0.22c0.22,-0.2,0.36,-0.47,0.44,-0.81c0.11,-0.54,0.17,-1.64,0.17,-3.28c0,-0.97,-0.05,-1.63,-0.16,-1.99c-0.1,-0.36,-0.27,-0.62,-0.48,-0.79c-0.15,-0.12,-0.34,-0.19,-0.58,-0.19m22.3,-4.23l0,4.03l-0.34,0c-0.25,-1.05,-0.72,-1.86,-1.4,-2.41c-0.68,-0.56,-1.46,-0.84,-2.32,-0.84c-0.73,0,-1.4,0.21,-2,0.62c-0.6,0.42,-1.04,0.96,-1.31,1.62c-0.36,0.86,-0.55,1.82,-0.55,2.87c0,1.03,0.13,1.97,0.39,2.83c0.26,0.85,0.67,1.5,1.23,1.94c0.56,0.44,1.29,0.66,2.17,0.66c0.73,0,1.4,-0.16,2,-0.48c0.6,-0.32,1.24,-0.87,1.92,-1.66l0,1c-0.65,0.68,-1.32,1.17,-2.02,1.48c-0.7,0.31,-1.53,0.46,-2.48,0.46c-1.23,0,-2.33,-0.25,-3.29,-0.74c-0.96,-0.49,-1.71,-1.21,-2.23,-2.13c-0.52,-0.93,-0.78,-1.92,-0.78,-2.97c0,-1.1,0.29,-2.15,0.87,-3.15c0.58,-0.99,1.36,-1.77,2.34,-2.31c0.98,-0.55,2.03,-0.82,3.13,-0.82c0.81,0,1.67,0.18,2.58,0.53c0.53,0.21,0.86,0.31,1,0.31c0.19,0,0.35,-0.07,0.48,-0.2c0.13,-0.14,0.22,-0.35,0.26,-0.64l0.34,0m12.36,0.27l0,3.14l-0.31,0c-0.19,-0.72,-0.39,-1.24,-0.61,-1.55c-0.22,-0.32,-0.52,-0.57,-0.91,-0.76c-0.22,-0.1,-0.6,-0.16,-1.14,-0.16l-0.86,0l0,8.94c0,0.59,0.03,0.96,0.09,1.11c0.06,0.15,0.19,0.28,0.38,0.39c0.19,0.11,0.46,0.17,0.79,0.17l0.37,0l0,0.31l-6.06,0l0,-0.31l0.37,0c0.34,0,0.61,-0.06,0.81,-0.19c0.16,-0.07,0.28,-0.21,0.36,-0.41c0.06,-0.14,0.09,-0.49,0.09,-1.08l0,-8.94l-0.84,0c-0.78,0,-1.35,0.17,-1.7,0.5c-0.49,0.46,-0.8,1.11,-0.94,1.97l-0.33,0l0,-3.14l10.42,0" fill="#ff0000" stroke="none" fill-opacity="1"/>
</g>
</g>
<g clip-path="url(#c3)">
<g stroke="none" stroke-width="1" fill="#000000">
<polygon points="88.99,437.46 98.5,437.46 108,437.46 117.51,437.46 127.02,437.46 136.53,437.46 146.04,437.46 155.55,437.46 165.06,437.46 174.56,437.46 184.07,437.46 193.58,437.46 203.09,437.46 212.6,437.46 222.11,437.46 231.61,437.46 241.12,437.46 250.63,437.46 260.14,437.46 269.65,437.46 279.16,437.46 288.66,437.46 298.17,437.46 307.68,437.46 317.19,437.46 326.7,437.46 336.21,437.46 345.72,437.46 355.22,437.46 364.73,437.46 374.24,437.46 383.75,437.46 393.26,437.46 402.77,437.46 412.27,437.46 421.78,437.46 431.29,437.46 440.8,339.06 450.31,339.06 459.82,437.46 469.33,437.46 478.83,437.46 488.34,437.46 497.85,437.46 507.36,437.46 516.87,437.46 526.38,437.46 526.38,437.46 60.46,437.46 60.46,437.46 69.97,437.46 79.48,437.46"/>
</g>
<g stroke-width="0.62" fill="none">
<polyline fill="none" points="60.46,437.46 69.97,437.46 79.48,437.46 88.99,437.46 98.5,437.46 108,437.46 117.51,437.46 127.02,437.46 136.53,437.46 146.04,437.46 155.55,437.46 165.06,437.46 174.56,437.46 184.07,437.46 193.58,437.46 203.09,437.46 212.6,437.46 222.11,437.46 231.61,437.46 241.12,437.46 250.63,437.46 260.14,437.46 269.65,437.46 279.16,437.46 288.66,437.46 298.17,437.46 307.68,437.46 317.19,437.46 326.7,437.46 336.21,437.46 345.72,437.46 355.22,437.46 364.73,437.46 374.24,437.46 383.75,437.46 393.26,437.46 402.77,437.46 412.27,437.46 421.78,437.46 431.29,437.46"/>
<polyline fill="none" points="440.8,339.06 450.31,339.06"/>
<polyline fill="none" points="459.82,437.46 469.33,437.46 478.83,437.46 488.34,437.46 497.85,437.46 507.36,437.46 516.87,437.46 526.38,437.46"/>
</g>
<g stroke="none" stroke-width="1" fill="#ff0000">
<polygon points="88.99,339.06 98.5,437.46 108,437.46 117.51,437.46 127.02,437.46 136.53,437.46 146.04,437.46 155.55,437.46 165.06,437.46 174.56,437.46 184.07,437.46 193.58,437.46 203.09,437.46 212.6,437.46 222.11,437.46 231.61,437.46 241.12,437.46 250.63,437.46 260.14,437.46 269.65,437.46 279.16,437.46 288.66,437.46 298.17,437.46 307.68,437.46 317.19,437.46 326.7,437.46 336.21,437.46 345.72,437.46 355.22,437.46 364.73,437.46 374.24,437.46 383.75,437.46 393.26,437.46 402.77,437.46 412.27,437.46 421.78,437.46 431.29,437.46 440.8,437.46 450.31,437.46 459.82,437.46 469.33,437.46 478.83,437.46 488.34,437.46 497.85,437.46 507.36,437.46 516.87,437.46 526.38,437.46 526.38,437.46 60.46,437.46 60.46,339.06 69.97,339.06 79.48,339.06"/>
</g>
<g stroke-width="0.62" fill="none">
<polyline fill="none" points="60.46,339.06 69.97,339.06 79.48,339.06 88.99,339.06"/>
<polyline fill="none" points="98.5,437.46 108,437.46 117.51,437.46 127.02,437.46 136.53,437.46 146.04,437.46 155.55,437.46 165.06,437.46 174.56,437.46 184.07,437.46 193.58,437.46 203.09,437.46 212.6,437.46 222.11,437.46 231.61,437.46 241.12,437.46 250.63,437.46 260.14,437.46 269.65,437.46 279.16,437.46 288.66,437.46 298.17,437.46 307.68,437.46 317.19,437.46 326.7,437.46 336.21,437.46 345.72,437.46 355.22,437.46 364.73,437.46 374.24,437.46 383.75,437.46 393.26,437.46 402.77,437.46 412.27,437.46 421.78,437.46 431.29,437.46 440.8,437.46 450.31,437.46 459.82,437.46 469.33,437.46 478.83,437.46 488.34,437.46 497.85,437.46 507.36,437.46 516.87,437.46 526.38,437.46"/>
</g>
</g>
<g clip-path="url(#c0)">
<g stroke-width="0.62" stroke-linecap="butt" fill="none">
<path d="M60.46,437.46l0,-98.4"/>
<path d="M60.46,437.46l3.75,0M60.46,432.54l3.75,0M60.46,427.62l3.75,0M60.46,422.7l3.75,0M60.46,417.78l3.75,0M60.46,412.86l3.75,0M60.46,407.94l3.75,0M60.46,403.02l3.75,0M60.46,398.1l3.75,0M60.46,393.18l3.75,0M60.46,388.26l3.75,0M60.46,383.34l3.75,0M60.46,378.42l3.75,0M60.46,373.5l3.75,0M60.46,368.58l3.75,0M60.46,363.66l3.75,0M60.46,358.74l3.75,0M60.46,353.82l3.75,0M60.46,348.9l3.75,0M60.46,343.98l3.75,0M60.46,339.06l3.75,0"/>
<path d="M60.46,437.46l7.5,0M60.46,417.78l7.5,0M60.46,398.1l7.5,0M60.46,378.42l7.5,0M60.46,358.74l7.5,0M60.46,339.06l7.5,0"/>
<path d="M526.38,437.46l0,-98.4"/>
<path d="M526.38,437.46l-3.75,0M526.38,432.54l-3.75,0M526.38,427.62l-3.75,0M526.38,422.7l-3.75,0M526.38,417.78l-3.75,0M526.38,412.86l-3.75,0M526.38,407.94l-3.75,0M526.38,403.02l-3.75,0M526.38,398.1l-3.75,0M526.38,393.18l-3.75,0M526.38,388.26l-3.75,0M526.38,383.34l-3.75,0M526.38,378.42l-3.75,0M526.38,373.5l-3.75,0M526.38,368.58l-3.75,0M526.38,363.66l-3.75,0M526.38,358.74l-3.75,0M526.38,353.82l-3.75,0M526.38,348.9l-3.75,0M526.38,343.98l-3.75,0M526.38,339.06l-3.75,0"/>
<path d="M526.38,437.46l-7.5,0M526.38,417.78l-7.5,0M526.38,398.1l-7.5,0M526.38,378.42l-7.5,0M526.38,358.74l-7.5,0M526.38,339.06l-7.5,0"/>
<path d="M60.46,437.46l465.91,0"/>
<path d="M60.46,437.46l0,-3.75M79.1,437.46l0,-3.75M97.74,437.46l0,-3.75M116.37,437.46l0,-3.75M135.01,437.46l0,-3.75M153.64,437.46l0,-3.75M172.28,437.46l0,-3.75M190.92,437.46l0,-3.75M209.55,437.46l0,-3.75M228.19,437.46l0,-3.75M246.83,437.46l0,-3.75M265.46,437.46l0,-3.75M284.1,437.46l0,-3.75M302.74,437.46l0,-3.75M321.37,437.46l0,-3.75M340.01,437.46l0,-3.75M358.65,437.46l0,-3.75M377.28,437.46l0,-3.75M395.92,437.46l0,-3.75M414.56,437.46l0,-3.75M433.19,437.46l0,-3.75M451.83,437.46l0,-3.75M470.47,437.46l0,-3.75M489.1,437.46l0,-3.75M507.74,437.46l0,-3.75M526.38,437.46l0,-3.75"/>
<path d="M60.46,437.46l0,-7.5M153.64,437.46l0,-7.5M246.83,437.46l0,-7.5M340.01,437.46l0,-7.5M433.19,437.46l0,-7.5M526.38,437.46l0,-7.5"/>
<path d="M60.46,339.06l465.91,0"/>
<path d="M60.46,339.06l0,3.75M79.1,339.06l0,3.75M97.74,339.06l0,3.75M116.37,339.06l0,3.75M135.01,339.06l0,3.75M153.64,339.06l0,3.75M172.28,339.06l0,3.75M190.92,339.06l0,3.75M209.55,339.06l0,3.75M228.19,339.06l0,3.75M246.83,339.06l0,3.75M265.46,339.06l0,3.75M284.1,339.06l0,3.75M302.74,339.06l0,3.75M321.37,339.06l0,3.75M340.01,339.06l0,3.75M358.65,339.06l0,3.75M377.28,339.06l0,3.75M395.92,339.06l0,3.75M414.56,339.06l0,3.75M433.19,339.06l0,3.75M451.83,339.06l0,3.75M470.47,339.06l0,3.75M489.1,339.06l0,3.75M507.74,339.06l0,3.75M526.38,339.06l0,3.75"/>
<path d="M60.46,339.06l0,7.5M153.64,339.06l0,7.5M246.83,339.06l0,7.5M340.01,339.06l0,7.5M433.19,339.06l0,7.5M526.38,339.06l0,7.5"/>
</g>
<g stroke-width="1" fill="none">
<path d="m267.12,479.83c0.07,0.87,0.62,1.31,1.64,1.31l0,0.31l-4.92,0l0,-0.31c1.01,0,1.56,-0.44,1.64,-1.31c-1.51,0,-2.72,-0.41,-3.62,-1.22c-0.9,-0.81,-1.35,-1.8,-1.35,-2.95c0,-1.23,0.46,-2.21,1.37,-2.95c0.92,-0.74,2.11,-1.14,3.59,-1.2c-0.07,-0.87,-0.62,-1.31,-1.64,-1.31l0,-0.33l4.92,0l0,0.33c-1.02,0,-1.57,0.44,-1.64,1.31c1.62,0.05,2.86,0.48,3.7,1.29c0.84,0.81,1.26,1.76,1.26,2.87c0,1.16,-0.45,2.14,-1.35,2.95c-0.9,0.81,-2.1,1.22,-3.6,1.22m-1.64,-7.86c-0.98,0.05,-1.74,0.35,-2.3,0.91c-0.55,0.55,-0.83,1.53,-0.83,2.94c0,2.24,1.04,3.42,3.12,3.53l0,-7.37m1.64,0l0,7.37c0.94,-0.03,1.69,-0.32,2.27,-0.86c0.57,-0.54,0.86,-1.53,0.86,-2.97c0,-2.25,-1.04,-3.43,-3.12,-3.55" fill="#000000" stroke="none" fill-opacity="1"/>
<path d="m278.34,484.87l0,0.33c-0.86,-0.44,-1.58,-0.95,-2.16,-1.53c-0.82,-0.82,-1.46,-1.8,-1.9,-2.92c-0.44,-1.12,-0.66,-2.29,-0.66,-3.5c0,-1.76,0.43,-3.37,1.3,-4.83c0.87,-1.46,2.01,-2.5,3.41,-3.12l0,0.36c-0.7,0.39,-1.27,0.92,-1.73,1.59c-0.45,0.68,-0.79,1.53,-1.02,2.56c-0.22,1.03,-0.34,2.1,-0.34,3.22c0,1.22,0.1,2.33,0.3,3.33c0.15,0.78,0.32,1.41,0.53,1.89c0.21,0.48,0.49,0.94,0.85,1.37c0.36,0.44,0.83,0.85,1.4,1.25m8.59,-5.66l-0.81,2.23l-6.84,0l0,-0.31c2.01,-1.83,3.43,-3.33,4.25,-4.49c0.82,-1.16,1.23,-2.23,1.23,-3.2c0,-0.73,-0.23,-1.33,-0.68,-1.8c-0.45,-0.47,-0.99,-0.71,-1.62,-0.71c-0.57,0,-1.09,0.17,-1.54,0.5c-0.45,0.33,-0.78,0.82,-0.99,1.47l-0.33,0c0.15,-1.06,0.51,-1.87,1.1,-2.44c0.59,-0.56,1.33,-0.84,2.21,-0.84c0.94,0,1.72,0.3,2.35,0.91c0.63,0.6,0.95,1.32,0.95,2.14c0,0.58,-0.14,1.17,-0.41,1.75c-0.43,0.93,-1.11,1.91,-2.05,2.94c-1.43,1.55,-2.31,2.48,-2.66,2.8l3.02,0c0.61,0,1.05,-0.02,1.3,-0.06c0.25,-0.04,0.47,-0.13,0.67,-0.27c0.2,-0.14,0.37,-0.34,0.52,-0.6l0.33,0m9.11,-2.03l0,1.2l-1.55,0l0,3.06l-1.42,0l0,-3.06l-4.89,0l0,-1.09l5.36,-7.67l0.95,0l0,7.56l1.55,0m-2.97,0l0,-5.75l-4.06,5.75l4.06,0m4.53,-0.31l4.42,0l0,1.3l-4.42,0l0,-1.3m13.33,2.34l-0.81,2.23l-6.84,0l0,-0.31c2.01,-1.83,3.43,-3.33,4.25,-4.49c0.82,-1.16,1.23,-2.23,1.23,-3.2c0,-0.73,-0.23,-1.33,-0.68,-1.8c-0.45,-0.47,-0.99,-0.71,-1.62,-0.71c-0.57,0,-1.09,0.17,-1.54,0.5c-0.45,0.33,-0.78,0.82,-0.99,1.47l-0.33,0c0.15,-1.06,0.51,-1.87,1.1,-2.44c0.59,-0.56,1.33,-0.84,2.21,-0.84c0.94,0,1.72,0.3,2.35,0.91c0.63,0.6,0.95,1.32,0.95,2.14c0,0.58,-0.14,1.17,-0.41,1.75c-0.43,0.93,-1.11,1.91,-2.05,2.94c-1.43,1.55,-2.31,2.48,-2.66,2.8l3.02,0c0.61,0,1.05,-0.02,1.3,-0.06c0.25,-0.04,0.47,-0.13,0.67,-0.27c0.2,-0.14,0.37,-0.34,0.52,-0.6l0.33,0m8.81,-9.59l0,0.31c-0.75,0.07,-1.36,0.22,-1.84,0.45c-0.47,0.23,-0.95,0.57,-1.41,1.03c-0.47,0.46,-0.85,0.97,-1.16,1.54c-0.3,0.57,-0.56,1.24,-0.77,2.02c0.82,-0.56,1.65,-0.84,2.47,-0.84c0.79,0,1.48,0.32,2.06,0.95c0.58,0.64,0.87,1.46,0.87,2.47c0,0.97,-0.3,1.85,-0.89,2.64c-0.7,0.97,-1.63,1.45,-2.8,1.45c-0.79,0,-1.46,-0.26,-2.02,-0.78c-1.08,-1.02,-1.62,-2.34,-1.62,-3.97c0,-1.03,0.21,-2.02,0.62,-2.95c0.42,-0.94,1.01,-1.77,1.78,-2.49c0.77,-0.72,1.51,-1.21,2.22,-1.46c0.71,-0.25,1.36,-0.37,1.97,-0.37l0.5,0m-5.31,5.98c-0.1,0.77,-0.16,1.39,-0.16,1.86c0,0.55,0.1,1.15,0.3,1.79c0.2,0.64,0.5,1.15,0.9,1.52c0.29,0.26,0.65,0.39,1.06,0.39c0.5,0,0.94,-0.23,1.33,-0.7c0.39,-0.46,0.58,-1.13,0.58,-1.99c0,-0.98,-0.19,-1.83,-0.58,-2.54c-0.39,-0.71,-0.93,-1.07,-1.64,-1.07c-0.22,0,-0.45,0.05,-0.7,0.14c-0.25,0.09,-0.61,0.29,-1.09,0.59m6.86,-5.95l0,-0.36c0.86,0.43,1.59,0.93,2.17,1.52c0.81,0.83,1.44,1.81,1.88,2.93c0.44,1.12,0.66,2.28,0.66,3.49c0,1.77,-0.43,3.38,-1.3,4.84c-0.87,1.45,-2.01,2.5,-3.41,3.13l0,-0.33c0.7,-0.39,1.27,-0.91,1.73,-1.59c0.45,-0.67,0.79,-1.52,1.01,-2.55c0.22,-1.03,0.33,-2.11,0.33,-3.23c0,-1.22,-0.09,-2.33,-0.28,-3.33c-0.14,-0.78,-0.31,-1.41,-0.52,-1.88c-0.21,-0.47,-0.5,-0.93,-0.85,-1.37c-0.35,-0.44,-0.82,-0.86,-1.41,-1.27" fill="#000000" stroke="none" fill-opacity="1"/>
<path d="m56.58,451.73c0,-1.32,0.2,-2.46,0.6,-3.41c0.4,-0.95,0.93,-1.66,1.59,-2.13c0.52,-0.37,1.05,-0.56,1.59,-0.56c0.9,0,1.69,0.45,2.39,1.36c0.89,1.12,1.33,2.65,1.33,4.56c0,1.34,-0.19,2.49,-0.58,3.43c-0.39,0.94,-0.88,1.62,-1.48,2.05c-0.6,0.42,-1.18,0.63,-1.73,0.63c-1.1,0,-2.03,-0.65,-2.77,-1.95c-0.62,-1.1,-0.94,-2.43,-0.94,-3.97m1.69,0.2c0,1.59,0.19,2.9,0.58,3.91c0.33,0.85,0.82,1.28,1.45,1.28c0.31,0,0.63,-0.14,0.96,-0.41c0.33,-0.28,0.58,-0.74,0.76,-1.4c0.26,-0.98,0.39,-2.36,0.39,-4.14c0,-1.32,-0.14,-2.43,-0.41,-3.31c-0.21,-0.65,-0.47,-1.11,-0.8,-1.39c-0.24,-0.19,-0.52,-0.28,-0.84,-0.28c-0.4,0,-0.74,0.18,-1.05,0.53c-0.41,0.47,-0.68,1.21,-0.83,2.23c-0.15,1.02,-0.22,2.01,-0.22,2.99" fill="#000000" stroke="none" fill-opacity="1"/>
<path d="m150.17,455.22l-0.81,2.23l-6.84,0l0,-0.31c2.01,-1.83,3.43,-3.33,4.25,-4.49c0.82,-1.16,1.23,-2.23,1.23,-3.2c0,-0.73,-0.23,-1.33,-0.68,-1.8c-0.45,-0.47,-0.99,-0.71,-1.62,-0.71c-0.57,0,-1.09,0.17,-1.54,0.5c-0.45,0.33,-0.78,0.82,-0.99,1.47l-0.33,0c0.15,-1.06,0.51,-1.87,1.1,-2.44c0.59,-0.56,1.33,-0.84,2.21,-0.84c0.94,0,1.72,0.3,2.35,0.91c0.63,0.6,0.95,1.32,0.95,2.14c0,0.58,-0.14,1.17,-0.41,1.75c-0.43,0.93,-1.11,1.91,-2.05,2.94c-1.43,1.55,-2.31,2.48,-2.66,2.8l3.02,0c0.61,0,1.05,-0.02,1.3,-0.06c0.25,-0.04,0.47,-0.13,0.67,-0.27c0.2,-0.14,0.37,-0.34,0.52,-0.6l0.33,0m3.16,0.58c0.27,0,0.5,0.09,0.68,0.27c0.18,0.18,0.27,0.41,0.27,0.68c0,0.26,-0.09,0.48,-0.28,0.66c-0.19,0.18,-0.41,0.27,-0.67,0.27c-0.26,0,-0.48,-0.09,-0.67,-0.27c-0.19,-0.18,-0.28,-0.4,-0.28,-0.66c0,-0.27,0.09,-0.5,0.28,-0.68c0.19,-0.18,0.41,-0.27,0.67,-0.27m10.41,-9.94l-0.66,1.45l-3.5,0l-0.75,1.56c1.51,0.22,2.7,0.78,3.58,1.69c0.76,0.77,1.14,1.68,1.14,2.73c0,0.6,-0.12,1.17,-0.37,1.69c-0.24,0.52,-0.56,0.96,-0.94,1.33c-0.38,0.36,-0.8,0.66,-1.26,0.87c-0.66,0.31,-1.33,0.47,-2.02,0.47c-0.7,0,-1.2,-0.12,-1.52,-0.35c-0.31,-0.23,-0.47,-0.5,-0.47,-0.79c0,-0.16,0.07,-0.29,0.2,-0.41c0.13,-0.12,0.29,-0.18,0.49,-0.18c0.15,0,0.27,0.02,0.38,0.06c0.11,0.04,0.3,0.16,0.57,0.34c0.43,0.3,0.86,0.45,1.3,0.45c0.67,0,1.25,-0.25,1.76,-0.76c0.51,-0.51,0.76,-1.12,0.76,-1.84c0,-0.71,-0.22,-1.36,-0.67,-1.97c-0.45,-0.6,-1.07,-1.07,-1.86,-1.41c-0.62,-0.26,-1.47,-0.41,-2.55,-0.44l2.22,-4.52l4.16,0" fill="#000000" stroke="none" fill-opacity="1"/>
<path d="m249.91,445.86l-0.66,1.45l-3.5,0l-0.75,1.56c1.51,0.22,2.7,0.78,3.58,1.69c0.76,0.77,1.14,1.68,1.14,2.73c0,0.6,-0.12,1.17,-0.37,1.69c-0.24,0.52,-0.56,0.96,-0.94,1.33c-0.38,0.36,-0.8,0.66,-1.26,0.87c-0.66,0.31,-1.33,0.47,-2.02,0.47c-0.7,0,-1.2,-0.12,-1.52,-0.35c-0.31,-0.23,-0.47,-0.5,-0.47,-0.79c0,-0.16,0.07,-0.29,0.2,-0.41c0.13,-0.12,0.29,-0.18,0.49,-0.18c0.15,0,0.27,0.02,0.38,0.06c0.11,0.04,0.3,0.16,0.57,0.34c0.43,0.3,0.86,0.45,1.3,0.45c0.67,0,1.25,-0.25,1.76,-0.76c0.51,-0.51,0.76,-1.12,0.76,-1.84c0,-0.71,-0.22,-1.36,-0.67,-1.97c-0.45,-0.6,-1.07,-1.07,-1.86,-1.41c-0.62,-0.26,-1.47,-0.41,-2.55,-0.44l2.22,-4.52l4.16,0" fill="#000000" stroke="none" fill-opacity="1"/>
<path d="m330.27,445.86l6.2,0l0,0.33l-3.86,11.5l-0.95,0l3.45,-10.42l-3.19,0c-0.64,0,-1.09,0.07,-1.37,0.22c-0.48,0.26,-0.86,0.67,-1.16,1.22l-0.23,-0.09l1.11,-2.75m9.42,9.94c0.27,0,0.5,0.09,0.68,0.27c0.18,0.18,0.27,0.41,0.27,0.68c0,0.26,-0.09,0.48,-0.28,0.66c-0.19,0.18,-0.41,0.27,-0.67,0.27c-0.26,0,-0.48,-0.09,-0.67,-0.27c-0.19,-0.18,-0.28,-0.4,-0.28,-0.66c0,-0.27,0.09,-0.5,0.28,-0.68c0.19,-0.18,0.41,-0.27,0.67,-0.27m10.41,-9.94l-0.66,1.45l-3.5,0l-0.75,1.56c1.51,0.22,2.7,0.78,3.58,1.69c0.76,0.77,1.14,1.68,1.14,2.73c0,0.6,-0.12,1.17,-0.37,1.69c-0.24,0.52,-0.56,0.96,-0.94,1.33c-0.38,0.36,-0.8,0.66,-1.26,0.87c-0.66,0.31,-1.33,0.47,-2.02,0.47c-0.7,0,-1.2,-0.12,-1.52,-0.35c-0.31,-0.23,-0.47,-0.5,-0.47,-0.79c0,-0.16,0.07,-0.29,0.2,-0.41c0.13,-0.12,0.29,-0.18,0.49,-0.18c0.15,0,0.27,0.02,0.38,0.06c0.11,0.04,0.3,0.16,0.57,0.34c0.43,0.3,0.86,0.45,1.3,0.45c0.67,0,1.25,-0.25,1.76,-0.76c0.51,-0.51,0.76,-1.12,0.76,-1.84c0,-0.71,-0.22,-1.36,-0.67,-1.97c-0.45,-0.6,-1.07,-1.07,-1.86,-1.41c-0.62,-0.26,-1.47,-0.41,-2.55,-0.44l2.22,-4.52l4.16,0" fill="#000000" stroke="none" fill-opacity="1"/>
<path d="m426.23,447l2.83,-1.37l0.28,0l0,9.78c0,0.66,0.03,1.06,0.08,1.22c0.05,0.16,0.16,0.28,0.34,0.37c0.17,0.09,0.52,0.14,1.04,0.15l0,0.31l-4.36,0l0,-0.31c0.55,-0.01,0.91,-0.06,1.07,-0.14c0.16,-0.08,0.27,-0.2,0.34,-0.34c0.06,-0.14,0.09,-0.56,0.09,-1.26l0,-6.25c0,-0.84,-0.03,-1.39,-0.09,-1.62c-0.04,-0.18,-0.11,-0.31,-0.22,-0.4c-0.1,-0.09,-0.23,-0.13,-0.37,-0.13c-0.21,0,-0.51,0.09,-0.89,0.27l-0.12,-0.27m7.58,4.73c0,-1.32,0.2,-2.46,0.6,-3.41c0.4,-0.95,0.93,-1.66,1.59,-2.13c0.52,-0.37,1.05,-0.56,1.59,-0.56c0.9,0,1.69,0.45,2.39,1.36c0.89,1.12,1.33,2.65,1.33,4.56c0,1.34,-0.19,2.49,-0.58,3.43c-0.39,0.94,-0.88,1.62,-1.48,2.05c-0.6,0.42,-1.18,0.63,-1.73,0.63c-1.1,0,-2.03,-0.65,-2.77,-1.95c-0.62,-1.1,-0.94,-2.43,-0.94,-3.97m1.69,0.2c0,1.59,0.19,2.9,0.58,3.91c0.33,0.85,0.82,1.28,1.45,1.28c0.31,0,0.63,-0.14,0.96,-0.41c0.33,-0.28,0.58,-0.74,0.76,-1.4c0.26,-0.98,0.39,-2.36,0.39,-4.14c0,-1.32,-0.14,-2.43,-0.41,-3.31c-0.21,-0.65,-0.47,-1.11,-0.8,-1.39c-0.24,-0.19,-0.52,-0.28,-0.84,-0.28c-0.4,0,-0.74,0.18,-1.05,0.53c-0.41,0.47,-0.68,1.21,-0.83,2.23c-0.15,1.02,-0.22,2.01,-0.22,2.99" fill="#000000" stroke="none" fill-opacity="1"/>
<path d="m503.53,447l2.83,-1.37l0.28,0l0,9.78c0,0.66,0.03,1.06,0.08,1.22c0.05,0.16,0.16,0.28,0.34,0.37c0.17,0.09,0.52,0.14,1.04,0.15l0,0.31l-4.36,0l0,-0.31c0.55,-0.01,0.91,-0.06,1.07,-0.14c0.16,-0.08,0.27,-0.2,0.34,-0.34c0.06,-0.14,0.09,-0.56,0.09,-1.26l0,-6.25c0,-0.84,-0.03,-1.39,-0.09,-1.62c-0.04,-0.18,-0.11,-0.31,-0.22,-0.4c-0.1,-0.09,-0.23,-0.13,-0.37,-0.13c-0.21,0,-0.51,0.09,-0.89,0.27l-0.12,-0.27m14.98,8.22l-0.81,2.23l-6.84,0l0,-0.31c2.01,-1.83,3.43,-3.33,4.25,-4.49c0.82,-1.16,1.23,-2.23,1.23,-3.2c0,-0.73,-0.23,-1.33,-0.68,-1.8c-0.45,-0.47,-0.99,-0.71,-1.62,-0.71c-0.57,0,-1.09,0.17,-1.54,0.5c-0.45,0.33,-0.78,0.82,-0.99,1.47l-0.33,0c0.15,-1.06,0.51,-1.87,1.1,-2.44c0.59,-0.56,1.33,-0.84,2.21,-0.84c0.94,0,1.72,0.3,2.35,0.91c0.63,0.6,0.95,1.32,0.95,2.14c0,0.58,-0.14,1.17,-0.41,1.75c-0.43,0.93,-1.11,1.91,-2.05,2.94c-1.43,1.55,-2.31,2.48,-2.66,2.8l3.02,0c0.61,0,1.05,-0.02,1.3,-0.06c0.25,-0.04,0.47,-0.13,0.67,-0.27c0.2,-0.14,0.37,-0.34,0.52,-0.6l0.33,0m3.16,0.58c0.27,0,0.5,0.09,0.68,0.27c0.18,0.18,0.27,0.41,0.27,0.68c0,0.26,-0.09,0.48,-0.28,0.66c-0.19,0.18,-0.41,0.27,-0.67,0.27c-0.26,0,-0.48,-0.09,-0.67,-0.27c-0.19,-0.18,-0.28,-0.4,-0.28,-0.66c0,-0.27,0.09,-0.5,0.28,-0.68c0.19,-0.18,0.41,-0.27,0.67,-0.27m10.41,-9.94l-0.66,1.45l-3.5,0l-0.75,1.56c1.51,0.22,2.7,0.78,3.58,1.69c0.76,0.77,1.14,1.68,1.14,2.73c0,0.6,-0.12,1.17,-0.37,1.69c-0.24,0.52,-0.56,0.96,-0.94,1.33c-0.38,0.36,-0.8,0.66,-1.26,0.87c-0.66,0.31,-1.33,0.47,-2.02,0.47c-0.7,0,-1.2,-0.12,-1.52,-0.35c-0.31,-0.23,-0.47,-0.5,-0.47,-0.79c0,-0.16,0.07,-0.29,0.2,-0.41c0.13,-0.12,0.29,-0.18,0.49,-0.18c0.15,0,0.27,0.02,0.38,0.06c0.11,0.04,0.3,0.16,0.57,0.34c0.43,0.3,0.86,0.45,1.3,0.45c0.67,0,1.25,-0.25,1.76,-0.76c0.51,-0.51,0.76,-1.12,0.76,-1.84c0,-0.71,-0.22,-1.36,-0.67,-1.97c-0.45,-0.6,-1.07,-1.07,-1.86,-1.41c-0.62,-0.26,-1.47,-0.41,-2.55,-0.44l2.22,-4.52l4.16,0" fill="#000000" stroke="none" fill-opacity="1"/>
</g>
</g>
</g>
<defs>
<clipPath id="c0"><path d="m0,0l533.49,0l0,497.92l-533.49,0l0,-497.92"/></clipPath>
<clipPath id="c1"><path d="m60.46,7.11l465.91,0l0,98.4l-465.91,0l0,-98.4"/></clipPath>
<clipPath id="c2"><path d="m60.46,173.09l465.91,0l0,98.4l-465.91,0l0,-98.4"/></clipPath>
<clipPath id="c3"><path d="m60.46,339.06l465.91,0l0,98.4l-465.91,0l0,-98.4"/></clipPath>
</defs>
</svg>
