<?xml version="1.0" encoding="UTF-8" standalone="no"?>
<!DOCTYPE svg PUBLIC "-//W3C//DTD SVG 1.0//EN" "http://www.w3.org/TR/2001/PR-SVG-20010719/DTD/svg10.dtd">
<svg width="4cm" height="4cm" viewBox="325 165 71 65" xmlns="http://www.w3.org/2000/svg" xmlns:xlink="http://www.w3.org/1999/xlink">
  <g>
    <ellipse style="fill: #ffffff" cx="361.367" cy="198.034" rx="34.0673" ry="31.0336"/>
    <ellipse style="fill: none; fill-opacity:0; stroke-width: 2; stroke-dasharray: 4; stroke: #000000" cx="361.367" cy="198.034" rx="34.0673" ry="31.0336"/>
    <text font-size="12.7998" style="fill: #000000;text-anchor:middle;font-family:sans-serif;font-style:normal;font-weight:normal" x="361.367" y="201.934">
      <tspan x="361.367" y="201.934"></tspan>
    </text>
  </g>
  <g>
    <path style="fill: #ffffff" d="M 345.5 191 C 345.5,194.5 348.75,198 352,198 C 348.75,198 345.5,201.5 345.5,205 C 345.5,201.5 342.25,198 339,198 C 342.25,198 345.5,194.5 345.5,191z"/>
    <path style="fill: none; fill-opacity:0; stroke-width: 2; stroke: #000000" d="M 345.5 191 C 345.5,194.5 348.75,198 352,198 C 348.75,198 345.5,201.5 345.5,205 C 345.5,201.5 342.25,198 339,198 C 342.25,198 345.5,194.5 345.5,191"/>
    <path style="fill: none; fill-opacity:0; stroke-width: 2; stroke: #000000" d="M 345.5 191 C 345.5,194.5 348.75,198 352,198 C 348.75,198 345.5,201.5 345.5,205 C 345.5,201.5 342.25,198 339,198 C 342.25,198 345.5,194.5 345.5,191"/>
  </g>
  <g>
    <path style="fill: #ffffff" d="M 360.2 178.6 C 360.2,182.1 363.45,185.6 366.7,185.6 C 363.45,185.6 360.2,189.1 360.2,192.6 C 360.2,189.1 356.95,185.6 353.7,185.6 C 356.95,185.6 360.2,182.1 360.2,178.6z"/>
    <path style="fill: none; fill-opacity:0; stroke-width: 2; stroke: #000000" d="M 360.2 178.6 C 360.2,182.1 363.45,185.6 366.7,185.6 C 363.45,185.6 360.2,189.1 360.2,192.6 C 360.2,189.1 356.95,185.6 353.7,185.6 C 356.95,185.6 360.2,182.1 360.2,178.6"/>
    <path style="fill: none; fill-opacity:0; stroke-width: 2; stroke: #000000" d="M 360.2 178.6 C 360.2,182.1 363.45,185.6 366.7,185.6 C 363.45,185.6 360.2,189.1 360.2,192.6 C 360.2,189.1 356.95,185.6 353.7,185.6 C 356.95,185.6 360.2,182.1 360.2,178.6"/>
  </g>
  <g>
    <path style="fill: #ffffff" d="M 371.2 201.6 C 371.2,205.1 374.45,208.6 377.7,208.6 C 374.45,208.6 371.2,212.1 371.2,215.6 C 371.2,212.1 367.95,208.6 364.7,208.6 C 367.95,208.6 371.2,205.1 371.2,201.6z"/>
    <path style="fill: none; fill-opacity:0; stroke-width: 2; stroke: #000000" d="M 371.2 201.6 C 371.2,205.1 374.45,208.6 377.7,208.6 C 374.45,208.6 371.2,212.1 371.2,215.6 C 371.2,212.1 367.95,208.6 364.7,208.6 C 367.95,208.6 371.2,205.1 371.2,201.6"/>
    <path style="fill: none; fill-opacity:0; stroke-width: 2; stroke: #000000" d="M 371.2 201.6 C 371.2,205.1 374.45,208.6 377.7,208.6 C 374.45,208.6 371.2,212.1 371.2,215.6 C 371.2,212.1 367.95,208.6 364.7,208.6 C 367.95,208.6 371.2,205.1 371.2,201.6"/>
  </g>
</svg>
