<?xml version="1.0" encoding="UTF-8" standalone="no"?>
<!DOCTYPE svg PUBLIC "-//W3C//DTD SVG 1.0//EN" "http://www.w3.org/TR/2001/PR-SVG-20010719/DTD/svg10.dtd">
<svg width="17cm" height="11cm" viewBox="67 51 329 216" xmlns="http://www.w3.org/2000/svg" xmlns:xlink="http://www.w3.org/1999/xlink">
  <g>
    <rect style="fill: #ffffff" x="69" y="53" width="236" height="213"/>
    <rect style="fill: none; fill-opacity:0; stroke-width: 2; stroke: #000000" x="69" y="53" width="236" height="213"/>
    <text font-size="12.7998" style="fill: #000000;text-anchor:middle;font-family:sans-serif;font-style:normal;font-weight:normal" x="187" y="163.4">
      <tspan x="187" y="163.4"></tspan>
    </text>
  </g>
  <g>
    <ellipse style="fill: #ffffff" cx="247.933" cy="135.966" rx="34.0673" ry="31.0336"/>
    <ellipse style="fill: none; fill-opacity:0; stroke-width: 2; stroke-dasharray: 4; stroke: #000000" cx="247.933" cy="135.966" rx="34.0673" ry="31.0336"/>
    <text font-size="12.7998" style="fill: #000000;text-anchor:middle;font-family:sans-serif;font-style:normal;font-weight:normal" x="247.933" y="139.866">
      <tspan x="247.933" y="139.866"></tspan>
    </text>
  </g>
  <g>
    <ellipse style="fill: #ffffff" cx="361.367" cy="198.034" rx="34.0673" ry="31.0336"/>
    <ellipse style="fill: none; fill-opacity:0; stroke-width: 2; stroke-dasharray: 4; stroke: #000000" cx="361.367" cy="198.034" rx="34.0673" ry="31.0336"/>
    <text font-size="12.7998" style="fill: #000000;text-anchor:middle;font-family:sans-serif;font-style:normal;font-weight:normal" x="361.367" y="201.934">
      <tspan x="361.367" y="201.934"></tspan>
    </text>
  </g>
  <g>
    <line style="fill: none; fill-opacity:0; stroke-width: 8; stroke: #000000" x1="278.015" y1="152.426" x2="319.003" y2="174.853"/>
    <polygon style="fill: #000000" points="316.603,179.24 327.776,179.654 321.403,170.467 "/>
    <polygon style="fill: none; fill-opacity:0; stroke-width: 8; stroke: #000000" points="316.603,179.24 327.776,179.654 321.403,170.467 "/>
  </g>
  <g>
    <path style="fill: #ffffff" d="M 345.5 191 C 345.5,194.5 348.75,198 352,198 C 348.75,198 345.5,201.5 345.5,205 C 345.5,201.5 342.25,198 339,198 C 342.25,198 345.5,194.5 345.5,191z"/>
    <path style="fill: none; fill-opacity:0; stroke-width: 2; stroke: #000000" d="M 345.5 191 C 345.5,194.5 348.75,198 352,198 C 348.75,198 345.5,201.5 345.5,205 C 345.5,201.5 342.25,198 339,198 C 342.25,198 345.5,194.5 345.5,191"/>
    <path style="fill: none; fill-opacity:0; stroke-width: 2; stroke: #000000" d="M 345.5 191 C 345.5,194.5 348.75,198 352,198 C 348.75,198 345.5,201.5 345.5,205 C 345.5,201.5 342.25,198 339,198 C 342.25,198 345.5,194.5 345.5,191"/>
  </g>
  <g>
    <path style="fill: #ffffff" d="M 360.2 178.6 C 360.2,182.1 363.45,185.6 366.7,185.6 C 363.45,185.6 360.2,189.1 360.2,192.6 C 360.2,189.1 356.95,185.6 353.7,185.6 C 356.95,185.6 360.2,182.1 360.2,178.6z"/>
    <path style="fill: none; fill-opacity:0; stroke-width: 2; stroke: #000000" d="M 360.2 178.6 C 360.2,182.1 363.45,185.6 366.7,185.6 C 363.45,185.6 360.2,189.1 360.2,192.6 C 360.2,189.1 356.95,185.6 353.7,185.6 C 356.95,185.6 360.2,182.1 360.2,178.6"/>
    <path style="fill: none; fill-opacity:0; stroke-width: 2; stroke: #000000" d="M 360.2 178.6 C 360.2,182.1 363.45,185.6 366.7,185.6 C 363.45,185.6 360.2,189.1 360.2,192.6 C 360.2,189.1 356.95,185.6 353.7,185.6 C 356.95,185.6 360.2,182.1 360.2,178.6"/>
  </g>
  <g>
    <path style="fill: #ffffff" d="M 371.2 201.6 C 371.2,205.1 374.45,208.6 377.7,208.6 C 374.45,208.6 371.2,212.1 371.2,215.6 C 371.2,212.1 367.95,208.6 364.7,208.6 C 367.95,208.6 371.2,205.1 371.2,201.6z"/>
    <path style="fill: none; fill-opacity:0; stroke-width: 2; stroke: #000000" d="M 371.2 201.6 C 371.2,205.1 374.45,208.6 377.7,208.6 C 374.45,208.6 371.2,212.1 371.2,215.6 C 371.2,212.1 367.95,208.6 364.7,208.6 C 367.95,208.6 371.2,205.1 371.2,201.6"/>
    <path style="fill: none; fill-opacity:0; stroke-width: 2; stroke: #000000" d="M 371.2 201.6 C 371.2,205.1 374.45,208.6 377.7,208.6 C 374.45,208.6 371.2,212.1 371.2,215.6 C 371.2,212.1 367.95,208.6 364.7,208.6 C 367.95,208.6 371.2,205.1 371.2,201.6"/>
  </g>
  <g>
    <path style="fill: #ffffff" d="M 234.2 129 C 234.2,132.5 237.45,136 240.7,136 C 237.45,136 234.2,139.5 234.2,143 C 234.2,139.5 230.95,136 227.7,136 C 230.95,136 234.2,132.5 234.2,129z"/>
    <path style="fill: none; fill-opacity:0; stroke-width: 2; stroke: #000000" d="M 234.2 129 C 234.2,132.5 237.45,136 240.7,136 C 237.45,136 234.2,139.5 234.2,143 C 234.2,139.5 230.95,136 227.7,136 C 230.95,136 234.2,132.5 234.2,129"/>
    <path style="fill: none; fill-opacity:0; stroke-width: 2; stroke: #000000" d="M 234.2 129 C 234.2,132.5 237.45,136 240.7,136 C 237.45,136 234.2,139.5 234.2,143 C 234.2,139.5 230.95,136 227.7,136 C 230.95,136 234.2,132.5 234.2,129"/>
  </g>
  <g>
    <path style="fill: #ffffff" d="M 248.9 116.6 C 248.9,120.1 252.15,123.6 255.4,123.6 C 252.15,123.6 248.9,127.1 248.9,130.6 C 248.9,127.1 245.65,123.6 242.4,123.6 C 245.65,123.6 248.9,120.1 248.9,116.6z"/>
    <path style="fill: none; fill-opacity:0; stroke-width: 2; stroke: #000000" d="M 248.9 116.6 C 248.9,120.1 252.15,123.6 255.4,123.6 C 252.15,123.6 248.9,127.1 248.9,130.6 C 248.9,127.1 245.65,123.6 242.4,123.6 C 245.65,123.6 248.9,120.1 248.9,116.6"/>
    <path style="fill: none; fill-opacity:0; stroke-width: 2; stroke: #000000" d="M 248.9 116.6 C 248.9,120.1 252.15,123.6 255.4,123.6 C 252.15,123.6 248.9,127.1 248.9,130.6 C 248.9,127.1 245.65,123.6 242.4,123.6 C 245.65,123.6 248.9,120.1 248.9,116.6"/>
  </g>
  <g>
    <path style="fill: #ffffff" d="M 259.9 139.6 C 259.9,143.1 263.15,146.6 266.4,146.6 C 263.15,146.6 259.9,150.1 259.9,153.6 C 259.9,150.1 256.65,146.6 253.4,146.6 C 256.65,146.6 259.9,143.1 259.9,139.6z"/>
    <path style="fill: none; fill-opacity:0; stroke-width: 2; stroke: #000000" d="M 259.9 139.6 C 259.9,143.1 263.15,146.6 266.4,146.6 C 263.15,146.6 259.9,150.1 259.9,153.6 C 259.9,150.1 256.65,146.6 253.4,146.6 C 256.65,146.6 259.9,143.1 259.9,139.6"/>
    <path style="fill: none; fill-opacity:0; stroke-width: 2; stroke: #000000" d="M 259.9 139.6 C 259.9,143.1 263.15,146.6 266.4,146.6 C 263.15,146.6 259.9,150.1 259.9,153.6 C 259.9,150.1 256.65,146.6 253.4,146.6 C 256.65,146.6 259.9,143.1 259.9,139.6"/>
  </g>
  <g>
    <path style="fill: #ffffff" d="M 138.4 92.6 C 138.4,96.1 141.65,99.6 144.9,99.6 C 141.65,99.6 138.4,103.1 138.4,106.6 C 138.4,103.1 135.15,99.6 131.9,99.6 C 135.15,99.6 138.4,96.1 138.4,92.6z"/>
    <path style="fill: none; fill-opacity:0; stroke-width: 2; stroke: #000000" d="M 138.4 92.6 C 138.4,96.1 141.65,99.6 144.9,99.6 C 141.65,99.6 138.4,103.1 138.4,106.6 C 138.4,103.1 135.15,99.6 131.9,99.6 C 135.15,99.6 138.4,96.1 138.4,92.6"/>
    <path style="fill: none; fill-opacity:0; stroke-width: 2; stroke: #000000" d="M 138.4 92.6 C 138.4,96.1 141.65,99.6 144.9,99.6 C 141.65,99.6 138.4,103.1 138.4,106.6 C 138.4,103.1 135.15,99.6 131.9,99.6 C 135.15,99.6 138.4,96.1 138.4,92.6"/>
  </g>
  <g>
    <path style="fill: #ffffff" d="M 187.1 112.2 C 187.1,115.7 190.35,119.2 193.6,119.2 C 190.35,119.2 187.1,122.7 187.1,126.2 C 187.1,122.7 183.85,119.2 180.6,119.2 C 183.85,119.2 187.1,115.7 187.1,112.2z"/>
    <path style="fill: none; fill-opacity:0; stroke-width: 2; stroke: #000000" d="M 187.1 112.2 C 187.1,115.7 190.35,119.2 193.6,119.2 C 190.35,119.2 187.1,122.7 187.1,126.2 C 187.1,122.7 183.85,119.2 180.6,119.2 C 183.85,119.2 187.1,115.7 187.1,112.2"/>
    <path style="fill: none; fill-opacity:0; stroke-width: 2; stroke: #000000" d="M 187.1 112.2 C 187.1,115.7 190.35,119.2 193.6,119.2 C 190.35,119.2 187.1,122.7 187.1,126.2 C 187.1,122.7 183.85,119.2 180.6,119.2 C 183.85,119.2 187.1,115.7 187.1,112.2"/>
  </g>
  <g>
    <path style="fill: #ffffff" d="M 155.1 205.2 C 155.1,208.7 158.35,212.2 161.6,212.2 C 158.35,212.2 155.1,215.7 155.1,219.2 C 155.1,215.7 151.85,212.2 148.6,212.2 C 151.85,212.2 155.1,208.7 155.1,205.2z"/>
    <path style="fill: none; fill-opacity:0; stroke-width: 2; stroke: #000000" d="M 155.1 205.2 C 155.1,208.7 158.35,212.2 161.6,212.2 C 158.35,212.2 155.1,215.7 155.1,219.2 C 155.1,215.7 151.85,212.2 148.6,212.2 C 151.85,212.2 155.1,208.7 155.1,205.2"/>
    <path style="fill: none; fill-opacity:0; stroke-width: 2; stroke: #000000" d="M 155.1 205.2 C 155.1,208.7 158.35,212.2 161.6,212.2 C 158.35,212.2 155.1,215.7 155.1,219.2 C 155.1,215.7 151.85,212.2 148.6,212.2 C 151.85,212.2 155.1,208.7 155.1,205.2"/>
  </g>
  <g>
    <path style="fill: #ffffff" d="M 247.3 215.8 C 247.3,219.3 250.55,222.8 253.8,222.8 C 250.55,222.8 247.3,226.3 247.3,229.8 C 247.3,226.3 244.05,222.8 240.8,222.8 C 244.05,222.8 247.3,219.3 247.3,215.8z"/>
    <path style="fill: none; fill-opacity:0; stroke-width: 2; stroke: #000000" d="M 247.3 215.8 C 247.3,219.3 250.55,222.8 253.8,222.8 C 250.55,222.8 247.3,226.3 247.3,229.8 C 247.3,226.3 244.05,222.8 240.8,222.8 C 244.05,222.8 247.3,219.3 247.3,215.8"/>
    <path style="fill: none; fill-opacity:0; stroke-width: 2; stroke: #000000" d="M 247.3 215.8 C 247.3,219.3 250.55,222.8 253.8,222.8 C 250.55,222.8 247.3,226.3 247.3,229.8 C 247.3,226.3 244.05,222.8 240.8,222.8 C 244.05,222.8 247.3,219.3 247.3,215.8"/>
  </g>
</svg>
