<?xml version="1.0" standalone="no"?>
<!DOCTYPE svg PUBLIC "-//W3C//DTD SVG 1.1//EN" 
  "http://www.w3.org/Graphics/SVG/1.1/DTD/svg11.dtd">
<svg width="604.62px" height="355.66px" version="1.1"
     xmlns="http://www.w3.org/2000/svg"
     xmlns:xlink="http://www.w3.org/1999/xlink">
<desc>Veusz output document</desc>
<g stroke-linejoin="bevel" stroke-linecap="square" stroke="#000000" fill-rule="evenodd">
<g clip-path="url(#c0)">
<g stroke-width="0.62" fill="#ffffff">
<path d="m60.46,14.23l231.18,0l0,280.97l-231.18,0l0,-280.97"/>
</g>
</g>
<g clip-path="url(#c1)">
<g stroke-width="1.25" stroke-linecap="butt" fill="none">
<path d="M137.52,182.81l0,0M214.58,239l0,-112.39"/>
<path d="M118.77,182.81l37.5,0M195.83,239l37.5,0"/>
<path d="M118.77,182.81l37.5,0M195.83,126.61l37.5,0"/>
</g>
<g stroke-width="0.62" stroke-dasharray="2.5,1.25" fill="none">
<polyline fill="none" points="137.52,182.81 214.58,182.81"/>
</g>
<g stroke-linejoin="miter" stroke-width="0.62" transform="translate(137.52, 182.81)" fill="#000000">
<path d="m3.75,0c0,2.07,-1.68,3.75,-3.75,3.75c-2.07,0,-3.75,-1.68,-3.75,-3.75c0,-2.07,1.68,-3.75,3.75,-3.75c2.07,0,3.75,1.68,3.75,3.75"/>
</g>
<g stroke-linejoin="miter" stroke-width="0.62" transform="translate(214.58, 182.81)" fill="#000000">
<path d="m3.75,0c0,2.07,-1.68,3.75,-3.75,3.75c-2.07,0,-3.75,-1.68,-3.75,-3.75c0,-2.07,1.68,-3.75,3.75,-3.75c2.07,0,3.75,1.68,3.75,3.75"/>
</g>
</g>
<g clip-path="url(#c0)">
<g stroke-width="0.62" stroke-linecap="butt" fill="none">
<path d="M60.46,295.2l0,-280.97"/>
<path d="M60.46,295.2l3.75,0M60.46,283.96l3.75,0M60.46,272.72l3.75,0M60.46,261.48l3.75,0M60.46,250.24l3.75,0M60.46,239l3.75,0M60.46,227.76l3.75,0M60.46,216.53l3.75,0M60.46,205.29l3.75,0M60.46,194.05l3.75,0M60.46,182.81l3.75,0M60.46,171.57l3.75,0M60.46,160.33l3.75,0M60.46,149.09l3.75,0M60.46,137.85l3.75,0M60.46,126.61l3.75,0M60.46,115.38l3.75,0M60.46,104.14l3.75,0M60.46,92.9l3.75,0M60.46,81.66l3.75,0M60.46,70.42l3.75,0M60.46,59.18l3.75,0M60.46,47.94l3.75,0M60.46,36.7l3.75,0M60.46,25.47l3.75,0M60.46,14.23l3.75,0"/>
<path d="M60.46,295.2l7.5,0M60.46,239l7.5,0M60.46,182.81l7.5,0M60.46,126.61l7.5,0M60.46,70.42l7.5,0M60.46,14.23l7.5,0"/>
<path d="M291.64,295.2l0,-280.97"/>
<path d="M291.64,295.2l-3.75,0M291.64,283.96l-3.75,0M291.64,272.72l-3.75,0M291.64,261.48l-3.75,0M291.64,250.24l-3.75,0M291.64,239l-3.75,0M291.64,227.76l-3.75,0M291.64,216.53l-3.75,0M291.64,205.29l-3.75,0M291.64,194.05l-3.75,0M291.64,182.81l-3.75,0M291.64,171.57l-3.75,0M291.64,160.33l-3.75,0M291.64,149.09l-3.75,0M291.64,137.85l-3.75,0M291.64,126.61l-3.75,0M291.64,115.38l-3.75,0M291.64,104.14l-3.75,0M291.64,92.9l-3.75,0M291.64,81.66l-3.75,0M291.64,70.42l-3.75,0M291.64,59.18l-3.75,0M291.64,47.94l-3.75,0M291.64,36.7l-3.75,0M291.64,25.47l-3.75,0M291.64,14.23l-3.75,0"/>
<path d="M291.64,295.2l-7.5,0M291.64,239l-7.5,0M291.64,182.81l-7.5,0M291.64,126.61l-7.5,0M291.64,70.42l-7.5,0M291.64,14.23l-7.5,0"/>
</g>
<g stroke-width="1" transform="matrix(0 -1 1 0 53.46 266.71)" fill="none">
<path d="m7.22,-1.62c0.07,0.87,0.62,1.31,1.64,1.31l0,0.31l-4.92,0l0,-0.31c1.01,0,1.56,-0.44,1.64,-1.31c-1.51,0,-2.72,-0.41,-3.62,-1.22c-0.9,-0.81,-1.35,-1.8,-1.35,-2.95c0,-1.23,0.46,-2.21,1.37,-2.95c0.92,-0.74,2.11,-1.14,3.59,-1.2c-0.07,-0.87,-0.62,-1.31,-1.64,-1.31l0,-0.33l4.92,0l0,0.33c-1.02,0,-1.57,0.44,-1.64,1.31c1.62,0.05,2.86,0.48,3.7,1.29c0.84,0.81,1.26,1.76,1.26,2.87c0,1.16,-0.45,2.14,-1.35,2.95c-0.9,0.81,-2.1,1.22,-3.6,1.22m-1.64,-7.86c-0.98,0.05,-1.74,0.35,-2.3,0.91c-0.55,0.55,-0.83,1.53,-0.83,2.94c0,2.24,1.04,3.42,3.12,3.53l0,-7.37m1.64,0l0,7.37c0.94,-0.03,1.69,-0.32,2.27,-0.86c0.57,-0.54,0.86,-1.53,0.86,-2.97c0,-2.25,-1.04,-3.43,-3.12,-3.55" fill="#000000" stroke="none" fill-opacity="1"/>
<path d="m20.08,-12.16l0,15.94l-0.7,0l0,-15.94l0.7,0m9.52,6.73l0,3.37c0,0.73,0.08,1.18,0.23,1.36c0.22,0.25,0.55,0.37,0.98,0.37l0.44,0l0,0.31l-4.95,0l0,-0.31l0.42,0c0.5,0,0.85,-0.16,1.06,-0.48c0.11,-0.18,0.17,-0.59,0.17,-1.25l0,-7.48c0,-0.73,-0.08,-1.18,-0.23,-1.36c-0.22,-0.25,-0.55,-0.37,-1,-0.37l-0.42,0l0,-0.33l4.23,0c1.04,0,1.86,0.11,2.46,0.32c0.6,0.21,1.1,0.58,1.52,1.09c0.41,0.51,0.62,1.11,0.62,1.81c0,0.94,-0.31,1.7,-0.94,2.3c-0.62,0.59,-1.51,0.89,-2.66,0.89c-0.27,0,-0.57,-0.02,-0.9,-0.06c-0.33,-0.04,-0.67,-0.1,-1.04,-0.17m0,-0.48c0.3,0.05,0.57,0.09,0.8,0.12c0.23,0.03,0.43,0.04,0.59,0.04c0.59,0,1.11,-0.23,1.54,-0.69c0.43,-0.46,0.65,-1.05,0.65,-1.78c0,-0.5,-0.1,-0.96,-0.31,-1.39c-0.21,-0.43,-0.5,-0.75,-0.87,-0.96c-0.37,-0.21,-0.8,-0.32,-1.28,-0.32c-0.29,0,-0.66,0.05,-1.11,0.16l0,4.83m10.25,-2.16l0,1.77c0.65,-1.18,1.32,-1.77,2.02,-1.77c0.31,0,0.57,0.1,0.77,0.29c0.2,0.19,0.3,0.41,0.3,0.66c0,0.22,-0.07,0.41,-0.22,0.56c-0.15,0.16,-0.32,0.23,-0.53,0.23c-0.2,0,-0.42,-0.1,-0.67,-0.3c-0.25,-0.2,-0.43,-0.3,-0.55,-0.3c-0.1,0,-0.22,0.06,-0.34,0.17c-0.25,0.23,-0.51,0.61,-0.78,1.16l0,3.75c0,0.44,0.05,0.77,0.16,0.98c0.07,0.16,0.2,0.28,0.39,0.38c0.19,0.1,0.46,0.15,0.81,0.15l0,0.31l-4,0l0,-0.31c0.4,0,0.69,-0.06,0.87,-0.19c0.15,-0.08,0.25,-0.23,0.31,-0.44c0.02,-0.09,0.03,-0.37,0.03,-0.83l0,-3.03c0,-0.91,-0.02,-1.45,-0.05,-1.62c-0.04,-0.18,-0.1,-0.3,-0.2,-0.38c-0.1,-0.08,-0.22,-0.12,-0.37,-0.12c-0.18,0,-0.37,0.04,-0.59,0.12l-0.09,-0.3l2.37,-0.97l0.36,0m5.69,-4.09c0.24,0,0.45,0.09,0.62,0.26c0.17,0.17,0.26,0.38,0.26,0.62c0,0.24,-0.09,0.44,-0.26,0.61c-0.17,0.17,-0.38,0.25,-0.62,0.25c-0.24,0,-0.44,-0.08,-0.61,-0.25c-0.17,-0.17,-0.25,-0.37,-0.25,-0.61c0,-0.24,0.08,-0.45,0.25,-0.62c0.17,-0.17,0.37,-0.26,0.61,-0.26m0.72,4.09l0,6.3c0,0.49,0.03,0.82,0.1,0.98c0.07,0.16,0.17,0.28,0.31,0.36c0.14,0.08,0.4,0.12,0.77,0.12l0,0.31l-3.81,0l0,-0.31c0.39,0,0.64,-0.04,0.77,-0.11c0.13,-0.07,0.23,-0.2,0.31,-0.37c0.08,-0.17,0.12,-0.5,0.12,-0.98l0,-3.02c0,-0.85,-0.03,-1.41,-0.08,-1.66c-0.04,-0.18,-0.1,-0.3,-0.19,-0.37c-0.08,-0.07,-0.2,-0.11,-0.34,-0.11c-0.17,0,-0.36,0.04,-0.59,0.12l-0.11,-0.3l2.36,-0.97l0.37,0m5.12,0c1.19,0,2.14,0.45,2.86,1.36c0.6,0.77,0.91,1.65,0.91,2.64c0,0.7,-0.17,1.41,-0.5,2.12c-0.33,0.72,-0.8,1.26,-1.39,1.62c-0.59,0.36,-1.25,0.55,-1.97,0.55c-1.18,0,-2.11,-0.47,-2.81,-1.41c-0.58,-0.79,-0.87,-1.68,-0.87,-2.67c0,-0.71,0.18,-1.42,0.53,-2.13c0.35,-0.71,0.82,-1.24,1.41,-1.58c0.58,-0.34,1.2,-0.51,1.84,-0.51m-0.27,0.56c-0.3,0,-0.6,0.09,-0.91,0.27c-0.3,0.18,-0.55,0.49,-0.74,0.95c-0.19,0.45,-0.29,1.03,-0.29,1.74c0,1.14,0.23,2.11,0.68,2.94c0.45,0.82,1.05,1.23,1.8,1.23c0.55,0,1.01,-0.23,1.36,-0.68c0.35,-0.45,0.53,-1.24,0.53,-2.35c0,-1.39,-0.3,-2.48,-0.89,-3.28c-0.41,-0.54,-0.92,-0.81,-1.55,-0.81m7.73,-0.56l0,1.77c0.65,-1.18,1.32,-1.77,2.02,-1.77c0.31,0,0.57,0.1,0.77,0.29c0.2,0.19,0.3,0.41,0.3,0.66c0,0.22,-0.07,0.41,-0.22,0.56c-0.15,0.16,-0.32,0.23,-0.53,0.23c-0.2,0,-0.42,-0.1,-0.67,-0.3c-0.25,-0.2,-0.43,-0.3,-0.55,-0.3c-0.1,0,-0.22,0.06,-0.34,0.17c-0.25,0.23,-0.51,0.61,-0.78,1.16l0,3.75c0,0.44,0.05,0.77,0.16,0.98c0.07,0.16,0.2,0.28,0.39,0.38c0.19,0.1,0.46,0.15,0.81,0.15l0,0.31l-4,0l0,-0.31c0.4,0,0.69,-0.06,0.87,-0.19c0.15,-0.08,0.25,-0.23,0.31,-0.44c0.02,-0.09,0.03,-0.37,0.03,-0.83l0,-3.03c0,-0.91,-0.02,-1.45,-0.05,-1.62c-0.04,-0.18,-0.1,-0.3,-0.2,-0.38c-0.1,-0.08,-0.22,-0.12,-0.37,-0.12c-0.18,0,-0.37,0.04,-0.59,0.12l-0.09,-0.3l2.37,-0.97l0.36,0m8.47,0.52l9.22,0l0,0.7l-9.22,0l0,-0.7m0,2.78l9.22,0l0,0.7l-9.22,0l0,-0.7m17.55,-7.39l0,7.8l2,-1.81c0.42,-0.4,0.66,-0.64,0.73,-0.73c0.04,-0.07,0.06,-0.15,0.06,-0.22c0,-0.1,-0.05,-0.2,-0.14,-0.28c-0.09,-0.08,-0.25,-0.13,-0.47,-0.14l0,-0.28l3.41,0l0,0.28c-0.47,0.01,-0.86,0.08,-1.17,0.21c-0.31,0.13,-0.65,0.36,-1.02,0.7l-2.02,1.86l2.02,2.53c0.55,0.7,0.93,1.14,1.12,1.33c0.27,0.27,0.51,0.45,0.72,0.53c0.15,0.05,0.4,0.08,0.75,0.08l0,0.31l-3.81,0l0,-0.31c0.22,0,0.37,-0.03,0.45,-0.09c0.08,-0.06,0.12,-0.15,0.12,-0.25c0,-0.14,-0.11,-0.35,-0.34,-0.64l-2.41,-3.06l0,2.59c0,0.51,0.04,0.85,0.11,1.01c0.07,0.16,0.17,0.28,0.3,0.34c0.13,0.07,0.41,0.1,0.85,0.1l0,0.31l-3.98,0l0,-0.31c0.41,0,0.71,-0.05,0.91,-0.14c0.11,-0.06,0.2,-0.16,0.27,-0.3c0.08,-0.19,0.12,-0.51,0.12,-0.97l0,-7.12c0,-0.91,-0.02,-1.46,-0.05,-1.66c-0.04,-0.2,-0.1,-0.34,-0.2,-0.42c-0.09,-0.08,-0.21,-0.12,-0.36,-0.12c-0.11,0,-0.29,0.05,-0.53,0.16l-0.16,-0.3l2.33,-0.97l0.39,0m8,7.28c0,1.16,0.28,2.07,0.84,2.73c0.57,0.66,1.24,0.98,2.02,0.98c0.51,0,0.96,-0.14,1.34,-0.42c0.38,-0.28,0.7,-0.77,0.95,-1.45l0.27,0.17c-0.11,0.78,-0.46,1.49,-1.04,2.13c-0.58,0.64,-1.3,0.96,-2.16,0.96c-0.94,0,-1.74,-0.36,-2.41,-1.09c-0.67,-0.73,-1,-1.71,-1,-2.95c0,-1.33,0.34,-2.37,1.02,-3.12c0.68,-0.75,1.54,-1.12,2.59,-1.12c0.87,0,1.59,0.29,2.16,0.87c0.56,0.58,0.84,1.35,0.84,2.32l-5.41,0m0,-0.5l3.62,0c-0.03,-0.5,-0.09,-0.85,-0.17,-1.06c-0.15,-0.31,-0.36,-0.56,-0.64,-0.74c-0.28,-0.18,-0.58,-0.27,-0.89,-0.27c-0.47,0,-0.89,0.18,-1.27,0.55c-0.37,0.36,-0.59,0.87,-0.66,1.53m8,0.5c0,1.16,0.28,2.07,0.84,2.73c0.57,0.66,1.24,0.98,2.02,0.98c0.51,0,0.96,-0.14,1.34,-0.42c0.38,-0.28,0.7,-0.77,0.95,-1.45l0.27,0.17c-0.11,0.78,-0.46,1.49,-1.04,2.13c-0.58,0.64,-1.3,0.96,-2.16,0.96c-0.94,0,-1.74,-0.36,-2.41,-1.09c-0.67,-0.73,-1,-1.71,-1,-2.95c0,-1.33,0.34,-2.37,1.02,-3.12c0.68,-0.75,1.54,-1.12,2.59,-1.12c0.87,0,1.59,0.29,2.16,0.87c0.56,0.58,0.84,1.35,0.84,2.32l-5.41,0m0,-0.5l3.62,0c-0.03,-0.5,-0.09,-0.85,-0.17,-1.06c-0.15,-0.31,-0.36,-0.56,-0.64,-0.74c-0.28,-0.18,-0.58,-0.27,-0.89,-0.27c-0.47,0,-0.89,0.18,-1.27,0.55c-0.37,0.36,-0.59,0.87,-0.66,1.53m6.12,-1.67l2.41,-0.98l0.33,0l0,1.84c0.41,-0.7,0.81,-1.18,1.22,-1.46c0.41,-0.28,0.83,-0.41,1.28,-0.41c0.79,0,1.45,0.31,1.97,0.92c0.65,0.76,0.97,1.74,0.97,2.94c0,1.35,-0.39,2.47,-1.17,3.36c-0.64,0.72,-1.44,1.08,-2.41,1.08c-0.42,0,-0.78,-0.06,-1.09,-0.17c-0.23,-0.08,-0.48,-0.26,-0.77,-0.52l0,2.39c0,0.53,0.03,0.87,0.09,1.02c0.06,0.15,0.18,0.26,0.34,0.34c0.17,0.08,0.46,0.12,0.89,0.12l0,0.33l-4.11,0l0,-0.33l0.22,0c0.31,0.01,0.58,-0.05,0.8,-0.17c0.11,-0.06,0.2,-0.16,0.26,-0.3c0.06,-0.14,0.09,-0.5,0.09,-1.07l0,-7.39c0,-0.51,-0.02,-0.83,-0.07,-0.97c-0.05,-0.14,-0.12,-0.24,-0.22,-0.3c-0.1,-0.07,-0.23,-0.1,-0.4,-0.1c-0.14,0,-0.31,0.04,-0.53,0.11l-0.09,-0.27m2.73,1.36l0,2.92c0,0.64,0.03,1.05,0.08,1.25c0.07,0.32,0.27,0.61,0.58,0.86c0.31,0.25,0.7,0.37,1.17,0.37c0.57,0,1.04,-0.22,1.39,-0.66c0.46,-0.58,0.69,-1.4,0.69,-2.45c0,-1.2,-0.26,-2.12,-0.78,-2.77c-0.36,-0.44,-0.8,-0.66,-1.3,-0.66c-0.27,0,-0.54,0.07,-0.81,0.2c-0.21,0.1,-0.55,0.41,-1.02,0.92m11.42,-2.14l3.69,0l0,0.31l-0.23,0c-0.23,0,-0.4,0.05,-0.52,0.16c-0.11,0.11,-0.17,0.26,-0.17,0.45c0,0.2,0.06,0.43,0.17,0.7l1.83,4.33l1.83,-4.48c0.14,-0.32,0.2,-0.57,0.2,-0.73c0,-0.08,-0.03,-0.15,-0.08,-0.19c-0.06,-0.09,-0.14,-0.16,-0.23,-0.19c-0.09,-0.03,-0.29,-0.05,-0.59,-0.05l0,-0.31l2.56,0l0,0.31c-0.3,0.02,-0.51,0.08,-0.62,0.19c-0.2,0.17,-0.37,0.45,-0.53,0.84l-2.78,6.72l-0.34,0l-2.8,-6.59c-0.12,-0.31,-0.24,-0.54,-0.36,-0.67c-0.11,-0.14,-0.26,-0.24,-0.44,-0.33c-0.09,-0.05,-0.29,-0.1,-0.58,-0.16l0,-0.31m13.84,6.7c-0.8,0.61,-1.31,0.97,-1.52,1.08c-0.3,0.14,-0.63,0.2,-0.98,0.2c-0.54,0,-0.99,-0.18,-1.34,-0.55c-0.35,-0.37,-0.52,-0.86,-0.52,-1.46c0,-0.37,0.08,-0.7,0.25,-0.98c0.24,-0.39,0.65,-0.75,1.23,-1.09c0.58,-0.34,1.54,-0.76,2.88,-1.25l0,-0.31c0,-0.78,-0.12,-1.32,-0.37,-1.6c-0.25,-0.29,-0.61,-0.43,-1.08,-0.43c-0.36,0,-0.65,0.09,-0.86,0.28c-0.22,0.2,-0.33,0.42,-0.33,0.67l0.02,0.5c0,0.26,-0.07,0.46,-0.2,0.6c-0.13,0.14,-0.3,0.21,-0.52,0.21c-0.21,0,-0.38,-0.07,-0.52,-0.22c-0.14,-0.15,-0.2,-0.35,-0.2,-0.61c0,-0.49,0.25,-0.94,0.75,-1.35c0.5,-0.41,1.2,-0.62,2.11,-0.62c0.7,0,1.27,0.12,1.72,0.36c0.33,0.18,0.58,0.45,0.73,0.83c0.1,0.24,0.16,0.74,0.16,1.5l0,2.66c0,0.75,0.02,1.21,0.05,1.37c0.03,0.17,0.08,0.28,0.14,0.34c0.06,0.06,0.14,0.09,0.22,0.09c0.09,0,0.18,-0.02,0.25,-0.06c0.11,-0.07,0.34,-0.28,0.69,-0.62l0,0.48c-0.64,0.85,-1.24,1.28,-1.83,1.28c-0.28,0,-0.51,-0.1,-0.67,-0.29c-0.17,-0.19,-0.25,-0.52,-0.25,-0.99m0,-0.56l0,-2.98c-0.86,0.34,-1.42,0.59,-1.67,0.73c-0.45,0.25,-0.77,0.51,-0.96,0.78c-0.19,0.27,-0.29,0.57,-0.29,0.91c0,0.41,0.12,0.74,0.37,1.02c0.24,0.27,0.52,0.41,0.84,0.41c0.44,0,1.01,-0.29,1.72,-0.86m6.25,-10.47l0,10.39c0,0.49,0.04,0.81,0.11,0.97c0.07,0.16,0.18,0.28,0.33,0.36c0.15,0.08,0.42,0.12,0.83,0.12l0,0.31l-3.83,0l0,-0.31c0.35,0,0.6,-0.04,0.73,-0.11c0.13,-0.07,0.23,-0.2,0.3,-0.37c0.07,-0.17,0.11,-0.5,0.11,-0.98l0,-7.11c0,-0.89,-0.02,-1.43,-0.05,-1.63c-0.04,-0.2,-0.1,-0.34,-0.19,-0.41c-0.09,-0.07,-0.2,-0.11,-0.34,-0.11c-0.15,0,-0.33,0.05,-0.56,0.14l-0.16,-0.3l2.34,-0.97l0.37,0m8.17,4.33l0,4.75c0,0.91,0.02,1.46,0.06,1.66c0.04,0.2,0.11,0.34,0.2,0.42c0.09,0.08,0.2,0.12,0.33,0.12c0.18,0,0.38,-0.05,0.61,-0.16l0.11,0.31l-2.33,0.95l-0.39,0l0,-1.66c-0.68,0.73,-1.19,1.19,-1.54,1.37c-0.35,0.19,-0.72,0.28,-1.12,0.28c-0.44,0,-0.82,-0.12,-1.14,-0.37c-0.32,-0.25,-0.55,-0.58,-0.67,-0.98c-0.12,-0.4,-0.19,-0.97,-0.19,-1.7l0,-3.5c0,-0.36,-0.04,-0.62,-0.12,-0.76c-0.08,-0.14,-0.2,-0.25,-0.36,-0.33c-0.16,-0.08,-0.45,-0.12,-0.85,-0.12l0,-0.31l2.75,0l0,5.23c0,0.73,0.12,1.21,0.37,1.44c0.25,0.23,0.56,0.34,0.92,0.34c0.24,0,0.52,-0.08,0.83,-0.23c0.31,-0.15,0.68,-0.45,1.11,-0.88l0,-4.44c0,-0.45,-0.08,-0.75,-0.24,-0.91c-0.16,-0.16,-0.5,-0.24,-1.01,-0.25l0,-0.31l2.66,0m3.45,2.95c0,1.16,0.28,2.07,0.84,2.73c0.57,0.66,1.24,0.98,2.02,0.98c0.51,0,0.96,-0.14,1.34,-0.42c0.38,-0.28,0.7,-0.77,0.95,-1.45l0.27,0.17c-0.11,0.78,-0.46,1.49,-1.04,2.13c-0.58,0.64,-1.3,0.96,-2.16,0.96c-0.94,0,-1.74,-0.36,-2.41,-1.09c-0.67,-0.73,-1,-1.71,-1,-2.95c0,-1.33,0.34,-2.37,1.02,-3.12c0.68,-0.75,1.54,-1.12,2.59,-1.12c0.87,0,1.59,0.29,2.16,0.87c0.56,0.58,0.84,1.35,0.84,2.32l-5.41,0m0,-0.5l3.62,0c-0.03,-0.5,-0.09,-0.85,-0.17,-1.06c-0.15,-0.31,-0.36,-0.56,-0.64,-0.74c-0.28,-0.18,-0.58,-0.27,-0.89,-0.27c-0.47,0,-0.89,0.18,-1.27,0.55c-0.37,0.36,-0.59,0.87,-0.66,1.53m18.33,2.41c-0.21,1.03,-0.62,1.82,-1.23,2.37c-0.61,0.55,-1.3,0.83,-2.05,0.83c-0.89,0,-1.66,-0.37,-2.32,-1.12c-0.66,-0.74,-0.99,-1.75,-0.99,-3.02c0,-1.23,0.37,-2.23,1.1,-3c0.73,-0.77,1.61,-1.16,2.63,-1.16c0.77,0,1.4,0.2,1.9,0.61c0.49,0.41,0.74,0.83,0.74,1.28c0,0.21,-0.07,0.38,-0.21,0.52c-0.14,0.14,-0.34,0.2,-0.59,0.2c-0.33,0,-0.58,-0.11,-0.75,-0.33c-0.1,-0.11,-0.17,-0.34,-0.2,-0.68c-0.03,-0.34,-0.15,-0.6,-0.34,-0.77c-0.2,-0.17,-0.47,-0.25,-0.83,-0.25c-0.56,0,-1.02,0.21,-1.37,0.62c-0.46,0.56,-0.69,1.3,-0.69,2.22c0,0.94,0.23,1.76,0.69,2.48c0.46,0.71,1.08,1.07,1.86,1.07c0.55,0,1.05,-0.19,1.5,-0.58c0.31,-0.26,0.62,-0.73,0.92,-1.42l0.23,0.12m5.19,-5.09c1.19,0,2.14,0.45,2.86,1.36c0.6,0.77,0.91,1.65,0.91,2.64c0,0.7,-0.17,1.41,-0.5,2.12c-0.33,0.72,-0.8,1.26,-1.39,1.62c-0.59,0.36,-1.25,0.55,-1.97,0.55c-1.18,0,-2.11,-0.47,-2.81,-1.41c-0.58,-0.79,-0.87,-1.68,-0.87,-2.67c0,-0.71,0.18,-1.42,0.53,-2.13c0.35,-0.71,0.82,-1.24,1.41,-1.58c0.58,-0.34,1.2,-0.51,1.84,-0.51m-0.27,0.56c-0.3,0,-0.6,0.09,-0.91,0.27c-0.3,0.18,-0.55,0.49,-0.74,0.95c-0.19,0.45,-0.29,1.03,-0.29,1.74c0,1.14,0.23,2.11,0.68,2.94c0.45,0.82,1.05,1.23,1.8,1.23c0.55,0,1.01,-0.23,1.36,-0.68c0.35,-0.45,0.53,-1.24,0.53,-2.35c0,-1.39,-0.3,-2.48,-0.89,-3.28c-0.41,-0.54,-0.92,-0.81,-1.55,-0.81m7.72,1.09c0.92,-1.1,1.79,-1.66,2.62,-1.66c0.43,0,0.79,0.11,1.1,0.32c0.31,0.21,0.55,0.57,0.73,1.05c0.14,0.34,0.2,0.87,0.2,1.58l0,3.34c0,0.49,0.04,0.82,0.11,1c0.06,0.15,0.16,0.26,0.3,0.34c0.14,0.08,0.4,0.12,0.77,0.12l0,0.31l-3.87,0l0,-0.31l0.17,0c0.36,0,0.62,-0.05,0.77,-0.16c0.15,-0.11,0.24,-0.27,0.3,-0.49c0.02,-0.08,0.03,-0.35,0.03,-0.8l0,-3.2c0,-0.72,-0.09,-1.24,-0.27,-1.55c-0.18,-0.32,-0.49,-0.48,-0.93,-0.48c-0.68,0,-1.35,0.37,-2.03,1.11l0,4.12c0,0.53,0.03,0.86,0.09,0.98c0.08,0.17,0.19,0.29,0.33,0.36c0.14,0.07,0.42,0.11,0.86,0.11l0,0.31l-3.87,0l0,-0.31l0.17,0c0.4,0,0.66,-0.1,0.8,-0.3c0.14,-0.2,0.21,-0.59,0.21,-1.15l0,-2.91c0,-0.94,-0.02,-1.51,-0.06,-1.72c-0.04,-0.21,-0.11,-0.35,-0.2,-0.42c-0.09,-0.07,-0.21,-0.11,-0.37,-0.11c-0.16,0,-0.34,0.04,-0.56,0.12l-0.12,-0.3l2.36,-0.97l0.36,0l0,1.66m11.78,-1.66l0,2.67l-0.28,0c-0.22,-0.83,-0.5,-1.4,-0.84,-1.7c-0.34,-0.3,-0.77,-0.45,-1.29,-0.45c-0.41,0,-0.73,0.1,-0.98,0.31c-0.24,0.21,-0.37,0.44,-0.37,0.7c0,0.31,0.09,0.58,0.28,0.81c0.18,0.24,0.54,0.49,1.08,0.75l1.23,0.61c1.16,0.56,1.73,1.3,1.73,2.22c0,0.72,-0.27,1.29,-0.8,1.73c-0.54,0.43,-1.14,0.65,-1.8,0.65c-0.48,0,-1.03,-0.08,-1.64,-0.25c-0.19,-0.06,-0.34,-0.09,-0.45,-0.09c-0.14,0,-0.24,0.08,-0.31,0.23l-0.28,0l0,-2.8l0.28,0c0.16,0.79,0.46,1.39,0.91,1.8c0.45,0.41,0.96,0.61,1.51,0.61c0.4,0,0.72,-0.11,0.97,-0.34c0.25,-0.23,0.37,-0.51,0.37,-0.83c0,-0.4,-0.14,-0.73,-0.41,-1c-0.28,-0.27,-0.83,-0.61,-1.66,-1.02c-0.83,-0.41,-1.37,-0.78,-1.63,-1.11c-0.25,-0.32,-0.37,-0.73,-0.37,-1.23c0,-0.65,0.22,-1.18,0.66,-1.62c0.44,-0.43,1.01,-0.65,1.72,-0.65c0.3,0,0.67,0.07,1.11,0.2c0.29,0.08,0.49,0.12,0.59,0.12c0.08,0,0.15,-0.02,0.2,-0.06c0.05,-0.04,0.11,-0.13,0.19,-0.27l0.28,0m4.2,-2.34l0,2.58l1.84,0l0,0.59l-1.84,0l0,5.08c0,0.51,0.07,0.85,0.22,1.03c0.15,0.18,0.33,0.27,0.56,0.27c0.19,0,0.37,-0.06,0.55,-0.18c0.18,-0.12,0.31,-0.29,0.41,-0.52l0.34,0c-0.2,0.56,-0.48,0.98,-0.84,1.27c-0.36,0.28,-0.74,0.42,-1.14,0.42c-0.26,0,-0.52,-0.07,-0.77,-0.22c-0.25,-0.15,-0.43,-0.35,-0.55,-0.62c-0.12,-0.27,-0.18,-0.69,-0.18,-1.25l0,-5.27l-1.23,0l0,-0.28c0.31,-0.12,0.63,-0.34,0.96,-0.63c0.33,-0.3,0.62,-0.65,0.88,-1.07c0.12,-0.21,0.31,-0.6,0.55,-1.19l0.25,0m7.17,9.28c-0.8,0.61,-1.31,0.97,-1.52,1.08c-0.3,0.14,-0.63,0.2,-0.98,0.2c-0.54,0,-0.99,-0.18,-1.34,-0.55c-0.35,-0.37,-0.52,-0.86,-0.52,-1.46c0,-0.37,0.08,-0.7,0.25,-0.98c0.24,-0.39,0.65,-0.75,1.23,-1.09c0.58,-0.34,1.54,-0.76,2.88,-1.25l0,-0.31c0,-0.78,-0.12,-1.32,-0.37,-1.6c-0.25,-0.29,-0.61,-0.43,-1.08,-0.43c-0.36,0,-0.65,0.09,-0.86,0.28c-0.22,0.2,-0.33,0.42,-0.33,0.67l0.02,0.5c0,0.26,-0.07,0.46,-0.2,0.6c-0.13,0.14,-0.3,0.21,-0.52,0.21c-0.21,0,-0.38,-0.07,-0.52,-0.22c-0.14,-0.15,-0.2,-0.35,-0.2,-0.61c0,-0.49,0.25,-0.94,0.75,-1.35c0.5,-0.41,1.2,-0.62,2.11,-0.62c0.7,0,1.27,0.12,1.72,0.36c0.33,0.18,0.58,0.45,0.73,0.83c0.1,0.24,0.16,0.74,0.16,1.5l0,2.66c0,0.75,0.02,1.21,0.05,1.37c0.03,0.17,0.08,0.28,0.14,0.34c0.06,0.06,0.14,0.09,0.22,0.09c0.09,0,0.18,-0.02,0.25,-0.06c0.11,-0.07,0.34,-0.28,0.69,-0.62l0,0.48c-0.64,0.85,-1.24,1.28,-1.83,1.28c-0.28,0,-0.51,-0.1,-0.67,-0.29c-0.17,-0.19,-0.25,-0.52,-0.25,-0.99m0,-0.56l0,-2.98c-0.86,0.34,-1.42,0.59,-1.67,0.73c-0.45,0.25,-0.77,0.51,-0.96,0.78c-0.19,0.27,-0.29,0.57,-0.29,0.91c0,0.41,0.12,0.74,0.37,1.02c0.24,0.27,0.52,0.41,0.84,0.41c0.44,0,1.01,-0.29,1.72,-0.86m5.84,-4.72c0.92,-1.1,1.79,-1.66,2.62,-1.66c0.43,0,0.79,0.11,1.1,0.32c0.31,0.21,0.55,0.57,0.73,1.05c0.14,0.34,0.2,0.87,0.2,1.58l0,3.34c0,0.49,0.04,0.82,0.11,1c0.06,0.15,0.16,0.26,0.3,0.34c0.14,0.08,0.4,0.12,0.77,0.12l0,0.31l-3.87,0l0,-0.31l0.17,0c0.36,0,0.62,-0.05,0.77,-0.16c0.15,-0.11,0.24,-0.27,0.3,-0.49c0.02,-0.08,0.03,-0.35,0.03,-0.8l0,-3.2c0,-0.72,-0.09,-1.24,-0.27,-1.55c-0.18,-0.32,-0.49,-0.48,-0.93,-0.48c-0.68,0,-1.35,0.37,-2.03,1.11l0,4.12c0,0.53,0.03,0.86,0.09,0.98c0.08,0.17,0.19,0.29,0.33,0.36c0.14,0.07,0.42,0.11,0.86,0.11l0,0.31l-3.87,0l0,-0.31l0.17,0c0.4,0,0.66,-0.1,0.8,-0.3c0.14,-0.2,0.21,-0.59,0.21,-1.15l0,-2.91c0,-0.94,-0.02,-1.51,-0.06,-1.72c-0.04,-0.21,-0.11,-0.35,-0.2,-0.42c-0.09,-0.07,-0.21,-0.11,-0.37,-0.11c-0.16,0,-0.34,0.04,-0.56,0.12l-0.12,-0.3l2.36,-0.97l0.36,0l0,1.66m8.98,-4l0,2.58l1.84,0l0,0.59l-1.84,0l0,5.08c0,0.51,0.07,0.85,0.22,1.03c0.15,0.18,0.33,0.27,0.56,0.27c0.19,0,0.37,-0.06,0.55,-0.18c0.18,-0.12,0.31,-0.29,0.41,-0.52l0.34,0c-0.2,0.56,-0.48,0.98,-0.84,1.27c-0.36,0.28,-0.74,0.42,-1.14,0.42c-0.26,0,-0.52,-0.07,-0.77,-0.22c-0.25,-0.15,-0.43,-0.35,-0.55,-0.62c-0.12,-0.27,-0.18,-0.69,-0.18,-1.25l0,-5.27l-1.23,0l0,-0.28c0.31,-0.12,0.63,-0.34,0.96,-0.63c0.33,-0.3,0.62,-0.65,0.88,-1.07c0.12,-0.21,0.31,-0.6,0.55,-1.19l0.25,0" fill="#000000" stroke="none" fill-opacity="1"/>
</g>
<g stroke-width="0.62" stroke-linecap="butt" fill="none">
<path d="M60.46,295.2l231.18,0"/>
<path d="M60.46,295.2l0,-3.75M75.87,295.2l0,-3.75M91.29,295.2l0,-3.75M106.7,295.2l0,-3.75M122.11,295.2l0,-3.75M137.52,295.2l0,-3.75M152.93,295.2l0,-3.75M168.35,295.2l0,-3.75M183.76,295.2l0,-3.75M199.17,295.2l0,-3.75M214.58,295.2l0,-3.75M229.99,295.2l0,-3.75M245.41,295.2l0,-3.75M260.82,295.2l0,-3.75M276.23,295.2l0,-3.75M291.64,295.2l0,-3.75"/>
<path d="M137.52,295.2l0,-7.5M214.58,295.2l0,-7.5"/>
<path d="M60.46,14.23l231.18,0"/>
<path d="M60.46,14.23l0,3.75M75.87,14.23l0,3.75M91.29,14.23l0,3.75M106.7,14.23l0,3.75M122.11,14.23l0,3.75M137.52,14.23l0,3.75M152.93,14.23l0,3.75M168.35,14.23l0,3.75M183.76,14.23l0,3.75M199.17,14.23l0,3.75M214.58,14.23l0,3.75M229.99,14.23l0,3.75M245.41,14.23l0,3.75M260.82,14.23l0,3.75M276.23,14.23l0,3.75M291.64,14.23l0,3.75"/>
<path d="M137.52,14.23l0,7.5M214.58,14.23l0,7.5"/>
</g>
<g stroke-width="1" fill="none">
<path d="m167.73,332.7c0.76,-1.05,1.58,-1.58,2.45,-1.58c0.8,0,1.5,0.34,2.1,1.03c0.6,0.69,0.9,1.62,0.9,2.81c0,1.4,-0.46,2.52,-1.37,3.36c-0.79,0.73,-1.68,1.09,-2.66,1.09c-0.46,0,-0.92,-0.08,-1.39,-0.24c-0.47,-0.16,-0.95,-0.41,-1.44,-0.74l0,-8.11c0,-0.89,-0.02,-1.43,-0.06,-1.64c-0.04,-0.21,-0.11,-0.35,-0.2,-0.42c-0.09,-0.07,-0.21,-0.11,-0.34,-0.11c-0.16,0,-0.35,0.05,-0.59,0.14l-0.12,-0.3l2.36,-0.97l0.37,0l0,5.67m0,0.55l0,4.69c0.29,0.28,0.59,0.49,0.91,0.64c0.31,0.15,0.63,0.22,0.95,0.22c0.52,0,1.01,-0.28,1.45,-0.85c0.45,-0.57,0.67,-1.39,0.67,-2.48c0,-1.01,-0.22,-1.78,-0.67,-2.32c-0.45,-0.54,-0.96,-0.8,-1.53,-0.8c-0.3,0,-0.6,0.08,-0.91,0.23c-0.23,0.11,-0.52,0.34,-0.87,0.67m8.84,-6.22c0.24,0,0.45,0.09,0.62,0.26c0.17,0.17,0.26,0.38,0.26,0.62c0,0.24,-0.09,0.44,-0.26,0.61c-0.17,0.17,-0.38,0.25,-0.62,0.25c-0.24,0,-0.44,-0.08,-0.61,-0.25c-0.17,-0.17,-0.25,-0.37,-0.25,-0.61c0,-0.24,0.08,-0.45,0.25,-0.62c0.17,-0.17,0.37,-0.26,0.61,-0.26m0.72,4.09l0,6.3c0,0.49,0.03,0.82,0.1,0.98c0.07,0.16,0.17,0.28,0.31,0.36c0.14,0.08,0.4,0.12,0.77,0.12l0,0.31l-3.81,0l0,-0.31c0.39,0,0.64,-0.04,0.77,-0.11c0.13,-0.07,0.23,-0.2,0.31,-0.37c0.08,-0.17,0.12,-0.5,0.12,-0.98l0,-3.02c0,-0.85,-0.03,-1.41,-0.08,-1.66c-0.04,-0.18,-0.1,-0.3,-0.19,-0.37c-0.08,-0.07,-0.2,-0.11,-0.34,-0.11c-0.17,0,-0.36,0.04,-0.59,0.12l-0.11,-0.3l2.36,-0.97l0.37,0m3.58,1.66c0.92,-1.1,1.79,-1.66,2.62,-1.66c0.43,0,0.79,0.11,1.1,0.32c0.31,0.21,0.55,0.57,0.73,1.05c0.14,0.34,0.2,0.87,0.2,1.58l0,3.34c0,0.49,0.04,0.82,0.11,1c0.06,0.15,0.16,0.26,0.3,0.34c0.14,0.08,0.4,0.12,0.77,0.12l0,0.31l-3.87,0l0,-0.31l0.17,0c0.36,0,0.62,-0.05,0.77,-0.16c0.15,-0.11,0.24,-0.27,0.3,-0.49c0.02,-0.08,0.03,-0.35,0.03,-0.8l0,-3.2c0,-0.72,-0.09,-1.24,-0.27,-1.55c-0.18,-0.32,-0.49,-0.48,-0.93,-0.48c-0.68,0,-1.35,0.37,-2.03,1.11l0,4.12c0,0.53,0.03,0.86,0.09,0.98c0.08,0.17,0.19,0.29,0.33,0.36c0.14,0.07,0.42,0.11,0.86,0.11l0,0.31l-3.87,0l0,-0.31l0.17,0c0.4,0,0.66,-0.1,0.8,-0.3c0.14,-0.2,0.21,-0.59,0.21,-1.15l0,-2.91c0,-0.94,-0.02,-1.51,-0.06,-1.72c-0.04,-0.21,-0.11,-0.35,-0.2,-0.42c-0.09,-0.07,-0.21,-0.11,-0.37,-0.11c-0.16,0,-0.34,0.04,-0.56,0.12l-0.12,-0.3l2.36,-0.97l0.36,0l0,1.66" fill="#000000" stroke="none" fill-opacity="1"/>
<path d="m135.06,304.73l2.83,-1.37l0.28,0l0,9.78c0,0.66,0.03,1.06,0.08,1.22c0.05,0.16,0.16,0.28,0.34,0.37c0.17,0.09,0.52,0.14,1.04,0.15l0,0.31l-4.36,0l0,-0.31c0.55,-0.01,0.91,-0.06,1.07,-0.14c0.16,-0.08,0.27,-0.2,0.34,-0.34c0.06,-0.14,0.09,-0.56,0.09,-1.26l0,-6.25c0,-0.84,-0.03,-1.39,-0.09,-1.62c-0.04,-0.18,-0.11,-0.31,-0.22,-0.4c-0.1,-0.09,-0.23,-0.13,-0.37,-0.13c-0.21,0,-0.51,0.09,-0.89,0.27l-0.12,-0.27" fill="#000000" stroke="none" fill-opacity="1"/>
<path d="m218.11,312.95l-0.81,2.23l-6.84,0l0,-0.31c2.01,-1.83,3.43,-3.33,4.25,-4.49c0.82,-1.16,1.23,-2.23,1.23,-3.2c0,-0.73,-0.23,-1.33,-0.68,-1.8c-0.45,-0.47,-0.99,-0.71,-1.62,-0.71c-0.57,0,-1.09,0.17,-1.54,0.5c-0.45,0.33,-0.78,0.82,-0.99,1.47l-0.33,0c0.15,-1.06,0.51,-1.87,1.1,-2.44c0.59,-0.56,1.33,-0.84,2.21,-0.84c0.94,0,1.72,0.3,2.35,0.91c0.63,0.6,0.95,1.32,0.95,2.14c0,0.58,-0.14,1.17,-0.41,1.75c-0.43,0.93,-1.11,1.91,-2.05,2.94c-1.43,1.55,-2.31,2.48,-2.66,2.8l3.02,0c0.61,0,1.05,-0.02,1.3,-0.06c0.25,-0.04,0.47,-0.13,0.67,-0.27c0.2,-0.14,0.37,-0.34,0.52,-0.6l0.33,0" fill="#000000" stroke="none" fill-opacity="1"/>
</g>
<g stroke-width="0.62" fill="#ffffff">
<path d="m359.22,14.23l231.18,0l0,280.97l-231.18,0l0,-280.97"/>
</g>
</g>
<g clip-path="url(#c2)">
<g stroke-width="1.25" stroke-linecap="butt" fill="none">
<path d="M417.01,201.54l0,0M474.81,154.71l0,0M532.6,154.71l0,-93.66"/>
<path d="M398.26,201.54l37.5,0M456.06,154.71l37.5,0M513.85,154.71l37.5,0"/>
<path d="M398.26,201.54l37.5,0M456.06,154.71l37.5,0M513.85,61.05l37.5,0"/>
</g>
<g stroke-width="0.62" stroke-dasharray="2.5,1.25" fill="none">
<polyline fill="none" points="417.01,201.54 474.81,154.71 532.6,107.88"/>
</g>
<g stroke-linejoin="miter" stroke-width="0.62" transform="translate(417.01, 201.54)" fill="#000000">
<path d="m3.75,0c0,2.07,-1.68,3.75,-3.75,3.75c-2.07,0,-3.75,-1.68,-3.75,-3.75c0,-2.07,1.68,-3.75,3.75,-3.75c2.07,0,3.75,1.68,3.75,3.75"/>
</g>
<g stroke-linejoin="miter" stroke-width="0.62" transform="translate(474.81, 154.71)" fill="#000000">
<path d="m3.75,0c0,2.07,-1.68,3.75,-3.75,3.75c-2.07,0,-3.75,-1.68,-3.75,-3.75c0,-2.07,1.68,-3.75,3.75,-3.75c2.07,0,3.75,1.68,3.75,3.75"/>
</g>
<g stroke-linejoin="miter" stroke-width="0.62" transform="translate(532.6, 107.88)" fill="#000000">
<path d="m3.75,0c0,2.07,-1.68,3.75,-3.75,3.75c-2.07,0,-3.75,-1.68,-3.75,-3.75c0,-2.07,1.68,-3.75,3.75,-3.75c2.07,0,3.75,1.68,3.75,3.75"/>
</g>
</g>
<g clip-path="url(#c0)">
<g stroke-width="0.62" stroke-linecap="butt" fill="none">
<path d="M359.22,295.2l0,-280.97"/>
<path d="M359.22,295.2l3.75,0M359.22,271.78l3.75,0M359.22,248.37l3.75,0M359.22,224.95l3.75,0M359.22,201.54l3.75,0M359.22,178.13l3.75,0M359.22,154.71l3.75,0M359.22,131.3l3.75,0M359.22,107.88l3.75,0M359.22,84.47l3.75,0M359.22,61.05l3.75,0M359.22,37.64l3.75,0M359.22,14.23l3.75,0"/>
<path d="M359.22,295.2l7.5,0M359.22,248.37l7.5,0M359.22,201.54l7.5,0M359.22,154.71l7.5,0M359.22,107.88l7.5,0M359.22,61.05l7.5,0M359.22,14.23l7.5,0"/>
<path d="M590.39,295.2l0,-280.97"/>
<path d="M590.39,295.2l-3.75,0M590.39,271.78l-3.75,0M590.39,248.37l-3.75,0M590.39,224.95l-3.75,0M590.39,201.54l-3.75,0M590.39,178.13l-3.75,0M590.39,154.71l-3.75,0M590.39,131.3l-3.75,0M590.39,107.88l-3.75,0M590.39,84.47l-3.75,0M590.39,61.05l-3.75,0M590.39,37.64l-3.75,0M590.39,14.23l-3.75,0"/>
<path d="M590.39,295.2l-7.5,0M590.39,248.37l-7.5,0M590.39,201.54l-7.5,0M590.39,154.71l-7.5,0M590.39,107.88l-7.5,0M590.39,61.05l-7.5,0M590.39,14.23l-7.5,0"/>
</g>
<g stroke-width="1" transform="matrix(0 -1 1 0 352.22 266.21)" fill="none">
<path d="m7.22,-1.62c0.07,0.87,0.62,1.31,1.64,1.31l0,0.31l-4.92,0l0,-0.31c1.01,0,1.56,-0.44,1.64,-1.31c-1.51,0,-2.72,-0.41,-3.62,-1.22c-0.9,-0.81,-1.35,-1.8,-1.35,-2.95c0,-1.23,0.46,-2.21,1.37,-2.95c0.92,-0.74,2.11,-1.14,3.59,-1.2c-0.07,-0.87,-0.62,-1.31,-1.64,-1.31l0,-0.33l4.92,0l0,0.33c-1.02,0,-1.57,0.44,-1.64,1.31c1.62,0.05,2.86,0.48,3.7,1.29c0.84,0.81,1.26,1.76,1.26,2.87c0,1.16,-0.45,2.14,-1.35,2.95c-0.9,0.81,-2.1,1.22,-3.6,1.22m-1.64,-7.86c-0.98,0.05,-1.74,0.35,-2.3,0.91c-0.55,0.55,-0.83,1.53,-0.83,2.94c0,2.24,1.04,3.42,3.12,3.53l0,-7.37m1.64,0l0,7.37c0.94,-0.03,1.69,-0.32,2.27,-0.86c0.57,-0.54,0.86,-1.53,0.86,-2.97c0,-2.25,-1.04,-3.43,-3.12,-3.55" fill="#000000" stroke="none" fill-opacity="1"/>
<path d="m20.08,-12.16l0,15.94l-0.7,0l0,-15.94l0.7,0m9.52,6.73l0,3.37c0,0.73,0.08,1.18,0.23,1.36c0.22,0.25,0.55,0.37,0.98,0.37l0.44,0l0,0.31l-4.95,0l0,-0.31l0.42,0c0.5,0,0.85,-0.16,1.06,-0.48c0.11,-0.18,0.17,-0.59,0.17,-1.25l0,-7.48c0,-0.73,-0.08,-1.18,-0.23,-1.36c-0.22,-0.25,-0.55,-0.37,-1,-0.37l-0.42,0l0,-0.33l4.23,0c1.04,0,1.86,0.11,2.46,0.32c0.6,0.21,1.1,0.58,1.52,1.09c0.41,0.51,0.62,1.11,0.62,1.81c0,0.94,-0.31,1.7,-0.94,2.3c-0.62,0.59,-1.51,0.89,-2.66,0.89c-0.27,0,-0.57,-0.02,-0.9,-0.06c-0.33,-0.04,-0.67,-0.1,-1.04,-0.17m0,-0.48c0.3,0.05,0.57,0.09,0.8,0.12c0.23,0.03,0.43,0.04,0.59,0.04c0.59,0,1.11,-0.23,1.54,-0.69c0.43,-0.46,0.65,-1.05,0.65,-1.78c0,-0.5,-0.1,-0.96,-0.31,-1.39c-0.21,-0.43,-0.5,-0.75,-0.87,-0.96c-0.37,-0.21,-0.8,-0.32,-1.28,-0.32c-0.29,0,-0.66,0.05,-1.11,0.16l0,4.83m10.25,-2.16l0,1.77c0.65,-1.18,1.32,-1.77,2.02,-1.77c0.31,0,0.57,0.1,0.77,0.29c0.2,0.19,0.3,0.41,0.3,0.66c0,0.22,-0.07,0.41,-0.22,0.56c-0.15,0.16,-0.32,0.23,-0.53,0.23c-0.2,0,-0.42,-0.1,-0.67,-0.3c-0.25,-0.2,-0.43,-0.3,-0.55,-0.3c-0.1,0,-0.22,0.06,-0.34,0.17c-0.25,0.23,-0.51,0.61,-0.78,1.16l0,3.75c0,0.44,0.05,0.77,0.16,0.98c0.07,0.16,0.2,0.28,0.39,0.38c0.19,0.1,0.46,0.15,0.81,0.15l0,0.31l-4,0l0,-0.31c0.4,0,0.69,-0.06,0.87,-0.19c0.15,-0.08,0.25,-0.23,0.31,-0.44c0.02,-0.09,0.03,-0.37,0.03,-0.83l0,-3.03c0,-0.91,-0.02,-1.45,-0.05,-1.62c-0.04,-0.18,-0.1,-0.3,-0.2,-0.38c-0.1,-0.08,-0.22,-0.12,-0.37,-0.12c-0.18,0,-0.37,0.04,-0.59,0.12l-0.09,-0.3l2.37,-0.97l0.36,0m5.69,-4.09c0.24,0,0.45,0.09,0.62,0.26c0.17,0.17,0.26,0.38,0.26,0.62c0,0.24,-0.09,0.44,-0.26,0.61c-0.17,0.17,-0.38,0.25,-0.62,0.25c-0.24,0,-0.44,-0.08,-0.61,-0.25c-0.17,-0.17,-0.25,-0.37,-0.25,-0.61c0,-0.24,0.08,-0.45,0.25,-0.62c0.17,-0.17,0.37,-0.26,0.61,-0.26m0.72,4.09l0,6.3c0,0.49,0.03,0.82,0.1,0.98c0.07,0.16,0.17,0.28,0.31,0.36c0.14,0.08,0.4,0.12,0.77,0.12l0,0.31l-3.81,0l0,-0.31c0.39,0,0.64,-0.04,0.77,-0.11c0.13,-0.07,0.23,-0.2,0.31,-0.37c0.08,-0.17,0.12,-0.5,0.12,-0.98l0,-3.02c0,-0.85,-0.03,-1.41,-0.08,-1.66c-0.04,-0.18,-0.1,-0.3,-0.19,-0.37c-0.08,-0.07,-0.2,-0.11,-0.34,-0.11c-0.17,0,-0.36,0.04,-0.59,0.12l-0.11,-0.3l2.36,-0.97l0.37,0m5.12,0c1.19,0,2.14,0.45,2.86,1.36c0.6,0.77,0.91,1.65,0.91,2.64c0,0.7,-0.17,1.41,-0.5,2.12c-0.33,0.72,-0.8,1.26,-1.39,1.62c-0.59,0.36,-1.25,0.55,-1.97,0.55c-1.18,0,-2.11,-0.47,-2.81,-1.41c-0.58,-0.79,-0.87,-1.68,-0.87,-2.67c0,-0.71,0.18,-1.42,0.53,-2.13c0.35,-0.71,0.82,-1.24,1.41,-1.58c0.58,-0.34,1.2,-0.51,1.84,-0.51m-0.27,0.56c-0.3,0,-0.6,0.09,-0.91,0.27c-0.3,0.18,-0.55,0.49,-0.74,0.95c-0.19,0.45,-0.29,1.03,-0.29,1.74c0,1.14,0.23,2.11,0.68,2.94c0.45,0.82,1.05,1.23,1.8,1.23c0.55,0,1.01,-0.23,1.36,-0.68c0.35,-0.45,0.53,-1.24,0.53,-2.35c0,-1.39,-0.3,-2.48,-0.89,-3.28c-0.41,-0.54,-0.92,-0.81,-1.55,-0.81m7.73,-0.56l0,1.77c0.65,-1.18,1.32,-1.77,2.02,-1.77c0.31,0,0.57,0.1,0.77,0.29c0.2,0.19,0.3,0.41,0.3,0.66c0,0.22,-0.07,0.41,-0.22,0.56c-0.15,0.16,-0.32,0.23,-0.53,0.23c-0.2,0,-0.42,-0.1,-0.67,-0.3c-0.25,-0.2,-0.43,-0.3,-0.55,-0.3c-0.1,0,-0.22,0.06,-0.34,0.17c-0.25,0.23,-0.51,0.61,-0.78,1.16l0,3.75c0,0.44,0.05,0.77,0.16,0.98c0.07,0.16,0.2,0.28,0.39,0.38c0.19,0.1,0.46,0.15,0.81,0.15l0,0.31l-4,0l0,-0.31c0.4,0,0.69,-0.06,0.87,-0.19c0.15,-0.08,0.25,-0.23,0.31,-0.44c0.02,-0.09,0.03,-0.37,0.03,-0.83l0,-3.03c0,-0.91,-0.02,-1.45,-0.05,-1.62c-0.04,-0.18,-0.1,-0.3,-0.2,-0.38c-0.1,-0.08,-0.22,-0.12,-0.37,-0.12c-0.18,0,-0.37,0.04,-0.59,0.12l-0.09,-0.3l2.37,-0.97l0.36,0m8.47,0.52l9.22,0l0,0.7l-9.22,0l0,-0.7m0,2.78l9.22,0l0,0.7l-9.22,0l0,-0.7m17.55,-7.39l0,7.8l2,-1.81c0.42,-0.4,0.66,-0.64,0.73,-0.73c0.04,-0.07,0.06,-0.15,0.06,-0.22c0,-0.1,-0.05,-0.2,-0.14,-0.28c-0.09,-0.08,-0.25,-0.13,-0.47,-0.14l0,-0.28l3.41,0l0,0.28c-0.47,0.01,-0.86,0.08,-1.17,0.21c-0.31,0.13,-0.65,0.36,-1.02,0.7l-2.02,1.86l2.02,2.53c0.55,0.7,0.93,1.14,1.12,1.33c0.27,0.27,0.51,0.45,0.72,0.53c0.15,0.05,0.4,0.08,0.75,0.08l0,0.31l-3.81,0l0,-0.31c0.22,0,0.37,-0.03,0.45,-0.09c0.08,-0.06,0.12,-0.15,0.12,-0.25c0,-0.14,-0.11,-0.35,-0.34,-0.64l-2.41,-3.06l0,2.59c0,0.51,0.04,0.85,0.11,1.01c0.07,0.16,0.17,0.28,0.3,0.34c0.13,0.07,0.41,0.1,0.85,0.1l0,0.31l-3.98,0l0,-0.31c0.41,0,0.71,-0.05,0.91,-0.14c0.11,-0.06,0.2,-0.16,0.27,-0.3c0.08,-0.19,0.12,-0.51,0.12,-0.97l0,-7.12c0,-0.91,-0.02,-1.46,-0.05,-1.66c-0.04,-0.2,-0.1,-0.34,-0.2,-0.42c-0.09,-0.08,-0.21,-0.12,-0.36,-0.12c-0.11,0,-0.29,0.05,-0.53,0.16l-0.16,-0.3l2.33,-0.97l0.39,0m8,7.28c0,1.16,0.28,2.07,0.84,2.73c0.57,0.66,1.24,0.98,2.02,0.98c0.51,0,0.96,-0.14,1.34,-0.42c0.38,-0.28,0.7,-0.77,0.95,-1.45l0.27,0.17c-0.11,0.78,-0.46,1.49,-1.04,2.13c-0.58,0.64,-1.3,0.96,-2.16,0.96c-0.94,0,-1.74,-0.36,-2.41,-1.09c-0.67,-0.73,-1,-1.71,-1,-2.95c0,-1.33,0.34,-2.37,1.02,-3.12c0.68,-0.75,1.54,-1.12,2.59,-1.12c0.87,0,1.59,0.29,2.16,0.87c0.56,0.58,0.84,1.35,0.84,2.32l-5.41,0m0,-0.5l3.62,0c-0.03,-0.5,-0.09,-0.85,-0.17,-1.06c-0.15,-0.31,-0.36,-0.56,-0.64,-0.74c-0.28,-0.18,-0.58,-0.27,-0.89,-0.27c-0.47,0,-0.89,0.18,-1.27,0.55c-0.37,0.36,-0.59,0.87,-0.66,1.53m8,0.5c0,1.16,0.28,2.07,0.84,2.73c0.57,0.66,1.24,0.98,2.02,0.98c0.51,0,0.96,-0.14,1.34,-0.42c0.38,-0.28,0.7,-0.77,0.95,-1.45l0.27,0.17c-0.11,0.78,-0.46,1.49,-1.04,2.13c-0.58,0.64,-1.3,0.96,-2.16,0.96c-0.94,0,-1.74,-0.36,-2.41,-1.09c-0.67,-0.73,-1,-1.71,-1,-2.95c0,-1.33,0.34,-2.37,1.02,-3.12c0.68,-0.75,1.54,-1.12,2.59,-1.12c0.87,0,1.59,0.29,2.16,0.87c0.56,0.58,0.84,1.35,0.84,2.32l-5.41,0m0,-0.5l3.62,0c-0.03,-0.5,-0.09,-0.85,-0.17,-1.06c-0.15,-0.31,-0.36,-0.56,-0.64,-0.74c-0.28,-0.18,-0.58,-0.27,-0.89,-0.27c-0.47,0,-0.89,0.18,-1.27,0.55c-0.37,0.36,-0.59,0.87,-0.66,1.53m6.12,-1.67l2.41,-0.98l0.33,0l0,1.84c0.41,-0.7,0.81,-1.18,1.22,-1.46c0.41,-0.28,0.83,-0.41,1.28,-0.41c0.79,0,1.45,0.31,1.97,0.92c0.65,0.76,0.97,1.74,0.97,2.94c0,1.35,-0.39,2.47,-1.17,3.36c-0.64,0.72,-1.44,1.08,-2.41,1.08c-0.42,0,-0.78,-0.06,-1.09,-0.17c-0.23,-0.08,-0.48,-0.26,-0.77,-0.52l0,2.39c0,0.53,0.03,0.87,0.09,1.02c0.06,0.15,0.18,0.26,0.34,0.34c0.17,0.08,0.46,0.12,0.89,0.12l0,0.33l-4.11,0l0,-0.33l0.22,0c0.31,0.01,0.58,-0.05,0.8,-0.17c0.11,-0.06,0.2,-0.16,0.26,-0.3c0.06,-0.14,0.09,-0.5,0.09,-1.07l0,-7.39c0,-0.51,-0.02,-0.83,-0.07,-0.97c-0.05,-0.14,-0.12,-0.24,-0.22,-0.3c-0.1,-0.07,-0.23,-0.1,-0.4,-0.1c-0.14,0,-0.31,0.04,-0.53,0.11l-0.09,-0.27m2.73,1.36l0,2.92c0,0.64,0.03,1.05,0.08,1.25c0.07,0.32,0.27,0.61,0.58,0.86c0.31,0.25,0.7,0.37,1.17,0.37c0.57,0,1.04,-0.22,1.39,-0.66c0.46,-0.58,0.69,-1.4,0.69,-2.45c0,-1.2,-0.26,-2.12,-0.78,-2.77c-0.36,-0.44,-0.8,-0.66,-1.3,-0.66c-0.27,0,-0.54,0.07,-0.81,0.2c-0.21,0.1,-0.55,0.41,-1.02,0.92m16.89,-2.37l0,2.67l-0.28,0c-0.22,-0.83,-0.5,-1.4,-0.84,-1.7c-0.34,-0.3,-0.77,-0.45,-1.29,-0.45c-0.41,0,-0.73,0.1,-0.98,0.31c-0.24,0.21,-0.37,0.44,-0.37,0.7c0,0.31,0.09,0.58,0.28,0.81c0.18,0.24,0.54,0.49,1.08,0.75l1.23,0.61c1.16,0.56,1.73,1.3,1.73,2.22c0,0.72,-0.27,1.29,-0.8,1.73c-0.54,0.43,-1.14,0.65,-1.8,0.65c-0.48,0,-1.03,-0.08,-1.64,-0.25c-0.19,-0.06,-0.34,-0.09,-0.45,-0.09c-0.14,0,-0.24,0.08,-0.31,0.23l-0.28,0l0,-2.8l0.28,0c0.16,0.79,0.46,1.39,0.91,1.8c0.45,0.41,0.96,0.61,1.51,0.61c0.4,0,0.72,-0.11,0.97,-0.34c0.25,-0.23,0.37,-0.51,0.37,-0.83c0,-0.4,-0.14,-0.73,-0.41,-1c-0.28,-0.27,-0.83,-0.61,-1.66,-1.02c-0.83,-0.41,-1.37,-0.78,-1.63,-1.11c-0.25,-0.32,-0.37,-0.73,-0.37,-1.23c0,-0.65,0.22,-1.18,0.66,-1.62c0.44,-0.43,1.01,-0.65,1.72,-0.65c0.3,0,0.67,0.07,1.11,0.2c0.29,0.08,0.49,0.12,0.59,0.12c0.08,0,0.15,-0.02,0.2,-0.06c0.05,-0.04,0.11,-0.13,0.19,-0.27l0.28,0m4.62,-4.09l0,10.39c0,0.49,0.04,0.81,0.11,0.97c0.07,0.16,0.18,0.28,0.33,0.36c0.15,0.08,0.42,0.12,0.83,0.12l0,0.31l-3.83,0l0,-0.31c0.35,0,0.6,-0.04,0.73,-0.11c0.13,-0.07,0.23,-0.2,0.3,-0.37c0.07,-0.17,0.11,-0.5,0.11,-0.98l0,-7.11c0,-0.89,-0.02,-1.43,-0.05,-1.63c-0.04,-0.2,-0.1,-0.34,-0.19,-0.41c-0.09,-0.07,-0.2,-0.11,-0.34,-0.11c-0.15,0,-0.33,0.05,-0.56,0.14l-0.16,-0.3l2.34,-0.97l0.37,0m5.14,4.09c1.19,0,2.14,0.45,2.86,1.36c0.6,0.77,0.91,1.65,0.91,2.64c0,0.7,-0.17,1.41,-0.5,2.12c-0.33,0.72,-0.8,1.26,-1.39,1.62c-0.59,0.36,-1.25,0.55,-1.97,0.55c-1.18,0,-2.11,-0.47,-2.81,-1.41c-0.58,-0.79,-0.87,-1.68,-0.87,-2.67c0,-0.71,0.18,-1.42,0.53,-2.13c0.35,-0.71,0.82,-1.24,1.41,-1.58c0.58,-0.34,1.2,-0.51,1.84,-0.51m-0.27,0.56c-0.3,0,-0.6,0.09,-0.91,0.27c-0.3,0.18,-0.55,0.49,-0.74,0.95c-0.19,0.45,-0.29,1.03,-0.29,1.74c0,1.14,0.23,2.11,0.68,2.94c0.45,0.82,1.05,1.23,1.8,1.23c0.55,0,1.01,-0.23,1.36,-0.68c0.35,-0.45,0.53,-1.24,0.53,-2.35c0,-1.39,-0.3,-2.48,-0.89,-3.28c-0.41,-0.54,-0.92,-0.81,-1.55,-0.81m4.87,0.45l2.41,-0.98l0.33,0l0,1.84c0.41,-0.7,0.81,-1.18,1.22,-1.46c0.41,-0.28,0.83,-0.41,1.28,-0.41c0.79,0,1.45,0.31,1.97,0.92c0.65,0.76,0.97,1.74,0.97,2.94c0,1.35,-0.39,2.47,-1.17,3.36c-0.64,0.72,-1.44,1.08,-2.41,1.08c-0.42,0,-0.78,-0.06,-1.09,-0.17c-0.23,-0.08,-0.48,-0.26,-0.77,-0.52l0,2.39c0,0.53,0.03,0.87,0.09,1.02c0.06,0.15,0.18,0.26,0.34,0.34c0.17,0.08,0.46,0.12,0.89,0.12l0,0.33l-4.11,0l0,-0.33l0.22,0c0.31,0.01,0.58,-0.05,0.8,-0.17c0.11,-0.06,0.2,-0.16,0.26,-0.3c0.06,-0.14,0.09,-0.5,0.09,-1.07l0,-7.39c0,-0.51,-0.02,-0.83,-0.07,-0.97c-0.05,-0.14,-0.12,-0.24,-0.22,-0.3c-0.1,-0.07,-0.23,-0.1,-0.4,-0.1c-0.14,0,-0.31,0.04,-0.53,0.11l-0.09,-0.27m2.73,1.36l0,2.92c0,0.64,0.03,1.05,0.08,1.25c0.07,0.32,0.27,0.61,0.58,0.86c0.31,0.25,0.7,0.37,1.17,0.37c0.57,0,1.04,-0.22,1.39,-0.66c0.46,-0.58,0.69,-1.4,0.69,-2.45c0,-1.2,-0.26,-2.12,-0.78,-2.77c-0.36,-0.44,-0.8,-0.66,-1.3,-0.66c-0.27,0,-0.54,0.07,-0.81,0.2c-0.21,0.1,-0.55,0.41,-1.02,0.92m8.14,0.81c0,1.16,0.28,2.07,0.84,2.73c0.57,0.66,1.24,0.98,2.02,0.98c0.51,0,0.96,-0.14,1.34,-0.42c0.38,-0.28,0.7,-0.77,0.95,-1.45l0.27,0.17c-0.11,0.78,-0.46,1.49,-1.04,2.13c-0.58,0.64,-1.3,0.96,-2.16,0.96c-0.94,0,-1.74,-0.36,-2.41,-1.09c-0.67,-0.73,-1,-1.71,-1,-2.95c0,-1.33,0.34,-2.37,1.02,-3.12c0.68,-0.75,1.54,-1.12,2.59,-1.12c0.87,0,1.59,0.29,2.16,0.87c0.56,0.58,0.84,1.35,0.84,2.32l-5.41,0m0,-0.5l3.62,0c-0.03,-0.5,-0.09,-0.85,-0.17,-1.06c-0.15,-0.31,-0.36,-0.56,-0.64,-0.74c-0.28,-0.18,-0.58,-0.27,-0.89,-0.27c-0.47,0,-0.89,0.18,-1.27,0.55c-0.37,0.36,-0.59,0.87,-0.66,1.53m18.33,2.41c-0.21,1.03,-0.62,1.82,-1.23,2.37c-0.61,0.55,-1.3,0.83,-2.05,0.83c-0.89,0,-1.66,-0.37,-2.32,-1.12c-0.66,-0.74,-0.99,-1.75,-0.99,-3.02c0,-1.23,0.37,-2.23,1.1,-3c0.73,-0.77,1.61,-1.16,2.63,-1.16c0.77,0,1.4,0.2,1.9,0.61c0.49,0.41,0.74,0.83,0.74,1.28c0,0.21,-0.07,0.38,-0.21,0.52c-0.14,0.14,-0.34,0.2,-0.59,0.2c-0.33,0,-0.58,-0.11,-0.75,-0.33c-0.1,-0.11,-0.17,-0.34,-0.2,-0.68c-0.03,-0.34,-0.15,-0.6,-0.34,-0.77c-0.2,-0.17,-0.47,-0.25,-0.83,-0.25c-0.56,0,-1.02,0.21,-1.37,0.62c-0.46,0.56,-0.69,1.3,-0.69,2.22c0,0.94,0.23,1.76,0.69,2.48c0.46,0.71,1.08,1.07,1.86,1.07c0.55,0,1.05,-0.19,1.5,-0.58c0.31,-0.26,0.62,-0.73,0.92,-1.42l0.23,0.12m5.19,-5.09c1.19,0,2.14,0.45,2.86,1.36c0.6,0.77,0.91,1.65,0.91,2.64c0,0.7,-0.17,1.41,-0.5,2.12c-0.33,0.72,-0.8,1.26,-1.39,1.62c-0.59,0.36,-1.25,0.55,-1.97,0.55c-1.18,0,-2.11,-0.47,-2.81,-1.41c-0.58,-0.79,-0.87,-1.68,-0.87,-2.67c0,-0.71,0.18,-1.42,0.53,-2.13c0.35,-0.71,0.82,-1.24,1.41,-1.58c0.58,-0.34,1.2,-0.51,1.84,-0.51m-0.27,0.56c-0.3,0,-0.6,0.09,-0.91,0.27c-0.3,0.18,-0.55,0.49,-0.74,0.95c-0.19,0.45,-0.29,1.03,-0.29,1.74c0,1.14,0.23,2.11,0.68,2.94c0.45,0.82,1.05,1.23,1.8,1.23c0.55,0,1.01,-0.23,1.36,-0.68c0.35,-0.45,0.53,-1.24,0.53,-2.35c0,-1.39,-0.3,-2.48,-0.89,-3.28c-0.41,-0.54,-0.92,-0.81,-1.55,-0.81m7.72,1.09c0.92,-1.1,1.79,-1.66,2.62,-1.66c0.43,0,0.79,0.11,1.1,0.32c0.31,0.21,0.55,0.57,0.73,1.05c0.14,0.34,0.2,0.87,0.2,1.58l0,3.34c0,0.49,0.04,0.82,0.11,1c0.06,0.15,0.16,0.26,0.3,0.34c0.14,0.08,0.4,0.12,0.77,0.12l0,0.31l-3.87,0l0,-0.31l0.17,0c0.36,0,0.62,-0.05,0.77,-0.16c0.15,-0.11,0.24,-0.27,0.3,-0.49c0.02,-0.08,0.03,-0.35,0.03,-0.8l0,-3.2c0,-0.72,-0.09,-1.24,-0.27,-1.55c-0.18,-0.32,-0.49,-0.48,-0.93,-0.48c-0.68,0,-1.35,0.37,-2.03,1.11l0,4.12c0,0.53,0.03,0.86,0.09,0.98c0.08,0.17,0.19,0.29,0.33,0.36c0.14,0.07,0.42,0.11,0.86,0.11l0,0.31l-3.87,0l0,-0.31l0.17,0c0.4,0,0.66,-0.1,0.8,-0.3c0.14,-0.2,0.21,-0.59,0.21,-1.15l0,-2.91c0,-0.94,-0.02,-1.51,-0.06,-1.72c-0.04,-0.21,-0.11,-0.35,-0.2,-0.42c-0.09,-0.07,-0.21,-0.11,-0.37,-0.11c-0.16,0,-0.34,0.04,-0.56,0.12l-0.12,-0.3l2.36,-0.97l0.36,0l0,1.66m11.78,-1.66l0,2.67l-0.28,0c-0.22,-0.83,-0.5,-1.4,-0.84,-1.7c-0.34,-0.3,-0.77,-0.45,-1.29,-0.45c-0.41,0,-0.73,0.1,-0.98,0.31c-0.24,0.21,-0.37,0.44,-0.37,0.7c0,0.31,0.09,0.58,0.28,0.81c0.18,0.24,0.54,0.49,1.08,0.75l1.23,0.61c1.16,0.56,1.73,1.3,1.73,2.22c0,0.72,-0.27,1.29,-0.8,1.73c-0.54,0.43,-1.14,0.65,-1.8,0.65c-0.48,0,-1.03,-0.08,-1.64,-0.25c-0.19,-0.06,-0.34,-0.09,-0.45,-0.09c-0.14,0,-0.24,0.08,-0.31,0.23l-0.28,0l0,-2.8l0.28,0c0.16,0.79,0.46,1.39,0.91,1.8c0.45,0.41,0.96,0.61,1.51,0.61c0.4,0,0.72,-0.11,0.97,-0.34c0.25,-0.23,0.37,-0.51,0.37,-0.83c0,-0.4,-0.14,-0.73,-0.41,-1c-0.28,-0.27,-0.83,-0.61,-1.66,-1.02c-0.83,-0.41,-1.37,-0.78,-1.63,-1.11c-0.25,-0.32,-0.37,-0.73,-0.37,-1.23c0,-0.65,0.22,-1.18,0.66,-1.62c0.44,-0.43,1.01,-0.65,1.72,-0.65c0.3,0,0.67,0.07,1.11,0.2c0.29,0.08,0.49,0.12,0.59,0.12c0.08,0,0.15,-0.02,0.2,-0.06c0.05,-0.04,0.11,-0.13,0.19,-0.27l0.28,0m4.2,-2.34l0,2.58l1.84,0l0,0.59l-1.84,0l0,5.08c0,0.51,0.07,0.85,0.22,1.03c0.15,0.18,0.33,0.27,0.56,0.27c0.19,0,0.37,-0.06,0.55,-0.18c0.18,-0.12,0.31,-0.29,0.41,-0.52l0.34,0c-0.2,0.56,-0.48,0.98,-0.84,1.27c-0.36,0.28,-0.74,0.42,-1.14,0.42c-0.26,0,-0.52,-0.07,-0.77,-0.22c-0.25,-0.15,-0.43,-0.35,-0.55,-0.62c-0.12,-0.27,-0.18,-0.69,-0.18,-1.25l0,-5.27l-1.23,0l0,-0.28c0.31,-0.12,0.63,-0.34,0.96,-0.63c0.33,-0.3,0.62,-0.65,0.88,-1.07c0.12,-0.21,0.31,-0.6,0.55,-1.19l0.25,0m7.17,9.28c-0.8,0.61,-1.31,0.97,-1.52,1.08c-0.3,0.14,-0.63,0.2,-0.98,0.2c-0.54,0,-0.99,-0.18,-1.34,-0.55c-0.35,-0.37,-0.52,-0.86,-0.52,-1.46c0,-0.37,0.08,-0.7,0.25,-0.98c0.24,-0.39,0.65,-0.75,1.23,-1.09c0.58,-0.34,1.54,-0.76,2.88,-1.25l0,-0.31c0,-0.78,-0.12,-1.32,-0.37,-1.6c-0.25,-0.29,-0.61,-0.43,-1.08,-0.43c-0.36,0,-0.65,0.09,-0.86,0.28c-0.22,0.2,-0.33,0.42,-0.33,0.67l0.02,0.5c0,0.26,-0.07,0.46,-0.2,0.6c-0.13,0.14,-0.3,0.21,-0.52,0.21c-0.21,0,-0.38,-0.07,-0.52,-0.22c-0.14,-0.15,-0.2,-0.35,-0.2,-0.61c0,-0.49,0.25,-0.94,0.75,-1.35c0.5,-0.41,1.2,-0.62,2.11,-0.62c0.7,0,1.27,0.12,1.72,0.36c0.33,0.18,0.58,0.45,0.73,0.83c0.1,0.24,0.16,0.74,0.16,1.5l0,2.66c0,0.75,0.02,1.21,0.05,1.37c0.03,0.17,0.08,0.28,0.14,0.34c0.06,0.06,0.14,0.09,0.22,0.09c0.09,0,0.18,-0.02,0.25,-0.06c0.11,-0.07,0.34,-0.28,0.69,-0.62l0,0.48c-0.64,0.85,-1.24,1.28,-1.83,1.28c-0.28,0,-0.51,-0.1,-0.67,-0.29c-0.17,-0.19,-0.25,-0.52,-0.25,-0.99m0,-0.56l0,-2.98c-0.86,0.34,-1.42,0.59,-1.67,0.73c-0.45,0.25,-0.77,0.51,-0.96,0.78c-0.19,0.27,-0.29,0.57,-0.29,0.91c0,0.41,0.12,0.74,0.37,1.02c0.24,0.27,0.52,0.41,0.84,0.41c0.44,0,1.01,-0.29,1.72,-0.86m5.84,-4.72c0.92,-1.1,1.79,-1.66,2.62,-1.66c0.43,0,0.79,0.11,1.1,0.32c0.31,0.21,0.55,0.57,0.73,1.05c0.14,0.34,0.2,0.87,0.2,1.58l0,3.34c0,0.49,0.04,0.82,0.11,1c0.06,0.15,0.16,0.26,0.3,0.34c0.14,0.08,0.4,0.12,0.77,0.12l0,0.31l-3.87,0l0,-0.31l0.17,0c0.36,0,0.62,-0.05,0.77,-0.16c0.15,-0.11,0.24,-0.27,0.3,-0.49c0.02,-0.08,0.03,-0.35,0.03,-0.8l0,-3.2c0,-0.72,-0.09,-1.24,-0.27,-1.55c-0.18,-0.32,-0.49,-0.48,-0.93,-0.48c-0.68,0,-1.35,0.37,-2.03,1.11l0,4.12c0,0.53,0.03,0.86,0.09,0.98c0.08,0.17,0.19,0.29,0.33,0.36c0.14,0.07,0.42,0.11,0.86,0.11l0,0.31l-3.87,0l0,-0.31l0.17,0c0.4,0,0.66,-0.1,0.8,-0.3c0.14,-0.2,0.21,-0.59,0.21,-1.15l0,-2.91c0,-0.94,-0.02,-1.51,-0.06,-1.72c-0.04,-0.21,-0.11,-0.35,-0.2,-0.42c-0.09,-0.07,-0.21,-0.11,-0.37,-0.11c-0.16,0,-0.34,0.04,-0.56,0.12l-0.12,-0.3l2.36,-0.97l0.36,0l0,1.66m8.98,-4l0,2.58l1.84,0l0,0.59l-1.84,0l0,5.08c0,0.51,0.07,0.85,0.22,1.03c0.15,0.18,0.33,0.27,0.56,0.27c0.19,0,0.37,-0.06,0.55,-0.18c0.18,-0.12,0.31,-0.29,0.41,-0.52l0.34,0c-0.2,0.56,-0.48,0.98,-0.84,1.27c-0.36,0.28,-0.74,0.42,-1.14,0.42c-0.26,0,-0.52,-0.07,-0.77,-0.22c-0.25,-0.15,-0.43,-0.35,-0.55,-0.62c-0.12,-0.27,-0.18,-0.69,-0.18,-1.25l0,-5.27l-1.23,0l0,-0.28c0.31,-0.12,0.63,-0.34,0.96,-0.63c0.33,-0.3,0.62,-0.65,0.88,-1.07c0.12,-0.21,0.31,-0.6,0.55,-1.19l0.25,0" fill="#000000" stroke="none" fill-opacity="1"/>
</g>
<g stroke-width="0.62" stroke-linecap="butt" fill="none">
<path d="M359.22,295.2l231.18,0"/>
<path d="M359.22,295.2l0,-3.75M370.77,295.2l0,-3.75M382.33,295.2l0,-3.75M393.89,295.2l0,-3.75M405.45,295.2l0,-3.75M417.01,295.2l0,-3.75M428.57,295.2l0,-3.75M440.13,295.2l0,-3.75M451.69,295.2l0,-3.75M463.25,295.2l0,-3.75M474.81,295.2l0,-3.75M486.36,295.2l0,-3.75M497.92,295.2l0,-3.75M509.48,295.2l0,-3.75M521.04,295.2l0,-3.75M532.6,295.2l0,-3.75M544.16,295.2l0,-3.75M555.72,295.2l0,-3.75M567.28,295.2l0,-3.75M578.84,295.2l0,-3.75M590.39,295.2l0,-3.75"/>
<path d="M417.01,295.2l0,-7.5M474.81,295.2l0,-7.5M532.6,295.2l0,-7.5"/>
<path d="M359.22,14.23l231.18,0"/>
<path d="M359.22,14.23l0,3.75M370.77,14.23l0,3.75M382.33,14.23l0,3.75M393.89,14.23l0,3.75M405.45,14.23l0,3.75M417.01,14.23l0,3.75M428.57,14.23l0,3.75M440.13,14.23l0,3.75M451.69,14.23l0,3.75M463.25,14.23l0,3.75M474.81,14.23l0,3.75M486.36,14.23l0,3.75M497.92,14.23l0,3.75M509.48,14.23l0,3.75M521.04,14.23l0,3.75M532.6,14.23l0,3.75M544.16,14.23l0,3.75M555.72,14.23l0,3.75M567.28,14.23l0,3.75M578.84,14.23l0,3.75M590.39,14.23l0,3.75"/>
<path d="M417.01,14.23l0,7.5M474.81,14.23l0,7.5M532.6,14.23l0,7.5"/>
</g>
<g stroke-width="1" fill="none">
<path d="m466.48,332.7c0.76,-1.05,1.58,-1.58,2.45,-1.58c0.8,0,1.5,0.34,2.1,1.03c0.6,0.69,0.9,1.62,0.9,2.81c0,1.4,-0.46,2.52,-1.37,3.36c-0.79,0.73,-1.68,1.09,-2.66,1.09c-0.46,0,-0.92,-0.08,-1.39,-0.24c-0.47,-0.16,-0.95,-0.41,-1.44,-0.74l0,-8.11c0,-0.89,-0.02,-1.43,-0.06,-1.64c-0.04,-0.21,-0.11,-0.35,-0.2,-0.42c-0.09,-0.07,-0.21,-0.11,-0.34,-0.11c-0.16,0,-0.35,0.05,-0.59,0.14l-0.12,-0.3l2.36,-0.97l0.37,0l0,5.67m0,0.55l0,4.69c0.29,0.28,0.59,0.49,0.91,0.64c0.31,0.15,0.63,0.22,0.95,0.22c0.52,0,1.01,-0.28,1.45,-0.85c0.45,-0.57,0.67,-1.39,0.67,-2.48c0,-1.01,-0.22,-1.78,-0.67,-2.32c-0.45,-0.54,-0.96,-0.8,-1.53,-0.8c-0.3,0,-0.6,0.08,-0.91,0.23c-0.23,0.11,-0.52,0.34,-0.87,0.67m8.84,-6.22c0.24,0,0.45,0.09,0.62,0.26c0.17,0.17,0.26,0.38,0.26,0.62c0,0.24,-0.09,0.44,-0.26,0.61c-0.17,0.17,-0.38,0.25,-0.62,0.25c-0.24,0,-0.44,-0.08,-0.61,-0.25c-0.17,-0.17,-0.25,-0.37,-0.25,-0.61c0,-0.24,0.08,-0.45,0.25,-0.62c0.17,-0.17,0.37,-0.26,0.61,-0.26m0.72,4.09l0,6.3c0,0.49,0.03,0.82,0.1,0.98c0.07,0.16,0.17,0.28,0.31,0.36c0.14,0.08,0.4,0.12,0.77,0.12l0,0.31l-3.81,0l0,-0.31c0.39,0,0.64,-0.04,0.77,-0.11c0.13,-0.07,0.23,-0.2,0.31,-0.37c0.08,-0.17,0.12,-0.5,0.12,-0.98l0,-3.02c0,-0.85,-0.03,-1.41,-0.08,-1.66c-0.04,-0.18,-0.1,-0.3,-0.19,-0.37c-0.08,-0.07,-0.2,-0.11,-0.34,-0.11c-0.17,0,-0.36,0.04,-0.59,0.12l-0.11,-0.3l2.36,-0.97l0.37,0m3.58,1.66c0.92,-1.1,1.79,-1.66,2.62,-1.66c0.43,0,0.79,0.11,1.1,0.32c0.31,0.21,0.55,0.57,0.73,1.05c0.14,0.34,0.2,0.87,0.2,1.58l0,3.34c0,0.49,0.04,0.82,0.11,1c0.06,0.15,0.16,0.26,0.3,0.34c0.14,0.08,0.4,0.12,0.77,0.12l0,0.31l-3.87,0l0,-0.31l0.17,0c0.36,0,0.62,-0.05,0.77,-0.16c0.15,-0.11,0.24,-0.27,0.3,-0.49c0.02,-0.08,0.03,-0.35,0.03,-0.8l0,-3.2c0,-0.72,-0.09,-1.24,-0.27,-1.55c-0.18,-0.32,-0.49,-0.48,-0.93,-0.48c-0.68,0,-1.35,0.37,-2.03,1.11l0,4.12c0,0.53,0.03,0.86,0.09,0.98c0.08,0.17,0.19,0.29,0.33,0.36c0.14,0.07,0.42,0.11,0.86,0.11l0,0.31l-3.87,0l0,-0.31l0.17,0c0.4,0,0.66,-0.1,0.8,-0.3c0.14,-0.2,0.21,-0.59,0.21,-1.15l0,-2.91c0,-0.94,-0.02,-1.51,-0.06,-1.72c-0.04,-0.21,-0.11,-0.35,-0.2,-0.42c-0.09,-0.07,-0.21,-0.11,-0.37,-0.11c-0.16,0,-0.34,0.04,-0.56,0.12l-0.12,-0.3l2.36,-0.97l0.36,0l0,1.66" fill="#000000" stroke="none" fill-opacity="1"/>
<path d="m414.55,304.73l2.83,-1.37l0.28,0l0,9.78c0,0.66,0.03,1.06,0.08,1.22c0.05,0.16,0.16,0.28,0.34,0.37c0.17,0.09,0.52,0.14,1.04,0.15l0,0.31l-4.36,0l0,-0.31c0.55,-0.01,0.91,-0.06,1.07,-0.14c0.16,-0.08,0.27,-0.2,0.34,-0.34c0.06,-0.14,0.09,-0.56,0.09,-1.26l0,-6.25c0,-0.84,-0.03,-1.39,-0.09,-1.62c-0.04,-0.18,-0.11,-0.31,-0.22,-0.4c-0.1,-0.09,-0.23,-0.13,-0.37,-0.13c-0.21,0,-0.51,0.09,-0.89,0.27l-0.12,-0.27" fill="#000000" stroke="none" fill-opacity="1"/>
<path d="m478.33,312.95l-0.81,2.23l-6.84,0l0,-0.31c2.01,-1.83,3.43,-3.33,4.25,-4.49c0.82,-1.16,1.23,-2.23,1.23,-3.2c0,-0.73,-0.23,-1.33,-0.68,-1.8c-0.45,-0.47,-0.99,-0.71,-1.62,-0.71c-0.57,0,-1.09,0.17,-1.54,0.5c-0.45,0.33,-0.78,0.82,-0.99,1.47l-0.33,0c0.15,-1.06,0.51,-1.87,1.1,-2.44c0.59,-0.56,1.33,-0.84,2.21,-0.84c0.94,0,1.72,0.3,2.35,0.91c0.63,0.6,0.95,1.32,0.95,2.14c0,0.58,-0.14,1.17,-0.41,1.75c-0.43,0.93,-1.11,1.91,-2.05,2.94c-1.43,1.55,-2.31,2.48,-2.66,2.8l3.02,0c0.61,0,1.05,-0.02,1.3,-0.06c0.25,-0.04,0.47,-0.13,0.67,-0.27c0.2,-0.14,0.37,-0.34,0.52,-0.6l0.33,0" fill="#000000" stroke="none" fill-opacity="1"/>
<path d="m528.98,305.81c0.33,-0.78,0.75,-1.39,1.25,-1.81c0.5,-0.43,1.13,-0.64,1.89,-0.64c0.93,0,1.64,0.3,2.12,0.91c0.37,0.45,0.56,0.93,0.56,1.45c0,0.83,-0.53,1.7,-1.58,2.61c0.71,0.28,1.24,0.68,1.61,1.2c0.36,0.52,0.55,1.12,0.55,1.82c0,1.01,-0.32,1.88,-0.95,2.61c-0.83,0.96,-2.04,1.44,-3.62,1.44c-0.77,0,-1.3,-0.1,-1.59,-0.29c-0.29,-0.19,-0.43,-0.4,-0.43,-0.62c0,-0.17,0.07,-0.31,0.2,-0.44c0.14,-0.12,0.3,-0.19,0.48,-0.19c0.15,0,0.29,0.02,0.44,0.06c0.09,0.03,0.31,0.14,0.66,0.31c0.34,0.18,0.58,0.29,0.72,0.33c0.21,0.06,0.43,0.09,0.67,0.09c0.58,0,1.09,-0.23,1.52,-0.68c0.43,-0.45,0.64,-0.99,0.64,-1.6c0,-0.45,-0.1,-0.89,-0.3,-1.31c-0.15,-0.32,-0.31,-0.57,-0.48,-0.73c-0.25,-0.23,-0.59,-0.43,-1.02,-0.62c-0.43,-0.18,-0.86,-0.27,-1.3,-0.27l-0.28,0l0,-0.25c0.45,-0.06,0.9,-0.23,1.35,-0.49c0.45,-0.27,0.78,-0.59,0.99,-0.97c0.21,-0.38,0.31,-0.79,0.31,-1.24c0,-0.58,-0.18,-1.06,-0.55,-1.42c-0.37,-0.36,-0.83,-0.55,-1.37,-0.55c-0.89,0,-1.62,0.47,-2.22,1.42l-0.28,-0.12" fill="#000000" stroke="none" fill-opacity="1"/>
</g>
</g>
</g>
<defs>
<clipPath id="c0"><path d="m0,0l604.62,0l0,355.66l-604.62,0l0,-355.66"/></clipPath>
<clipPath id="c1"><path d="m60.46,14.23l231.18,0l0,280.97l-231.18,0l0,-280.97"/></clipPath>
<clipPath id="c2"><path d="m359.22,14.23l231.18,0l0,280.97l-231.18,0l0,-280.97"/></clipPath>
</defs>
</svg>
