<?xml version="1.0" encoding="UTF-8" standalone="no"?>
<!DOCTYPE svg PUBLIC "-//W3C//DTD SVG 1.0//EN" "http://www.w3.org/TR/2001/PR-SVG-20010719/DTD/svg10.dtd">
<svg width="15cm" height="13cm" viewBox="59 33 293 251" xmlns="http://www.w3.org/2000/svg" xmlns:xlink="http://www.w3.org/1999/xlink">
  <g>
    <ellipse style="fill: #ffffff" cx="177.6" cy="142.3" rx="117.4" ry="107.7"/>
    <ellipse style="fill: none; fill-opacity:0; stroke-width: 2; stroke-dasharray: 4; stroke: #000000" cx="177.6" cy="142.3" rx="117.4" ry="107.7"/>
    <text font-size="12.7998" style="fill: #000000;text-anchor:middle;font-family:sans-serif;font-style:normal;font-weight:normal" x="177.6" y="146.2">
      <tspan x="177.6" y="146.2"></tspan>
    </text>
  </g>
  <g>
    <ellipse style="fill: #ffffff" cx="180.367" cy="140.034" rx="34.0673" ry="31.0336"/>
    <ellipse style="fill: none; fill-opacity:0; stroke-width: 2; stroke-dasharray: 4; stroke: #000000" cx="180.367" cy="140.034" rx="34.0673" ry="31.0336"/>
    <text font-size="12.7998" style="fill: #000000;text-anchor:middle;font-family:sans-serif;font-style:normal;font-weight:normal" x="180.367" y="143.934">
      <tspan x="180.367" y="143.934"></tspan>
    </text>
  </g>
  <g>
    <polygon style="fill: #ffffff" points="189,91.6 193.643,91.6 195.5,88 197.357,91.6 202,91.6 198.286,94 200.143,98 195.5,95.2 190.857,98 192.714,94 "/>
    <polygon style="fill: none; fill-opacity:0; stroke-width: 2; stroke: #000000" points="189,91.6 193.643,91.6 195.5,88 197.357,91.6 202,91.6 198.286,94 200.143,98 195.5,95.2 190.857,98 192.714,94 "/>
    <polygon style="fill: none; fill-opacity:0; stroke-width: 0.2; stroke: #000000" points="189,91.6 193.643,91.6 195.5,88 197.357,91.6 202,91.6 198.286,94 200.143,98 195.5,95.2 190.857,98 192.714,94 "/>
  </g>
  <g>
    <polygon style="fill: #ffffff" points="158.59,127.381 163.233,127.381 165.09,123.781 166.947,127.381 171.59,127.381 167.876,129.781 169.733,133.781 165.09,130.981 160.447,133.781 162.304,129.781 "/>
    <polygon style="fill: none; fill-opacity:0; stroke-width: 2; stroke: #000000" points="158.59,127.381 163.233,127.381 165.09,123.781 166.947,127.381 171.59,127.381 167.876,129.781 169.733,133.781 165.09,130.981 160.447,133.781 162.304,129.781 "/>
    <polygon style="fill: none; fill-opacity:0; stroke-width: 0.2; stroke: #000000" points="158.59,127.381 163.233,127.381 165.09,123.781 166.947,127.381 171.59,127.381 167.876,129.781 169.733,133.781 165.09,130.981 160.447,133.781 162.304,129.781 "/>
  </g>
  <g>
    <polygon style="fill: #ffffff" points="177.79,135.981 182.433,135.981 184.29,132.381 186.147,135.981 190.79,135.981 187.076,138.381 188.933,142.381 184.29,139.581 179.647,142.381 181.504,138.381 "/>
    <polygon style="fill: none; fill-opacity:0; stroke-width: 2; stroke: #000000" points="177.79,135.981 182.433,135.981 184.29,132.381 186.147,135.981 190.79,135.981 187.076,138.381 188.933,142.381 184.29,139.581 179.647,142.381 181.504,138.381 "/>
    <polygon style="fill: none; fill-opacity:0; stroke-width: 0.2; stroke: #000000" points="177.79,135.981 182.433,135.981 184.29,132.381 186.147,135.981 190.79,135.981 187.076,138.381 188.933,142.381 184.29,139.581 179.647,142.381 181.504,138.381 "/>
  </g>
  <g>
    <polygon style="fill: #ffffff" points="162.99,154.581 167.633,154.581 169.49,150.981 171.347,154.581 175.99,154.581 172.276,156.981 174.133,160.981 169.49,158.181 164.847,160.981 166.704,156.981 "/>
    <polygon style="fill: none; fill-opacity:0; stroke-width: 2; stroke: #000000" points="162.99,154.581 167.633,154.581 169.49,150.981 171.347,154.581 175.99,154.581 172.276,156.981 174.133,160.981 169.49,158.181 164.847,160.981 166.704,156.981 "/>
    <polygon style="fill: none; fill-opacity:0; stroke-width: 0.2; stroke: #000000" points="162.99,154.581 167.633,154.581 169.49,150.981 171.347,154.581 175.99,154.581 172.276,156.981 174.133,160.981 169.49,158.181 164.847,160.981 166.704,156.981 "/>
  </g>
  <g>
    <polygon style="fill: #ffffff" points="191.19,149.181 195.833,149.181 197.69,145.581 199.547,149.181 204.19,149.181 200.476,151.581 202.333,155.581 197.69,152.781 193.047,155.581 194.904,151.581 "/>
    <polygon style="fill: none; fill-opacity:0; stroke-width: 2; stroke: #000000" points="191.19,149.181 195.833,149.181 197.69,145.581 199.547,149.181 204.19,149.181 200.476,151.581 202.333,155.581 197.69,152.781 193.047,155.581 194.904,151.581 "/>
    <polygon style="fill: none; fill-opacity:0; stroke-width: 0.2; stroke: #000000" points="191.19,149.181 195.833,149.181 197.69,145.581 199.547,149.181 204.19,149.181 200.476,151.581 202.333,155.581 197.69,152.781 193.047,155.581 194.904,151.581 "/>
  </g>
  <g>
    <polygon style="fill: #ffffff" points="187.39,124.781 192.033,124.781 193.89,121.181 195.747,124.781 200.39,124.781 196.676,127.181 198.533,131.181 193.89,128.381 189.247,131.181 191.104,127.181 "/>
    <polygon style="fill: none; fill-opacity:0; stroke-width: 2; stroke: #000000" points="187.39,124.781 192.033,124.781 193.89,121.181 195.747,124.781 200.39,124.781 196.676,127.181 198.533,131.181 193.89,128.381 189.247,131.181 191.104,127.181 "/>
    <polygon style="fill: none; fill-opacity:0; stroke-width: 0.2; stroke: #000000" points="187.39,124.781 192.033,124.781 193.89,121.181 195.747,124.781 200.39,124.781 196.676,127.181 198.533,131.181 193.89,128.381 189.247,131.181 191.104,127.181 "/>
  </g>
  <g>
    <polygon style="fill: #ffffff" points="112.59,186.381 117.233,186.381 119.09,182.781 120.947,186.381 125.59,186.381 121.876,188.781 123.733,192.781 119.09,189.981 114.447,192.781 116.304,188.781 "/>
    <polygon style="fill: none; fill-opacity:0; stroke-width: 2; stroke: #000000" points="112.59,186.381 117.233,186.381 119.09,182.781 120.947,186.381 125.59,186.381 121.876,188.781 123.733,192.781 119.09,189.981 114.447,192.781 116.304,188.781 "/>
    <polygon style="fill: none; fill-opacity:0; stroke-width: 0.2; stroke: #000000" points="112.59,186.381 117.233,186.381 119.09,182.781 120.947,186.381 125.59,186.381 121.876,188.781 123.733,192.781 119.09,189.981 114.447,192.781 116.304,188.781 "/>
  </g>
  <g>
    <polygon style="fill: #ffffff" points="161.79,143.981 166.433,143.981 168.29,140.381 170.147,143.981 174.79,143.981 171.076,146.381 172.933,150.381 168.29,147.581 163.647,150.381 165.504,146.381 "/>
    <polygon style="fill: none; fill-opacity:0; stroke-width: 2; stroke: #000000" points="161.79,143.981 166.433,143.981 168.29,140.381 170.147,143.981 174.79,143.981 171.076,146.381 172.933,150.381 168.29,147.581 163.647,150.381 165.504,146.381 "/>
    <polygon style="fill: none; fill-opacity:0; stroke-width: 0.2; stroke: #000000" points="161.79,143.981 166.433,143.981 168.29,140.381 170.147,143.981 174.79,143.981 171.076,146.381 172.933,150.381 168.29,147.581 163.647,150.381 165.504,146.381 "/>
  </g>
  <g>
    <polygon style="fill: #ffffff" points="237.19,207.181 241.833,207.181 243.69,203.581 245.547,207.181 250.19,207.181 246.476,209.581 248.333,213.581 243.69,210.781 239.047,213.581 240.904,209.581 "/>
    <polygon style="fill: none; fill-opacity:0; stroke-width: 2; stroke: #000000" points="237.19,207.181 241.833,207.181 243.69,203.581 245.547,207.181 250.19,207.181 246.476,209.581 248.333,213.581 243.69,210.781 239.047,213.581 240.904,209.581 "/>
    <polygon style="fill: none; fill-opacity:0; stroke-width: 0.2; stroke: #000000" points="237.19,207.181 241.833,207.181 243.69,203.581 245.547,207.181 250.19,207.181 246.476,209.581 248.333,213.581 243.69,210.781 239.047,213.581 240.904,209.581 "/>
  </g>
  <g>
    <line style="fill: none; fill-opacity:0; stroke-width: 2; stroke: #000000" x1="196.431" y1="168.493" x2="243" y2="251"/>
    <path style="fill: #000000" d="M 196.431 168.493 C 197.737,167.756 199.781,168.325 200.518,169.631 C 201.255,170.937 200.686,172.981 199.38,173.718 C 198.074,174.456 196.03,173.887 195.293,172.58 C 194.555,171.274 195.124,169.23 196.431,168.493z"/>
    <path style="fill: none; fill-opacity:0; stroke-width: 2; stroke: #000000" d="M 196.431 168.493 C 197.737,167.756 199.781,168.325 200.518,169.631 C 201.255,170.937 200.686,172.981 199.38,173.718 C 198.074,174.456 196.03,173.887 195.293,172.58 C 194.555,171.274 195.124,169.23 196.431,168.493"/>
  </g>
  <g>
    <line style="fill: none; fill-opacity:0; stroke-width: 2; stroke: #000000" x1="182.266" y1="250.914" x2="183" y2="268"/>
    <path style="fill: #000000" d="M 182.266 250.914 C 183.765,250.85 185.328,252.284 185.392,253.783 C 185.456,255.281 184.022,256.844 182.524,256.909 C 181.025,256.973 179.462,255.539 179.398,254.04 C 179.333,252.542 180.767,250.979 182.266,250.914z"/>
    <path style="fill: none; fill-opacity:0; stroke-width: 2; stroke: #000000" d="M 182.266 250.914 C 183.765,250.85 185.328,252.284 185.392,253.783 C 185.456,255.281 184.022,256.844 182.524,256.909 C 181.025,256.973 179.462,255.539 179.398,254.04 C 179.333,252.542 180.767,250.979 182.266,250.914"/>
  </g>
  <text font-size="12.7998" style="fill: #000000;text-anchor:start;font-family:sans-serif;font-style:normal;font-weight:normal" x="247" y="259">
    <tspan x="247" y="259">detection region</tspan>
  </text>
  <text font-size="12.7998" style="fill: #000000;text-anchor:start;font-family:sans-serif;font-style:normal;font-weight:normal" x="137.2" y="280.5">
    <tspan x="137.2" y="280.5">extraction region</tspan>
  </text>
</svg>
