<?xml version="1.0" encoding="UTF-8" standalone="no"?>
<!DOCTYPE svg PUBLIC "-//W3C//DTD SVG 1.0//EN" "http://www.w3.org/TR/2001/PR-SVG-20010719/DTD/svg10.dtd">
<svg width="21cm" height="16cm" viewBox="10 8 409 304" xmlns="http://www.w3.org/2000/svg" xmlns:xlink="http://www.w3.org/1999/xlink">
  <line style="fill: none; fill-opacity:0; stroke-width: 2; stroke: #000000" x1="100" y1="46" x2="140" y2="48"/>
  <line style="fill: none; fill-opacity:0; stroke-width: 2; stroke: #000000" x1="100" y1="54" x2="140" y2="56"/>
  <line style="fill: none; fill-opacity:0; stroke-width: 2; stroke: #000000" x1="100" y1="62" x2="140" y2="64"/>
  <line style="fill: none; fill-opacity:0; stroke-width: 2; stroke: #000000" x1="158" y1="50" x2="200" y2="54"/>
  <line style="fill: none; fill-opacity:0; stroke-width: 2; stroke: #000000" x1="160" y1="58" x2="200" y2="62"/>
  <line style="fill: none; fill-opacity:0; stroke-width: 2; stroke: #000000" x1="160" y1="66" x2="200" y2="70"/>
  <line style="fill: none; fill-opacity:0; stroke-width: 0.8; stroke: #ff0000" x1="72" y1="48" x2="136" y2="48"/>
  <line style="fill: none; fill-opacity:0; stroke-width: 0.8; stroke: #ff0000" x1="136" y1="48" x2="180" y2="52"/>
  <g>
    <rect style="fill: #e6e6fa" x="250" y="50" width="30" height="50"/>
    <rect style="fill: none; fill-opacity:0; stroke-width: 2; stroke: #000000" x="250" y="50" width="30" height="50"/>
  </g>
  <line style="fill: none; fill-opacity:0; stroke-width: 0.8; stroke: #ff0000" x1="180" y1="52" x2="254" y2="70"/>
  <text font-size="12.8" style="fill: #000000;text-anchor:start;font-family:sans-serif;font-style:normal;font-weight:normal" x="100" y="20">
    <tspan x="100" y="20">grazing incident</tspan>
    <tspan x="100" y="36">mirrors</tspan>
  </text>
  <text font-size="12.8" style="fill: #000000;text-anchor:start;font-family:sans-serif;font-style:normal;font-weight:normal" x="250" y="120">
    <tspan x="250" y="120">CCD</tspan>
    <tspan x="250" y="136">detector</tspan>
  </text>
  <line style="fill: none; fill-opacity:0; stroke-width: 0.8; stroke: #ff0000" x1="250" y1="30" x2="264" y2="58"/>
  <text font-size="12.8" style="fill: #ff0000;text-anchor:start;font-family:sans-serif;font-style:normal;font-weight:normal" x="10" y="40">
    <tspan x="10" y="40">source</tspan>
    <tspan x="10" y="56">radiation</tspan>
  </text>
  <text font-size="12.8" style="fill: #000000;text-anchor:start;font-family:sans-serif;font-style:normal;font-weight:normal" x="210" y="20">
    <tspan x="210" y="20">background,</tspan>
    <tspan x="210" y="36">noise</tspan>
  </text>
  <g>
    <line style="fill: none; fill-opacity:0; stroke-width: 2; stroke: #000000" x1="320" y1="46.2361" x2="320" y2="110"/>
    <polygon style="fill: none; fill-opacity:0; stroke-width: 2; stroke: #000000" points="322,46.2361 320,42.2361 318,46.2361 "/>
  </g>
  <line style="fill: none; fill-opacity:0; stroke-width: 2; stroke: #ff0000" x1="330" y1="70" x2="330" y2="100"/>
  <line style="fill: none; fill-opacity:0; stroke-width: 2; stroke: #ff0000" x1="350" y1="80" x2="350" y2="100"/>
  <line style="fill: none; fill-opacity:0; stroke-width: 2; stroke: #ff0000" x1="360" y1="80" x2="360" y2="100"/>
  <line style="fill: none; fill-opacity:0; stroke-width: 2; stroke: #ff0000" x1="336" y1="44" x2="336" y2="100"/>
  <line style="fill: none; fill-opacity:0; stroke-width: 2; stroke: #ff0000" x1="364" y1="96" x2="364" y2="100"/>
  <line style="fill: none; fill-opacity:0; stroke-width: 2; stroke: #ff0000" x1="352" y1="96" x2="352" y2="100"/>
  <line style="fill: none; fill-opacity:0; stroke-width: 2; stroke: #ff0000" x1="340" y1="96" x2="340" y2="100"/>
  <line style="fill: none; fill-opacity:0; stroke-width: 2; stroke: #ff0000" x1="344" y1="96" x2="344" y2="100"/>
  <line style="fill: none; fill-opacity:0; stroke-width: 2; stroke: #ff0000" x1="376" y1="96" x2="376" y2="100"/>
  <g>
    <line style="fill: none; fill-opacity:0; stroke-width: 2; stroke: #000000" x1="383.764" y1="100" x2="310" y2="100"/>
    <polygon style="fill: none; fill-opacity:0; stroke-width: 2; stroke: #000000" points="383.764,102 387.764,100 383.764,98 "/>
  </g>
  <text font-size="12.8" style="fill: #000000;text-anchor:start;font-family:sans-serif;font-style:normal;font-weight:normal" x="340" y="98">
    <tspan x="340" y="98"></tspan>
  </text>
  <text font-size="12.8" style="fill: #000000;text-anchor:start;font-family:sans-serif;font-style:normal;font-weight:normal" x="320" y="120">
    <tspan x="320" y="120">energy bin</tspan>
  </text>
  <text font-size="12.8" style="fill: #000000;text-anchor:start;font-family:sans-serif;font-style:normal;font-weight:normal" x="320" y="40">
    <tspan x="320" y="40">detections</tspan>
  </text>
  <g>
    <rect style="fill: #ffffff" x="20" y="180" width="120" height="100"/>
    <rect style="fill: none; fill-opacity:0; stroke-width: 2; stroke: #000000" x="20" y="180" width="120" height="100"/>
    <text font-size="12.8" style="fill: #000000;text-anchor:middle;font-family:sans-serif;font-style:normal;font-weight:normal" x="80" y="233.9">
      <tspan x="80" y="233.9"></tspan>
    </text>
  </g>
  <g>
    <rect style="fill: #ffffff" x="140" y="80" width="40.65" height="100"/>
    <rect style="fill: none; fill-opacity:0; stroke-width: 2; stroke: #000000" x="140" y="80" width="40.65" height="100"/>
    <text font-size="12.8" style="fill: #000000;text-anchor:middle;font-family:sans-serif;font-style:normal;font-weight:normal" x="160.325" y="133.9">
      <tspan x="160.325" y="133.9">src</tspan>
    </text>
  </g>
  <g>
    <rect style="fill: #ffffff" x="140" y="180" width="40" height="100"/>
    <rect style="fill: none; fill-opacity:0; stroke-width: 2; stroke: #000000" x="140" y="180" width="40" height="100"/>
    <text font-size="12.8" style="fill: #000000;text-anchor:middle;font-family:sans-serif;font-style:normal;font-weight:normal" x="160" y="233.9">
      <tspan x="160" y="233.9"></tspan>
    </text>
  </g>
  <g>
    <rect style="fill: #ffffff" x="220" y="180" width="45.7" height="100"/>
    <rect style="fill: none; fill-opacity:0; stroke-width: 2; stroke: #000000" x="220" y="180" width="45.7" height="100"/>
    <text font-size="12.8" style="fill: #000000;text-anchor:middle;font-family:sans-serif;font-style:normal;font-weight:normal" x="242.85" y="233.9">
      <tspan x="242.85" y="233.9">bkg</tspan>
    </text>
  </g>
  <text font-size="12.8" style="fill: #000000;text-anchor:start;font-family:sans-serif;font-style:normal;font-weight:normal" x="194.649" y="234.648">
    <tspan x="194.649" y="234.648">+</tspan>
  </text>
  <g>
    <rect style="fill: #ffffff" x="304.7" y="180" width="81.45" height="100"/>
    <rect style="fill: none; fill-opacity:0; stroke-width: 2; stroke: #000000" x="304.7" y="180" width="81.45" height="100"/>
    <text font-size="12.8" style="fill: #000000;text-anchor:middle;font-family:sans-serif;font-style:normal;font-weight:normal" x="345.425" y="225.9">
      <tspan x="345.425" y="225.9">expected</tspan>
      <tspan x="345.425" y="241.9">counts</tspan>
    </text>
  </g>
  <text font-size="12.8" style="fill: #000000;text-anchor:start;font-family:sans-serif;font-style:normal;font-weight:normal" x="282.378" y="234.054">
    <tspan x="282.378" y="234.054">=</tspan>
  </text>
  <g>
    <polygon style="fill: #e6e6fa" points="20,200 120,280 140,280 140,260 40,180 20,180 "/>
    <polygon style="fill: none; fill-opacity:0; stroke-width: 2; stroke: #000000" points="20,200 120,280 140,280 140,260 40,180 20,180 "/>
  </g>
  <text font-size="12.8" style="fill: #000000;text-anchor:start;font-family:sans-serif;font-style:normal;font-weight:normal" x="20" y="260.45">
    <tspan x="20" y="260.45"> Response</tspan>
    <tspan x="20" y="276.45"> matrix</tspan>
    <tspan x="20" y="292.45"></tspan>
    <tspan x="20" y="308.45"></tspan>
  </text>
  <text font-size="12.8" style="fill: #ff0000;text-anchor:start;font-family:sans-serif;font-style:normal;font-weight:normal" x="91.3136" y="110.808">
    <tspan x="91.3136" y="110.808">source</tspan>
    <tspan x="91.3136" y="126.808">photon</tspan>
    <tspan x="91.3136" y="142.808">flux</tspan>
  </text>
  <g>
    <line style="fill: none; fill-opacity:0; stroke-width: 2; stroke: #000000" x1="190" y1="164.764" x2="190" y2="90"/>
    <polygon style="fill: #000000" points="190,167.764 188,163.764 190,164.764 192,163.764 "/>
    <polygon style="fill: none; fill-opacity:0; stroke-width: 2; stroke: #000000" points="190,167.764 188,163.764 190,164.764 192,163.764 "/>
  </g>
  <text font-size="12.8" style="fill: #000000;text-anchor:start;font-family:sans-serif;font-style:normal;font-weight:normal" x="200" y="170">
    <tspan x="200" y="170">E</tspan>
  </text>
  <g>
    <line style="fill: none; fill-opacity:0; stroke-width: 2; stroke: #000000" x1="400" y1="264.764" x2="400" y2="190"/>
    <polygon style="fill: #000000" points="400,267.764 398,263.764 400,264.764 402,263.764 "/>
    <polygon style="fill: none; fill-opacity:0; stroke-width: 2; stroke: #000000" points="400,267.764 398,263.764 400,264.764 402,263.764 "/>
  </g>
  <text font-size="12.8" style="fill: #000000;text-anchor:start;font-family:sans-serif;font-style:normal;font-weight:normal" x="410" y="270">
    <tspan x="410" y="270">E</tspan>
  </text>
</svg>
