<?xml version="1.0" encoding="UTF-8" standalone="no"?>
<!-- Created with Inkscape (http://www.inkscape.org/) -->

<svg
   xmlns:dc="http://purl.org/dc/elements/1.1/"
   xmlns:cc="http://creativecommons.org/ns#"
   xmlns:rdf="http://www.w3.org/1999/02/22-rdf-syntax-ns#"
   xmlns:svg="http://www.w3.org/2000/svg"
   xmlns="http://www.w3.org/2000/svg"
   xmlns:inkscape="http://www.inkscape.org/namespaces/inkscape"
   version="1.1"
   width="431.83789"
   height="273.20898"
   id="svg2"
   xml:space="preserve"><metadata
     id="metadata8"><rdf:RDF><cc:Work
         rdf:about=""><dc:format>image/svg+xml</dc:format><dc:type
           rdf:resource="http://purl.org/dc/dcmitype/StillImage" /></cc:Work></rdf:RDF></metadata><defs
     id="defs6"><clipPath
       id="clipPath20"><path
         d="m 52.2,34.028125 279,0 0,172.800005 -279,0 0,-172.800005 z"
         inkscape:connector-curvature="0"
         id="path22" /></clipPath><clipPath
       id="clipPath30"><path
         d="m 52.2,34.028125 279,0 0,172.800005 -279,0 0,-172.800005 z"
         inkscape:connector-curvature="0"
         id="path32" /></clipPath><clipPath
       id="clipPath40"><path
         d="m 52.2,34.028125 279,0 0,172.800005 -279,0 0,-172.800005 z"
         inkscape:connector-curvature="0"
         id="path42" /></clipPath><clipPath
       id="clipPath50"><path
         d="m 52.2,34.028125 279,0 0,172.800005 -279,0 0,-172.800005 z"
         inkscape:connector-curvature="0"
         id="path52" /></clipPath><clipPath
       id="clipPath60"><path
         d="m 52.2,34.028125 279,0 0,172.800005 -279,0 0,-172.800005 z"
         inkscape:connector-curvature="0"
         id="path62" /></clipPath><clipPath
       id="clipPath70"><path
         d="m 52.2,34.028125 279,0 0,172.800005 -279,0 0,-172.800005 z"
         inkscape:connector-curvature="0"
         id="path72" /></clipPath><clipPath
       id="clipPath80"><path
         d="m 52.2,34.028125 279,0 0,172.800005 -279,0 0,-172.800005 z"
         inkscape:connector-curvature="0"
         id="path82" /></clipPath><clipPath
       id="clipPath90"><path
         d="m 52.2,34.028125 279,0 0,172.800005 -279,0 0,-172.800005 z"
         inkscape:connector-curvature="0"
         id="path92" /></clipPath><clipPath
       id="clipPath100"><path
         d="m 52.2,34.028125 279,0 0,172.800005 -279,0 0,-172.800005 z"
         inkscape:connector-curvature="0"
         id="path102" /></clipPath><clipPath
       id="clipPath110"><path
         d="m 52.2,34.028125 279,0 0,172.800005 -279,0 0,-172.800005 z"
         inkscape:connector-curvature="0"
         id="path112" /></clipPath><clipPath
       id="clipPath120"><path
         d="m 52.2,34.028125 279,0 0,172.800005 -279,0 0,-172.800005 z"
         inkscape:connector-curvature="0"
         id="path122" /></clipPath><clipPath
       id="clipPath130"><path
         d="m 52.2,34.028125 279,0 0,172.800005 -279,0 0,-172.800005 z"
         inkscape:connector-curvature="0"
         id="path132" /></clipPath><clipPath
       id="clipPath140"><path
         d="m 52.2,34.028125 279,0 0,172.800005 -279,0 0,-172.800005 z"
         inkscape:connector-curvature="0"
         id="path142" /></clipPath><clipPath
       id="clipPath150"><path
         d="m 52.2,34.028125 279,0 0,172.800005 -279,0 0,-172.800005 z"
         inkscape:connector-curvature="0"
         id="path152" /></clipPath><clipPath
       id="clipPath160"><path
         d="m 52.2,34.028125 279,0 0,172.800005 -279,0 0,-172.800005 z"
         inkscape:connector-curvature="0"
         id="path162" /></clipPath><clipPath
       id="clipPath170"><path
         d="m 52.2,34.028125 279,0 0,172.800005 -279,0 0,-172.800005 z"
         inkscape:connector-curvature="0"
         id="path172" /></clipPath><clipPath
       id="clipPath180"><path
         d="m 52.2,34.028125 279,0 0,172.800005 -279,0 0,-172.800005 z"
         inkscape:connector-curvature="0"
         id="path182" /></clipPath><clipPath
       id="clipPath190"><path
         d="m 52.2,34.028125 279,0 0,172.800005 -279,0 0,-172.800005 z"
         inkscape:connector-curvature="0"
         id="path192" /></clipPath></defs><g
     transform="matrix(1.25,0,0,-1.25,0,273.20898)"
     id="g10"><path
       d="m 0,0 345.47031,0 0,218.56719 L 0,218.56719 0,0 z"
       inkscape:connector-curvature="0"
       id="path12"
       style="fill:#ffffff;fill-opacity:1;fill-rule:nonzero;stroke:none" /><path
       d="m 52.2,34.028125 279,0 0,172.800005 -279,0 0,-172.800005 z"
       inkscape:connector-curvature="0"
       id="path14"
       style="fill:#ffffff;fill-opacity:1;fill-rule:nonzero;stroke:none" /><g
       id="g16"><g
         clip-path="url(#clipPath20)"
         id="g18"><path
           d="m 52.2,149.19913 34.875,-0.0591 34.875,-0.18015 34.875,-0.55053 34.875,-1.6774 34.875,-4.99957 34.875,-13.77174 34.875,-28.468493 34.875,-35.303129"
           inkscape:connector-curvature="0"
           id="path24"
           style="fill:none;stroke:#0000ff;stroke-width:1;stroke-linecap:square;stroke-linejoin:round;stroke-miterlimit:10;stroke-opacity:1;stroke-dasharray:none" /></g></g><g
       id="g26"><g
         clip-path="url(#clipPath30)"
         id="g28"><path
           d="m 52.2,91.612759 34.875,-0.03124 34.875,-0.09505 34.875,-0.289851 L 191.7,90.315276 226.575,87.6925 261.45,80.480645 296.325,65.585896 331.2,47.221861"
           inkscape:connector-curvature="0"
           id="path34"
           style="fill:none;stroke:#0000ff;stroke-width:1;stroke-linecap:butt;stroke-linejoin:round;stroke-miterlimit:10;stroke-opacity:1;stroke-dasharray:6, 6;stroke-dashoffset:0" /></g></g><g
       id="g36"><g
         clip-path="url(#clipPath40)"
         id="g38"><path
           d="m 52.2,149.14137 34.875,-0.16976 34.875,-0.50389 34.875,-1.4954 34.875,-4.37918 34.875,-12.10151 L 261.45,104.5326 296.325,71.661957 331.2,50.10772"
           inkscape:connector-curvature="0"
           id="path44"
           style="fill:none;stroke:#008000;stroke-width:1;stroke-linecap:square;stroke-linejoin:round;stroke-miterlimit:10;stroke-opacity:1;stroke-dasharray:none" /></g></g><g
       id="g46"><g
         clip-path="url(#clipPath50)"
         id="g48"><path
           d="M 52.2,91.582232 87.075,91.492418 121.95,91.225883 156.825,90.435744 191.7,88.126846 226.575,81.77392 261.45,68.21507 296.325,51.109423 331.2,39.730422"
           inkscape:connector-curvature="0"
           id="path54"
           style="fill:none;stroke:#008000;stroke-width:1;stroke-linecap:butt;stroke-linejoin:round;stroke-miterlimit:10;stroke-opacity:1;stroke-dasharray:6, 6;stroke-dashoffset:0" /></g></g><g
       id="g56"><g
         clip-path="url(#clipPath60)"
         id="g58"><path
           d="m 52.2,148.9679 34.875,-0.489 34.875,-1.42283 34.875,-4.16331 34.875,-11.68461 34.875,-26.47532 34.875,-32.852171 34.875,-20.653332 34.875,-6.073146"
           inkscape:connector-curvature="0"
           id="path64"
           style="fill:none;stroke:#ff0000;stroke-width:1;stroke-linecap:square;stroke-linejoin:round;stroke-miterlimit:10;stroke-opacity:1;stroke-dasharray:none" /></g></g><g
       id="g66"><g
         clip-path="url(#clipPath70)"
         id="g68"><path
           d="M 52.2,91.490742 87.075,91.231866 121.95,90.47814 156.825,88.276582 191.7,82.131115 226.575,68.340663 261.45,51.354122 296.325,40.613021 331.2,36.364974"
           inkscape:connector-curvature="0"
           id="path74"
           style="fill:none;stroke:#ff0000;stroke-width:1;stroke-linecap:butt;stroke-linejoin:round;stroke-miterlimit:10;stroke-opacity:1;stroke-dasharray:6, 6;stroke-dashoffset:0" /></g></g><g
       id="g76"><g
         clip-path="url(#clipPath80)"
         id="g78"><path
           d="m 52.2,148.44613 34.875,-1.40975 34.875,-4.05457 34.875,-11.50648 34.875,-26.23698 34.875,-32.581506 34.875,-21.057141 34.875,-6.667502 34.875,0.759991"
           inkscape:connector-curvature="0"
           id="path84"
           style="fill:none;stroke:#00bfbf;stroke-width:1;stroke-linecap:square;stroke-linejoin:round;stroke-miterlimit:10;stroke-opacity:1;stroke-dasharray:none" /></g></g><g
       id="g86"><g
         clip-path="url(#clipPath90)"
         id="g88"><path
           d="M 52.2,91.21617 87.075,90.469974 121.95,88.324058 156.825,82.26513 191.7,68.575261 226.575,51.683079 261.45,40.790505 296.325,36.705208 331.2,35.166468"
           inkscape:connector-curvature="0"
           id="path94"
           style="fill:none;stroke:#00bfbf;stroke-width:1;stroke-linecap:butt;stroke-linejoin:round;stroke-miterlimit:10;stroke-opacity:1;stroke-dasharray:6, 6;stroke-dashoffset:0" /></g></g><g
       id="g96"><g
         clip-path="url(#clipPath100)"
         id="g98"><path
           d="m 52.2,146.88979 34.875,-4.03168 34.875,-11.26726 34.875,-26.19107 34.875,-33.291017 34.875,-19.3347 34.875,-7.905347 34.875,-0.67903 34.875,1.049411"
           inkscape:connector-curvature="0"
           id="path104"
           style="fill:none;stroke:#bf00bf;stroke-width:1;stroke-linecap:square;stroke-linejoin:round;stroke-miterlimit:10;stroke-opacity:1;stroke-dasharray:none" /></g></g><g
       id="g106"><g
         clip-path="url(#clipPath110)"
         id="g108"><path
           d="M 52.2,90.398661 87.075,88.268417 121.95,82.336891 156.825,68.67039 191.7,51.418749 226.575,41.168909 261.45,36.637361 296.325,35.203302 331.2,34.736347"
           inkscape:connector-curvature="0"
           id="path114"
           style="fill:none;stroke:#bf00bf;stroke-width:1;stroke-linecap:butt;stroke-linejoin:round;stroke-miterlimit:10;stroke-opacity:1;stroke-dasharray:6, 6;stroke-dashoffset:0" /></g></g><g
       id="g116"><g
         clip-path="url(#clipPath120)"
         id="g118"><path
           d="m 52.2,142.3658 34.875,-11.07404 34.875,-26.04247 34.875,-32.301991 34.875,-21.002772 34.875,-6.145831 34.875,-1.481925 34.875,0.626601 34.875,1.152379"
           inkscape:connector-curvature="0"
           id="path124"
           style="fill:none;stroke:#bfbf00;stroke-width:1;stroke-linecap:square;stroke-linejoin:round;stroke-miterlimit:10;stroke-opacity:1;stroke-dasharray:none" /></g></g><g
       id="g126"><g
         clip-path="url(#clipPath130)"
         id="g128"><path
           d="M 52.2,88.024582 87.075,82.203644 121.95,68.643402 156.825,51.865766 191.7,40.87243 l 34.875,-4.064098 34.875,-1.653348 34.875,-0.485487 34.875,0.100891"
           inkscape:connector-curvature="0"
           id="path134"
           style="fill:none;stroke:#bfbf00;stroke-width:1;stroke-linecap:butt;stroke-linejoin:round;stroke-miterlimit:10;stroke-opacity:1;stroke-dasharray:6, 6;stroke-dashoffset:0" /></g></g><g
       id="g136"><g
         clip-path="url(#clipPath140)"
         id="g138"><path
           d="M 52.2,130.10994 87.075,105.69788 121.95,72.452229 156.825,52.602237 191.7,45.094673 226.575,44.758135 261.45,44.551421 296.325,45.47847 331.2,46.759204"
           inkscape:connector-curvature="0"
           id="path144"
           style="fill:none;stroke:#000000;stroke-width:1;stroke-linecap:square;stroke-linejoin:round;stroke-miterlimit:10;stroke-opacity:1;stroke-dasharray:none" /></g></g><g
       id="g146"><g
         clip-path="url(#clipPath150)"
         id="g148"><path
           d="m 52.2,81.598921 34.875,-12.726568 34.875,-17.153794 34.875,-10.45574 34.875,-4.514697 34.875,-1.52091 34.875,-0.558729 34.875,-0.05136 34.875,0.218921"
           inkscape:connector-curvature="0"
           id="path154"
           style="fill:none;stroke:#000000;stroke-width:1;stroke-linecap:butt;stroke-linejoin:round;stroke-miterlimit:10;stroke-opacity:1;stroke-dasharray:6, 6;stroke-dashoffset:0" /></g></g><g
       id="g156"><g
         clip-path="url(#clipPath160)"
         id="g158"><path
           d="M 52.2,103.2327 87.075,74.743371 121.95,53.263144 156.825,45.05336 191.7,43.49508 l 34.875,1.676948 34.875,2.372986 34.875,0.103763 34.875,-1.05659"
           inkscape:connector-curvature="0"
           id="path164"
           style="fill:none;stroke:#0000ff;stroke-width:1;stroke-linecap:square;stroke-linejoin:round;stroke-miterlimit:10;stroke-opacity:1;stroke-dasharray:none" /></g></g><g
       id="g166"><g
         clip-path="url(#clipPath170)"
         id="g168"><path
           d="m 52.2,67.540073 34.875,-14.847111 34.875,-11.139444 34.875,-4.70223 34.875,-1.677364 34.875,-0.46729 34.875,-0.03262 34.875,0.09082 34.875,0.08779"
           inkscape:connector-curvature="0"
           id="path174"
           style="fill:none;stroke:#0000ff;stroke-width:1;stroke-linecap:butt;stroke-linejoin:round;stroke-miterlimit:10;stroke-opacity:1;stroke-dasharray:6, 6;stroke-dashoffset:0" /></g></g><g
       id="g176"><g
         clip-path="url(#clipPath180)"
         id="g178"><path
           d="m 52.2,67.041421 34.875,-14.687427 34.875,-5.208352 34.875,-0.597082 34.875,-0.294373 34.875,0.774435 34.875,0.655762 34.875,-0.63408 34.875,-2.685259"
           inkscape:connector-curvature="0"
           id="path184"
           style="fill:none;stroke:#008000;stroke-width:1;stroke-linecap:square;stroke-linejoin:round;stroke-miterlimit:10;stroke-opacity:1;stroke-dasharray:none" /></g></g><g
       id="g186"><g
         clip-path="url(#clipPath190)"
         id="g188"><path
           d="m 52.2,48.754639 34.875,-7.946972 34.875,-3.802883 34.875,-1.678591 34.875,-0.571973 34.875,0.0044 34.875,0.133281 34.875,0.03449 34.875,-0.17307"
           inkscape:connector-curvature="0"
           id="path194"
           style="fill:none;stroke:#008000;stroke-width:1;stroke-linecap:butt;stroke-linejoin:round;stroke-miterlimit:10;stroke-opacity:1;stroke-dasharray:6, 6;stroke-dashoffset:0" /></g></g><path
       d="m 52.2,34.028125 0,4"
       inkscape:connector-curvature="0"
       id="path196"
       style="fill:#000000;fill-opacity:1;fill-rule:nonzero;stroke:#000000;stroke-width:0.5;stroke-linecap:butt;stroke-linejoin:round;stroke-miterlimit:10;stroke-opacity:1;stroke-dasharray:none" /><path
       d="m 52.2,206.82813 0,-4"
       inkscape:connector-curvature="0"
       id="path198"
       style="fill:#000000;fill-opacity:1;fill-rule:nonzero;stroke:#000000;stroke-width:0.5;stroke-linecap:butt;stroke-linejoin:round;stroke-miterlimit:10;stroke-opacity:1;stroke-dasharray:none" /><text
       transform="matrix(1,0,0,-1,45.145313,21.121875)"
       id="text200"><tspan
         x="0 7.632"
         y="0"
         id="tspan202"
         style="font-size:12px;font-variant:normal;font-weight:normal;writing-mode:lr-tb;fill:#000000;fill-opacity:1;fill-rule:nonzero;stroke:none;font-family:Bitstream Vera Serif;-inkscape-font-specification:BitstreamVeraSerif-Roman">40</tspan></text>
<path
       d="m 98.7,34.028125 0,4"
       inkscape:connector-curvature="0"
       id="path204"
       style="fill:#000000;fill-opacity:1;fill-rule:nonzero;stroke:#000000;stroke-width:0.5;stroke-linecap:butt;stroke-linejoin:round;stroke-miterlimit:10;stroke-opacity:1;stroke-dasharray:none" /><path
       d="m 98.7,206.82813 0,-4"
       inkscape:connector-curvature="0"
       id="path206"
       style="fill:#000000;fill-opacity:1;fill-rule:nonzero;stroke:#000000;stroke-width:0.5;stroke-linecap:butt;stroke-linejoin:round;stroke-miterlimit:10;stroke-opacity:1;stroke-dasharray:none" /><text
       transform="matrix(1,0,0,-1,92.098437,21.121875)"
       id="text208"><tspan
         x="0 7.632"
         y="0"
         id="tspan210"
         style="font-size:12px;font-variant:normal;font-weight:normal;writing-mode:lr-tb;fill:#000000;fill-opacity:1;fill-rule:nonzero;stroke:none;font-family:Bitstream Vera Serif;-inkscape-font-specification:BitstreamVeraSerif-Roman">41</tspan></text>
<path
       d="m 145.2,34.028125 0,4"
       inkscape:connector-curvature="0"
       id="path212"
       style="fill:#000000;fill-opacity:1;fill-rule:nonzero;stroke:#000000;stroke-width:0.5;stroke-linecap:butt;stroke-linejoin:round;stroke-miterlimit:10;stroke-opacity:1;stroke-dasharray:none" /><path
       d="m 145.2,206.82813 0,-4"
       inkscape:connector-curvature="0"
       id="path214"
       style="fill:#000000;fill-opacity:1;fill-rule:nonzero;stroke:#000000;stroke-width:0.5;stroke-linecap:butt;stroke-linejoin:round;stroke-miterlimit:10;stroke-opacity:1;stroke-dasharray:none" /><text
       transform="matrix(1,0,0,-1,138.34062,21.121875)"
       id="text216"><tspan
         x="0 7.632"
         y="0"
         id="tspan218"
         style="font-size:12px;font-variant:normal;font-weight:normal;writing-mode:lr-tb;fill:#000000;fill-opacity:1;fill-rule:nonzero;stroke:none;font-family:Bitstream Vera Serif;-inkscape-font-specification:BitstreamVeraSerif-Roman">42</tspan></text>
<path
       d="m 191.7,34.028125 0,4"
       inkscape:connector-curvature="0"
       id="path220"
       style="fill:#000000;fill-opacity:1;fill-rule:nonzero;stroke:#000000;stroke-width:0.5;stroke-linecap:butt;stroke-linejoin:round;stroke-miterlimit:10;stroke-opacity:1;stroke-dasharray:none" /><path
       d="m 191.7,206.82813 0,-4"
       inkscape:connector-curvature="0"
       id="path222"
       style="fill:#000000;fill-opacity:1;fill-rule:nonzero;stroke:#000000;stroke-width:0.5;stroke-linecap:butt;stroke-linejoin:round;stroke-miterlimit:10;stroke-opacity:1;stroke-dasharray:none" /><text
       transform="matrix(1,0,0,-1,184.69219,21.121875)"
       id="text224"><tspan
         x="0 7.632"
         y="0"
         id="tspan226"
         style="font-size:12px;font-variant:normal;font-weight:normal;writing-mode:lr-tb;fill:#000000;fill-opacity:1;fill-rule:nonzero;stroke:none;font-family:Bitstream Vera Serif;-inkscape-font-specification:BitstreamVeraSerif-Roman">43</tspan></text>
<path
       d="m 238.2,34.028125 0,4"
       inkscape:connector-curvature="0"
       id="path228"
       style="fill:#000000;fill-opacity:1;fill-rule:nonzero;stroke:#000000;stroke-width:0.5;stroke-linecap:butt;stroke-linejoin:round;stroke-miterlimit:10;stroke-opacity:1;stroke-dasharray:none" /><path
       d="m 238.2,206.82813 0,-4"
       inkscape:connector-curvature="0"
       id="path230"
       style="fill:#000000;fill-opacity:1;fill-rule:nonzero;stroke:#000000;stroke-width:0.5;stroke-linecap:butt;stroke-linejoin:round;stroke-miterlimit:10;stroke-opacity:1;stroke-dasharray:none" /><text
       transform="matrix(1,0,0,-1,231.05156,21.121875)"
       id="text232"><tspan
         x="0 7.632"
         y="0"
         id="tspan234"
         style="font-size:12px;font-variant:normal;font-weight:normal;writing-mode:lr-tb;fill:#000000;fill-opacity:1;fill-rule:nonzero;stroke:none;font-family:Bitstream Vera Serif;-inkscape-font-specification:BitstreamVeraSerif-Roman">44</tspan></text>
<path
       d="m 284.7,34.028125 0,4"
       inkscape:connector-curvature="0"
       id="path236"
       style="fill:#000000;fill-opacity:1;fill-rule:nonzero;stroke:#000000;stroke-width:0.5;stroke-linecap:butt;stroke-linejoin:round;stroke-miterlimit:10;stroke-opacity:1;stroke-dasharray:none" /><path
       d="m 284.7,206.82813 0,-4"
       inkscape:connector-curvature="0"
       id="path238"
       style="fill:#000000;fill-opacity:1;fill-rule:nonzero;stroke:#000000;stroke-width:0.5;stroke-linecap:butt;stroke-linejoin:round;stroke-miterlimit:10;stroke-opacity:1;stroke-dasharray:none" /><text
       transform="matrix(1,0,0,-1,277.71562,21.121875)"
       id="text240"><tspan
         x="0 7.632"
         y="0"
         id="tspan242"
         style="font-size:12px;font-variant:normal;font-weight:normal;writing-mode:lr-tb;fill:#000000;fill-opacity:1;fill-rule:nonzero;stroke:none;font-family:Bitstream Vera Serif;-inkscape-font-specification:BitstreamVeraSerif-Roman">45</tspan></text>
<path
       d="m 331.2,34.028125 0,4"
       inkscape:connector-curvature="0"
       id="path244"
       style="fill:#000000;fill-opacity:1;fill-rule:nonzero;stroke:#000000;stroke-width:0.5;stroke-linecap:butt;stroke-linejoin:round;stroke-miterlimit:10;stroke-opacity:1;stroke-dasharray:none" /><path
       d="m 331.2,206.82813 0,-4"
       inkscape:connector-curvature="0"
       id="path246"
       style="fill:#000000;fill-opacity:1;fill-rule:nonzero;stroke:#000000;stroke-width:0.5;stroke-linecap:butt;stroke-linejoin:round;stroke-miterlimit:10;stroke-opacity:1;stroke-dasharray:none" /><text
       transform="matrix(1,0,0,-1,324.12969,21.121875)"
       id="text248"><tspan
         x="0 7.632"
         y="0"
         id="tspan250"
         style="font-size:12px;font-variant:normal;font-weight:normal;writing-mode:lr-tb;fill:#000000;fill-opacity:1;fill-rule:nonzero;stroke:none;font-family:Bitstream Vera Serif;-inkscape-font-specification:BitstreamVeraSerif-Roman">46</tspan></text>
<text
       transform="matrix(1,0,0,-1,188.18437,7.2)"
       id="text252"><tspan
         x="0"
         y="0"
         id="tspan254"
         style="font-size:12px;font-variant:normal;font-weight:normal;writing-mode:lr-tb;fill:#000000;fill-opacity:1;fill-rule:nonzero;stroke:none;font-family:Bitstream Vera Serif;-inkscape-font-specification:BitstreamVeraSerif-Roman">L</tspan></text>
<path
       d="m 52.2,34.028125 4,0"
       inkscape:connector-curvature="0"
       id="path256"
       style="fill:#000000;fill-opacity:1;fill-rule:nonzero;stroke:#000000;stroke-width:0.5;stroke-linecap:butt;stroke-linejoin:round;stroke-miterlimit:10;stroke-opacity:1;stroke-dasharray:none" /><path
       d="m 331.2,34.028125 -4,0"
       inkscape:connector-curvature="0"
       id="path258"
       style="fill:#000000;fill-opacity:1;fill-rule:nonzero;stroke:#000000;stroke-width:0.5;stroke-linecap:butt;stroke-linejoin:round;stroke-miterlimit:10;stroke-opacity:1;stroke-dasharray:none" /><text
       transform="matrix(1,0,0,-1,30.7,29.660937)"
       id="text260"><tspan
         x="0 7.632 11.448"
         y="0"
         id="tspan262"
         style="font-size:12px;font-variant:normal;font-weight:normal;writing-mode:lr-tb;fill:#000000;fill-opacity:1;fill-rule:nonzero;stroke:none;font-family:Bitstream Vera Serif;-inkscape-font-specification:BitstreamVeraSerif-Roman">0.0</tspan></text>
<path
       d="m 52.2,68.588125 4,0"
       inkscape:connector-curvature="0"
       id="path264"
       style="fill:#000000;fill-opacity:1;fill-rule:nonzero;stroke:#000000;stroke-width:0.5;stroke-linecap:butt;stroke-linejoin:round;stroke-miterlimit:10;stroke-opacity:1;stroke-dasharray:none" /><path
       d="m 331.2,68.588125 -4,0"
       inkscape:connector-curvature="0"
       id="path266"
       style="fill:#000000;fill-opacity:1;fill-rule:nonzero;stroke:#000000;stroke-width:0.5;stroke-linecap:butt;stroke-linejoin:round;stroke-miterlimit:10;stroke-opacity:1;stroke-dasharray:none" /><text
       transform="matrix(1,0,0,-1,31.090625,64.220937)"
       id="text268"><tspan
         x="0 7.632 11.448"
         y="0"
         id="tspan270"
         style="font-size:12px;font-variant:normal;font-weight:normal;writing-mode:lr-tb;fill:#000000;fill-opacity:1;fill-rule:nonzero;stroke:none;font-family:Bitstream Vera Serif;-inkscape-font-specification:BitstreamVeraSerif-Roman">0.2</tspan></text>
<path
       d="m 52.2,103.14813 4,0"
       inkscape:connector-curvature="0"
       id="path272"
       style="fill:#000000;fill-opacity:1;fill-rule:nonzero;stroke:#000000;stroke-width:0.5;stroke-linecap:butt;stroke-linejoin:round;stroke-miterlimit:10;stroke-opacity:1;stroke-dasharray:none" /><path
       d="m 331.2,103.14813 -4,0"
       inkscape:connector-curvature="0"
       id="path274"
       style="fill:#000000;fill-opacity:1;fill-rule:nonzero;stroke:#000000;stroke-width:0.5;stroke-linecap:butt;stroke-linejoin:round;stroke-miterlimit:10;stroke-opacity:1;stroke-dasharray:none" /><text
       transform="matrix(1,0,0,-1,30.5125,98.780937)"
       id="text276"><tspan
         x="0 7.632 11.448"
         y="0"
         id="tspan278"
         style="font-size:12px;font-variant:normal;font-weight:normal;writing-mode:lr-tb;fill:#000000;fill-opacity:1;fill-rule:nonzero;stroke:none;font-family:Bitstream Vera Serif;-inkscape-font-specification:BitstreamVeraSerif-Roman">0.4</tspan></text>
<path
       d="m 52.2,137.70812 4,0"
       inkscape:connector-curvature="0"
       id="path280"
       style="fill:#000000;fill-opacity:1;fill-rule:nonzero;stroke:#000000;stroke-width:0.5;stroke-linecap:butt;stroke-linejoin:round;stroke-miterlimit:10;stroke-opacity:1;stroke-dasharray:none" /><path
       d="m 331.2,137.70812 -4,0"
       inkscape:connector-curvature="0"
       id="path282"
       style="fill:#000000;fill-opacity:1;fill-rule:nonzero;stroke:#000000;stroke-width:0.5;stroke-linecap:butt;stroke-linejoin:round;stroke-miterlimit:10;stroke-opacity:1;stroke-dasharray:none" /><text
       transform="matrix(1,0,0,-1,30.66875,133.34094)"
       id="text284"><tspan
         x="0 7.632 11.448"
         y="0"
         id="tspan286"
         style="font-size:12px;font-variant:normal;font-weight:normal;writing-mode:lr-tb;fill:#000000;fill-opacity:1;fill-rule:nonzero;stroke:none;font-family:Bitstream Vera Serif;-inkscape-font-specification:BitstreamVeraSerif-Roman">0.6</tspan></text>
<path
       d="m 52.2,172.26812 4,0"
       inkscape:connector-curvature="0"
       id="path288"
       style="fill:#000000;fill-opacity:1;fill-rule:nonzero;stroke:#000000;stroke-width:0.5;stroke-linecap:butt;stroke-linejoin:round;stroke-miterlimit:10;stroke-opacity:1;stroke-dasharray:none" /><path
       d="m 331.2,172.26812 -4,0"
       inkscape:connector-curvature="0"
       id="path290"
       style="fill:#000000;fill-opacity:1;fill-rule:nonzero;stroke:#000000;stroke-width:0.5;stroke-linecap:butt;stroke-linejoin:round;stroke-miterlimit:10;stroke-opacity:1;stroke-dasharray:none" /><text
       transform="matrix(1,0,0,-1,30.715625,167.90094)"
       id="text292"><tspan
         x="0 7.632 11.448"
         y="0"
         id="tspan294"
         style="font-size:12px;font-variant:normal;font-weight:normal;writing-mode:lr-tb;fill:#000000;fill-opacity:1;fill-rule:nonzero;stroke:none;font-family:Bitstream Vera Serif;-inkscape-font-specification:BitstreamVeraSerif-Roman">0.8</tspan></text>
<path
       d="m 52.2,206.82813 4,0"
       inkscape:connector-curvature="0"
       id="path296"
       style="fill:#000000;fill-opacity:1;fill-rule:nonzero;stroke:#000000;stroke-width:0.5;stroke-linecap:butt;stroke-linejoin:round;stroke-miterlimit:10;stroke-opacity:1;stroke-dasharray:none" /><path
       d="m 331.2,206.82813 -4,0"
       inkscape:connector-curvature="0"
       id="path298"
       style="fill:#000000;fill-opacity:1;fill-rule:nonzero;stroke:#000000;stroke-width:0.5;stroke-linecap:butt;stroke-linejoin:round;stroke-miterlimit:10;stroke-opacity:1;stroke-dasharray:none" /><text
       transform="matrix(1,0,0,-1,31.371875,202.46094)"
       id="text300"><tspan
         x="0 7.632 11.448"
         y="0"
         id="tspan302"
         style="font-size:12px;font-variant:normal;font-weight:normal;writing-mode:lr-tb;fill:#000000;fill-opacity:1;fill-rule:nonzero;stroke:none;font-family:Bitstream Vera Serif;-inkscape-font-specification:BitstreamVeraSerif-Roman">1.0</tspan></text>
<path
       d="m 52.2,206.82813 279,0"
       inkscape:connector-curvature="0"
       id="path304"
       style="fill:none;stroke:#000000;stroke-width:1;stroke-linecap:square;stroke-linejoin:round;stroke-miterlimit:10;stroke-opacity:1;stroke-dasharray:none" /><path
       d="m 331.2,34.028125 0,172.800005"
       inkscape:connector-curvature="0"
       id="path306"
       style="fill:none;stroke:#000000;stroke-width:1;stroke-linecap:square;stroke-linejoin:round;stroke-miterlimit:10;stroke-opacity:1;stroke-dasharray:none" /><path
       d="m 52.2,34.028125 279,0"
       inkscape:connector-curvature="0"
       id="path308"
       style="fill:none;stroke:#000000;stroke-width:1;stroke-linecap:square;stroke-linejoin:round;stroke-miterlimit:10;stroke-opacity:1;stroke-dasharray:none" /><path
       d="m 52.2,34.028125 0,172.800005"
       inkscape:connector-curvature="0"
       id="path310"
       style="fill:none;stroke:#000000;stroke-width:1;stroke-linecap:square;stroke-linejoin:round;stroke-miterlimit:10;stroke-opacity:1;stroke-dasharray:none" /><path
       d="m 279.8848,196.1696 11.6592,0"
       inkscape:connector-curvature="0"
       id="path312"
       style="fill:none;stroke:#0000ff;stroke-width:1;stroke-linecap:square;stroke-linejoin:round;stroke-miterlimit:10;stroke-opacity:1;stroke-dasharray:none" /><g
       transform="translate(300.7048,192.2548)"
       id="g314"><text
         transform="matrix(1,0,0,-1,0,1.46875)"
         id="text316"><tspan
           x="0"
           y="0"
           id="tspan318"
           style="font-size:8.32800007px;font-variant:normal;font-weight:normal;writing-mode:lr-tb;fill:#000000;fill-opacity:1;fill-rule:nonzero;stroke:none;font-family:Cmmi10;-inkscape-font-specification:Cmmi10">z</tspan></text>
<text
         transform="matrix(1,0,0,-1,5.3235718,1.46875)"
         id="text320"><tspan
           x="0 6.975183"
           y="0"
           id="tspan322"
           style="font-size:8.32800007px;font-variant:normal;font-weight:normal;writing-mode:lr-tb;fill:#000000;fill-opacity:1;fill-rule:nonzero;stroke:none;font-family:Cmr10;-inkscape-font-specification:Cmr10">=0</tspan></text>
<text
         transform="matrix(1,0,0,-1,16.455005,1.46875)"
         id="text324"><tspan
           x="0"
           y="0"
           id="tspan326"
           style="font-size:8.32800007px;font-variant:normal;font-weight:normal;writing-mode:lr-tb;fill:#000000;fill-opacity:1;fill-rule:nonzero;stroke:none;font-family:Cmmi10;-inkscape-font-specification:Cmmi10">.</tspan></text>
<text
         transform="matrix(1,0,0,-1,18.820813,1.46875)"
         id="text328"><tspan
           x="0"
           y="0"
           id="tspan330"
           style="font-size:8.32800007px;font-variant:normal;font-weight:normal;writing-mode:lr-tb;fill:#000000;fill-opacity:1;fill-rule:nonzero;stroke:none;font-family:Cmr10;-inkscape-font-specification:Cmr10">1</tspan></text>
</g><path
       d="m 279.8848,184.2556 11.6592,0"
       inkscape:connector-curvature="0"
       id="path332"
       style="fill:none;stroke:#008000;stroke-width:1;stroke-linecap:square;stroke-linejoin:round;stroke-miterlimit:10;stroke-opacity:1;stroke-dasharray:none" /><g
       transform="translate(300.7048,180.3408)"
       id="g334"><text
         transform="matrix(1,0,0,-1,0,1.46875)"
         id="text336"><tspan
           x="0"
           y="0"
           id="tspan338"
           style="font-size:8.32800007px;font-variant:normal;font-weight:normal;writing-mode:lr-tb;fill:#000000;fill-opacity:1;fill-rule:nonzero;stroke:none;font-family:Cmmi10;-inkscape-font-specification:Cmmi10">z</tspan></text>
<text
         transform="matrix(1,0,0,-1,5.3235718,1.46875)"
         id="text340"><tspan
           x="0 6.975183"
           y="0"
           id="tspan342"
           style="font-size:8.32800007px;font-variant:normal;font-weight:normal;writing-mode:lr-tb;fill:#000000;fill-opacity:1;fill-rule:nonzero;stroke:none;font-family:Cmr10;-inkscape-font-specification:Cmr10">=0</tspan></text>
<text
         transform="matrix(1,0,0,-1,16.455005,1.46875)"
         id="text344"><tspan
           x="0"
           y="0"
           id="tspan346"
           style="font-size:8.32800007px;font-variant:normal;font-weight:normal;writing-mode:lr-tb;fill:#000000;fill-opacity:1;fill-rule:nonzero;stroke:none;font-family:Cmmi10;-inkscape-font-specification:Cmmi10">.</tspan></text>
<text
         transform="matrix(1,0,0,-1,18.820813,1.46875)"
         id="text348"><tspan
           x="0"
           y="0"
           id="tspan350"
           style="font-size:8.32800007px;font-variant:normal;font-weight:normal;writing-mode:lr-tb;fill:#000000;fill-opacity:1;fill-rule:nonzero;stroke:none;font-family:Cmr10;-inkscape-font-specification:Cmr10">6</tspan></text>
</g><path
       d="m 279.8848,172.3416 11.6592,0"
       inkscape:connector-curvature="0"
       id="path352"
       style="fill:none;stroke:#ff0000;stroke-width:1;stroke-linecap:square;stroke-linejoin:round;stroke-miterlimit:10;stroke-opacity:1;stroke-dasharray:none" /><g
       transform="translate(300.7048,168.4268)"
       id="g354"><text
         transform="matrix(1,0,0,-1,0,1.46875)"
         id="text356"><tspan
           x="0"
           y="0"
           id="tspan358"
           style="font-size:8.32800007px;font-variant:normal;font-weight:normal;writing-mode:lr-tb;fill:#000000;fill-opacity:1;fill-rule:nonzero;stroke:none;font-family:Cmmi10;-inkscape-font-specification:Cmmi10">z</tspan></text>
<text
         transform="matrix(1,0,0,-1,5.3235718,1.46875)"
         id="text360"><tspan
           x="0 6.975183"
           y="0"
           id="tspan362"
           style="font-size:8.32800007px;font-variant:normal;font-weight:normal;writing-mode:lr-tb;fill:#000000;fill-opacity:1;fill-rule:nonzero;stroke:none;font-family:Cmr10;-inkscape-font-specification:Cmr10">=1</tspan></text>
<text
         transform="matrix(1,0,0,-1,16.455005,1.46875)"
         id="text364"><tspan
           x="0"
           y="0"
           id="tspan366"
           style="font-size:8.32800007px;font-variant:normal;font-weight:normal;writing-mode:lr-tb;fill:#000000;fill-opacity:1;fill-rule:nonzero;stroke:none;font-family:Cmmi10;-inkscape-font-specification:Cmmi10">.</tspan></text>
<text
         transform="matrix(1,0,0,-1,18.820813,1.46875)"
         id="text368"><tspan
           x="0"
           y="0"
           id="tspan370"
           style="font-size:8.32800007px;font-variant:normal;font-weight:normal;writing-mode:lr-tb;fill:#000000;fill-opacity:1;fill-rule:nonzero;stroke:none;font-family:Cmr10;-inkscape-font-specification:Cmr10">1</tspan></text>
</g><path
       d="m 279.8848,160.4276 11.6592,0"
       inkscape:connector-curvature="0"
       id="path372"
       style="fill:none;stroke:#00bfbf;stroke-width:1;stroke-linecap:square;stroke-linejoin:round;stroke-miterlimit:10;stroke-opacity:1;stroke-dasharray:none" /><g
       transform="translate(300.7048,156.5128)"
       id="g374"><text
         transform="matrix(1,0,0,-1,0,1.46875)"
         id="text376"><tspan
           x="0"
           y="0"
           id="tspan378"
           style="font-size:8.32800007px;font-variant:normal;font-weight:normal;writing-mode:lr-tb;fill:#000000;fill-opacity:1;fill-rule:nonzero;stroke:none;font-family:Cmmi10;-inkscape-font-specification:Cmmi10">z</tspan></text>
<text
         transform="matrix(1,0,0,-1,5.3235718,1.46875)"
         id="text380"><tspan
           x="0 6.975183"
           y="0"
           id="tspan382"
           style="font-size:8.32800007px;font-variant:normal;font-weight:normal;writing-mode:lr-tb;fill:#000000;fill-opacity:1;fill-rule:nonzero;stroke:none;font-family:Cmr10;-inkscape-font-specification:Cmr10">=1</tspan></text>
<text
         transform="matrix(1,0,0,-1,16.455005,1.46875)"
         id="text384"><tspan
           x="0"
           y="0"
           id="tspan386"
           style="font-size:8.32800007px;font-variant:normal;font-weight:normal;writing-mode:lr-tb;fill:#000000;fill-opacity:1;fill-rule:nonzero;stroke:none;font-family:Cmmi10;-inkscape-font-specification:Cmmi10">.</tspan></text>
<text
         transform="matrix(1,0,0,-1,18.820813,1.46875)"
         id="text388"><tspan
           x="0"
           y="0"
           id="tspan390"
           style="font-size:8.32800007px;font-variant:normal;font-weight:normal;writing-mode:lr-tb;fill:#000000;fill-opacity:1;fill-rule:nonzero;stroke:none;font-family:Cmr10;-inkscape-font-specification:Cmr10">6</tspan></text>
</g><path
       d="m 279.8848,148.5136 11.6592,0"
       inkscape:connector-curvature="0"
       id="path392"
       style="fill:none;stroke:#bf00bf;stroke-width:1;stroke-linecap:square;stroke-linejoin:round;stroke-miterlimit:10;stroke-opacity:1;stroke-dasharray:none" /><g
       transform="translate(300.7048,144.5988)"
       id="g394"><text
         transform="matrix(1,0,0,-1,0,1.46875)"
         id="text396"><tspan
           x="0"
           y="0"
           id="tspan398"
           style="font-size:8.32800007px;font-variant:normal;font-weight:normal;writing-mode:lr-tb;fill:#000000;fill-opacity:1;fill-rule:nonzero;stroke:none;font-family:Cmmi10;-inkscape-font-specification:Cmmi10">z</tspan></text>
<text
         transform="matrix(1,0,0,-1,5.3235718,1.46875)"
         id="text400"><tspan
           x="0 6.975183"
           y="0"
           id="tspan402"
           style="font-size:8.32800007px;font-variant:normal;font-weight:normal;writing-mode:lr-tb;fill:#000000;fill-opacity:1;fill-rule:nonzero;stroke:none;font-family:Cmr10;-inkscape-font-specification:Cmr10">=2</tspan></text>
<text
         transform="matrix(1,0,0,-1,16.455005,1.46875)"
         id="text404"><tspan
           x="0"
           y="0"
           id="tspan406"
           style="font-size:8.32800007px;font-variant:normal;font-weight:normal;writing-mode:lr-tb;fill:#000000;fill-opacity:1;fill-rule:nonzero;stroke:none;font-family:Cmmi10;-inkscape-font-specification:Cmmi10">.</tspan></text>
<text
         transform="matrix(1,0,0,-1,18.820813,1.46875)"
         id="text408"><tspan
           x="0"
           y="0"
           id="tspan410"
           style="font-size:8.32800007px;font-variant:normal;font-weight:normal;writing-mode:lr-tb;fill:#000000;fill-opacity:1;fill-rule:nonzero;stroke:none;font-family:Cmr10;-inkscape-font-specification:Cmr10">0</tspan></text>
</g><path
       d="m 279.8848,136.5996 11.6592,0"
       inkscape:connector-curvature="0"
       id="path412"
       style="fill:none;stroke:#bfbf00;stroke-width:1;stroke-linecap:square;stroke-linejoin:round;stroke-miterlimit:10;stroke-opacity:1;stroke-dasharray:none" /><g
       transform="translate(300.7048,132.6848)"
       id="g414"><text
         transform="matrix(1,0,0,-1,0,1.46875)"
         id="text416"><tspan
           x="0"
           y="0"
           id="tspan418"
           style="font-size:8.32800007px;font-variant:normal;font-weight:normal;writing-mode:lr-tb;fill:#000000;fill-opacity:1;fill-rule:nonzero;stroke:none;font-family:Cmmi10;-inkscape-font-specification:Cmmi10">z</tspan></text>
<text
         transform="matrix(1,0,0,-1,5.3235718,1.46875)"
         id="text420"><tspan
           x="0 6.975183"
           y="0"
           id="tspan422"
           style="font-size:8.32800007px;font-variant:normal;font-weight:normal;writing-mode:lr-tb;fill:#000000;fill-opacity:1;fill-rule:nonzero;stroke:none;font-family:Cmr10;-inkscape-font-specification:Cmr10">=2</tspan></text>
<text
         transform="matrix(1,0,0,-1,16.455005,1.46875)"
         id="text424"><tspan
           x="0"
           y="0"
           id="tspan426"
           style="font-size:8.32800007px;font-variant:normal;font-weight:normal;writing-mode:lr-tb;fill:#000000;fill-opacity:1;fill-rule:nonzero;stroke:none;font-family:Cmmi10;-inkscape-font-specification:Cmmi10">.</tspan></text>
<text
         transform="matrix(1,0,0,-1,18.820813,1.46875)"
         id="text428"><tspan
           x="0"
           y="0"
           id="tspan430"
           style="font-size:8.32800007px;font-variant:normal;font-weight:normal;writing-mode:lr-tb;fill:#000000;fill-opacity:1;fill-rule:nonzero;stroke:none;font-family:Cmr10;-inkscape-font-specification:Cmr10">5</tspan></text>
</g><path
       d="m 279.8848,124.6856 11.6592,0"
       inkscape:connector-curvature="0"
       id="path432"
       style="fill:none;stroke:#000000;stroke-width:1;stroke-linecap:square;stroke-linejoin:round;stroke-miterlimit:10;stroke-opacity:1;stroke-dasharray:none" /><g
       transform="translate(300.7048,120.7708)"
       id="g434"><text
         transform="matrix(1,0,0,-1,0,1.46875)"
         id="text436"><tspan
           x="0"
           y="0"
           id="tspan438"
           style="font-size:8.32800007px;font-variant:normal;font-weight:normal;writing-mode:lr-tb;fill:#000000;fill-opacity:1;fill-rule:nonzero;stroke:none;font-family:Cmmi10;-inkscape-font-specification:Cmmi10">z</tspan></text>
<text
         transform="matrix(1,0,0,-1,5.3235718,1.46875)"
         id="text440"><tspan
           x="0 6.975183"
           y="0"
           id="tspan442"
           style="font-size:8.32800007px;font-variant:normal;font-weight:normal;writing-mode:lr-tb;fill:#000000;fill-opacity:1;fill-rule:nonzero;stroke:none;font-family:Cmr10;-inkscape-font-specification:Cmr10">=3</tspan></text>
<text
         transform="matrix(1,0,0,-1,16.455005,1.46875)"
         id="text444"><tspan
           x="0"
           y="0"
           id="tspan446"
           style="font-size:8.32800007px;font-variant:normal;font-weight:normal;writing-mode:lr-tb;fill:#000000;fill-opacity:1;fill-rule:nonzero;stroke:none;font-family:Cmmi10;-inkscape-font-specification:Cmmi10">.</tspan></text>
<text
         transform="matrix(1,0,0,-1,18.820813,1.46875)"
         id="text448"><tspan
           x="0"
           y="0"
           id="tspan450"
           style="font-size:8.32800007px;font-variant:normal;font-weight:normal;writing-mode:lr-tb;fill:#000000;fill-opacity:1;fill-rule:nonzero;stroke:none;font-family:Cmr10;-inkscape-font-specification:Cmr10">0</tspan></text>
</g><path
       d="m 279.8848,112.7716 11.6592,0"
       inkscape:connector-curvature="0"
       id="path452"
       style="fill:none;stroke:#0000ff;stroke-width:1;stroke-linecap:square;stroke-linejoin:round;stroke-miterlimit:10;stroke-opacity:1;stroke-dasharray:none" /><g
       transform="translate(300.7048,108.8568)"
       id="g454"><text
         transform="matrix(1,0,0,-1,0,1.46875)"
         id="text456"><tspan
           x="0"
           y="0"
           id="tspan458"
           style="font-size:8.32800007px;font-variant:normal;font-weight:normal;writing-mode:lr-tb;fill:#000000;fill-opacity:1;fill-rule:nonzero;stroke:none;font-family:Cmmi10;-inkscape-font-specification:Cmmi10">z</tspan></text>
<text
         transform="matrix(1,0,0,-1,5.3235718,1.46875)"
         id="text460"><tspan
           x="0 6.975183"
           y="0"
           id="tspan462"
           style="font-size:8.32800007px;font-variant:normal;font-weight:normal;writing-mode:lr-tb;fill:#000000;fill-opacity:1;fill-rule:nonzero;stroke:none;font-family:Cmr10;-inkscape-font-specification:Cmr10">=3</tspan></text>
<text
         transform="matrix(1,0,0,-1,16.455005,1.46875)"
         id="text464"><tspan
           x="0"
           y="0"
           id="tspan466"
           style="font-size:8.32800007px;font-variant:normal;font-weight:normal;writing-mode:lr-tb;fill:#000000;fill-opacity:1;fill-rule:nonzero;stroke:none;font-family:Cmmi10;-inkscape-font-specification:Cmmi10">.</tspan></text>
<text
         transform="matrix(1,0,0,-1,18.820813,1.46875)"
         id="text468"><tspan
           x="0"
           y="0"
           id="tspan470"
           style="font-size:8.32800007px;font-variant:normal;font-weight:normal;writing-mode:lr-tb;fill:#000000;fill-opacity:1;fill-rule:nonzero;stroke:none;font-family:Cmr10;-inkscape-font-specification:Cmr10">5</tspan></text>
</g><path
       d="m 279.8848,100.8576 11.6592,0"
       inkscape:connector-curvature="0"
       id="path472"
       style="fill:none;stroke:#008000;stroke-width:1;stroke-linecap:square;stroke-linejoin:round;stroke-miterlimit:10;stroke-opacity:1;stroke-dasharray:none" /><g
       transform="translate(300.7048,96.9428)"
       id="g474"><text
         transform="matrix(1,0,0,-1,0,1.46875)"
         id="text476"><tspan
           x="0"
           y="0"
           id="tspan478"
           style="font-size:8.32800007px;font-variant:normal;font-weight:normal;writing-mode:lr-tb;fill:#000000;fill-opacity:1;fill-rule:nonzero;stroke:none;font-family:Cmmi10;-inkscape-font-specification:Cmmi10">z</tspan></text>
<text
         transform="matrix(1,0,0,-1,5.3235718,1.46875)"
         id="text480"><tspan
           x="0 6.975183"
           y="0"
           id="tspan482"
           style="font-size:8.32800007px;font-variant:normal;font-weight:normal;writing-mode:lr-tb;fill:#000000;fill-opacity:1;fill-rule:nonzero;stroke:none;font-family:Cmr10;-inkscape-font-specification:Cmr10">=4</tspan></text>
<text
         transform="matrix(1,0,0,-1,16.455005,1.46875)"
         id="text484"><tspan
           x="0"
           y="0"
           id="tspan486"
           style="font-size:8.32800007px;font-variant:normal;font-weight:normal;writing-mode:lr-tb;fill:#000000;fill-opacity:1;fill-rule:nonzero;stroke:none;font-family:Cmmi10;-inkscape-font-specification:Cmmi10">.</tspan></text>
<text
         transform="matrix(1,0,0,-1,18.820813,1.46875)"
         id="text488"><tspan
           x="0"
           y="0"
           id="tspan490"
           style="font-size:8.32800007px;font-variant:normal;font-weight:normal;writing-mode:lr-tb;fill:#000000;fill-opacity:1;fill-rule:nonzero;stroke:none;font-family:Cmr10;-inkscape-font-specification:Cmr10">0</tspan></text>
</g></g></svg>