<?xml version="1.0" encoding="UTF-8" standalone="no"?>
<!DOCTYPE svg PUBLIC "-//W3C//DTD SVG 1.0//EN" "http://www.w3.org/TR/2001/PR-SVG-20010719/DTD/svg10.dtd">
<svg width="46cm" height="24cm" viewBox="-80 39 913 462" xmlns="http://www.w3.org/2000/svg" xmlns:xlink="http://www.w3.org/1999/xlink">
  <g>
    <rect style="fill: #aaaaaa" x="580" y="52" width="20" height="20"/>
    <rect style="fill: none; fill-opacity:0; stroke-width: 2; stroke: #333333" x="580" y="52" width="20" height="20"/>
  </g>
  <g>
    <rect style="fill: #333333" x="580" y="200" width="20" height="20"/>
    <rect style="fill: none; fill-opacity:0; stroke-width: 2; stroke: #000000" x="580" y="200" width="20" height="20"/>
  </g>
  <g>
    <rect style="fill: #aaaaaa" x="580" y="180" width="20" height="20"/>
    <rect style="fill: none; fill-opacity:0; stroke-width: 2; stroke: #333333" x="580" y="180" width="20" height="20"/>
  </g>
  <g>
    <ellipse style="fill: #e6e6fa" cx="520" cy="255" rx="20" ry="15"/>
    <ellipse style="fill: none; fill-opacity:0; stroke-width: 2; stroke: #aaaaaa" cx="520" cy="255" rx="20" ry="15"/>
  </g>
  <g>
    <ellipse style="fill: #aaaaaa" cx="150" cy="440" rx="40" ry="50"/>
    <ellipse style="fill: none; fill-opacity:0; stroke-width: 2; stroke: #333333" cx="150" cy="440" rx="40" ry="50"/>
  </g>
  <g>
    <ellipse style="fill: #aaaaaa" cx="-10" cy="440" rx="40" ry="50"/>
    <ellipse style="fill: none; fill-opacity:0; stroke-width: 2; stroke: #333333" cx="-10" cy="440" rx="40" ry="50"/>
  </g>
  <g>
    <rect style="fill: #ffffff" x="-60" y="440" width="300" height="60"/>
    <rect style="fill: none; fill-opacity:0; stroke-width: 2; stroke: #ffffff" x="-60" y="440" width="300" height="60"/>
  </g>
  <g>
    <rect style="fill: #ffffff" x="440" y="100" width="180" height="40"/>
    <rect style="fill: none; fill-opacity:0; stroke-width: 2; stroke: #ffffff" x="440" y="100" width="180" height="40"/>
  </g>
  <g>
    <ellipse style="fill: #aaaaaa" cx="60" cy="188" rx="40" ry="40"/>
    <ellipse style="fill: none; fill-opacity:0; stroke-width: 2; stroke: #333333" cx="60" cy="188" rx="40" ry="40"/>
  </g>
  <g>
    <ellipse style="fill: #aaaaaa" cx="-10" cy="310" rx="40" ry="50"/>
    <ellipse style="fill: none; fill-opacity:0; stroke-width: 2; stroke: #333333" cx="-10" cy="310" rx="40" ry="50"/>
  </g>
  <g>
    <ellipse style="fill: #aaaaaa" cx="150" cy="310" rx="40" ry="50"/>
    <ellipse style="fill: none; fill-opacity:0; stroke-width: 2; stroke: #333333" cx="150" cy="310" rx="40" ry="50"/>
  </g>
  <g>
    <rect style="fill: #ffffff" x="-60" y="320" width="280" height="60"/>
    <rect style="fill: none; fill-opacity:0; stroke-width: 2; stroke: #ffffff" x="-60" y="320" width="280" height="60"/>
  </g>
  <g>
    <rect style="fill: #aaaaaa" x="150" y="110" width="20" height="20"/>
    <rect style="fill: none; fill-opacity:0; stroke-width: 2; stroke: #333333" x="150" y="110" width="20" height="20"/>
  </g>
  <g>
    <ellipse style="fill: #ff0000" cx="60" cy="60" rx="6.5" ry="6.5"/>
    <ellipse style="fill: none; fill-opacity:0; stroke-width: 2; stroke: #a52a2a" cx="60" cy="60" rx="6.5" ry="6.5"/>
  </g>
  <g>
    <line style="fill: none; fill-opacity:0; stroke-width: 2; stroke: #000000" x1="67.4707" y1="60" x2="250.264" y2="60"/>
    <polygon style="fill: #000000" points="257.764,60 247.764,65 250.264,60 247.764,55 "/>
    <polygon style="fill: none; fill-opacity:0; stroke-width: 2; stroke: #000000" points="257.764,60 247.764,65 250.264,60 247.764,55 "/>
  </g>
  <g>
    <ellipse style="fill: #ff0000" cx="60" cy="120" rx="6.5" ry="6.5"/>
    <ellipse style="fill: none; fill-opacity:0; stroke-width: 2; stroke: #a52a2a" cx="60" cy="120" rx="6.5" ry="6.5"/>
  </g>
  <g>
    <line style="fill: none; fill-opacity:0; stroke-width: 2; stroke: #000000" x1="67.4707" y1="120" x2="250.264" y2="120"/>
    <polygon style="fill: #000000" points="257.764,120 247.764,125 250.264,120 247.764,115 "/>
    <polygon style="fill: none; fill-opacity:0; stroke-width: 2; stroke: #000000" points="257.764,120 247.764,125 250.264,120 247.764,115 "/>
  </g>
  <g>
    <ellipse style="fill: #ff0000" cx="70" cy="300" rx="6.5" ry="6.5"/>
    <ellipse style="fill: none; fill-opacity:0; stroke-width: 2; stroke: #a52a2a" cx="70" cy="300" rx="6.5" ry="6.5"/>
  </g>
  <g>
    <line style="fill: none; fill-opacity:0; stroke-width: 2; stroke: #000000" x1="77.3407" y1="298.455" x2="250.473" y2="262.006"/>
    <polygon style="fill: #000000" points="257.812,260.461 249.056,267.414 250.473,262.006 246.996,257.628 "/>
    <polygon style="fill: none; fill-opacity:0; stroke-width: 2; stroke: #000000" points="257.812,260.461 249.056,267.414 250.473,262.006 246.996,257.628 "/>
  </g>
  <g>
    <line style="fill: none; fill-opacity:0; stroke-width: 2; stroke: #000000" x1="20" y1="280" x2="250.298" y2="260.809"/>
    <polygon style="fill: #000000" points="257.772,260.186 248.221,265.999 250.298,260.809 247.391,256.033 "/>
    <polygon style="fill: none; fill-opacity:0; stroke-width: 2; stroke: #000000" points="257.772,260.186 248.221,265.999 250.298,260.809 247.391,256.033 "/>
  </g>
  <g>
    <line style="fill: none; fill-opacity:0; stroke-width: 2; stroke: #000000" x1="65.4038" y1="295.404" x2="29.2199" y2="283.128"/>
    <polygon style="fill: #000000" points="22.1175,280.718 33.1938,279.196 29.2199,283.128 29.981,288.666 "/>
    <polygon style="fill: none; fill-opacity:0; stroke-width: 2; stroke: #000000" points="22.1175,280.718 33.1938,279.196 29.2199,283.128 29.981,288.666 "/>
  </g>
  <g>
    <ellipse style="fill: #ff0000" cx="70" cy="430" rx="6.5" ry="6.5"/>
    <ellipse style="fill: none; fill-opacity:0; stroke-width: 2; stroke: #a52a2a" cx="70" cy="430" rx="6.5" ry="6.5"/>
  </g>
  <g>
    <line style="fill: none; fill-opacity:0; stroke-width: 2; stroke: #000000" x1="77.3407" y1="428.455" x2="250.473" y2="392.006"/>
    <polygon style="fill: #000000" points="257.812,390.461 249.056,397.414 250.473,392.006 246.996,387.628 "/>
    <polygon style="fill: none; fill-opacity:0; stroke-width: 2; stroke: #000000" points="257.812,390.461 249.056,397.414 250.473,392.006 246.996,387.628 "/>
  </g>
  <g>
    <line style="fill: none; fill-opacity:0; stroke-width: 2; stroke: #000000" x1="18.2843" y1="404.644" x2="250.282" y2="390.589"/>
    <polygon style="fill: #000000" points="257.768,390.135 248.089,395.731 250.282,390.589 247.484,385.749 "/>
    <polygon style="fill: none; fill-opacity:0; stroke-width: 2; stroke: #000000" points="257.768,390.135 248.089,395.731 250.282,390.589 247.484,385.749 "/>
  </g>
  <g>
    <line style="fill: none; fill-opacity:0; stroke-width: 2; stroke: #000000" x1="65.4038" y1="425.404" x2="27.1939" y2="408.569"/>
    <polygon style="fill: #000000" points="20.3305,405.546 31.4977,405.002 27.1939,408.569 27.4658,414.153 "/>
    <polygon style="fill: none; fill-opacity:0; stroke-width: 2; stroke: #000000" points="20.3305,405.546 31.4977,405.002 27.1939,408.569 27.4658,414.153 "/>
  </g>
  <text font-size="16.9333" style="fill: #000000;text-anchor:start;font-family:monospace;font-style:normal;font-weight:normal" x="270" y="65.875">
    <tspan x="270" y="65.875">powerlaw</tspan>
  </text>
  <text font-size="16.9333" style="fill: #000000;text-anchor:start;font-family:monospace;font-style:normal;font-weight:normal" x="270" y="125.875">
    <tspan x="270" y="125.875">wabs</tspan>
  </text>
  <text font-size="16.9333" style="fill: #000000;text-anchor:start;font-family:monospace;font-style:normal;font-weight:normal" x="270" y="265.875">
    <tspan x="270" y="265.875">torus</tspan>
  </text>
  <text font-size="16.9333" style="fill: #000000;text-anchor:start;font-family:monospace;font-style:normal;font-weight:normal" x="270" y="385.292">
    <tspan x="270" y="385.292">torus</tspan>
    <tspan x="270" y="406.458">+scattering</tspan>
  </text>
  <g>
    <ellipse style="fill: #ff0000" cx="60" cy="188" rx="6.5" ry="6.5"/>
    <ellipse style="fill: none; fill-opacity:0; stroke-width: 2; stroke: #a52a2a" cx="60" cy="188" rx="6.5" ry="6.5"/>
  </g>
  <g>
    <line style="fill: none; fill-opacity:0; stroke-width: 2; stroke: #000000" x1="67.4707" y1="188" x2="250.264" y2="188"/>
    <polygon style="fill: #000000" points="257.764,188 247.764,193 250.264,188 247.764,183 "/>
    <polygon style="fill: none; fill-opacity:0; stroke-width: 2; stroke: #000000" points="257.764,188 247.764,193 250.264,188 247.764,183 "/>
  </g>
  <text font-size="16.9333" style="fill: #000000;text-anchor:start;font-family:monospace;font-style:normal;font-weight:normal" x="270" y="195.875">
    <tspan x="270" y="195.875">sphere</tspan>
  </text>
  <g>
    <ellipse style="fill: #ff0000" cx="532" cy="60" rx="6.5" ry="6.5"/>
    <ellipse style="fill: none; fill-opacity:0; stroke-width: 2; stroke: #a52a2a" cx="532" cy="60" rx="6.5" ry="6.5"/>
  </g>
  <g>
    <line style="fill: none; fill-opacity:0; stroke-width: 2; stroke: #000000" x1="539.496" y1="60" x2="700.264" y2="60"/>
    <polygon style="fill: #000000" points="707.764,60 697.764,65 700.264,60 697.764,55 "/>
    <polygon style="fill: none; fill-opacity:0; stroke-width: 2; stroke: #000000" points="707.764,60 697.764,65 700.264,60 697.764,55 "/>
  </g>
  <text font-size="16.9333" style="fill: #000000;text-anchor:start;font-family:monospace;font-style:normal;font-weight:normal" x="720" y="55.2917">
    <tspan x="720" y="55.2917">wabs</tspan>
    <tspan x="720" y="76.4583">+pexmon</tspan>
  </text>
  <line style="fill: none; fill-opacity:0; stroke-width: 10; stroke: #000099" x1="508" y1="52" x2="528" y2="92"/>
  <g>
    <line style="fill: none; fill-opacity:0; stroke-width: 2; stroke: #000000" x1="526.306" y1="64.8809" x2="525.392" y2="65.6639"/>
    <polygon style="fill: #000000" points="519.698,70.5448 524.036,60.2406 525.392,65.6639 530.544,67.8332 "/>
    <polygon style="fill: none; fill-opacity:0; stroke-width: 2; stroke: #000000" points="519.698,70.5448 524.036,60.2406 525.392,65.6639 530.544,67.8332 "/>
  </g>
  <g>
    <line style="fill: none; fill-opacity:0; stroke-width: 2; stroke: #000000" x1="518" y1="72" x2="700.283" y2="60.6073"/>
    <polygon style="fill: #000000" points="707.768,60.1395 698.1,65.7535 700.283,60.6073 697.476,55.773 "/>
    <polygon style="fill: none; fill-opacity:0; stroke-width: 2; stroke: #000000" points="707.768,60.1395 698.1,65.7535 700.283,60.6073 697.476,55.773 "/>
  </g>
  <g>
    <ellipse style="fill: #e6e6fa" cx="520" cy="155" rx="20" ry="15"/>
    <ellipse style="fill: none; fill-opacity:0; stroke-width: 2; stroke: #aaaaaa" cx="520" cy="155" rx="20" ry="15"/>
  </g>
  <g>
    <ellipse style="fill: #ff0000" cx="510" cy="210" rx="6.5" ry="6.5"/>
    <ellipse style="fill: none; fill-opacity:0; stroke-width: 2; stroke: #a52a2a" cx="510" cy="210" rx="6.5" ry="6.5"/>
  </g>
  <g>
    <line style="fill: none; fill-opacity:0; stroke-width: 2; stroke: #000000" x1="517.19" y1="207.843" x2="700.675" y2="152.798"/>
    <polygon style="fill: #000000" points="707.858,150.643 699.717,158.305 700.675,152.798 696.843,148.727 "/>
    <polygon style="fill: none; fill-opacity:0; stroke-width: 2; stroke: #000000" points="707.858,150.643 699.717,158.305 700.675,152.798 696.843,148.727 "/>
  </g>
  <g>
    <line style="fill: none; fill-opacity:0; stroke-width: 2; stroke: #000000" x1="517.51" y1="210" x2="580.264" y2="210"/>
    <polygon style="fill: #000000" points="587.764,210 577.764,215 580.264,210 577.764,205 "/>
    <polygon style="fill: none; fill-opacity:0; stroke-width: 2; stroke: #000000" points="587.764,210 577.764,215 580.264,210 577.764,205 "/>
  </g>
  <g>
    <line style="fill: none; fill-opacity:0; stroke-width: 2; stroke: #000000" x1="590" y1="210" x2="701.292" y2="154.354"/>
    <polygon style="fill: #000000" points="708,151 701.292,159.944 701.292,154.354 696.82,151 "/>
    <polygon style="fill: none; fill-opacity:0; stroke-width: 2; stroke: #000000" points="708,151 701.292,159.944 701.292,154.354 696.82,151 "/>
  </g>
  <g>
    <rect style="fill: #ffffff" x="680" y="200" width="80" height="60"/>
    <rect style="fill: none; fill-opacity:0; stroke-width: 2; stroke: #ffffff" x="680" y="200" width="80" height="60"/>
  </g>
  <g>
    <line style="fill: none; fill-opacity:0; stroke-width: 2; stroke: #000000" x1="511.233" y1="202.603" x2="518.399" y2="159.604"/>
    <polygon style="fill: #000000" points="519.632,152.206 522.92,162.892 518.399,159.604 513.056,161.248 "/>
    <polygon style="fill: none; fill-opacity:0; stroke-width: 2; stroke: #000000" points="519.632,152.206 522.92,162.892 518.399,159.604 513.056,161.248 "/>
  </g>
  <g>
    <line style="fill: none; fill-opacity:0; stroke-width: 2; stroke: #000000" x1="520" y1="150" x2="700.264" y2="150"/>
    <polygon style="fill: #000000" points="707.764,150 697.764,155 700.264,150 697.764,145 "/>
    <polygon style="fill: none; fill-opacity:0; stroke-width: 2; stroke: #000000" points="707.764,150 697.764,155 700.264,150 697.764,145 "/>
  </g>
  <text font-size="16.9333" style="fill: #000000;text-anchor:start;font-family:monospace;font-style:normal;font-weight:normal" x="720" y="134.708">
    <tspan x="720" y="134.708">wabs</tspan>
    <tspan x="720" y="155.875">+pexmon</tspan>
    <tspan x="720" y="177.042">+scattering</tspan>
  </text>
  <text font-size="16.9333" style="fill: #000000;text-anchor:start;font-family:monospace;font-style:normal;font-weight:normal" x="700" y="365.292">
    <tspan x="700" y="365.292">sphere</tspan>
    <tspan x="700" y="386.458">+pexmon</tspan>
  </text>
  <g>
    <ellipse style="fill: #aaaaaa" cx="590" cy="320" rx="40" ry="40"/>
    <ellipse style="fill: none; fill-opacity:0; stroke-width: 2; stroke: #333333" cx="590" cy="320" rx="40" ry="40"/>
  </g>
  <g>
    <ellipse style="fill: #333333" cx="590" cy="325" rx="40" ry="25"/>
    <ellipse style="fill: none; fill-opacity:0; stroke-width: 2; stroke: #000000" cx="590" cy="325" rx="40" ry="25"/>
  </g>
  <g>
    <ellipse style="fill: #ff0000" cx="510" cy="310" rx="6.5" ry="6.5"/>
    <ellipse style="fill: none; fill-opacity:0; stroke-width: 2; stroke: #a52a2a" cx="510" cy="310" rx="6.5" ry="6.5"/>
  </g>
  <g>
    <line style="fill: none; fill-opacity:0; stroke-width: 2; stroke: #000000" x1="517.19" y1="307.843" x2="700.675" y2="252.798"/>
    <polygon style="fill: #000000" points="707.858,250.643 699.717,258.305 700.675,252.798 696.843,248.727 "/>
    <polygon style="fill: none; fill-opacity:0; stroke-width: 2; stroke: #000000" points="707.858,250.643 699.717,258.305 700.675,252.798 696.843,248.727 "/>
  </g>
  <g>
    <line style="fill: none; fill-opacity:0; stroke-width: 2; stroke: #000000" x1="517.441" y1="309.07" x2="580.339" y2="301.208"/>
    <polygon style="fill: #000000" points="587.781,300.277 578.479,306.479 580.339,301.208 577.238,296.556 "/>
    <polygon style="fill: none; fill-opacity:0; stroke-width: 2; stroke: #000000" points="587.781,300.277 578.479,306.479 580.339,301.208 577.238,296.556 "/>
  </g>
  <g>
    <line style="fill: none; fill-opacity:0; stroke-width: 2; stroke: #000000" x1="590" y1="300" x2="701.013" y2="253.745"/>
    <polygon style="fill: #000000" points="707.936,250.86 700.628,259.322 701.013,253.745 696.782,250.091 "/>
    <polygon style="fill: none; fill-opacity:0; stroke-width: 2; stroke: #000000" points="707.936,250.86 700.628,259.322 701.013,253.745 696.782,250.091 "/>
  </g>
  <g>
    <ellipse style="fill: #aaaaaa" cx="430" cy="320" rx="40" ry="40"/>
    <ellipse style="fill: none; fill-opacity:0; stroke-width: 2; stroke: #333333" cx="430" cy="320" rx="40" ry="40"/>
  </g>
  <g>
    <ellipse style="fill: #333333" cx="430" cy="325" rx="40" ry="25"/>
    <ellipse style="fill: none; fill-opacity:0; stroke-width: 2; stroke: #000000" cx="430" cy="325" rx="40" ry="25"/>
  </g>
  <g>
    <rect style="fill: #ffffff" x="380" y="320" width="270" height="60"/>
    <rect style="fill: none; fill-opacity:0; stroke-width: 2; stroke: #ffffff" x="380" y="320" width="270" height="60"/>
  </g>
  <g>
    <line style="fill: none; fill-opacity:0; stroke-width: 2; stroke: #000000" x1="520" y1="250" x2="700.264" y2="250"/>
    <polygon style="fill: #000000" points="707.764,250 697.764,255 700.264,250 697.764,245 "/>
    <polygon style="fill: none; fill-opacity:0; stroke-width: 2; stroke: #000000" points="707.764,250 697.764,255 700.264,250 697.764,245 "/>
  </g>
  <text font-size="16.9333" style="fill: #000000;text-anchor:start;font-family:monospace;font-style:normal;font-weight:normal" x="720" y="234.708">
    <tspan x="720" y="234.708">torus</tspan>
    <tspan x="720" y="255.875">+pexmon</tspan>
    <tspan x="720" y="277.042">+scattering</tspan>
  </text>
  <g>
    <ellipse style="fill: #aaaaaa" cx="520" cy="420" rx="80" ry="80"/>
    <ellipse style="fill: none; fill-opacity:0; stroke-width: 2; stroke: #333333" cx="520" cy="420" rx="80" ry="80"/>
  </g>
  <g>
    <ellipse style="fill: #333333" cx="450" cy="420" rx="10" ry="10"/>
    <ellipse style="fill: none; fill-opacity:0; stroke-width: 2; stroke: #000000" cx="450" cy="420" rx="10" ry="10"/>
  </g>
  <g>
    <ellipse style="fill: #333333" cx="590" cy="420" rx="10" ry="10"/>
    <ellipse style="fill: none; fill-opacity:0; stroke-width: 2; stroke: #000000" cx="590" cy="420" rx="10" ry="10"/>
  </g>
  <g>
    <ellipse style="fill: #ff0000" cx="520" cy="420" rx="6.5" ry="6.5"/>
    <ellipse style="fill: none; fill-opacity:0; stroke-width: 2; stroke: #a52a2a" cx="520" cy="420" rx="6.5" ry="6.5"/>
  </g>
  <g>
    <line style="fill: none; fill-opacity:0; stroke-width: 2; stroke: #000000" x1="527.066" y1="417.506" x2="680.819" y2="363.24"/>
    <polygon style="fill: #000000" points="687.891,360.744 680.126,368.787 680.819,363.24 676.797,359.357 "/>
    <polygon style="fill: none; fill-opacity:0; stroke-width: 2; stroke: #000000" points="687.891,360.744 680.126,368.787 680.819,363.24 676.797,359.357 "/>
  </g>
  <g>
    <line style="fill: none; fill-opacity:0; stroke-width: 2; stroke: #000000" x1="527.451" y1="419.163" x2="573.253" y2="414.015"/>
    <polygon style="fill: #000000" points="580.706,413.178 571.327,419.263 573.253,414.015 570.21,409.326 "/>
    <polygon style="fill: none; fill-opacity:0; stroke-width: 2; stroke: #000000" points="580.706,413.178 571.327,419.263 573.253,414.015 570.21,409.326 "/>
  </g>
  <g>
    <line style="fill: none; fill-opacity:0; stroke-width: 2; stroke: #000000" x1="582.928" y1="412.928" x2="681.272" y2="364.314"/>
    <polygon style="fill: #000000" points="687.995,360.991 681.247,369.905 681.272,364.314 676.815,360.94 "/>
    <polygon style="fill: none; fill-opacity:0; stroke-width: 2; stroke: #000000" points="687.995,360.991 681.247,369.905 681.272,364.314 676.815,360.94 "/>
  </g>
  <g>
    <rect style="fill: #ffffff" x="380" y="440" width="320" height="60"/>
    <rect style="fill: none; fill-opacity:0; stroke-width: 2; stroke: #ffffff" x="380" y="440" width="320" height="60"/>
  </g>
  <g>
    <line style="fill: none; fill-opacity:0; stroke-width: 2; stroke: #000000" x1="510" y1="303.5" x2="518.211" y2="259.57"/>
    <polygon style="fill: #000000" points="519.589,252.198 522.667,262.946 518.211,259.57 512.837,261.109 "/>
    <polygon style="fill: none; fill-opacity:0; stroke-width: 2; stroke: #000000" points="519.589,252.198 522.667,262.946 518.211,259.57 512.837,261.109 "/>
  </g>
  <g>
    <ellipse style="fill: #e6e6fa" cx="70" cy="365" rx="30" ry="25"/>
    <ellipse style="fill: none; fill-opacity:0; stroke-width: 2; stroke: #aaaaaa" cx="70" cy="365" rx="30" ry="25"/>
  </g>
  <g>
    <line style="fill: none; fill-opacity:0; stroke-width: 2; stroke: #000000" x1="70" y1="422.493" x2="70" y2="379.736"/>
    <polygon style="fill: #000000" points="70,372.236 75,382.236 70,379.736 65,382.236 "/>
    <polygon style="fill: none; fill-opacity:0; stroke-width: 2; stroke: #000000" points="70,372.236 75,382.236 70,379.736 65,382.236 "/>
  </g>
  <g>
    <line style="fill: none; fill-opacity:0; stroke-width: 2; stroke: #000000" x1="70" y1="370" x2="250.317" y2="388.981"/>
    <polygon style="fill: #000000" points="257.776,389.766 247.308,393.692 250.317,388.981 248.355,383.747 "/>
    <polygon style="fill: none; fill-opacity:0; stroke-width: 2; stroke: #000000" points="257.776,389.766 247.308,393.692 250.317,388.981 248.355,383.747 "/>
  </g>
  <text font-size="16.9333" style="fill: #000000;text-anchor:start;font-family:serif;font-style:normal;font-weight:normal" x="-80" y="65.875">
    <tspan x="-80" y="65.875">a)</tspan>
  </text>
  <text font-size="16.9333" style="fill: #000000;text-anchor:start;font-family:serif;font-style:normal;font-weight:normal" x="-80" y="125.875">
    <tspan x="-80" y="125.875">b)</tspan>
  </text>
  <text font-size="16.9333" style="fill: #000000;text-anchor:start;font-family:serif;font-style:normal;font-weight:normal" x="-80" y="185.875">
    <tspan x="-80" y="185.875">c)</tspan>
  </text>
  <text font-size="16.9333" style="fill: #000000;text-anchor:start;font-family:serif;font-style:normal;font-weight:normal" x="-80" y="265.875">
    <tspan x="-80" y="265.875">d)</tspan>
  </text>
  <text font-size="16.9333" style="fill: #000000;text-anchor:start;font-family:serif;font-style:normal;font-weight:normal" x="-80" y="385.875">
    <tspan x="-80" y="385.875">e)</tspan>
  </text>
  <text font-size="16.9333" style="fill: #000000;text-anchor:start;font-family:serif;font-style:normal;font-weight:normal" x="400" y="65.875">
    <tspan x="400" y="65.875">f)</tspan>
  </text>
  <text font-size="16.9333" style="fill: #000000;text-anchor:start;font-family:serif;font-style:normal;font-weight:normal" x="400" y="165.875">
    <tspan x="400" y="165.875">g)</tspan>
  </text>
  <text font-size="16.9333" style="fill: #000000;text-anchor:start;font-family:serif;font-style:normal;font-weight:normal" x="400" y="245.875">
    <tspan x="400" y="245.875">h)</tspan>
  </text>
  <text font-size="16.9333" style="fill: #000000;text-anchor:start;font-family:serif;font-style:normal;font-weight:normal" x="400" y="365.875">
    <tspan x="400" y="365.875">i)</tspan>
  </text>
</svg>
