<?xml version="1.0" encoding="UTF-8" standalone="no"?>
<!DOCTYPE svg PUBLIC "-//W3C//DTD SVG 1.0//EN" "http://www.w3.org/TR/2001/PR-SVG-20010719/DTD/svg10.dtd">
<svg width="31cm" height="21cm" viewBox="4 1 603 403" xmlns="http://www.w3.org/2000/svg" xmlns:xlink="http://www.w3.org/1999/xlink">
  <g>
    <ellipse style="fill: #f7f7f7" cx="446" cy="327.548" rx="40" ry="70"/>
    <ellipse style="fill: none; fill-opacity:0; stroke-width: 2; stroke: #333333" cx="446" cy="327.548" rx="40" ry="70"/>
  </g>
  <g>
    <ellipse style="fill: #e6e6fa" cx="506" cy="228" rx="20" ry="15"/>
    <ellipse style="fill: none; fill-opacity:0; stroke-width: 2; stroke: #aaaaaa" cx="506" cy="228" rx="20" ry="15"/>
  </g>
  <g>
    <ellipse style="fill: #f7f7f7" cx="45.9999" cy="113" rx="40" ry="50"/>
    <ellipse style="fill: none; fill-opacity:0; stroke-width: 2; stroke: #333333" cx="45.9999" cy="113" rx="40" ry="50"/>
  </g>
  <g>
    <ellipse style="fill: #f7f7f7" cx="206" cy="113" rx="40" ry="50"/>
    <ellipse style="fill: none; fill-opacity:0; stroke-width: 2; stroke: #333333" cx="206" cy="113" rx="40" ry="50"/>
  </g>
  <g>
    <ellipse style="fill: #ff0000" cx="126" cy="113" rx="6.5" ry="6.5"/>
    <ellipse style="fill: none; fill-opacity:0; stroke-width: 2; stroke: #a52a2a" cx="126" cy="113" rx="6.5" ry="6.5"/>
  </g>
  <g>
    <ellipse style="fill: #ff0000" cx="506" cy="323" rx="6.5" ry="6.5"/>
    <ellipse style="fill: none; fill-opacity:0; stroke-width: 2; stroke: #a52a2a" cx="506" cy="323" rx="6.5" ry="6.5"/>
  </g>
  <g>
    <ellipse style="fill: #aaaaaa" cx="446" cy="327.548" rx="40" ry="50"/>
    <ellipse style="fill: none; fill-opacity:0; stroke-width: 2; stroke: #333333" cx="446" cy="327.548" rx="40" ry="50"/>
  </g>
  <g>
    <ellipse style="fill: #333333" cx="446" cy="328" rx="40" ry="25"/>
    <ellipse style="fill: none; fill-opacity:0; stroke-width: 2; stroke: #000000" cx="446" cy="328" rx="40" ry="25"/>
  </g>
  <g>
    <ellipse style="fill: #aaaaaa" cx="45.9999" cy="233" rx="40" ry="50"/>
    <ellipse style="fill: none; fill-opacity:0; stroke-width: 2; stroke: #333333" cx="45.9999" cy="233" rx="40" ry="50"/>
  </g>
  <g>
    <ellipse style="fill: #aaaaaa" cx="206" cy="233" rx="40" ry="50"/>
    <ellipse style="fill: none; fill-opacity:0; stroke-width: 2; stroke: #333333" cx="206" cy="233" rx="40" ry="50"/>
  </g>
  <g>
    <ellipse style="fill: #ff0000" cx="126" cy="233" rx="6.5" ry="6.5"/>
    <ellipse style="fill: none; fill-opacity:0; stroke-width: 2; stroke: #a52a2a" cx="126" cy="233" rx="6.5" ry="6.5"/>
  </g>
  <g>
    <ellipse style="fill: #333333" cx="45.9999" cy="353" rx="40" ry="50"/>
    <ellipse style="fill: none; fill-opacity:0; stroke-width: 2; stroke: #333333" cx="45.9999" cy="353" rx="40" ry="50"/>
  </g>
  <g>
    <ellipse style="fill: #333333" cx="206" cy="353" rx="40" ry="50"/>
    <ellipse style="fill: none; fill-opacity:0; stroke-width: 2; stroke: #333333" cx="206" cy="353" rx="40" ry="50"/>
  </g>
  <g>
    <ellipse style="fill: #ff0000" cx="126" cy="353" rx="6.5" ry="6.5"/>
    <ellipse style="fill: none; fill-opacity:0; stroke-width: 2; stroke: #a52a2a" cx="126" cy="353" rx="6.5" ry="6.5"/>
  </g>
  <line style="fill: none; fill-opacity:0; stroke-width: 10; stroke: #000099" x1="106" y1="123" x2="146" y2="123"/>
  <line style="fill: none; fill-opacity:0; stroke-width: 10; stroke: #000099" x1="106" y1="243" x2="146" y2="243"/>
  <line style="fill: none; fill-opacity:0; stroke-width: 10; stroke: #000099" x1="106" y1="363" x2="146" y2="363"/>
  <g>
    <ellipse style="fill: #e6e6fa" cx="126" cy="18" rx="20" ry="15"/>
    <ellipse style="fill: none; fill-opacity:0; stroke-width: 2; stroke: #aaaaaa" cx="126" cy="18" rx="20" ry="15"/>
  </g>
  <g>
    <ellipse style="fill: #f7f7f7" cx="566" cy="327.548" rx="40" ry="70"/>
    <ellipse style="fill: none; fill-opacity:0; stroke-width: 2; stroke: #333333" cx="566" cy="327.548" rx="40" ry="70"/>
  </g>
  <g>
    <ellipse style="fill: #aaaaaa" cx="566" cy="327.548" rx="40" ry="50"/>
    <ellipse style="fill: none; fill-opacity:0; stroke-width: 2; stroke: #333333" cx="566" cy="327.548" rx="40" ry="50"/>
  </g>
  <g>
    <ellipse style="fill: #333333" cx="566" cy="328" rx="40" ry="25"/>
    <ellipse style="fill: none; fill-opacity:0; stroke-width: 2; stroke: #000000" cx="566" cy="328" rx="40" ry="25"/>
  </g>
  <text font-size="16.9333" style="fill: #000000;text-anchor:start;font-family:monospace;font-style:normal;font-weight:normal" x="286" y="318.292">
    <tspan x="286" y="318.292">Compton-</tspan>
    <tspan x="286" y="339.458">thick</tspan>
  </text>
  <g>
    <line style="fill: none; fill-opacity:0; stroke-width: 2; stroke: #000000" x1="133.331" y1="351.429" x2="256.48" y2="325.04"/>
    <polygon style="fill: #000000" points="263.814,323.469 255.083,330.453 256.48,325.04 252.988,320.675 "/>
    <polygon style="fill: none; fill-opacity:0; stroke-width: 2; stroke: #000000" points="263.814,323.469 255.083,330.453 256.48,325.04 252.988,320.675 "/>
  </g>
  <g>
    <line style="fill: none; fill-opacity:0; stroke-width: 2; stroke: #000000" x1="133.451" y1="233" x2="256.264" y2="233"/>
    <polygon style="fill: #000000" points="263.764,233 253.764,238 256.264,233 253.764,228 "/>
    <polygon style="fill: none; fill-opacity:0; stroke-width: 2; stroke: #000000" points="263.764,233 253.764,238 256.264,233 253.764,228 "/>
  </g>
  <g>
    <line style="fill: none; fill-opacity:0; stroke-width: 2; stroke: #000000" x1="498.549" y1="323" x2="375.736" y2="323"/>
    <polygon style="fill: #000000" points="368.236,323 378.236,318 375.736,323 378.236,328 "/>
    <polygon style="fill: none; fill-opacity:0; stroke-width: 2; stroke: #000000" points="368.236,323 378.236,318 375.736,323 378.236,328 "/>
  </g>
  <g>
    <line style="fill: none; fill-opacity:0; stroke-width: 2; stroke: #000000" x1="499.13" y1="320.056" x2="374.949" y2="266.835"/>
    <polygon style="fill: #000000" points="368.055,263.881 379.216,263.224 374.949,266.835 375.277,272.416 "/>
    <polygon style="fill: none; fill-opacity:0; stroke-width: 2; stroke: #000000" points="368.055,263.881 379.216,263.224 374.949,266.835 375.277,272.416 "/>
  </g>
  <text font-size="16.9333" style="fill: #000000;text-anchor:start;font-family:monospace;font-style:normal;font-weight:normal" x="286" y="238.292">
    <tspan x="286" y="238.292">Compton-</tspan>
    <tspan x="286" y="259.458">thin</tspan>
  </text>
  <text font-size="16.9333" style="fill: #000000;text-anchor:start;font-family:monospace;font-style:normal;font-weight:normal" x="276" y="118.875">
    <tspan x="276" y="118.875">unobscured</tspan>
  </text>
  <g>
    <line style="fill: none; fill-opacity:0; stroke-width: 2; stroke: #000000" x1="133.451" y1="113" x2="256.264" y2="113"/>
    <polygon style="fill: #000000" points="263.764,113 253.764,118 256.264,113 253.764,108 "/>
    <polygon style="fill: none; fill-opacity:0; stroke-width: 2; stroke: #000000" points="263.764,113 253.764,118 256.264,113 253.764,108 "/>
  </g>
  <g>
    <line style="fill: none; fill-opacity:0; stroke-width: 2; stroke: #000000" x1="502.191" y1="316.652" x2="391.009" y2="131.349"/>
    <polygon style="fill: #000000" points="387.15,124.917 396.583,130.92 391.009,131.349 388.008,136.065 "/>
    <polygon style="fill: none; fill-opacity:0; stroke-width: 2; stroke: #000000" points="387.15,124.917 396.583,130.92 391.009,131.349 388.008,136.065 "/>
  </g>
  <text font-size="16.9333" style="fill: #000000;text-anchor:start;font-family:monospace;font-style:normal;font-weight:normal" x="25.9998" y="28.875">
    <tspan x="25.9998" y="28.875">(a)</tspan>
  </text>
  <text font-size="16.9333" style="fill: #000000;text-anchor:start;font-family:monospace;font-style:normal;font-weight:normal" x="406" y="228.875">
    <tspan x="406" y="228.875">(b)</tspan>
  </text>
</svg>
