<?xml version="1.0" encoding="utf-8" standalone="no"?>
<!DOCTYPE svg PUBLIC "-//W3C//DTD SVG 1.1//EN"
  "http://www.w3.org/Graphics/SVG/1.1/DTD/svg11.dtd">
<!-- Created with matplotlib (http://matplotlib.sourceforge.net/) -->
<svg height="342pt" version="1.1" viewBox="0 0 467 342" width="467pt" xmlns="http://www.w3.org/2000/svg" xmlns:xlink="http://www.w3.org/1999/xlink">
 <defs>
  <style type="text/css">
*{stroke-linecap:square;stroke-linejoin:round;}
  </style>
 </defs>
 <g id="figure_1">
  <g id="patch_1">
   <path d="
M0 342.853
L468 342.853
L468 0
L0 0
z
" style="fill:#ffffff;"/>
  </g>
  <g id="axes_1">
   <g id="patch_2">
    <path d="
M70.2 299.653
L460.8 299.653
L460.8 11.6531
L70.2 11.6531
z
" style="fill:#ffffff;"/>
   </g>
   <g id="LineCollection_1">
    <defs>
     <path d="
M78.88 -46.8831
L78.88 -109.815" id="C0_0_0c181d0435"/>
     <path d="
M113.6 -96.5822
L113.6 -159.514" id="C0_1_8e616c2400"/>
     <path d="
M174.36 -140.053
L174.36 -202.984" id="C0_2_1c49676049"/>
     <path d="
M243.8 -164.442
L243.8 -227.373" id="C0_3_fcfb991f2f"/>
     <path d="
M330.6 -188.265
L330.6 -251.196" id="C0_4_35c26e515d"/>
     <path d="
M417.4 -202.436
L417.4 -265.368" id="C0_5_1fe84b7a67"/>
    </defs>
    <g clip-path="url(#p0c45f87048)">
     <use style="fill:none;stroke:#0000ff;stroke-linecap:butt;" x="0" xlink:href="#C0_0_0c181d0435" y="342.853125"/>
    </g>
    <g clip-path="url(#p0c45f87048)">
     <use style="fill:none;stroke:#0000ff;stroke-linecap:butt;" x="0" xlink:href="#C0_1_8e616c2400" y="342.853125"/>
    </g>
    <g clip-path="url(#p0c45f87048)">
     <use style="fill:none;stroke:#0000ff;stroke-linecap:butt;" x="0" xlink:href="#C0_2_1c49676049" y="342.853125"/>
    </g>
    <g clip-path="url(#p0c45f87048)">
     <use style="fill:none;stroke:#0000ff;stroke-linecap:butt;" x="0" xlink:href="#C0_3_fcfb991f2f" y="342.853125"/>
    </g>
    <g clip-path="url(#p0c45f87048)">
     <use style="fill:none;stroke:#0000ff;stroke-linecap:butt;" x="0" xlink:href="#C0_4_35c26e515d" y="342.853125"/>
    </g>
    <g clip-path="url(#p0c45f87048)">
     <use style="fill:none;stroke:#0000ff;stroke-linecap:butt;" x="0" xlink:href="#C0_5_1fe84b7a67" y="342.853125"/>
    </g>
   </g>
   <g id="LineCollection_2">
    <defs>
     <path d="
M87.9217 -51.6872
L87.9217 -114.619" id="C1_0_be1b0f3323"/>
     <path d="
M122.642 -99.1126
L122.642 -162.044" id="C1_1_c1d0658605"/>
     <path d="
M183.402 -141.054
L183.402 -203.986" id="C1_2_ee1984ca0b"/>
     <path d="
M252.842 -165.018
L252.842 -227.949" id="C1_3_95d70b15e8"/>
     <path d="
M339.642 -188.645
L339.642 -251.577" id="C1_4_1b595949a4"/>
     <path d="
M426.442 -202.668
L426.442 -265.6" id="C1_5_389ad6d723"/>
    </defs>
    <g clip-path="url(#p0c45f87048)">
     <use style="fill:none;stroke:#008000;stroke-linecap:butt;" x="0" xlink:href="#C1_0_be1b0f3323" y="342.853125"/>
    </g>
    <g clip-path="url(#p0c45f87048)">
     <use style="fill:none;stroke:#008000;stroke-linecap:butt;" x="0" xlink:href="#C1_1_c1d0658605" y="342.853125"/>
    </g>
    <g clip-path="url(#p0c45f87048)">
     <use style="fill:none;stroke:#008000;stroke-linecap:butt;" x="0" xlink:href="#C1_2_ee1984ca0b" y="342.853125"/>
    </g>
    <g clip-path="url(#p0c45f87048)">
     <use style="fill:none;stroke:#008000;stroke-linecap:butt;" x="0" xlink:href="#C1_3_95d70b15e8" y="342.853125"/>
    </g>
    <g clip-path="url(#p0c45f87048)">
     <use style="fill:none;stroke:#008000;stroke-linecap:butt;" x="0" xlink:href="#C1_4_1b595949a4" y="342.853125"/>
    </g>
    <g clip-path="url(#p0c45f87048)">
     <use style="fill:none;stroke:#008000;stroke-linecap:butt;" x="0" xlink:href="#C1_5_389ad6d723" y="342.853125"/>
    </g>
   </g>
   <g id="LineCollection_3">
    <defs>
     <path d="
M89.73 -61.7259
L89.73 -124.657" id="C2_0_c6a8a978b1"/>
     <path d="
M124.45 -105.647
L124.45 -168.578" id="C2_1_cfd4224f9f"/>
     <path d="
M185.21 -144.087
L185.21 -207.019" id="C2_2_bb0d136137"/>
     <path d="
M254.65 -166.828
L254.65 -229.759" id="C2_3_8dc29e9aed"/>
     <path d="
M341.45 -189.83
L341.45 -252.762" id="C2_4_831e05e077"/>
     <path d="
M428.25 -203.402
L428.25 -266.334" id="C2_5_317579ad01"/>
    </defs>
    <g clip-path="url(#p0c45f87048)">
     <use style="fill:none;stroke:#ff0000;stroke-linecap:butt;" x="0" xlink:href="#C2_0_c6a8a978b1" y="342.853125"/>
    </g>
    <g clip-path="url(#p0c45f87048)">
     <use style="fill:none;stroke:#ff0000;stroke-linecap:butt;" x="0" xlink:href="#C2_1_cfd4224f9f" y="342.853125"/>
    </g>
    <g clip-path="url(#p0c45f87048)">
     <use style="fill:none;stroke:#ff0000;stroke-linecap:butt;" x="0" xlink:href="#C2_2_bb0d136137" y="342.853125"/>
    </g>
    <g clip-path="url(#p0c45f87048)">
     <use style="fill:none;stroke:#ff0000;stroke-linecap:butt;" x="0" xlink:href="#C2_3_8dc29e9aed" y="342.853125"/>
    </g>
    <g clip-path="url(#p0c45f87048)">
     <use style="fill:none;stroke:#ff0000;stroke-linecap:butt;" x="0" xlink:href="#C2_4_831e05e077" y="342.853125"/>
    </g>
    <g clip-path="url(#p0c45f87048)">
     <use style="fill:none;stroke:#ff0000;stroke-linecap:butt;" x="0" xlink:href="#C2_5_317579ad01" y="342.853125"/>
    </g>
   </g>
   <g id="LineCollection_4">
    <defs>
     <path d="
M91.5383 -75.2229
L91.5383 -138.154" id="C3_0_387bef832f"/>
     <path d="
M126.258 -116.628
L126.258 -179.559" id="C3_1_8a25687b3b"/>
     <path d="
M187.018 -150.871
L187.018 -213.803" id="C3_2_ddbe4b4841"/>
     <path d="
M256.458 -171.237
L256.458 -234.168" id="C3_3_6c7eab1c63"/>
     <path d="
M343.258 -192.693
L343.258 -255.624" id="C3_4_919c1b7f24"/>
     <path d="
M430.058 -205.244
L430.058 -268.176" id="C3_5_e8da1d7984"/>
    </defs>
    <g clip-path="url(#p0c45f87048)">
     <use style="fill:none;stroke:#00bfbf;stroke-linecap:butt;" x="0" xlink:href="#C3_0_387bef832f" y="342.853125"/>
    </g>
    <g clip-path="url(#p0c45f87048)">
     <use style="fill:none;stroke:#00bfbf;stroke-linecap:butt;" x="0" xlink:href="#C3_1_8a25687b3b" y="342.853125"/>
    </g>
    <g clip-path="url(#p0c45f87048)">
     <use style="fill:none;stroke:#00bfbf;stroke-linecap:butt;" x="0" xlink:href="#C3_2_ddbe4b4841" y="342.853125"/>
    </g>
    <g clip-path="url(#p0c45f87048)">
     <use style="fill:none;stroke:#00bfbf;stroke-linecap:butt;" x="0" xlink:href="#C3_3_6c7eab1c63" y="342.853125"/>
    </g>
    <g clip-path="url(#p0c45f87048)">
     <use style="fill:none;stroke:#00bfbf;stroke-linecap:butt;" x="0" xlink:href="#C3_4_919c1b7f24" y="342.853125"/>
    </g>
    <g clip-path="url(#p0c45f87048)">
     <use style="fill:none;stroke:#00bfbf;stroke-linecap:butt;" x="0" xlink:href="#C3_5_e8da1d7984" y="342.853125"/>
    </g>
   </g>
   <g id="LineCollection_5">
    <defs>
     <path d="
M93.3467 -98.6476
L93.3467 -161.579" id="C4_0_ae8ad2b4e6"/>
     <path d="
M128.067 -135.674
L128.067 -198.605" id="C4_1_b8df9b2a35"/>
     <path d="
M188.827 -164.841
L188.827 -227.772" id="C4_2_25f5b721a6"/>
     <path d="
M258.267 -181.576
L258.267 -244.508" id="C4_3_4ce086b7c4"/>
     <path d="
M345.067 -199.606
L345.067 -262.537" id="C4_4_ac123b2622"/>
     <path d="
M431.867 -210.192
L431.867 -273.124" id="C4_5_665eefe7e5"/>
    </defs>
    <g clip-path="url(#p0c45f87048)">
     <use style="fill:none;stroke:#bf00bf;stroke-linecap:butt;" x="0" xlink:href="#C4_0_ae8ad2b4e6" y="342.853125"/>
    </g>
    <g clip-path="url(#p0c45f87048)">
     <use style="fill:none;stroke:#bf00bf;stroke-linecap:butt;" x="0" xlink:href="#C4_1_b8df9b2a35" y="342.853125"/>
    </g>
    <g clip-path="url(#p0c45f87048)">
     <use style="fill:none;stroke:#bf00bf;stroke-linecap:butt;" x="0" xlink:href="#C4_2_25f5b721a6" y="342.853125"/>
    </g>
    <g clip-path="url(#p0c45f87048)">
     <use style="fill:none;stroke:#bf00bf;stroke-linecap:butt;" x="0" xlink:href="#C4_3_4ce086b7c4" y="342.853125"/>
    </g>
    <g clip-path="url(#p0c45f87048)">
     <use style="fill:none;stroke:#bf00bf;stroke-linecap:butt;" x="0" xlink:href="#C4_4_ac123b2622" y="342.853125"/>
    </g>
    <g clip-path="url(#p0c45f87048)">
     <use style="fill:none;stroke:#bf00bf;stroke-linecap:butt;" x="0" xlink:href="#C4_5_665eefe7e5" y="342.853125"/>
    </g>
   </g>
   <g id="LineCollection_6">
    <defs>
     <path d="
M100.58 -131.316
L100.58 -194.247" id="C5_0_12c7f9ade2"/>
     <path d="
M135.3 -171.646
L135.3 -234.578" id="C5_1_6b0aa5810a"/>
     <path d="
M196.06 -199.147
L196.06 -262.079" id="C5_2_2f31c146e2"/>
     <path d="
M265.5 -213.534
L265.5 -276.465" id="C5_3_9f5ea06780"/>
     <path d="
M352.3 -230.143
L352.3 -293.074" id="C5_4_cd7d249a54"/>
     <path d="
M439.1 -239.736
L439.1 -302.668" id="C5_5_bb1880495c"/>
    </defs>
    <g clip-path="url(#p0c45f87048)">
     <use style="fill:none;stroke:#bfbf00;stroke-linecap:butt;" x="0" xlink:href="#C5_0_12c7f9ade2" y="342.853125"/>
    </g>
    <g clip-path="url(#p0c45f87048)">
     <use style="fill:none;stroke:#bfbf00;stroke-linecap:butt;" x="0" xlink:href="#C5_1_6b0aa5810a" y="342.853125"/>
    </g>
    <g clip-path="url(#p0c45f87048)">
     <use style="fill:none;stroke:#bfbf00;stroke-linecap:butt;" x="0" xlink:href="#C5_2_2f31c146e2" y="342.853125"/>
    </g>
    <g clip-path="url(#p0c45f87048)">
     <use style="fill:none;stroke:#bfbf00;stroke-linecap:butt;" x="0" xlink:href="#C5_3_9f5ea06780" y="342.853125"/>
    </g>
    <g clip-path="url(#p0c45f87048)">
     <use style="fill:none;stroke:#bfbf00;stroke-linecap:butt;" x="0" xlink:href="#C5_4_cd7d249a54" y="342.853125"/>
    </g>
    <g clip-path="url(#p0c45f87048)">
     <use style="fill:none;stroke:#bfbf00;stroke-linecap:butt;" x="0" xlink:href="#C5_5_bb1880495c" y="342.853125"/>
    </g>
   </g>
   <g id="line2d_1">
    <defs>
     <path d="
M3 1.83697e-16
L-3 -1.83697e-16" id="mef9c1b3008" style="stroke:#0000ff;stroke-linecap:butt;stroke-width:0.5;"/>
    </defs>
    <g clip-path="url(#p0c45f87048)">
     <use style="fill:#0000ff;stroke:#0000ff;stroke-linecap:butt;stroke-width:0.5;" x="78.88" xlink:href="#mef9c1b3008" y="295.970003364"/>
     <use style="fill:#0000ff;stroke:#0000ff;stroke-linecap:butt;stroke-width:0.5;" x="113.6" xlink:href="#mef9c1b3008" y="246.27088078"/>
     <use style="fill:#0000ff;stroke:#0000ff;stroke-linecap:butt;stroke-width:0.5;" x="174.36" xlink:href="#mef9c1b3008" y="202.80055954"/>
     <use style="fill:#0000ff;stroke:#0000ff;stroke-linecap:butt;stroke-width:0.5;" x="243.8" xlink:href="#mef9c1b3008" y="178.411430502"/>
     <use style="fill:#0000ff;stroke:#0000ff;stroke-linecap:butt;stroke-width:0.5;" x="330.6" xlink:href="#mef9c1b3008" y="154.588215112"/>
     <use style="fill:#0000ff;stroke:#0000ff;stroke-linecap:butt;stroke-width:0.5;" x="417.4" xlink:href="#mef9c1b3008" y="140.416896085"/>
    </g>
   </g>
   <g id="line2d_2">
    <g clip-path="url(#p0c45f87048)">
     <use style="fill:#0000ff;stroke:#0000ff;stroke-linecap:butt;stroke-width:0.5;" x="78.88" xlink:href="#mef9c1b3008" y="233.038474434"/>
     <use style="fill:#0000ff;stroke:#0000ff;stroke-linecap:butt;stroke-width:0.5;" x="113.6" xlink:href="#mef9c1b3008" y="183.33935185"/>
     <use style="fill:#0000ff;stroke:#0000ff;stroke-linecap:butt;stroke-width:0.5;" x="174.36" xlink:href="#mef9c1b3008" y="139.86903061"/>
     <use style="fill:#0000ff;stroke:#0000ff;stroke-linecap:butt;stroke-width:0.5;" x="243.8" xlink:href="#mef9c1b3008" y="115.479901572"/>
     <use style="fill:#0000ff;stroke:#0000ff;stroke-linecap:butt;stroke-width:0.5;" x="330.6" xlink:href="#mef9c1b3008" y="91.6566861816"/>
     <use style="fill:#0000ff;stroke:#0000ff;stroke-linecap:butt;stroke-width:0.5;" x="417.4" xlink:href="#mef9c1b3008" y="77.4853671548"/>
    </g>
   </g>
   <g id="line2d_3">
    <path clip-path="url(#p0c45f87048)" d="
M78.88 295.97
L113.6 246.271
L174.36 202.801
L243.8 178.411
L330.6 154.588
L417.4 140.417" style="fill:none;stroke:#0000ff;"/>
   </g>
   <g id="line2d_4">
    <defs>
     <path d="
M3 1.83697e-16
L-3 -1.83697e-16" id="m63ac373c74" style="stroke:#008000;stroke-linecap:butt;stroke-width:0.5;"/>
    </defs>
    <g clip-path="url(#p0c45f87048)">
     <use style="fill:#008000;stroke:#008000;stroke-linecap:butt;stroke-width:0.5;" x="87.9216666667" xlink:href="#m63ac373c74" y="291.165952892"/>
     <use style="fill:#008000;stroke:#008000;stroke-linecap:butt;stroke-width:0.5;" x="122.641666667" xlink:href="#m63ac373c74" y="243.740512536"/>
     <use style="fill:#008000;stroke:#008000;stroke-linecap:butt;stroke-width:0.5;" x="183.401666667" xlink:href="#m63ac373c74" y="201.79884591"/>
     <use style="fill:#008000;stroke:#008000;stroke-linecap:butt;stroke-width:0.5;" x="252.841666667" xlink:href="#m63ac373c74" y="177.835259576"/>
     <use style="fill:#008000;stroke:#008000;stroke-linecap:butt;stroke-width:0.5;" x="339.641666667" xlink:href="#m63ac373c74" y="154.208074905"/>
     <use style="fill:#008000;stroke:#008000;stroke-linecap:butt;stroke-width:0.5;" x="426.441666667" xlink:href="#m63ac373c74" y="140.185113505"/>
    </g>
   </g>
   <g id="line2d_5">
    <g clip-path="url(#p0c45f87048)">
     <use style="fill:#008000;stroke:#008000;stroke-linecap:butt;stroke-width:0.5;" x="87.9216666667" xlink:href="#m63ac373c74" y="228.234423962"/>
     <use style="fill:#008000;stroke:#008000;stroke-linecap:butt;stroke-width:0.5;" x="122.641666667" xlink:href="#m63ac373c74" y="180.808983606"/>
     <use style="fill:#008000;stroke:#008000;stroke-linecap:butt;stroke-width:0.5;" x="183.401666667" xlink:href="#m63ac373c74" y="138.86731698"/>
     <use style="fill:#008000;stroke:#008000;stroke-linecap:butt;stroke-width:0.5;" x="252.841666667" xlink:href="#m63ac373c74" y="114.903730646"/>
     <use style="fill:#008000;stroke:#008000;stroke-linecap:butt;stroke-width:0.5;" x="339.641666667" xlink:href="#m63ac373c74" y="91.276545975"/>
     <use style="fill:#008000;stroke:#008000;stroke-linecap:butt;stroke-width:0.5;" x="426.441666667" xlink:href="#m63ac373c74" y="77.2535845749"/>
    </g>
   </g>
   <g id="line2d_6">
    <path clip-path="url(#p0c45f87048)" d="
M87.9217 291.166
L122.642 243.741
L183.402 201.799
L252.842 177.835
L339.642 154.208
L426.442 140.185" style="fill:none;stroke:#008000;"/>
   </g>
   <g id="line2d_7">
    <defs>
     <path d="
M3 1.83697e-16
L-3 -1.83697e-16" id="me778ecbd6c" style="stroke:#ff0000;stroke-linecap:butt;stroke-width:0.5;"/>
    </defs>
    <g clip-path="url(#p0c45f87048)">
     <use style="fill:#ff0000;stroke:#ff0000;stroke-linecap:butt;stroke-width:0.5;" x="89.73" xlink:href="#me778ecbd6c" y="281.127206981"/>
     <use style="fill:#ff0000;stroke:#ff0000;stroke-linecap:butt;stroke-width:0.5;" x="124.45" xlink:href="#me778ecbd6c" y="237.206594078"/>
     <use style="fill:#ff0000;stroke:#ff0000;stroke-linecap:butt;stroke-width:0.5;" x="185.21" xlink:href="#me778ecbd6c" y="198.765927235"/>
     <use style="fill:#ff0000;stroke:#ff0000;stroke-linecap:butt;stroke-width:0.5;" x="254.65" xlink:href="#me778ecbd6c" y="176.025460821"/>
     <use style="fill:#ff0000;stroke:#ff0000;stroke-linecap:butt;stroke-width:0.5;" x="341.45" xlink:href="#me778ecbd6c" y="153.023044576"/>
     <use style="fill:#ff0000;stroke:#ff0000;stroke-linecap:butt;stroke-width:0.5;" x="428.25" xlink:href="#me778ecbd6c" y="139.450877191"/>
    </g>
   </g>
   <g id="line2d_8">
    <g clip-path="url(#p0c45f87048)">
     <use style="fill:#ff0000;stroke:#ff0000;stroke-linecap:butt;stroke-width:0.5;" x="89.73" xlink:href="#me778ecbd6c" y="218.195678051"/>
     <use style="fill:#ff0000;stroke:#ff0000;stroke-linecap:butt;stroke-width:0.5;" x="124.45" xlink:href="#me778ecbd6c" y="174.275065148"/>
     <use style="fill:#ff0000;stroke:#ff0000;stroke-linecap:butt;stroke-width:0.5;" x="185.21" xlink:href="#me778ecbd6c" y="135.834398305"/>
     <use style="fill:#ff0000;stroke:#ff0000;stroke-linecap:butt;stroke-width:0.5;" x="254.65" xlink:href="#me778ecbd6c" y="113.093931891"/>
     <use style="fill:#ff0000;stroke:#ff0000;stroke-linecap:butt;stroke-width:0.5;" x="341.45" xlink:href="#me778ecbd6c" y="90.0915156458"/>
     <use style="fill:#ff0000;stroke:#ff0000;stroke-linecap:butt;stroke-width:0.5;" x="428.25" xlink:href="#me778ecbd6c" y="76.5193482612"/>
    </g>
   </g>
   <g id="line2d_9">
    <path clip-path="url(#p0c45f87048)" d="
M89.73 281.127
L124.45 237.207
L185.21 198.766
L254.65 176.025
L341.45 153.023
L428.25 139.451" style="fill:none;stroke:#ff0000;"/>
   </g>
   <g id="line2d_10">
    <defs>
     <path d="
M3 1.83697e-16
L-3 -1.83697e-16" id="m8f31f7398b" style="stroke:#00bfbf;stroke-linecap:butt;stroke-width:0.5;"/>
    </defs>
    <g clip-path="url(#p0c45f87048)">
     <use style="fill:#00bfbf;stroke:#00bfbf;stroke-linecap:butt;stroke-width:0.5;" x="91.5383333333" xlink:href="#m8f31f7398b" y="267.630232339"/>
     <use style="fill:#00bfbf;stroke:#00bfbf;stroke-linecap:butt;stroke-width:0.5;" x="126.258333333" xlink:href="#m8f31f7398b" y="226.225583418"/>
     <use style="fill:#00bfbf;stroke:#00bfbf;stroke-linecap:butt;stroke-width:0.5;" x="187.018333333" xlink:href="#m8f31f7398b" y="191.982119242"/>
     <use style="fill:#00bfbf;stroke:#00bfbf;stroke-linecap:butt;stroke-width:0.5;" x="256.458333333" xlink:href="#m8f31f7398b" y="171.616253796"/>
     <use style="fill:#00bfbf;stroke:#00bfbf;stroke-linecap:butt;stroke-width:0.5;" x="343.258333333" xlink:href="#m8f31f7398b" y="150.160472247"/>
     <use style="fill:#00bfbf;stroke:#00bfbf;stroke-linecap:butt;stroke-width:0.5;" x="430.058333333" xlink:href="#m8f31f7398b" y="137.608775701"/>
    </g>
   </g>
   <g id="line2d_11">
    <g clip-path="url(#p0c45f87048)">
     <use style="fill:#00bfbf;stroke:#00bfbf;stroke-linecap:butt;stroke-width:0.5;" x="91.5383333333" xlink:href="#m8f31f7398b" y="204.698703409"/>
     <use style="fill:#00bfbf;stroke:#00bfbf;stroke-linecap:butt;stroke-width:0.5;" x="126.258333333" xlink:href="#m8f31f7398b" y="163.294054488"/>
     <use style="fill:#00bfbf;stroke:#00bfbf;stroke-linecap:butt;stroke-width:0.5;" x="187.018333333" xlink:href="#m8f31f7398b" y="129.050590312"/>
     <use style="fill:#00bfbf;stroke:#00bfbf;stroke-linecap:butt;stroke-width:0.5;" x="256.458333333" xlink:href="#m8f31f7398b" y="108.684724866"/>
     <use style="fill:#00bfbf;stroke:#00bfbf;stroke-linecap:butt;stroke-width:0.5;" x="343.258333333" xlink:href="#m8f31f7398b" y="87.2289433174"/>
     <use style="fill:#00bfbf;stroke:#00bfbf;stroke-linecap:butt;stroke-width:0.5;" x="430.058333333" xlink:href="#m8f31f7398b" y="74.6772467709"/>
    </g>
   </g>
   <g id="line2d_12">
    <path clip-path="url(#p0c45f87048)" d="
M91.5383 267.63
L126.258 226.226
L187.018 191.982
L256.458 171.616
L343.258 150.16
L430.058 137.609" style="fill:none;stroke:#00bfbf;"/>
   </g>
   <g id="line2d_13">
    <defs>
     <path d="
M3 1.83697e-16
L-3 -1.83697e-16" id="mdb2c5f90c7" style="stroke:#bf00bf;stroke-linecap:butt;stroke-width:0.5;"/>
    </defs>
    <g clip-path="url(#p0c45f87048)">
     <use style="fill:#bf00bf;stroke:#bf00bf;stroke-linecap:butt;stroke-width:0.5;" x="93.3466666667" xlink:href="#mdb2c5f90c7" y="244.205512272"/>
     <use style="fill:#bf00bf;stroke:#bf00bf;stroke-linecap:butt;stroke-width:0.5;" x="128.066666667" xlink:href="#mdb2c5f90c7" y="207.179312219"/>
     <use style="fill:#bf00bf;stroke:#bf00bf;stroke-linecap:butt;stroke-width:0.5;" x="188.826666667" xlink:href="#mdb2c5f90c7" y="178.012318828"/>
     <use style="fill:#bf00bf;stroke:#bf00bf;stroke-linecap:butt;stroke-width:0.5;" x="258.266666667" xlink:href="#mdb2c5f90c7" y="161.276791977"/>
     <use style="fill:#bf00bf;stroke:#bf00bf;stroke-linecap:butt;stroke-width:0.5;" x="345.066666667" xlink:href="#mdb2c5f90c7" y="143.247539367"/>
     <use style="fill:#bf00bf;stroke:#bf00bf;stroke-linecap:butt;stroke-width:0.5;" x="431.866666667" xlink:href="#mdb2c5f90c7" y="132.660941174"/>
    </g>
   </g>
   <g id="line2d_14">
    <g clip-path="url(#p0c45f87048)">
     <use style="fill:#bf00bf;stroke:#bf00bf;stroke-linecap:butt;stroke-width:0.5;" x="93.3466666667" xlink:href="#mdb2c5f90c7" y="181.273983342"/>
     <use style="fill:#bf00bf;stroke:#bf00bf;stroke-linecap:butt;stroke-width:0.5;" x="128.066666667" xlink:href="#mdb2c5f90c7" y="144.247783289"/>
     <use style="fill:#bf00bf;stroke:#bf00bf;stroke-linecap:butt;stroke-width:0.5;" x="188.826666667" xlink:href="#mdb2c5f90c7" y="115.080789898"/>
     <use style="fill:#bf00bf;stroke:#bf00bf;stroke-linecap:butt;stroke-width:0.5;" x="258.266666667" xlink:href="#mdb2c5f90c7" y="98.3452630469"/>
     <use style="fill:#bf00bf;stroke:#bf00bf;stroke-linecap:butt;stroke-width:0.5;" x="345.066666667" xlink:href="#mdb2c5f90c7" y="80.316010437"/>
     <use style="fill:#bf00bf;stroke:#bf00bf;stroke-linecap:butt;stroke-width:0.5;" x="431.866666667" xlink:href="#mdb2c5f90c7" y="69.7294122436"/>
    </g>
   </g>
   <g id="line2d_15">
    <path clip-path="url(#p0c45f87048)" d="
M93.3467 244.206
L128.067 207.179
L188.827 178.012
L258.267 161.277
L345.067 143.248
L431.867 132.661" style="fill:none;stroke:#bf00bf;"/>
   </g>
   <g id="line2d_16">
    <defs>
     <path d="
M3 1.83697e-16
L-3 -1.83697e-16" id="me7836d13e1" style="stroke:#bfbf00;stroke-linecap:butt;stroke-width:0.5;"/>
    </defs>
    <g clip-path="url(#p0c45f87048)">
     <use style="fill:#bfbf00;stroke:#bfbf00;stroke-linecap:butt;stroke-width:0.5;" x="100.58" xlink:href="#me7836d13e1" y="211.537285642"/>
     <use style="fill:#bfbf00;stroke:#bfbf00;stroke-linecap:butt;stroke-width:0.5;" x="135.3" xlink:href="#me7836d13e1" y="171.20667885"/>
     <use style="fill:#bfbf00;stroke:#bfbf00;stroke-linecap:butt;stroke-width:0.5;" x="196.06" xlink:href="#me7836d13e1" y="143.70572979"/>
     <use style="fill:#bfbf00;stroke:#bfbf00;stroke-linecap:butt;stroke-width:0.5;" x="265.5" xlink:href="#me7836d13e1" y="129.31932806"/>
     <use style="fill:#bfbf00;stroke:#bfbf00;stroke-linecap:butt;stroke-width:0.5;" x="352.3" xlink:href="#me7836d13e1" y="112.710176858"/>
     <use style="fill:#bfbf00;stroke:#bfbf00;stroke-linecap:butt;stroke-width:0.5;" x="439.1" xlink:href="#me7836d13e1" y="103.116788341"/>
    </g>
   </g>
   <g id="line2d_17">
    <g clip-path="url(#p0c45f87048)">
     <use style="fill:#bfbf00;stroke:#bfbf00;stroke-linecap:butt;stroke-width:0.5;" x="100.58" xlink:href="#me7836d13e1" y="148.605756712"/>
     <use style="fill:#bfbf00;stroke:#bfbf00;stroke-linecap:butt;stroke-width:0.5;" x="135.3" xlink:href="#me7836d13e1" y="108.27514992"/>
     <use style="fill:#bfbf00;stroke:#bfbf00;stroke-linecap:butt;stroke-width:0.5;" x="196.06" xlink:href="#me7836d13e1" y="80.7742008595"/>
     <use style="fill:#bfbf00;stroke:#bfbf00;stroke-linecap:butt;stroke-width:0.5;" x="265.5" xlink:href="#me7836d13e1" y="66.38779913"/>
     <use style="fill:#bfbf00;stroke:#bfbf00;stroke-linecap:butt;stroke-width:0.5;" x="352.3" xlink:href="#me7836d13e1" y="49.7786479277"/>
     <use style="fill:#bfbf00;stroke:#bfbf00;stroke-linecap:butt;stroke-width:0.5;" x="439.1" xlink:href="#me7836d13e1" y="40.185259411"/>
    </g>
   </g>
   <g id="line2d_18">
    <path clip-path="url(#p0c45f87048)" d="
M100.58 211.537
L135.3 171.207
L196.06 143.706
L265.5 129.319
L352.3 112.71
L439.1 103.117" style="fill:none;stroke:#bfbf00;"/>
   </g>
   <g id="matplotlib.axis_1">
    <g id="xtick_1">
     <g id="line2d_19">
      <defs>
       <path d="
M0 0
L0 -4" id="m0012dd4eef" style="stroke:#000000;stroke-linecap:butt;stroke-width:0.5;"/>
      </defs>
      <g>
       <use style="stroke:#000000;stroke-linecap:butt;stroke-width:0.5;" x="70.2" xlink:href="#m0012dd4eef" y="299.653125"/>
      </g>
     </g>
     <g id="line2d_20">
      <defs>
       <path d="
M0 0
L0 4" id="m476344969c" style="stroke:#000000;stroke-linecap:butt;stroke-width:0.5;"/>
      </defs>
      <g>
       <use style="stroke:#000000;stroke-linecap:butt;stroke-width:0.5;" x="70.2" xlink:href="#m476344969c" y="11.653125"/>
      </g>
     </g>
     <g id="text_1">
      <!-- 0 -->
      <defs>
       <path d="
M31.7812 3.42188
Q39.2656 3.42188 42.9688 11.625
Q46.6875 19.8281 46.6875 36.375
Q46.6875 52.9844 42.9688 61.1875
Q39.2656 69.3906 31.7812 69.3906
Q24.3125 69.3906 20.5938 61.1875
Q16.8906 52.9844 16.8906 36.375
Q16.8906 19.8281 20.5938 11.625
Q24.3125 3.42188 31.7812 3.42188
M31.7812 -1.42188
Q19.9219 -1.42188 13.25 8.53125
Q6.59375 18.5 6.59375 36.375
Q6.59375 54.2969 13.25 64.25
Q19.9219 74.2188 31.7812 74.2188
Q43.7031 74.2188 50.3438 64.25
Q56.9844 54.2969 56.9844 36.375
Q56.9844 18.5 50.3438 8.53125
Q43.7031 -1.42188 31.7812 -1.42188" id="BitstreamVeraSerif-Roman-30"/>
      </defs>
      <g transform="translate(67.1765625 312.559375)scale(0.12 -0.12)">
       <use xlink:href="#BitstreamVeraSerif-Roman-30"/>
      </g>
     </g>
    </g>
    <g id="xtick_2">
     <g id="line2d_21">
      <g>
       <use style="stroke:#000000;stroke-linecap:butt;stroke-width:0.5;" x="157.0" xlink:href="#m0012dd4eef" y="299.653125"/>
      </g>
     </g>
     <g id="line2d_22">
      <g>
       <use style="stroke:#000000;stroke-linecap:butt;stroke-width:0.5;" x="157.0" xlink:href="#m476344969c" y="11.653125"/>
      </g>
     </g>
     <g id="text_2">
      <!-- 1 -->
      <defs>
       <path d="
M14.2031 0
L14.2031 5.17188
L26.9062 5.17188
L26.9062 65.8281
L12.2031 56.2969
L12.2031 62.7031
L29.9844 74.2188
L36.7188 74.2188
L36.7188 5.17188
L49.4219 5.17188
L49.4219 0
z
" id="BitstreamVeraSerif-Roman-31"/>
      </defs>
      <g transform="translate(154.766875 312.559375)scale(0.12 -0.12)">
       <use xlink:href="#BitstreamVeraSerif-Roman-31"/>
      </g>
     </g>
    </g>
    <g id="xtick_3">
     <g id="line2d_23">
      <g>
       <use style="stroke:#000000;stroke-linecap:butt;stroke-width:0.5;" x="243.8" xlink:href="#m0012dd4eef" y="299.653125"/>
      </g>
     </g>
     <g id="line2d_24">
      <g>
       <use style="stroke:#000000;stroke-linecap:butt;stroke-width:0.5;" x="243.8" xlink:href="#m476344969c" y="11.653125"/>
      </g>
     </g>
     <g id="text_3">
      <!-- 2 -->
      <defs>
       <path d="
M12.7969 55.5156
L7.32812 55.5156
L7.32812 68.5
Q12.5469 71.2969 17.8438 72.75
Q23.1406 74.2188 28.2188 74.2188
Q39.5938 74.2188 46.1875 68.7031
Q52.7812 63.1875 52.7812 53.7188
Q52.7812 43.0156 37.8438 28.125
Q36.6719 27 36.0781 26.4219
L17.6719 8.01562
L48.0938 8.01562
L48.0938 17
L53.8125 17
L53.8125 0
L6.78125 0
L6.78125 5.32812
L28.9062 27.3906
Q36.2344 34.7188 39.3594 40.8438
Q42.4844 46.9688 42.4844 53.7188
Q42.4844 61.0781 38.6406 65.2344
Q34.8125 69.3906 28.0781 69.3906
Q21.0938 69.3906 17.2812 65.9219
Q13.4844 62.4531 12.7969 55.5156" id="BitstreamVeraSerif-Roman-32"/>
      </defs>
      <g transform="translate(240.978125 312.559375)scale(0.12 -0.12)">
       <use xlink:href="#BitstreamVeraSerif-Roman-32"/>
      </g>
     </g>
    </g>
    <g id="xtick_4">
     <g id="line2d_25">
      <g>
       <use style="stroke:#000000;stroke-linecap:butt;stroke-width:0.5;" x="330.6" xlink:href="#m0012dd4eef" y="299.653125"/>
      </g>
     </g>
     <g id="line2d_26">
      <g>
       <use style="stroke:#000000;stroke-linecap:butt;stroke-width:0.5;" x="330.6" xlink:href="#m476344969c" y="11.653125"/>
      </g>
     </g>
     <g id="text_4">
      <!-- 3 -->
      <defs>
       <path d="
M9.71875 69.8281
Q15.4375 71.9688 20.6719 73.0938
Q25.9219 74.2188 30.5156 74.2188
Q41.2188 74.2188 47.2188 69.5938
Q53.2188 64.9844 53.2188 56.7812
Q53.2188 50.2031 49.0625 45.7812
Q44.9219 41.3594 37.3125 39.7969
Q46.2969 38.5312 51.25 33.2812
Q56.2031 28.0312 56.2031 19.6719
Q56.2031 9.46875 49.3438 4.01562
Q42.4844 -1.42188 29.5938 -1.42188
Q23.875 -1.42188 18.4219 -0.1875
Q12.9844 1.03125 7.625 3.51562
L7.625 17.6719
L13.0938 17.6719
Q13.5781 10.6406 17.8281 7.03125
Q22.0781 3.42188 29.7812 3.42188
Q37.25 3.42188 41.5781 7.73438
Q45.9062 12.0625 45.9062 19.5781
Q45.9062 28.1719 41.4531 32.5938
Q37.0156 37.0156 28.4219 37.0156
L23.7812 37.0156
L23.7812 42
L26.2188 42
Q34.7656 42 39.0312 45.5312
Q43.3125 49.0781 43.3125 56.2031
Q43.3125 62.5938 39.7969 65.9844
Q36.2812 69.3906 29.6875 69.3906
Q23.0938 69.3906 19.4531 66.2656
Q15.8281 63.1406 15.1875 56.9844
L9.71875 56.9844
z
" id="BitstreamVeraSerif-Roman-33"/>
      </defs>
      <g transform="translate(327.6853125 312.559375)scale(0.12 -0.12)">
       <use xlink:href="#BitstreamVeraSerif-Roman-33"/>
      </g>
     </g>
    </g>
    <g id="xtick_5">
     <g id="line2d_27">
      <g>
       <use style="stroke:#000000;stroke-linecap:butt;stroke-width:0.5;" x="417.4" xlink:href="#m0012dd4eef" y="299.653125"/>
      </g>
     </g>
     <g id="line2d_28">
      <g>
       <use style="stroke:#000000;stroke-linecap:butt;stroke-width:0.5;" x="417.4" xlink:href="#m476344969c" y="11.653125"/>
      </g>
     </g>
     <g id="text_5">
      <!-- 4 -->
      <defs>
       <path d="
M34.9062 24.7031
L34.9062 63.4844
L10.0156 24.7031
z

M56.3906 0
L23.1875 0
L23.1875 5.17188
L34.9062 5.17188
L34.9062 19.4844
L3.07812 19.4844
L3.07812 24.8125
L35.0156 74.2188
L44.6719 74.2188
L44.6719 24.7031
L58.5938 24.7031
L58.5938 19.4844
L44.6719 19.4844
L44.6719 5.17188
L56.3906 5.17188
z
" id="BitstreamVeraSerif-Roman-34"/>
      </defs>
      <g transform="translate(414.0690625 312.559375)scale(0.12 -0.12)">
       <use xlink:href="#BitstreamVeraSerif-Roman-34"/>
      </g>
     </g>
    </g>
    <g id="text_6">
     <!-- z -->
     <defs>
      <path d="
M4 0
L4 4.20312
L36.5312 46.6875
L10.7969 46.6875
L10.7969 37.7031
L5.60938 37.7031
L5.60938 51.9062
L48.0938 51.9062
L48.0938 47.7031
L15.5781 5.17188
L43.7969 5.17188
L43.7969 14.5938
L49.0312 14.5938
L49.0312 0
z
" id="BitstreamVeraSerif-Roman-7a"/>
     </defs>
     <g transform="translate(262.798125 323.95875)scale(0.12 -0.12)">
      <use xlink:href="#BitstreamVeraSerif-Roman-7a"/>
     </g>
    </g>
   </g>
   <g id="matplotlib.axis_2">
    <g id="ytick_1">
     <g id="line2d_29">
      <defs>
       <path d="
M0 0
L4 0" id="me8a85f7bf6" style="stroke:#000000;stroke-linecap:butt;stroke-width:0.5;"/>
      </defs>
      <g>
       <use style="stroke:#000000;stroke-linecap:butt;stroke-width:0.5;" x="70.2" xlink:href="#me8a85f7bf6" y="299.653125"/>
      </g>
     </g>
     <g id="line2d_30">
      <defs>
       <path d="
M0 0
L-4 0" id="m1a32005dea" style="stroke:#000000;stroke-linecap:butt;stroke-width:0.5;"/>
      </defs>
      <g>
       <use style="stroke:#000000;stroke-linecap:butt;stroke-width:0.5;" x="460.8" xlink:href="#m1a32005dea" y="299.653125"/>
      </g>
     </g>
     <g id="text_7">
      <!-- 40 -->
      <g transform="translate(52.09625 304.0209375)scale(0.12 -0.12)">
       <use xlink:href="#BitstreamVeraSerif-Roman-34"/>
       <use x="63.623046875" xlink:href="#BitstreamVeraSerif-Roman-30"/>
      </g>
     </g>
    </g>
    <g id="ytick_2">
     <g id="line2d_31">
      <g>
       <use style="stroke:#000000;stroke-linecap:butt;stroke-width:0.5;" x="70.2" xlink:href="#me8a85f7bf6" y="258.510267857"/>
      </g>
     </g>
     <g id="line2d_32">
      <g>
       <use style="stroke:#000000;stroke-linecap:butt;stroke-width:0.5;" x="460.8" xlink:href="#m1a32005dea" y="258.510267857"/>
      </g>
     </g>
     <g id="text_8">
      <!-- 41 -->
      <g transform="translate(53.00375 262.963392857)scale(0.12 -0.12)">
       <use xlink:href="#BitstreamVeraSerif-Roman-34"/>
       <use x="63.623046875" xlink:href="#BitstreamVeraSerif-Roman-31"/>
      </g>
     </g>
    </g>
    <g id="ytick_3">
     <g id="line2d_33">
      <g>
       <use style="stroke:#000000;stroke-linecap:butt;stroke-width:0.5;" x="70.2" xlink:href="#me8a85f7bf6" y="217.367410714"/>
      </g>
     </g>
     <g id="line2d_34">
      <g>
       <use style="stroke:#000000;stroke-linecap:butt;stroke-width:0.5;" x="460.8" xlink:href="#m1a32005dea" y="217.367410714"/>
      </g>
     </g>
     <g id="text_9">
      <!-- 42 -->
      <g transform="translate(52.476875 221.820535714)scale(0.12 -0.12)">
       <use xlink:href="#BitstreamVeraSerif-Roman-34"/>
       <use x="63.623046875" xlink:href="#BitstreamVeraSerif-Roman-32"/>
      </g>
     </g>
    </g>
    <g id="ytick_4">
     <g id="line2d_35">
      <g>
       <use style="stroke:#000000;stroke-linecap:butt;stroke-width:0.5;" x="70.2" xlink:href="#me8a85f7bf6" y="176.224553571"/>
      </g>
     </g>
     <g id="line2d_36">
      <g>
       <use style="stroke:#000000;stroke-linecap:butt;stroke-width:0.5;" x="460.8" xlink:href="#m1a32005dea" y="176.224553571"/>
      </g>
     </g>
     <g id="text_10">
      <!-- 43 -->
      <g transform="translate(52.19 180.592366071)scale(0.12 -0.12)">
       <use xlink:href="#BitstreamVeraSerif-Roman-34"/>
       <use x="63.623046875" xlink:href="#BitstreamVeraSerif-Roman-33"/>
      </g>
     </g>
    </g>
    <g id="ytick_5">
     <g id="line2d_37">
      <g>
       <use style="stroke:#000000;stroke-linecap:butt;stroke-width:0.5;" x="70.2" xlink:href="#me8a85f7bf6" y="135.081696429"/>
      </g>
     </g>
     <g id="line2d_38">
      <g>
       <use style="stroke:#000000;stroke-linecap:butt;stroke-width:0.5;" x="460.8" xlink:href="#m1a32005dea" y="135.081696429"/>
      </g>
     </g>
     <g id="text_11">
      <!-- 44 -->
      <g transform="translate(51.903125 139.534821429)scale(0.12 -0.12)">
       <use xlink:href="#BitstreamVeraSerif-Roman-34"/>
       <use x="63.623046875" xlink:href="#BitstreamVeraSerif-Roman-34"/>
      </g>
     </g>
    </g>
    <g id="ytick_6">
     <g id="line2d_39">
      <g>
       <use style="stroke:#000000;stroke-linecap:butt;stroke-width:0.5;" x="70.2" xlink:href="#me8a85f7bf6" y="93.9388392857"/>
      </g>
     </g>
     <g id="line2d_40">
      <g>
       <use style="stroke:#000000;stroke-linecap:butt;stroke-width:0.5;" x="460.8" xlink:href="#m1a32005dea" y="93.9388392857"/>
      </g>
     </g>
     <g id="text_12">
      <!-- 45 -->
      <defs>
       <path d="
M50.2969 72.9062
L50.2969 64.8906
L16.8906 64.8906
L16.8906 44
Q19.4375 45.75 22.8281 46.625
Q26.2188 47.5156 30.4219 47.5156
Q42.2344 47.5156 49.0625 40.9688
Q55.9062 34.4219 55.9062 23.0938
Q55.9062 11.5312 49 5.04688
Q42.0938 -1.42188 29.5938 -1.42188
Q24.5625 -1.42188 19.2812 -0.1875
Q14.0156 1.03125 8.5 3.51562
L8.5 17.6719
L14.0156 17.6719
Q14.4531 10.75 18.4219 7.07812
Q22.4062 3.42188 29.5938 3.42188
Q37.3125 3.42188 41.4531 8.5
Q45.6094 13.5781 45.6094 23.0938
Q45.6094 32.5625 41.4844 37.6094
Q37.3594 42.6719 29.5938 42.6719
Q25.2031 42.6719 21.8438 41.1094
Q18.5 39.5469 15.9219 36.2812
L11.7188 36.2812
L11.7188 72.9062
z
" id="BitstreamVeraSerif-Roman-35"/>
      </defs>
      <g transform="translate(52.225625 98.3066517857)scale(0.12 -0.12)">
       <use xlink:href="#BitstreamVeraSerif-Roman-34"/>
       <use x="63.623046875" xlink:href="#BitstreamVeraSerif-Roman-35"/>
      </g>
     </g>
    </g>
    <g id="ytick_7">
     <g id="line2d_41">
      <g>
       <use style="stroke:#000000;stroke-linecap:butt;stroke-width:0.5;" x="70.2" xlink:href="#me8a85f7bf6" y="52.7959821429"/>
      </g>
     </g>
     <g id="line2d_42">
      <g>
       <use style="stroke:#000000;stroke-linecap:butt;stroke-width:0.5;" x="460.8" xlink:href="#m1a32005dea" y="52.7959821429"/>
      </g>
     </g>
     <g id="text_13">
      <!-- 46 -->
      <defs>
       <path d="
M32.7188 3.42188
Q39.5938 3.42188 43.2969 8.46875
Q47.0156 13.5312 47.0156 23
Q47.0156 32.4688 43.2969 37.5156
Q39.5938 42.5781 32.7188 42.5781
Q25.7344 42.5781 22.0625 37.6875
Q18.4062 32.8125 18.4062 23.5781
Q18.4062 13.875 22.1094 8.64062
Q25.8281 3.42188 32.7188 3.42188
M16.7969 40.1406
Q20.125 43.7969 24.3125 45.5938
Q28.5156 47.4062 33.7969 47.4062
Q44.6719 47.4062 51 40.8594
Q57.3281 34.3281 57.3281 23
Q57.3281 11.9219 50.5156 5.25
Q43.7031 -1.42188 32.3281 -1.42188
Q19.9688 -1.42188 13.3281 7.78125
Q6.6875 17 6.6875 34.0781
Q6.6875 53.2188 14.5469 63.7188
Q22.4062 74.2188 36.7188 74.2188
Q40.5781 74.2188 44.8281 73.4844
Q49.0781 72.75 53.5156 71.2969
L53.5156 59.2812
L48 59.2812
Q47.4062 64.2031 44.2344 66.7969
Q41.0625 69.3906 35.6875 69.3906
Q26.2188 69.3906 21.5781 62.2031
Q16.9375 55.0312 16.7969 40.1406" id="BitstreamVeraSerif-Roman-36"/>
      </defs>
      <g transform="translate(52.055 57.1637946429)scale(0.12 -0.12)">
       <use xlink:href="#BitstreamVeraSerif-Roman-34"/>
       <use x="63.623046875" xlink:href="#BitstreamVeraSerif-Roman-36"/>
      </g>
     </g>
    </g>
    <g id="ytick_8">
     <g id="line2d_43">
      <g>
       <use style="stroke:#000000;stroke-linecap:butt;stroke-width:0.5;" x="70.2" xlink:href="#me8a85f7bf6" y="11.653125"/>
      </g>
     </g>
     <g id="line2d_44">
      <g>
       <use style="stroke:#000000;stroke-linecap:butt;stroke-width:0.5;" x="460.8" xlink:href="#m1a32005dea" y="11.653125"/>
      </g>
     </g>
     <g id="text_14">
      <!-- 47 -->
      <defs>
       <path d="
M56.3906 67.9219
L27.875 0
L20.6094 0
L47.7969 64.8906
L14.1094 64.8906
L14.1094 55.9062
L8.40625 55.9062
L8.40625 72.9062
L56.3906 72.9062
z
" id="BitstreamVeraSerif-Roman-37"/>
      </defs>
      <g transform="translate(52.1675 16.10625)scale(0.12 -0.12)">
       <use xlink:href="#BitstreamVeraSerif-Roman-34"/>
       <use x="63.623046875" xlink:href="#BitstreamVeraSerif-Roman-37"/>
      </g>
     </g>
    </g>
    <g id="text_15">
     <!-- $log_{10}\ L_{hard}$ -->
     <defs>
      <path d="
M7.71875 1.70312
Q7.71875 2.29688 7.8125 2.59375
L15.2812 32.4219
Q16.0156 35.2031 16.0156 37.3125
Q16.0156 41.6094 13.0938 41.6094
Q9.96875 41.6094 8.45312 37.8594
Q6.9375 34.125 5.51562 28.4219
Q5.51562 28.125 5.21875 27.9531
Q4.9375 27.7812 4.6875 27.7812
L3.51562 27.7812
Q3.17188 27.7812 2.92188 28.1406
Q2.6875 28.5156 2.6875 28.8125
Q3.76562 33.1562 4.76562 36.1719
Q5.76562 39.2031 7.89062 41.6875
Q10.0156 44.1875 13.1875 44.1875
Q16.6562 44.1875 19.2656 42.1875
Q21.875 40.1875 22.5156 36.9219
Q25.0469 40.2344 28.2969 42.2031
Q31.5469 44.1875 35.4062 44.1875
Q38.5781 44.1875 40.9844 42.3281
Q43.4062 40.4844 43.4062 37.3125
Q43.4062 34.7656 41.8125 32.875
Q40.2344 31 37.5938 31
Q35.9844 31 34.8906 32
Q33.7969 33.0156 33.7969 34.625
Q33.7969 36.8125 35.4062 38.5469
Q37.0156 40.2812 39.1094 40.2812
Q37.5 41.6094 35.2031 41.6094
Q30.9062 41.6094 27.7344 38.5469
Q24.5625 35.5 22.0156 30.8125
L14.8906 2.20312
Q14.5469 0.828125 13.3438 -0.140625
Q12.1562 -1.125 10.6875 -1.125
Q9.46875 -1.125 8.59375 -0.34375
Q7.71875 0.4375 7.71875 1.70312" id="Cmmi10-72"/>
      <path d="
M4.39062 8.10938
Q4.39062 8.40625 4.46875 8.98438
Q4.54688 9.57812 4.60938 10.125
Q4.6875 10.6875 4.6875 10.9844
L17.0938 60.5
Q17.4844 62.2031 17.5781 63.1875
Q17.5781 64.7969 11.0781 64.7969
Q10.1094 64.7969 10.1094 66.1094
Q10.1562 66.3594 10.3281 66.9844
Q10.5 67.625 10.7656 67.9688
Q11.0312 68.3125 11.5312 68.3125
L25 69.3906
Q26.2188 69.3906 26.2188 68.1094
L11.8125 10.5938
Q11.0781 8.98438 11.0781 5.8125
Q11.0781 1.51562 14.0156 1.51562
Q17.0938 1.51562 18.625 5.34375
Q20.1719 9.1875 21.3906 14.7031
Q21.5781 15.2812 22.2188 15.2812
L23.3906 15.2812
Q23.7812 15.2812 24.0469 14.9688
Q24.3125 14.6562 24.3125 14.3125
Q23.1406 9.46875 22.1875 6.65625
Q21.2344 3.85938 19.1406 1.35938
Q17.0469 -1.125 13.8125 -1.125
Q9.8125 -1.125 7.09375 1.45312
Q4.39062 4.04688 4.39062 8.10938" id="Cmmi10-6c"/>
      <path d="
M25 -2.20312
Q12.75 -2.20312 8.32812 7.875
Q3.90625 17.9688 3.90625 31.8906
Q3.90625 40.5781 5.48438 48.2344
Q7.07812 55.9062 11.7812 61.25
Q16.5 66.6094 25 66.6094
Q31.5938 66.6094 35.7812 63.375
Q39.9844 60.1562 42.1875 55.0469
Q44.3906 49.9531 45.1875 44.1094
Q46 38.2812 46 31.8906
Q46 23.2969 44.4062 15.7969
Q42.8281 8.29688 38.1875 3.04688
Q33.5469 -2.20312 25 -2.20312
M25 0.390625
Q30.5625 0.390625 33.2969 6.09375
Q36.0312 11.8125 36.6719 18.75
Q37.3125 25.6875 37.3125 33.5
Q37.3125 41.0156 36.6719 47.3594
Q36.0312 53.7188 33.3125 58.8594
Q30.6094 64.0156 25 64.0156
Q19.3438 64.0156 16.6094 58.8281
Q13.875 53.6562 13.2344 47.3281
Q12.5938 41.0156 12.5938 33.5
Q12.5938 27.9375 12.8594 23
Q13.1406 18.0625 14.3125 12.8125
Q15.4844 7.5625 18.0938 3.96875
Q20.7031 0.390625 25 0.390625" id="Cmr10-30"/>
      <path d="
M4.6875 0
Q3.71875 0 3.71875 1.3125
Q3.76562 1.5625 3.90625 2.17188
Q4.04688 2.78125 4.3125 3.14062
Q4.59375 3.51562 4.98438 3.51562
Q11.0781 3.51562 13.4844 4.20312
Q14.7969 4.64062 15.375 6.89062
L29.1094 61.8125
Q29.2969 62.7969 29.2969 63.1875
Q29.2969 64.2656 28.0781 64.4062
Q26.2188 64.7969 20.9062 64.7969
Q19.9219 64.7969 19.9219 66.1094
Q20.2656 67.3906 20.4531 67.8438
Q20.6562 68.3125 21.5781 68.3125
L51.125 68.3125
Q52 68.3125 52 67
Q51.8594 65.9688 51.6562 65.375
Q51.4688 64.7969 50.6875 64.7969
Q43.3125 64.7969 40.8281 64.3125
Q38.375 63.875 37.7969 61.375
L24.125 6.5
Q23.6875 5.28125 23.6875 4.29688
Q23.6875 3.51562 27.0938 3.51562
L36.375 3.51562
Q44.2344 3.51562 49.1094 6.64062
Q54 9.76562 56.3438 13.6875
Q58.6875 17.625 60.2656 21.8438
Q61.8594 26.0781 62.5938 26.2188
L63.4844 26.2188
Q64.5 26.2188 64.5 24.9062
L55.6094 0.6875
Q55.4688 0 54.6875 0
z
" id="Cmmi10-4c"/>
      <path d="
M20.125 -1.125
Q15.375 -1.125 11.6875 1.125
Q8.01562 3.375 6 7.17188
Q4 10.9844 4 15.8281
Q4 22.6094 7.78125 29.25
Q11.5781 35.8906 17.8438 40.0312
Q24.125 44.1875 31 44.1875
Q34.7188 44.1875 37.625 42.9219
Q40.5312 41.6562 42.6719 39.3594
Q44.8281 37.0625 45.9688 33.9844
Q47.125 30.9062 47.125 27.2969
Q47.125 22.0781 44.9219 17.0156
Q42.7188 11.9688 38.8906 7.84375
Q35.0625 3.71875 30.125 1.29688
Q25.2031 -1.125 20.125 -1.125
M20.3125 1.51562
Q24.75 1.51562 28.4375 4.53125
Q32.125 7.5625 34.4844 12.1719
Q36.8594 16.7969 38.125 21.9219
Q39.4062 27.0469 39.4062 31.2031
Q39.4062 35.5469 37.2344 38.5781
Q35.0625 41.6094 30.8125 41.6094
Q24.9531 41.6094 20.5469 36.5938
Q16.1562 31.5938 13.9375 24.625
Q11.7188 17.6719 11.7188 11.9219
Q11.7188 7.5625 13.9375 4.53125
Q16.1562 1.51562 20.3125 1.51562" id="Cmmi10-6f"/>
      <path d="
M9.28125 0
L9.28125 3.51562
Q21.7812 3.51562 21.7812 6.6875
L21.7812 59.1875
Q16.6094 56.6875 8.6875 56.6875
L8.6875 60.2031
Q20.9531 60.2031 27.2031 66.6094
L28.6094 66.6094
Q28.9531 66.6094 29.2656 66.3281
Q29.5938 66.0625 29.5938 65.7188
L29.5938 6.6875
Q29.5938 3.51562 42.0938 3.51562
L42.0938 0
z
" id="Cmr10-31"/>
      <path d="
M17.3906 -1.125
Q11.0781 -1.125 7.4375 3.64062
Q3.8125 8.40625 3.8125 14.8906
Q3.8125 21.2969 7.125 28.1719
Q10.4531 35.0625 16.0938 39.625
Q21.7344 44.1875 28.2188 44.1875
Q31.2031 44.1875 33.5469 42.5781
Q35.8906 40.9688 37.2031 38.1875
Q38.3281 42.1875 41.6094 42.1875
Q42.875 42.1875 43.7188 41.4219
Q44.5781 40.6719 44.5781 39.4062
Q44.5781 39.1094 44.5469 38.9531
Q44.5312 38.8125 44.4844 38.625
L37.5 10.6875
Q36.8125 7.71875 36.8125 5.8125
Q36.8125 1.51562 39.7031 1.51562
Q42.8281 1.51562 44.4531 5.48438
Q46.0938 9.46875 47.2188 14.7031
Q47.4062 15.2812 48 15.2812
L49.2188 15.2812
Q49.6094 15.2812 49.8438 14.9375
Q50.0938 14.5938 50.0938 14.3125
Q48.3438 7.32812 46.2656 3.09375
Q44.1875 -1.125 39.5 -1.125
Q36.1406 -1.125 33.5469 0.84375
Q30.9531 2.82812 30.3281 6.10938
Q23.875 -1.125 17.3906 -1.125
M17.4844 1.51562
Q21.0938 1.51562 24.4844 4.21875
Q27.875 6.9375 30.3281 10.5938
Q30.4219 10.6875 30.4219 10.8906
L35.7969 32.625
L35.8906 32.9062
Q35.2969 36.4688 33.3125 39.0312
Q31.3438 41.6094 27.9844 41.6094
Q24.6094 41.6094 21.7031 38.8438
Q18.7969 36.0781 16.7969 32.3281
Q14.8438 28.3281 13.0625 21.3438
Q11.2812 14.3594 11.2812 10.5
Q11.2812 7.03125 12.7656 4.26562
Q14.2656 1.51562 17.4844 1.51562" id="Cmmi10-61"/>
      <path d="
M17.3906 -1.125
Q11.0781 -1.125 7.4375 3.64062
Q3.8125 8.40625 3.8125 14.8906
Q3.8125 21.2969 7.125 28.1719
Q10.4531 35.0625 16.0938 39.625
Q21.7344 44.1875 28.2188 44.1875
Q31.1562 44.1875 33.5156 42.5469
Q35.8906 40.9219 37.2031 38.1875
L42.8281 60.5
Q43.2188 62.2031 43.3125 63.1875
Q43.3125 64.7969 36.8125 64.7969
Q35.7969 64.7969 35.7969 66.1094
Q35.8438 66.3594 36.0156 66.9844
Q36.1875 67.625 36.4531 67.9688
Q36.7188 68.3125 37.2031 68.3125
L50.6875 69.3906
Q51.9062 69.3906 51.9062 68.1094
L37.5 10.5938
Q36.8125 8.9375 36.8125 5.8125
Q36.8125 1.51562 39.7031 1.51562
Q42.8281 1.51562 44.4531 5.48438
Q46.0938 9.46875 47.2188 14.7031
Q47.4062 15.2812 48 15.2812
L49.2188 15.2812
Q49.6094 15.2812 49.8438 14.9375
Q50.0938 14.5938 50.0938 14.3125
Q48.3438 7.32812 46.2656 3.09375
Q44.1875 -1.125 39.5 -1.125
Q36.1406 -1.125 33.5469 0.84375
Q30.9531 2.82812 30.3281 6.10938
Q23.875 -1.125 17.3906 -1.125
M17.4844 1.51562
Q21.0938 1.51562 24.4844 4.21875
Q27.875 6.9375 30.3281 10.5938
Q30.4219 10.6875 30.4219 10.9844
L35.8906 33.0156
Q35.2969 36.5312 33.2969 39.0625
Q31.2969 41.6094 27.9844 41.6094
Q24.6094 41.6094 21.7031 38.8438
Q18.7969 36.0781 16.7969 32.3281
Q14.8438 28.3281 13.0625 21.3438
Q11.2812 14.3594 11.2812 10.5
Q11.2812 7.03125 12.7656 4.26562
Q14.2656 1.51562 17.4844 1.51562" id="Cmmi10-64"/>
      <path d="
M1.42188 -14.3125
Q1.42188 -11.8594 3.09375 -10.0312
Q4.78125 -8.20312 7.17188 -8.20312
Q8.79688 -8.20312 9.89062 -9.20312
Q10.9844 -10.2031 10.9844 -11.8125
Q10.9844 -13.625 9.95312 -15.0625
Q8.9375 -16.5 7.32812 -17.0938
Q10.0156 -17.9219 15.7188 -17.9219
Q20.3125 -17.9219 24.125 -14.375
Q27.9375 -10.8438 29.1094 -6.20312
L31.9844 5.51562
Q26.5625 0 20.7031 0
Q16.4062 0 13.3438 2.1875
Q10.2969 4.39062 8.6875 8.04688
Q7.07812 11.7188 7.07812 15.8281
Q7.07812 20.4062 8.95312 25.4375
Q10.8438 30.4688 14.2344 34.7656
Q17.625 39.0625 22.0156 41.625
Q26.4219 44.1875 31.2969 44.1875
Q34.2344 44.1875 36.5781 42.5781
Q38.9219 40.9688 40.2812 38.2812
Q41.2656 42.1875 44.5781 42.1875
Q45.8438 42.1875 46.7188 41.4219
Q47.6094 40.6719 47.6094 39.4062
Q47.6094 39.1094 47.5781 38.9531
Q47.5625 38.8125 47.5156 38.625
L36.0781 -6.78125
Q35.2969 -9.90625 33.2031 -12.5
Q31.1094 -15.0938 28.2656 -16.8281
Q25.4375 -18.5625 22.0625 -19.5312
Q18.7031 -20.5156 15.5781 -20.5156
Q9.85938 -20.5156 5.64062 -19.4062
Q1.42188 -18.3125 1.42188 -14.3125
M20.9062 2.59375
Q27.2969 2.59375 33.5 11.375
L39.0156 33.2031
Q38.3281 36.6719 36.2812 39.1406
Q34.2344 41.6094 31.1094 41.6094
Q27.7812 41.6094 24.8281 38.8906
Q21.875 36.1875 19.9219 32.4219
Q18.0625 28.8125 16.3281 22.0469
Q14.5938 15.2812 14.5938 11.375
Q14.5938 7.95312 16.1562 5.26562
Q17.7188 2.59375 20.9062 2.59375" id="Cmmi10-67"/>
      <path d="
M5.32812 1.8125
Q5.32812 2.39062 5.42188 2.6875
L19.9219 60.5
Q20.3125 62.2031 20.4062 63.1875
Q20.4062 64.7969 13.9219 64.7969
Q12.8906 64.7969 12.8906 66.1094
Q12.9375 66.3594 13.1094 66.9844
Q13.2812 67.625 13.5469 67.9688
Q13.8125 68.3125 14.3125 68.3125
L27.7812 69.3906
L28.0781 69.3906
Q28.0781 69.2812 28.4219 69.1094
Q28.7656 68.9531 28.8125 68.8906
Q29 68.4062 29 68.1094
L21.1875 36.9219
Q27.3438 44.1875 35.7969 44.1875
Q39.3125 44.1875 41.875 42.9688
Q44.4375 41.75 45.875 39.2812
Q47.3125 36.8125 47.3125 33.4062
Q47.3125 29.2969 45.4844 23.4844
Q43.6562 17.6719 40.9219 10.5
Q39.5 7.23438 39.5 4.5
Q39.5 1.51562 41.7969 1.51562
Q45.7031 1.51562 48.3125 5.6875
Q50.9219 9.85938 52 14.7031
Q52.2031 15.2812 52.7812 15.2812
L54 15.2812
Q54.3906 15.2812 54.6406 15.0156
Q54.8906 14.75 54.8906 14.4062
Q54.8906 14.3125 54.7812 14.1094
Q53.9062 10.5 52.1719 7
Q50.4375 3.51562 47.7969 1.1875
Q45.1719 -1.125 41.6094 -1.125
Q38.0938 -1.125 35.5938 1.29688
Q33.1094 3.71875 33.1094 7.17188
Q33.1094 9.03125 33.8906 11.0781
Q36.7188 18.6094 38.5938 24.5156
Q40.4844 30.4219 40.4844 34.9062
Q40.4844 37.7969 39.3594 39.7031
Q38.2344 41.6094 35.5938 41.6094
Q30.2188 41.6094 26.2188 38.3125
Q22.2188 35.0156 19.2812 29.5938
L12.5 2.29688
Q12.1094 0.78125 10.9844 -0.171875
Q9.85938 -1.125 8.40625 -1.125
Q7.125 -1.125 6.21875 -0.265625
Q5.32812 0.59375 5.32812 1.8125" id="Cmmi10-68"/>
     </defs>
     <g transform="translate(46.903125 181.813125)rotate(-90.0)scale(0.12 -0.12)">
      <use transform="translate(0.0 28.609375)" xlink:href="#Cmmi10-6c"/>
      <use transform="translate(29.78515625 28.609375)" xlink:href="#Cmmi10-6f"/>
      <use transform="translate(78.173828125 28.609375)" xlink:href="#Cmmi10-67"/>
      <use transform="translate(125.87890625 3.1)scale(0.7)" xlink:href="#Cmr10-31"/>
      <use transform="translate(160.87890625 3.1)scale(0.7)" xlink:href="#Cmr10-30"/>
      <use transform="translate(222.216796875 28.609375)" xlink:href="#Cmmi10-4c"/>
      <use transform="translate(290.234375 3.1)scale(0.7)" xlink:href="#Cmmi10-68"/>
      <use transform="translate(330.56640625 3.1)scale(0.7)" xlink:href="#Cmmi10-61"/>
      <use transform="translate(367.514648438 3.1)scale(0.7)" xlink:href="#Cmmi10-72"/>
      <use transform="translate(399.096679688 3.1)scale(0.7)" xlink:href="#Cmmi10-64"/>
     </g>
    </g>
   </g>
   <g id="patch_3">
    <path d="
M70.2 11.6531
L460.8 11.6531" style="fill:none;stroke:#000000;"/>
   </g>
   <g id="patch_4">
    <path d="
M460.8 299.653
L460.8 11.6531" style="fill:none;stroke:#000000;"/>
   </g>
   <g id="patch_5">
    <path d="
M70.2 299.653
L460.8 299.653" style="fill:none;stroke:#000000;"/>
   </g>
   <g id="patch_6">
    <path d="
M70.2 299.653
L70.2 11.6531" style="fill:none;stroke:#000000;"/>
   </g>
   <g id="legend_1">
    <g id="LineCollection_7">
     <defs>
      <path d="
M77.4 -320.341
L77.4 -326.341" id="C6_0_5b36af64f5"/>
      <path d="
M85.8 -320.341
L85.8 -326.341" id="C6_1_ab0a1c5a4f"/>
     </defs>
     <use style="fill:none;stroke:#0000ff;stroke-linecap:butt;" x="0" xlink:href="#C6_0_5b36af64f5" y="342.853125"/>
     <use style="fill:none;stroke:#0000ff;stroke-linecap:butt;" x="0" xlink:href="#C6_1_ab0a1c5a4f" y="342.853125"/>
    </g>
    <g id="line2d_45">
     <g>
      <use style="fill:#0000ff;stroke:#0000ff;stroke-linecap:butt;stroke-width:0.5;" x="77.4" xlink:href="#mef9c1b3008" y="22.5121875"/>
      <use style="fill:#0000ff;stroke:#0000ff;stroke-linecap:butt;stroke-width:0.5;" x="85.8" xlink:href="#mef9c1b3008" y="22.5121875"/>
     </g>
    </g>
    <g id="line2d_46">
     <g>
      <use style="fill:#0000ff;stroke:#0000ff;stroke-linecap:butt;stroke-width:0.5;" x="77.4" xlink:href="#mef9c1b3008" y="16.5121875"/>
      <use style="fill:#0000ff;stroke:#0000ff;stroke-linecap:butt;stroke-width:0.5;" x="85.8" xlink:href="#mef9c1b3008" y="16.5121875"/>
     </g>
    </g>
    <g id="line2d_47">
     <path d="
M77.4 19.5122
L85.8 19.5122" style="fill:none;stroke:#0000ff;"/>
    </g>
    <g id="line2d_48"/>
    <g id="text_16">
     <!-- $log_{10} N_H = 20.0$ -->
     <defs>
      <path d="
M4.98438 0
L4.98438 2.6875
Q4.98438 2.9375 5.17188 3.21875
L20.7031 20.4062
Q24.2188 24.2188 26.4062 26.7969
Q28.6094 29.3906 30.75 32.7656
Q32.9062 36.1406 34.1562 39.625
Q35.4062 43.1094 35.4062 47.0156
Q35.4062 51.125 33.8906 54.8594
Q32.375 58.5938 29.375 60.8438
Q26.375 63.0938 22.125 63.0938
Q17.7812 63.0938 14.3125 60.4688
Q10.8438 57.8594 9.42188 53.7188
Q9.8125 53.8125 10.5 53.8125
Q12.75 53.8125 14.3281 52.2969
Q15.9219 50.7812 15.9219 48.3906
Q15.9219 46.0938 14.3281 44.5
Q12.75 42.9219 10.5 42.9219
Q8.15625 42.9219 6.5625 44.5469
Q4.98438 46.1875 4.98438 48.3906
Q4.98438 52.1562 6.39062 55.4375
Q7.8125 58.7344 10.4688 61.2969
Q13.1406 63.875 16.4844 65.2344
Q19.8281 66.6094 23.5781 66.6094
Q29.2969 66.6094 34.2188 64.1875
Q39.1562 61.7656 42.0312 57.3438
Q44.9219 52.9375 44.9219 47.0156
Q44.9219 42.6719 43.0156 38.7656
Q41.1094 34.8594 38.125 31.6562
Q35.1562 28.4688 30.5156 24.4062
Q25.875 20.3594 24.4219 19
L13.0938 8.10938
L22.7031 8.10938
Q29.7812 8.10938 34.5469 8.21875
Q39.3125 8.34375 39.5938 8.59375
Q40.7656 9.85938 42 17.8281
L44.9219 17.8281
L42.0938 0
z
" id="Cmr10-32"/>
      <path d="
M4.6875 0
Q3.71875 0 3.71875 1.3125
Q3.76562 1.5625 3.90625 2.17188
Q4.04688 2.78125 4.3125 3.14062
Q4.59375 3.51562 4.98438 3.51562
Q14.5469 3.51562 16.1094 9.625
L29.6875 64.3125
Q26.9062 64.7969 20.9062 64.7969
Q19.9219 64.7969 19.9219 66.1094
Q19.9688 66.3594 20.1094 66.9688
Q20.2656 67.5781 20.5312 67.9375
Q20.7969 68.3125 21.1875 68.3125
L38.4844 68.3125
Q39.2031 68.3125 39.4062 67.6719
L61.625 14.7969
L72.7031 59.0781
Q72.9062 60.1562 72.9062 60.5938
Q72.9062 64.7969 65.1875 64.7969
Q64.2031 64.7969 64.2031 66.1094
Q64.5469 67.3906 64.7344 67.8438
Q64.9375 68.3125 65.9219 68.3125
L87.3125 68.3125
Q88.2812 68.3125 88.2812 67
Q88.2344 66.75 88.0781 66.1406
Q87.9375 65.5312 87.6719 65.1562
Q87.4062 64.7969 87.0156 64.7969
Q77.4375 64.7969 75.875 58.6875
L61.5312 0.875
Q61.1875 0 60.5 0
L59.2812 0
Q58.5938 0 58.4062 0.6875
L32.9062 61.1875
L32.7188 61.8125
Q32.5156 62.0156 32.5156 62.1094
L19.2812 9.1875
Q19.1875 8.9375 19.1406 8.5625
Q19.0938 8.20312 19 7.71875
Q19 5.125 21.2344 4.3125
Q23.4844 3.51562 26.8125 3.51562
Q27.7812 3.51562 27.7812 2.20312
Q27.4375 0.828125 27.1875 0.40625
Q26.9531 0 26.125 0
z
" id="Cmmi10-4e"/>
      <path d="
M7.51562 13.2812
Q6.6875 13.2812 6.14062 13.9062
Q5.60938 14.5469 5.60938 15.2812
Q5.60938 16.1094 6.14062 16.6875
Q6.6875 17.2812 7.51562 17.2812
L70.3125 17.2812
Q71.0469 17.2812 71.5781 16.6875
Q72.125 16.1094 72.125 15.2812
Q72.125 14.5469 71.5781 13.9062
Q71.0469 13.2812 70.3125 13.2812
z

M7.51562 32.7188
Q6.6875 32.7188 6.14062 33.2969
Q5.60938 33.8906 5.60938 34.7188
Q5.60938 35.4531 6.14062 36.0781
Q6.6875 36.7188 7.51562 36.7188
L70.3125 36.7188
Q71.0469 36.7188 71.5781 36.0781
Q72.125 35.4531 72.125 34.7188
Q72.125 33.8906 71.5781 33.2969
Q71.0469 32.7188 70.3125 32.7188
z
" id="Cmr10-3d"/>
      <path d="
M8.40625 5.51562
Q8.40625 7.76562 10.0625 9.375
Q11.7188 10.9844 13.9219 10.9844
Q15.2812 10.9844 16.5938 10.25
Q17.9219 9.51562 18.6562 8.20312
Q19.3906 6.89062 19.3906 5.51562
Q19.3906 3.32812 17.7656 1.65625
Q16.1562 0 13.9219 0
Q11.7188 0 10.0625 1.65625
Q8.40625 3.32812 8.40625 5.51562" id="Cmmi10-3a"/>
      <path d="
M4.6875 0
Q3.71875 0 3.71875 1.3125
Q3.76562 1.5625 3.90625 2.17188
Q4.04688 2.78125 4.3125 3.14062
Q4.59375 3.51562 4.98438 3.51562
Q11.0781 3.51562 13.4844 4.20312
Q14.7969 4.64062 15.375 6.89062
L29.1094 61.8125
Q29.2969 62.7969 29.2969 63.1875
Q29.2969 64.2656 28.0781 64.4062
Q26.2188 64.7969 20.9062 64.7969
Q19.9219 64.7969 19.9219 66.1094
Q20.2656 67.3906 20.4531 67.8438
Q20.6562 68.3125 21.5781 68.3125
L48.4844 68.3125
Q49.5156 68.3125 49.5156 67
Q49.4688 66.75 49.3125 66.1562
Q49.1719 65.5781 48.9219 65.1875
Q48.6875 64.7969 48.1875 64.7969
Q42.0938 64.7969 39.7031 64.1094
Q38.375 63.625 37.7969 61.375
L31.7812 37.3125
L61.8125 37.3125
L67.9219 61.8125
Q68.1094 62.7969 68.1094 63.1875
Q68.1094 64.2656 66.8906 64.4062
Q64.9844 64.7969 59.7188 64.7969
Q58.6875 64.7969 58.6875 66.1094
Q59.0312 67.3906 59.2188 67.8438
Q59.4219 68.3125 60.4062 68.3125
L87.3125 68.3125
Q88.2812 68.3125 88.2812 67
Q88.2344 66.75 88.0781 66.1406
Q87.9375 65.5312 87.6719 65.1562
Q87.4062 64.7969 87.0156 64.7969
Q80.9062 64.7969 78.5156 64.1094
Q77.2031 63.6719 76.6094 61.375
L62.8906 6.5
Q62.7031 5.51562 62.7031 5.07812
Q62.7031 4.04688 63.9219 3.90625
Q65.8281 3.51562 71.0938 3.51562
Q72.125 3.51562 72.125 2.20312
Q71.8281 1.03125 71.5312 0.515625
Q71.2344 0 70.4062 0
L43.5 0
Q42.4844 0 42.4844 1.3125
Q42.6719 2.04688 42.7656 2.39062
Q42.875 2.73438 43.1406 3.125
Q43.4062 3.51562 43.7969 3.51562
Q49.9062 3.51562 52.2969 4.20312
Q53.6094 4.64062 54.2031 6.89062
L60.8906 33.7969
L30.9062 33.7969
L24.125 6.5
Q23.875 5.28125 23.875 5.07812
Q23.875 4.04688 25.0938 3.90625
Q27 3.51562 32.3281 3.51562
Q33.2969 3.51562 33.2969 2.20312
Q32.9531 0.875 32.7344 0.4375
Q32.5156 0 31.5938 0
z
" id="Cmmi10-48"/>
     </defs>
     <g transform="translate(92.4 23.2921875)scale(0.06 -0.06)">
      <use transform="translate(0.0 28.609375)" xlink:href="#Cmmi10-6c"/>
      <use transform="translate(29.78515625 28.609375)" xlink:href="#Cmmi10-6f"/>
      <use transform="translate(78.173828125 28.609375)" xlink:href="#Cmmi10-67"/>
      <use transform="translate(125.87890625 3.1)scale(0.7)" xlink:href="#Cmr10-31"/>
      <use transform="translate(160.87890625 3.1)scale(0.7)" xlink:href="#Cmr10-30"/>
      <use transform="translate(195.87890625 28.609375)" xlink:href="#Cmmi10-4e"/>
      <use transform="translate(276.201171875 3.1)scale(0.7)" xlink:href="#Cmmi10-48"/>
      <use transform="translate(376.865234375 28.609375)" xlink:href="#Cmr10-3d"/>
      <use transform="translate(460.923828125 28.609375)" xlink:href="#Cmr10-32"/>
      <use transform="translate(510.923828125 28.609375)" xlink:href="#Cmr10-30"/>
      <use transform="translate(560.923828125 28.609375)" xlink:href="#Cmmi10-3a"/>
      <use transform="translate(589.466796875 28.609375)" xlink:href="#Cmr10-30"/>
     </g>
    </g>
    <g id="LineCollection_8">
     <defs>
      <path d="
M77.4 -311.102
L77.4 -317.102" id="C7_0_8f5ac2137f"/>
      <path d="
M85.8 -311.102
L85.8 -317.102" id="C7_1_32d535840e"/>
     </defs>
     <use style="fill:none;stroke:#008000;stroke-linecap:butt;" x="0" xlink:href="#C7_0_8f5ac2137f" y="342.853125"/>
     <use style="fill:none;stroke:#008000;stroke-linecap:butt;" x="0" xlink:href="#C7_1_32d535840e" y="342.853125"/>
    </g>
    <g id="line2d_49">
     <g>
      <use style="fill:#008000;stroke:#008000;stroke-linecap:butt;stroke-width:0.5;" x="77.4" xlink:href="#m63ac373c74" y="31.75125"/>
      <use style="fill:#008000;stroke:#008000;stroke-linecap:butt;stroke-width:0.5;" x="85.8" xlink:href="#m63ac373c74" y="31.75125"/>
     </g>
    </g>
    <g id="line2d_50">
     <g>
      <use style="fill:#008000;stroke:#008000;stroke-linecap:butt;stroke-width:0.5;" x="77.4" xlink:href="#m63ac373c74" y="25.75125"/>
      <use style="fill:#008000;stroke:#008000;stroke-linecap:butt;stroke-width:0.5;" x="85.8" xlink:href="#m63ac373c74" y="25.75125"/>
     </g>
    </g>
    <g id="line2d_51">
     <path d="
M77.4 28.7512
L85.8 28.7512" style="fill:none;stroke:#008000;"/>
    </g>
    <g id="line2d_52"/>
    <g id="text_17">
     <!-- $log_{10} N_H = 22.5$ -->
     <defs>
      <path d="
M8.6875 11.375
Q9.71875 8.45312 11.8438 6.04688
Q13.9688 3.65625 16.875 2.3125
Q19.7812 0.984375 22.9062 0.984375
Q30.125 0.984375 32.8594 6.59375
Q35.5938 12.2031 35.5938 20.2188
Q35.5938 23.6875 35.4688 26.0469
Q35.3594 28.4219 34.8125 30.6094
Q33.8906 34.125 31.5625 36.7656
Q29.25 39.4062 25.875 39.4062
Q22.5156 39.4062 20.0938 38.375
Q17.6719 37.3594 16.1562 35.9844
Q14.6562 34.625 13.4844 33.1094
Q12.3125 31.5938 12.0156 31.5
L10.8906 31.5
Q10.6406 31.5 10.2656 31.8125
Q9.90625 32.125 9.90625 32.4219
L9.90625 65.8281
Q9.90625 66.0625 10.2188 66.3281
Q10.5469 66.6094 10.8906 66.6094
L11.1875 66.6094
Q17.9219 63.375 25.4844 63.375
Q32.9062 63.375 39.7969 66.6094
L40.0938 66.6094
Q40.4375 66.6094 40.7188 66.3594
Q41.0156 66.1094 41.0156 65.8281
L41.0156 64.8906
Q41.0156 64.4062 40.8281 64.4062
Q37.4062 59.8594 32.25 57.3125
Q27.0938 54.7812 21.5781 54.7812
Q17.5781 54.7812 13.375 55.9062
L13.375 37.0156
Q16.7031 39.7031 19.3125 40.8438
Q21.9219 42 25.9844 42
Q31.5 42 35.8594 38.8125
Q40.2344 35.6406 42.5781 30.5312
Q44.9219 25.4375 44.9219 20.125
Q44.9219 14.1094 41.9688 8.98438
Q39.0156 3.85938 33.9375 0.828125
Q28.8594 -2.20312 22.9062 -2.20312
Q17.9688 -2.20312 13.8438 0.328125
Q9.71875 2.875 7.34375 7.17188
Q4.98438 11.4688 4.98438 16.3125
Q4.98438 18.5625 6.4375 19.9688
Q7.90625 21.3906 10.1094 21.3906
Q12.3125 21.3906 13.7969 19.9375
Q15.2812 18.5 15.2812 16.3125
Q15.2812 14.1562 13.7969 12.6719
Q12.3125 11.1875 10.1094 11.1875
Q9.76562 11.1875 9.32812 11.25
Q8.89062 11.3281 8.6875 11.375" id="Cmr10-35"/>
     </defs>
     <g transform="translate(92.4 32.53125)scale(0.06 -0.06)">
      <use transform="translate(0.0 28.609375)" xlink:href="#Cmmi10-6c"/>
      <use transform="translate(29.78515625 28.609375)" xlink:href="#Cmmi10-6f"/>
      <use transform="translate(78.173828125 28.609375)" xlink:href="#Cmmi10-67"/>
      <use transform="translate(125.87890625 3.1)scale(0.7)" xlink:href="#Cmr10-31"/>
      <use transform="translate(160.87890625 3.1)scale(0.7)" xlink:href="#Cmr10-30"/>
      <use transform="translate(195.87890625 28.609375)" xlink:href="#Cmmi10-4e"/>
      <use transform="translate(276.201171875 3.1)scale(0.7)" xlink:href="#Cmmi10-48"/>
      <use transform="translate(376.865234375 28.609375)" xlink:href="#Cmr10-3d"/>
      <use transform="translate(460.923828125 28.609375)" xlink:href="#Cmr10-32"/>
      <use transform="translate(510.923828125 28.609375)" xlink:href="#Cmr10-32"/>
      <use transform="translate(560.923828125 28.609375)" xlink:href="#Cmmi10-3a"/>
      <use transform="translate(589.466796875 28.609375)" xlink:href="#Cmr10-35"/>
     </g>
    </g>
    <g id="LineCollection_9">
     <defs>
      <path d="
M77.4 -301.863
L77.4 -307.863" id="C8_0_03b5e934da"/>
      <path d="
M85.8 -301.863
L85.8 -307.863" id="C8_1_c731c85180"/>
     </defs>
     <use style="fill:none;stroke:#ff0000;stroke-linecap:butt;" x="0" xlink:href="#C8_0_03b5e934da" y="342.853125"/>
     <use style="fill:none;stroke:#ff0000;stroke-linecap:butt;" x="0" xlink:href="#C8_1_c731c85180" y="342.853125"/>
    </g>
    <g id="line2d_53">
     <g>
      <use style="fill:#ff0000;stroke:#ff0000;stroke-linecap:butt;stroke-width:0.5;" x="77.4" xlink:href="#me778ecbd6c" y="40.9903125"/>
      <use style="fill:#ff0000;stroke:#ff0000;stroke-linecap:butt;stroke-width:0.5;" x="85.8" xlink:href="#me778ecbd6c" y="40.9903125"/>
     </g>
    </g>
    <g id="line2d_54">
     <g>
      <use style="fill:#ff0000;stroke:#ff0000;stroke-linecap:butt;stroke-width:0.5;" x="77.4" xlink:href="#me778ecbd6c" y="34.9903125"/>
      <use style="fill:#ff0000;stroke:#ff0000;stroke-linecap:butt;stroke-width:0.5;" x="85.8" xlink:href="#me778ecbd6c" y="34.9903125"/>
     </g>
    </g>
    <g id="line2d_55">
     <path d="
M77.4 37.9903
L85.8 37.9903" style="fill:none;stroke:#ff0000;"/>
    </g>
    <g id="line2d_56"/>
    <g id="text_18">
     <!-- $log_{10} N_H = 23.0$ -->
     <defs>
      <path d="
M9.51562 7.71875
Q11.8594 4.29688 15.8125 2.64062
Q19.7812 0.984375 24.3125 0.984375
Q30.125 0.984375 32.5625 5.9375
Q35.0156 10.8906 35.0156 17.1875
Q35.0156 20.0156 34.5 22.8438
Q33.9844 25.6875 32.7656 28.125
Q31.5469 30.5625 29.4219 32.0312
Q27.2969 33.5 24.2188 33.5
L17.5781 33.5
Q16.7031 33.5 16.7031 34.4219
L16.7031 35.2969
Q16.7031 36.0781 17.5781 36.0781
L23.0938 36.5312
Q26.6094 36.5312 28.9219 39.1562
Q31.25 41.7969 32.3281 45.5781
Q33.4062 49.3594 33.4062 52.7812
Q33.4062 57.5625 31.1562 60.6406
Q28.9062 63.7188 24.3125 63.7188
Q20.5156 63.7188 17.0469 62.2812
Q13.5781 60.8438 11.5312 57.9062
Q11.7188 57.9531 11.8594 57.9844
Q12.0156 58.0156 12.2031 58.0156
Q14.4531 58.0156 15.9688 56.4531
Q17.4844 54.8906 17.4844 52.6875
Q17.4844 50.5312 15.9688 48.9688
Q14.4531 47.4062 12.2031 47.4062
Q10.0156 47.4062 8.45312 48.9688
Q6.89062 50.5312 6.89062 52.6875
Q6.89062 56.9844 9.46875 60.1562
Q12.0625 63.3281 16.1406 64.9688
Q20.2188 66.6094 24.3125 66.6094
Q27.3438 66.6094 30.7031 65.7031
Q34.0781 64.7969 36.8125 63.1094
Q39.5469 61.4219 41.2812 58.7812
Q43.0156 56.1562 43.0156 52.7812
Q43.0156 48.5781 41.1406 45.0156
Q39.2656 41.4531 35.9844 38.8594
Q32.7188 36.2812 28.8125 35.0156
Q33.1562 34.1875 37.0625 31.7344
Q40.9688 29.2969 43.3281 25.4844
Q45.7031 21.6875 45.7031 17.2812
Q45.7031 11.7656 42.6719 7.29688
Q39.6562 2.82812 34.7188 0.3125
Q29.7812 -2.20312 24.3125 -2.20312
Q19.625 -2.20312 14.9062 -0.40625
Q10.2031 1.375 7.20312 4.9375
Q4.20312 8.5 4.20312 13.4844
Q4.20312 15.9688 5.85938 17.625
Q7.51562 19.2812 10.0156 19.2812
Q11.625 19.2812 12.9688 18.5312
Q14.3125 17.7812 15.0625 16.4062
Q15.8281 15.0469 15.8281 13.4844
Q15.8281 11.0312 14.1094 9.375
Q12.4062 7.71875 10.0156 7.71875
z
" id="Cmr10-33"/>
     </defs>
     <g transform="translate(92.4 41.7703125)scale(0.06 -0.06)">
      <use transform="translate(0.0 28.609375)" xlink:href="#Cmmi10-6c"/>
      <use transform="translate(29.78515625 28.609375)" xlink:href="#Cmmi10-6f"/>
      <use transform="translate(78.173828125 28.609375)" xlink:href="#Cmmi10-67"/>
      <use transform="translate(125.87890625 3.1)scale(0.7)" xlink:href="#Cmr10-31"/>
      <use transform="translate(160.87890625 3.1)scale(0.7)" xlink:href="#Cmr10-30"/>
      <use transform="translate(195.87890625 28.609375)" xlink:href="#Cmmi10-4e"/>
      <use transform="translate(276.201171875 3.1)scale(0.7)" xlink:href="#Cmmi10-48"/>
      <use transform="translate(376.865234375 28.609375)" xlink:href="#Cmr10-3d"/>
      <use transform="translate(460.923828125 28.609375)" xlink:href="#Cmr10-32"/>
      <use transform="translate(510.923828125 28.609375)" xlink:href="#Cmr10-33"/>
      <use transform="translate(560.923828125 28.609375)" xlink:href="#Cmmi10-3a"/>
      <use transform="translate(589.466796875 28.609375)" xlink:href="#Cmr10-30"/>
     </g>
    </g>
    <g id="LineCollection_10">
     <defs>
      <path d="
M77.4 -292.624
L77.4 -298.624" id="C9_0_ff3e7a0211"/>
      <path d="
M85.8 -292.624
L85.8 -298.624" id="C9_1_7b9e672577"/>
     </defs>
     <use style="fill:none;stroke:#00bfbf;stroke-linecap:butt;" x="0" xlink:href="#C9_0_ff3e7a0211" y="342.853125"/>
     <use style="fill:none;stroke:#00bfbf;stroke-linecap:butt;" x="0" xlink:href="#C9_1_7b9e672577" y="342.853125"/>
    </g>
    <g id="line2d_57">
     <g>
      <use style="fill:#00bfbf;stroke:#00bfbf;stroke-linecap:butt;stroke-width:0.5;" x="77.4" xlink:href="#m8f31f7398b" y="50.229375"/>
      <use style="fill:#00bfbf;stroke:#00bfbf;stroke-linecap:butt;stroke-width:0.5;" x="85.8" xlink:href="#m8f31f7398b" y="50.229375"/>
     </g>
    </g>
    <g id="line2d_58">
     <g>
      <use style="fill:#00bfbf;stroke:#00bfbf;stroke-linecap:butt;stroke-width:0.5;" x="77.4" xlink:href="#m8f31f7398b" y="44.229375"/>
      <use style="fill:#00bfbf;stroke:#00bfbf;stroke-linecap:butt;stroke-width:0.5;" x="85.8" xlink:href="#m8f31f7398b" y="44.229375"/>
     </g>
    </g>
    <g id="line2d_59">
     <path d="
M77.4 47.2294
L85.8 47.2294" style="fill:none;stroke:#00bfbf;"/>
    </g>
    <g id="line2d_60"/>
    <g id="text_19">
     <!-- $log_{10} N_H = 23.5$ -->
     <g transform="translate(92.4 51.009375)scale(0.06 -0.06)">
      <use transform="translate(0.0 28.609375)" xlink:href="#Cmmi10-6c"/>
      <use transform="translate(29.78515625 28.609375)" xlink:href="#Cmmi10-6f"/>
      <use transform="translate(78.173828125 28.609375)" xlink:href="#Cmmi10-67"/>
      <use transform="translate(125.87890625 3.1)scale(0.7)" xlink:href="#Cmr10-31"/>
      <use transform="translate(160.87890625 3.1)scale(0.7)" xlink:href="#Cmr10-30"/>
      <use transform="translate(195.87890625 28.609375)" xlink:href="#Cmmi10-4e"/>
      <use transform="translate(276.201171875 3.1)scale(0.7)" xlink:href="#Cmmi10-48"/>
      <use transform="translate(376.865234375 28.609375)" xlink:href="#Cmr10-3d"/>
      <use transform="translate(460.923828125 28.609375)" xlink:href="#Cmr10-32"/>
      <use transform="translate(510.923828125 28.609375)" xlink:href="#Cmr10-33"/>
      <use transform="translate(560.923828125 28.609375)" xlink:href="#Cmmi10-3a"/>
      <use transform="translate(589.466796875 28.609375)" xlink:href="#Cmr10-35"/>
     </g>
    </g>
    <g id="LineCollection_11">
     <defs>
      <path d="
M77.4 -283.385
L77.4 -289.385" id="Ca_0_d2894da514"/>
      <path d="
M85.8 -283.385
L85.8 -289.385" id="Ca_1_dca1ec8400"/>
     </defs>
     <use style="fill:none;stroke:#bf00bf;stroke-linecap:butt;" x="0" xlink:href="#Ca_0_d2894da514" y="342.853125"/>
     <use style="fill:none;stroke:#bf00bf;stroke-linecap:butt;" x="0" xlink:href="#Ca_1_dca1ec8400" y="342.853125"/>
    </g>
    <g id="line2d_61">
     <g>
      <use style="fill:#bf00bf;stroke:#bf00bf;stroke-linecap:butt;stroke-width:0.5;" x="77.4" xlink:href="#mdb2c5f90c7" y="59.4684375"/>
      <use style="fill:#bf00bf;stroke:#bf00bf;stroke-linecap:butt;stroke-width:0.5;" x="85.8" xlink:href="#mdb2c5f90c7" y="59.4684375"/>
     </g>
    </g>
    <g id="line2d_62">
     <g>
      <use style="fill:#bf00bf;stroke:#bf00bf;stroke-linecap:butt;stroke-width:0.5;" x="77.4" xlink:href="#mdb2c5f90c7" y="53.4684375"/>
      <use style="fill:#bf00bf;stroke:#bf00bf;stroke-linecap:butt;stroke-width:0.5;" x="85.8" xlink:href="#mdb2c5f90c7" y="53.4684375"/>
     </g>
    </g>
    <g id="line2d_63">
     <path d="
M77.4 56.4684
L85.8 56.4684" style="fill:none;stroke:#bf00bf;"/>
    </g>
    <g id="line2d_64"/>
    <g id="text_20">
     <!-- $log_{10} N_H = 24.0$ -->
     <defs>
      <path d="
M2.78125 16.5
L2.78125 20.0156
L33.6875 66.1094
Q34.0312 66.6094 34.7188 66.6094
L36.1875 66.6094
Q37.3125 66.6094 37.3125 65.4844
L37.3125 20.0156
L47.125 20.0156
L47.125 16.5
L37.3125 16.5
L37.3125 6.6875
Q37.3125 4.64062 40.2344 4.07812
Q43.1719 3.51562 47.0156 3.51562
L47.0156 0
L19.4844 0
L19.4844 3.51562
Q23.3438 3.51562 26.2656 4.07812
Q29.2031 4.64062 29.2031 6.6875
L29.2031 16.5
z

M6.10938 20.0156
L29.7812 20.0156
L29.7812 55.4219
z
" id="Cmr10-34"/>
     </defs>
     <g transform="translate(92.4 60.2484375)scale(0.06 -0.06)">
      <use transform="translate(0.0 28.609375)" xlink:href="#Cmmi10-6c"/>
      <use transform="translate(29.78515625 28.609375)" xlink:href="#Cmmi10-6f"/>
      <use transform="translate(78.173828125 28.609375)" xlink:href="#Cmmi10-67"/>
      <use transform="translate(125.87890625 3.1)scale(0.7)" xlink:href="#Cmr10-31"/>
      <use transform="translate(160.87890625 3.1)scale(0.7)" xlink:href="#Cmr10-30"/>
      <use transform="translate(195.87890625 28.609375)" xlink:href="#Cmmi10-4e"/>
      <use transform="translate(276.201171875 3.1)scale(0.7)" xlink:href="#Cmmi10-48"/>
      <use transform="translate(376.865234375 28.609375)" xlink:href="#Cmr10-3d"/>
      <use transform="translate(460.923828125 28.609375)" xlink:href="#Cmr10-32"/>
      <use transform="translate(510.923828125 28.609375)" xlink:href="#Cmr10-34"/>
      <use transform="translate(560.923828125 28.609375)" xlink:href="#Cmmi10-3a"/>
      <use transform="translate(589.466796875 28.609375)" xlink:href="#Cmr10-30"/>
     </g>
    </g>
    <g id="LineCollection_12">
     <defs>
      <path d="
M77.4 -274.146
L77.4 -280.146" id="Cb_0_78c40615ef"/>
      <path d="
M85.8 -274.146
L85.8 -280.146" id="Cb_1_ac5dfd51fd"/>
     </defs>
     <use style="fill:none;stroke:#bfbf00;stroke-linecap:butt;" x="0" xlink:href="#Cb_0_78c40615ef" y="342.853125"/>
     <use style="fill:none;stroke:#bfbf00;stroke-linecap:butt;" x="0" xlink:href="#Cb_1_ac5dfd51fd" y="342.853125"/>
    </g>
    <g id="line2d_65">
     <g>
      <use style="fill:#bfbf00;stroke:#bfbf00;stroke-linecap:butt;stroke-width:0.5;" x="77.4" xlink:href="#me7836d13e1" y="68.7075"/>
      <use style="fill:#bfbf00;stroke:#bfbf00;stroke-linecap:butt;stroke-width:0.5;" x="85.8" xlink:href="#me7836d13e1" y="68.7075"/>
     </g>
    </g>
    <g id="line2d_66">
     <g>
      <use style="fill:#bfbf00;stroke:#bfbf00;stroke-linecap:butt;stroke-width:0.5;" x="77.4" xlink:href="#me7836d13e1" y="62.7075"/>
      <use style="fill:#bfbf00;stroke:#bfbf00;stroke-linecap:butt;stroke-width:0.5;" x="85.8" xlink:href="#me7836d13e1" y="62.7075"/>
     </g>
    </g>
    <g id="line2d_67">
     <path d="
M77.4 65.7075
L85.8 65.7075" style="fill:none;stroke:#bfbf00;"/>
    </g>
    <g id="line2d_68"/>
    <g id="text_21">
     <!-- $log_{10} N_H = 26.0$ -->
     <defs>
      <path d="
M25 -2.20312
Q18.7969 -2.20312 14.6406 1.09375
Q10.5 4.39062 8.21875 9.64062
Q5.95312 14.8906 5.07812 20.6562
Q4.20312 26.4219 4.20312 32.3281
Q4.20312 40.2344 7.28125 48.1875
Q10.3594 56.1562 16.3281 61.375
Q22.3125 66.6094 30.5156 66.6094
Q33.9375 66.6094 36.8906 65.3125
Q39.8438 64.0156 41.5312 61.5
Q43.2188 58.9844 43.2188 55.4219
Q43.2188 53.375 41.8281 51.9844
Q40.4375 50.5938 38.375 50.5938
Q36.4219 50.5938 35 52
Q33.5938 53.4219 33.5938 55.4219
Q33.5938 57.375 35 58.7812
Q36.4219 60.2031 38.375 60.2031
L38.9219 60.2031
Q37.6406 62.0156 35.3281 62.8594
Q33.0156 63.7188 30.5156 63.7188
Q27.4844 63.7188 24.9219 62.3906
Q22.3594 61.0781 20.3125 58.8281
Q18.2656 56.5938 16.8906 53.875
Q15.5312 51.1719 14.7656 47.7031
Q14.0156 44.2344 13.8125 41.2031
Q13.625 38.1875 13.625 33.5938
Q15.375 37.7031 18.5938 40.3125
Q21.8281 42.9219 25.875 42.9219
Q30.3281 42.9219 33.9844 41.1094
Q37.6406 39.3125 40.2812 36.1094
Q42.9219 32.9062 44.3125 28.7969
Q45.7031 24.7031 45.7031 20.5156
Q45.7031 14.6562 43.0938 9.34375
Q40.4844 4.04688 35.7344 0.921875
Q31 -2.20312 25 -2.20312
M25 0.984375
Q28.8594 0.984375 31.2031 2.73438
Q33.5469 4.5 34.6406 7.39062
Q35.75 10.2969 36.0156 13.25
Q36.2812 16.2188 36.2812 20.5156
Q36.2812 26.1719 35.7344 30.1719
Q35.2031 34.1875 32.8125 37.2344
Q30.4219 40.2812 25.4844 40.2812
Q21.4375 40.2812 18.8281 37.5469
Q16.2188 34.8125 15.0156 30.6406
Q13.8125 26.4688 13.8125 22.6094
Q13.8125 21.2969 13.9219 20.6094
Q13.9219 20.4531 13.8906 20.3594
Q13.875 20.2656 13.8125 20.125
Q13.8125 15.8281 14.6875 11.4219
Q15.5781 7.03125 18.0625 4
Q20.5625 0.984375 25 0.984375" id="Cmr10-36"/>
     </defs>
     <g transform="translate(92.4 69.4875)scale(0.06 -0.06)">
      <use transform="translate(0.0 28.609375)" xlink:href="#Cmmi10-6c"/>
      <use transform="translate(29.78515625 28.609375)" xlink:href="#Cmmi10-6f"/>
      <use transform="translate(78.173828125 28.609375)" xlink:href="#Cmmi10-67"/>
      <use transform="translate(125.87890625 3.1)scale(0.7)" xlink:href="#Cmr10-31"/>
      <use transform="translate(160.87890625 3.1)scale(0.7)" xlink:href="#Cmr10-30"/>
      <use transform="translate(195.87890625 28.609375)" xlink:href="#Cmmi10-4e"/>
      <use transform="translate(276.201171875 3.1)scale(0.7)" xlink:href="#Cmmi10-48"/>
      <use transform="translate(376.865234375 28.609375)" xlink:href="#Cmr10-3d"/>
      <use transform="translate(460.923828125 28.609375)" xlink:href="#Cmr10-32"/>
      <use transform="translate(510.923828125 28.609375)" xlink:href="#Cmr10-36"/>
      <use transform="translate(560.923828125 28.609375)" xlink:href="#Cmmi10-3a"/>
      <use transform="translate(589.466796875 28.609375)" xlink:href="#Cmr10-30"/>
     </g>
    </g>
   </g>
  </g>
 </g>
 <defs>
  <clipPath id="p0c45f87048">
   <rect height="288.0" width="390.6" x="70.2" y="11.653125"/>
  </clipPath>
 </defs>
</svg>
