<?xml version="1.0" encoding="UTF-8" standalone="no"?>
<!DOCTYPE svg PUBLIC "-//W3C//DTD SVG 1.0//EN" "http://www.w3.org/TR/2001/PR-SVG-20010719/DTD/svg10.dtd">
<svg width="22cm" height="9cm" viewBox="45 33 440 176" xmlns="http://www.w3.org/2000/svg" xmlns:xlink="http://www.w3.org/1999/xlink">
  <g>
    <polygon style="fill: #ffa500" points="46.3407,82.2469 47.1618,75.6785 54.5512,72.3943 61.9407,75.6785 62.7618,82.2469 58.6565,87.9943 50.446,87.9943 "/>
    <polygon style="fill: none; fill-opacity:0; stroke-width: 2; stroke: #8b6914" points="46.3407,82.2469 47.1618,75.6785 54.5512,72.3943 61.9407,75.6785 62.7618,82.2469 58.6565,87.9943 50.446,87.9943 "/>
    <polygon style="fill: none; fill-opacity:0; stroke-width: 0.2; stroke: #8b6914" points="46.3407,82.2469 47.1618,75.6785 54.5512,72.3943 61.9407,75.6785 62.7618,82.2469 58.6565,87.9943 50.446,87.9943 "/>
  </g>
  <g>
    <polygon style="fill: #ffa500" points="86.3407,82.2469 87.1618,75.6785 94.5512,72.3943 101.941,75.6785 102.762,82.2469 98.6565,87.9943 90.446,87.9943 "/>
    <polygon style="fill: none; fill-opacity:0; stroke-width: 2; stroke: #8b6914" points="86.3407,82.2469 87.1618,75.6785 94.5512,72.3943 101.941,75.6785 102.762,82.2469 98.6565,87.9943 90.446,87.9943 "/>
    <polygon style="fill: none; fill-opacity:0; stroke-width: 0.2; stroke: #8b6914" points="86.3407,82.2469 87.1618,75.6785 94.5512,72.3943 101.941,75.6785 102.762,82.2469 98.6565,87.9943 90.446,87.9943 "/>
  </g>
  <g>
    <polygon style="fill: #ffa500" points="126.341,82.2469 127.162,75.6785 134.551,72.3943 141.941,75.6785 142.762,82.2469 138.657,87.9943 130.446,87.9943 "/>
    <polygon style="fill: none; fill-opacity:0; stroke-width: 2; stroke: #8b6914" points="126.341,82.2469 127.162,75.6785 134.551,72.3943 141.941,75.6785 142.762,82.2469 138.657,87.9943 130.446,87.9943 "/>
    <polygon style="fill: none; fill-opacity:0; stroke-width: 0.2; stroke: #8b6914" points="126.341,82.2469 127.162,75.6785 134.551,72.3943 141.941,75.6785 142.762,82.2469 138.657,87.9943 130.446,87.9943 "/>
  </g>
  <g>
    <polygon style="fill: #ffa500" points="166.341,82.2469 167.162,75.6785 174.551,72.3943 181.941,75.6785 182.762,82.2469 178.657,87.9943 170.446,87.9943 "/>
    <polygon style="fill: none; fill-opacity:0; stroke-width: 2; stroke: #8b6914" points="166.341,82.2469 167.162,75.6785 174.551,72.3943 181.941,75.6785 182.762,82.2469 178.657,87.9943 170.446,87.9943 "/>
    <polygon style="fill: none; fill-opacity:0; stroke-width: 0.2; stroke: #8b6914" points="166.341,82.2469 167.162,75.6785 174.551,72.3943 181.941,75.6785 182.762,82.2469 178.657,87.9943 170.446,87.9943 "/>
  </g>
  <g>
    <polygon style="fill: #ffa500" points="206.341,82.2469 207.162,75.6785 214.551,72.3943 221.941,75.6785 222.762,82.2469 218.657,87.9943 210.446,87.9943 "/>
    <polygon style="fill: none; fill-opacity:0; stroke-width: 2; stroke: #8b6914" points="206.341,82.2469 207.162,75.6785 214.551,72.3943 221.941,75.6785 222.762,82.2469 218.657,87.9943 210.446,87.9943 "/>
    <polygon style="fill: none; fill-opacity:0; stroke-width: 0.2; stroke: #8b6914" points="206.341,82.2469 207.162,75.6785 214.551,72.3943 221.941,75.6785 222.762,82.2469 218.657,87.9943 210.446,87.9943 "/>
  </g>
  <g>
    <polygon style="fill: #ffa500" points="46.3407,112.247 47.1618,105.679 54.5512,102.394 61.9407,105.679 62.7618,112.247 58.6565,117.994 50.446,117.994 "/>
    <polygon style="fill: none; fill-opacity:0; stroke-width: 2; stroke: #8b6914" points="46.3407,112.247 47.1618,105.679 54.5512,102.394 61.9407,105.679 62.7618,112.247 58.6565,117.994 50.446,117.994 "/>
    <polygon style="fill: none; fill-opacity:0; stroke-width: 0.2; stroke: #8b6914" points="46.3407,112.247 47.1618,105.679 54.5512,102.394 61.9407,105.679 62.7618,112.247 58.6565,117.994 50.446,117.994 "/>
  </g>
  <g>
    <polygon style="fill: #ffa500" points="86.3407,112.247 87.1618,105.679 94.5512,102.394 101.941,105.679 102.762,112.247 98.6565,117.994 90.446,117.994 "/>
    <polygon style="fill: none; fill-opacity:0; stroke-width: 2; stroke: #8b6914" points="86.3407,112.247 87.1618,105.679 94.5512,102.394 101.941,105.679 102.762,112.247 98.6565,117.994 90.446,117.994 "/>
    <polygon style="fill: none; fill-opacity:0; stroke-width: 0.2; stroke: #8b6914" points="86.3407,112.247 87.1618,105.679 94.5512,102.394 101.941,105.679 102.762,112.247 98.6565,117.994 90.446,117.994 "/>
  </g>
  <g>
    <polygon style="fill: #ffa500" points="126.341,112.247 127.162,105.679 134.551,102.394 141.941,105.679 142.762,112.247 138.657,117.994 130.446,117.994 "/>
    <polygon style="fill: none; fill-opacity:0; stroke-width: 2; stroke: #8b6914" points="126.341,112.247 127.162,105.679 134.551,102.394 141.941,105.679 142.762,112.247 138.657,117.994 130.446,117.994 "/>
    <polygon style="fill: none; fill-opacity:0; stroke-width: 0.2; stroke: #8b6914" points="126.341,112.247 127.162,105.679 134.551,102.394 141.941,105.679 142.762,112.247 138.657,117.994 130.446,117.994 "/>
  </g>
  <g>
    <polygon style="fill: #ffa500" points="166.341,112.247 167.162,105.679 174.551,102.394 181.941,105.679 182.762,112.247 178.657,117.994 170.446,117.994 "/>
    <polygon style="fill: none; fill-opacity:0; stroke-width: 2; stroke: #8b6914" points="166.341,112.247 167.162,105.679 174.551,102.394 181.941,105.679 182.762,112.247 178.657,117.994 170.446,117.994 "/>
    <polygon style="fill: none; fill-opacity:0; stroke-width: 0.2; stroke: #8b6914" points="166.341,112.247 167.162,105.679 174.551,102.394 181.941,105.679 182.762,112.247 178.657,117.994 170.446,117.994 "/>
  </g>
  <g>
    <polygon style="fill: #ffa500" points="206.341,112.247 207.162,105.679 214.551,102.394 221.941,105.679 222.762,112.247 218.657,117.994 210.446,117.994 "/>
    <polygon style="fill: none; fill-opacity:0; stroke-width: 2; stroke: #8b6914" points="206.341,112.247 207.162,105.679 214.551,102.394 221.941,105.679 222.762,112.247 218.657,117.994 210.446,117.994 "/>
    <polygon style="fill: none; fill-opacity:0; stroke-width: 0.2; stroke: #8b6914" points="206.341,112.247 207.162,105.679 214.551,102.394 221.941,105.679 222.762,112.247 218.657,117.994 210.446,117.994 "/>
  </g>
  <g>
    <polygon style="fill: #ffa500" points="46.3407,142.247 47.1618,135.679 54.5512,132.394 61.9407,135.679 62.7618,142.247 58.6565,147.994 50.446,147.994 "/>
    <polygon style="fill: none; fill-opacity:0; stroke-width: 2; stroke: #8b6914" points="46.3407,142.247 47.1618,135.679 54.5512,132.394 61.9407,135.679 62.7618,142.247 58.6565,147.994 50.446,147.994 "/>
    <polygon style="fill: none; fill-opacity:0; stroke-width: 0.2; stroke: #8b6914" points="46.3407,142.247 47.1618,135.679 54.5512,132.394 61.9407,135.679 62.7618,142.247 58.6565,147.994 50.446,147.994 "/>
  </g>
  <g>
    <polygon style="fill: #ffa500" points="86.3407,142.247 87.1618,135.679 94.5512,132.394 101.941,135.679 102.762,142.247 98.6565,147.994 90.446,147.994 "/>
    <polygon style="fill: none; fill-opacity:0; stroke-width: 2; stroke: #8b6914" points="86.3407,142.247 87.1618,135.679 94.5512,132.394 101.941,135.679 102.762,142.247 98.6565,147.994 90.446,147.994 "/>
    <polygon style="fill: none; fill-opacity:0; stroke-width: 0.2; stroke: #8b6914" points="86.3407,142.247 87.1618,135.679 94.5512,132.394 101.941,135.679 102.762,142.247 98.6565,147.994 90.446,147.994 "/>
  </g>
  <g>
    <polygon style="fill: #ffa500" points="126.341,142.247 127.162,135.679 134.551,132.394 141.941,135.679 142.762,142.247 138.657,147.994 130.446,147.994 "/>
    <polygon style="fill: none; fill-opacity:0; stroke-width: 2; stroke: #8b6914" points="126.341,142.247 127.162,135.679 134.551,132.394 141.941,135.679 142.762,142.247 138.657,147.994 130.446,147.994 "/>
    <polygon style="fill: none; fill-opacity:0; stroke-width: 0.2; stroke: #8b6914" points="126.341,142.247 127.162,135.679 134.551,132.394 141.941,135.679 142.762,142.247 138.657,147.994 130.446,147.994 "/>
  </g>
  <g>
    <polygon style="fill: #ffa500" points="166.341,142.247 167.162,135.679 174.551,132.394 181.941,135.679 182.762,142.247 178.657,147.994 170.446,147.994 "/>
    <polygon style="fill: none; fill-opacity:0; stroke-width: 2; stroke: #8b6914" points="166.341,142.247 167.162,135.679 174.551,132.394 181.941,135.679 182.762,142.247 178.657,147.994 170.446,147.994 "/>
    <polygon style="fill: none; fill-opacity:0; stroke-width: 0.2; stroke: #8b6914" points="166.341,142.247 167.162,135.679 174.551,132.394 181.941,135.679 182.762,142.247 178.657,147.994 170.446,147.994 "/>
  </g>
  <g>
    <polygon style="fill: #ffa500" points="206.341,142.247 207.162,135.679 214.551,132.394 221.941,135.679 222.762,142.247 218.657,147.994 210.446,147.994 "/>
    <polygon style="fill: none; fill-opacity:0; stroke-width: 2; stroke: #8b6914" points="206.341,142.247 207.162,135.679 214.551,132.394 221.941,135.679 222.762,142.247 218.657,147.994 210.446,147.994 "/>
    <polygon style="fill: none; fill-opacity:0; stroke-width: 0.2; stroke: #8b6914" points="206.341,142.247 207.162,135.679 214.551,132.394 221.941,135.679 222.762,142.247 218.657,147.994 210.446,147.994 "/>
  </g>
  <g>
    <polygon style="fill: #ffa500" points="46.3407,172.247 47.1618,165.679 54.5512,162.394 61.9407,165.679 62.7618,172.247 58.6565,177.994 50.446,177.994 "/>
    <polygon style="fill: none; fill-opacity:0; stroke-width: 2; stroke: #8b6914" points="46.3407,172.247 47.1618,165.679 54.5512,162.394 61.9407,165.679 62.7618,172.247 58.6565,177.994 50.446,177.994 "/>
    <polygon style="fill: none; fill-opacity:0; stroke-width: 0.2; stroke: #8b6914" points="46.3407,172.247 47.1618,165.679 54.5512,162.394 61.9407,165.679 62.7618,172.247 58.6565,177.994 50.446,177.994 "/>
  </g>
  <g>
    <polygon style="fill: #ffa500" points="86.3407,172.247 87.1618,165.679 94.5512,162.394 101.941,165.679 102.762,172.247 98.6565,177.994 90.446,177.994 "/>
    <polygon style="fill: none; fill-opacity:0; stroke-width: 2; stroke: #8b6914" points="86.3407,172.247 87.1618,165.679 94.5512,162.394 101.941,165.679 102.762,172.247 98.6565,177.994 90.446,177.994 "/>
    <polygon style="fill: none; fill-opacity:0; stroke-width: 0.2; stroke: #8b6914" points="86.3407,172.247 87.1618,165.679 94.5512,162.394 101.941,165.679 102.762,172.247 98.6565,177.994 90.446,177.994 "/>
  </g>
  <g>
    <polygon style="fill: #ffa500" points="126.341,172.247 127.162,165.679 134.551,162.394 141.941,165.679 142.762,172.247 138.657,177.994 130.446,177.994 "/>
    <polygon style="fill: none; fill-opacity:0; stroke-width: 2; stroke: #8b6914" points="126.341,172.247 127.162,165.679 134.551,162.394 141.941,165.679 142.762,172.247 138.657,177.994 130.446,177.994 "/>
    <polygon style="fill: none; fill-opacity:0; stroke-width: 0.2; stroke: #8b6914" points="126.341,172.247 127.162,165.679 134.551,162.394 141.941,165.679 142.762,172.247 138.657,177.994 130.446,177.994 "/>
  </g>
  <g>
    <polygon style="fill: #ffa500" points="166.341,172.247 167.162,165.679 174.551,162.394 181.941,165.679 182.762,172.247 178.657,177.994 170.446,177.994 "/>
    <polygon style="fill: none; fill-opacity:0; stroke-width: 2; stroke: #8b6914" points="166.341,172.247 167.162,165.679 174.551,162.394 181.941,165.679 182.762,172.247 178.657,177.994 170.446,177.994 "/>
    <polygon style="fill: none; fill-opacity:0; stroke-width: 0.2; stroke: #8b6914" points="166.341,172.247 167.162,165.679 174.551,162.394 181.941,165.679 182.762,172.247 178.657,177.994 170.446,177.994 "/>
  </g>
  <g>
    <polygon style="fill: #ffa500" points="206.341,172.247 207.162,165.679 214.551,162.394 221.941,165.679 222.762,172.247 218.657,177.994 210.446,177.994 "/>
    <polygon style="fill: none; fill-opacity:0; stroke-width: 2; stroke: #8b6914" points="206.341,172.247 207.162,165.679 214.551,162.394 221.941,165.679 222.762,172.247 218.657,177.994 210.446,177.994 "/>
    <polygon style="fill: none; fill-opacity:0; stroke-width: 0.2; stroke: #8b6914" points="206.341,172.247 207.162,165.679 214.551,162.394 221.941,165.679 222.762,172.247 218.657,177.994 210.446,177.994 "/>
  </g>
  <g>
    <polygon style="fill: #ffa500" points="46.3407,202.247 47.1618,195.679 54.5512,192.394 61.9407,195.679 62.7618,202.247 58.6565,207.994 50.446,207.994 "/>
    <polygon style="fill: none; fill-opacity:0; stroke-width: 2; stroke: #8b6914" points="46.3407,202.247 47.1618,195.679 54.5512,192.394 61.9407,195.679 62.7618,202.247 58.6565,207.994 50.446,207.994 "/>
    <polygon style="fill: none; fill-opacity:0; stroke-width: 0.2; stroke: #8b6914" points="46.3407,202.247 47.1618,195.679 54.5512,192.394 61.9407,195.679 62.7618,202.247 58.6565,207.994 50.446,207.994 "/>
  </g>
  <g>
    <polygon style="fill: #ffa500" points="86.3407,202.247 87.1618,195.679 94.5512,192.394 101.941,195.679 102.762,202.247 98.6565,207.994 90.446,207.994 "/>
    <polygon style="fill: none; fill-opacity:0; stroke-width: 2; stroke: #8b6914" points="86.3407,202.247 87.1618,195.679 94.5512,192.394 101.941,195.679 102.762,202.247 98.6565,207.994 90.446,207.994 "/>
    <polygon style="fill: none; fill-opacity:0; stroke-width: 0.2; stroke: #8b6914" points="86.3407,202.247 87.1618,195.679 94.5512,192.394 101.941,195.679 102.762,202.247 98.6565,207.994 90.446,207.994 "/>
  </g>
  <g>
    <polygon style="fill: #ffa500" points="126.341,202.247 127.162,195.679 134.551,192.394 141.941,195.679 142.762,202.247 138.657,207.994 130.446,207.994 "/>
    <polygon style="fill: none; fill-opacity:0; stroke-width: 2; stroke: #8b6914" points="126.341,202.247 127.162,195.679 134.551,192.394 141.941,195.679 142.762,202.247 138.657,207.994 130.446,207.994 "/>
    <polygon style="fill: none; fill-opacity:0; stroke-width: 0.2; stroke: #8b6914" points="126.341,202.247 127.162,195.679 134.551,192.394 141.941,195.679 142.762,202.247 138.657,207.994 130.446,207.994 "/>
  </g>
  <g>
    <polygon style="fill: #ffa500" points="166.341,202.247 167.162,195.679 174.551,192.394 181.941,195.679 182.762,202.247 178.657,207.994 170.446,207.994 "/>
    <polygon style="fill: none; fill-opacity:0; stroke-width: 2; stroke: #8b6914" points="166.341,202.247 167.162,195.679 174.551,192.394 181.941,195.679 182.762,202.247 178.657,207.994 170.446,207.994 "/>
    <polygon style="fill: none; fill-opacity:0; stroke-width: 0.2; stroke: #8b6914" points="166.341,202.247 167.162,195.679 174.551,192.394 181.941,195.679 182.762,202.247 178.657,207.994 170.446,207.994 "/>
  </g>
  <g>
    <polygon style="fill: #ffa500" points="206.341,202.247 207.162,195.679 214.551,192.394 221.941,195.679 222.762,202.247 218.657,207.994 210.446,207.994 "/>
    <polygon style="fill: none; fill-opacity:0; stroke-width: 2; stroke: #8b6914" points="206.341,202.247 207.162,195.679 214.551,192.394 221.941,195.679 222.762,202.247 218.657,207.994 210.446,207.994 "/>
    <polygon style="fill: none; fill-opacity:0; stroke-width: 0.2; stroke: #8b6914" points="206.341,202.247 207.162,195.679 214.551,192.394 221.941,195.679 222.762,202.247 218.657,207.994 210.446,207.994 "/>
  </g>
  <g>
    <polygon style="fill: #ffa500" points="307.641,118.547 308.462,111.979 315.851,108.694 323.241,111.979 324.062,118.547 319.957,124.294 311.746,124.294 "/>
    <polygon style="fill: none; fill-opacity:0; stroke-width: 2; stroke: #8b6914" points="307.641,118.547 308.462,111.979 315.851,108.694 323.241,111.979 324.062,118.547 319.957,124.294 311.746,124.294 "/>
    <polygon style="fill: none; fill-opacity:0; stroke-width: 0.2; stroke: #8b6914" points="307.641,118.547 308.462,111.979 315.851,108.694 323.241,111.979 324.062,118.547 319.957,124.294 311.746,124.294 "/>
  </g>
  <g>
    <polygon style="fill: #ffa500" points="347.641,118.547 348.462,111.979 355.851,108.694 363.241,111.979 364.062,118.547 359.957,124.294 351.746,124.294 "/>
    <polygon style="fill: none; fill-opacity:0; stroke-width: 2; stroke: #8b6914" points="347.641,118.547 348.462,111.979 355.851,108.694 363.241,111.979 364.062,118.547 359.957,124.294 351.746,124.294 "/>
    <polygon style="fill: none; fill-opacity:0; stroke-width: 0.2; stroke: #8b6914" points="347.641,118.547 348.462,111.979 355.851,108.694 363.241,111.979 364.062,118.547 359.957,124.294 351.746,124.294 "/>
  </g>
  <g>
    <polygon style="fill: #ffa500" points="387.641,118.547 388.462,111.979 395.851,108.694 403.241,111.979 404.062,118.547 399.957,124.294 391.746,124.294 "/>
    <polygon style="fill: none; fill-opacity:0; stroke-width: 2; stroke: #8b6914" points="387.641,118.547 388.462,111.979 395.851,108.694 403.241,111.979 404.062,118.547 399.957,124.294 391.746,124.294 "/>
    <polygon style="fill: none; fill-opacity:0; stroke-width: 0.2; stroke: #8b6914" points="387.641,118.547 388.462,111.979 395.851,108.694 403.241,111.979 404.062,118.547 399.957,124.294 391.746,124.294 "/>
  </g>
  <g>
    <polygon style="fill: #ffa500" points="427.641,118.547 428.462,111.979 435.851,108.694 443.241,111.979 444.062,118.547 439.957,124.294 431.746,124.294 "/>
    <polygon style="fill: none; fill-opacity:0; stroke-width: 2; stroke: #8b6914" points="427.641,118.547 428.462,111.979 435.851,108.694 443.241,111.979 444.062,118.547 439.957,124.294 431.746,124.294 "/>
    <polygon style="fill: none; fill-opacity:0; stroke-width: 0.2; stroke: #8b6914" points="427.641,118.547 428.462,111.979 435.851,108.694 443.241,111.979 444.062,118.547 439.957,124.294 431.746,124.294 "/>
  </g>
  <g>
    <polygon style="fill: #ffa500" points="467.641,118.547 468.462,111.979 475.851,108.694 483.241,111.979 484.062,118.547 479.957,124.294 471.746,124.294 "/>
    <polygon style="fill: none; fill-opacity:0; stroke-width: 2; stroke: #8b6914" points="467.641,118.547 468.462,111.979 475.851,108.694 483.241,111.979 484.062,118.547 479.957,124.294 471.746,124.294 "/>
    <polygon style="fill: none; fill-opacity:0; stroke-width: 0.2; stroke: #8b6914" points="467.641,118.547 468.462,111.979 475.851,108.694 483.241,111.979 484.062,118.547 479.957,124.294 471.746,124.294 "/>
  </g>
  <g>
    <polygon style="fill: #ffa500" points="307.641,144.547 308.462,137.979 315.851,134.694 323.241,137.979 324.062,144.547 319.957,150.294 311.746,150.294 "/>
    <polygon style="fill: none; fill-opacity:0; stroke-width: 2; stroke: #8b6914" points="307.641,144.547 308.462,137.979 315.851,134.694 323.241,137.979 324.062,144.547 319.957,150.294 311.746,150.294 "/>
    <polygon style="fill: none; fill-opacity:0; stroke-width: 0.2; stroke: #8b6914" points="307.641,144.547 308.462,137.979 315.851,134.694 323.241,137.979 324.062,144.547 319.957,150.294 311.746,150.294 "/>
  </g>
  <g>
    <polygon style="fill: #ffa500" points="347.641,144.547 348.462,137.979 355.851,134.694 363.241,137.979 364.062,144.547 359.957,150.294 351.746,150.294 "/>
    <polygon style="fill: none; fill-opacity:0; stroke-width: 2; stroke: #8b6914" points="347.641,144.547 348.462,137.979 355.851,134.694 363.241,137.979 364.062,144.547 359.957,150.294 351.746,150.294 "/>
    <polygon style="fill: none; fill-opacity:0; stroke-width: 0.2; stroke: #8b6914" points="347.641,144.547 348.462,137.979 355.851,134.694 363.241,137.979 364.062,144.547 359.957,150.294 351.746,150.294 "/>
  </g>
  <g>
    <polygon style="fill: #ffa500" points="387.641,144.547 388.462,137.979 395.851,134.694 403.241,137.979 404.062,144.547 399.957,150.294 391.746,150.294 "/>
    <polygon style="fill: none; fill-opacity:0; stroke-width: 2; stroke: #8b6914" points="387.641,144.547 388.462,137.979 395.851,134.694 403.241,137.979 404.062,144.547 399.957,150.294 391.746,150.294 "/>
    <polygon style="fill: none; fill-opacity:0; stroke-width: 0.2; stroke: #8b6914" points="387.641,144.547 388.462,137.979 395.851,134.694 403.241,137.979 404.062,144.547 399.957,150.294 391.746,150.294 "/>
  </g>
  <g>
    <polygon style="fill: #ffa500" points="427.641,144.547 428.462,137.979 435.851,134.694 443.241,137.979 444.062,144.547 439.957,150.294 431.746,150.294 "/>
    <polygon style="fill: none; fill-opacity:0; stroke-width: 2; stroke: #8b6914" points="427.641,144.547 428.462,137.979 435.851,134.694 443.241,137.979 444.062,144.547 439.957,150.294 431.746,150.294 "/>
    <polygon style="fill: none; fill-opacity:0; stroke-width: 0.2; stroke: #8b6914" points="427.641,144.547 428.462,137.979 435.851,134.694 443.241,137.979 444.062,144.547 439.957,150.294 431.746,150.294 "/>
  </g>
  <g>
    <polygon style="fill: #ffa500" points="467.641,144.547 468.462,137.979 475.851,134.694 483.241,137.979 484.062,144.547 479.957,150.294 471.746,150.294 "/>
    <polygon style="fill: none; fill-opacity:0; stroke-width: 2; stroke: #8b6914" points="467.641,144.547 468.462,137.979 475.851,134.694 483.241,137.979 484.062,144.547 479.957,150.294 471.746,150.294 "/>
    <polygon style="fill: none; fill-opacity:0; stroke-width: 0.2; stroke: #8b6914" points="467.641,144.547 468.462,137.979 475.851,134.694 483.241,137.979 484.062,144.547 479.957,150.294 471.746,150.294 "/>
  </g>
  <g>
    <polygon style="fill: #ffa500" points="307.641,170.547 308.462,163.979 315.851,160.694 323.241,163.979 324.062,170.547 319.957,176.294 311.746,176.294 "/>
    <polygon style="fill: none; fill-opacity:0; stroke-width: 2; stroke: #8b6914" points="307.641,170.547 308.462,163.979 315.851,160.694 323.241,163.979 324.062,170.547 319.957,176.294 311.746,176.294 "/>
    <polygon style="fill: none; fill-opacity:0; stroke-width: 0.2; stroke: #8b6914" points="307.641,170.547 308.462,163.979 315.851,160.694 323.241,163.979 324.062,170.547 319.957,176.294 311.746,176.294 "/>
  </g>
  <g>
    <polygon style="fill: #ffa500" points="347.641,170.547 348.462,163.979 355.851,160.694 363.241,163.979 364.062,170.547 359.957,176.294 351.746,176.294 "/>
    <polygon style="fill: none; fill-opacity:0; stroke-width: 2; stroke: #8b6914" points="347.641,170.547 348.462,163.979 355.851,160.694 363.241,163.979 364.062,170.547 359.957,176.294 351.746,176.294 "/>
    <polygon style="fill: none; fill-opacity:0; stroke-width: 0.2; stroke: #8b6914" points="347.641,170.547 348.462,163.979 355.851,160.694 363.241,163.979 364.062,170.547 359.957,176.294 351.746,176.294 "/>
  </g>
  <g>
    <polygon style="fill: #ffa500" points="387.641,170.547 388.462,163.979 395.851,160.694 403.241,163.979 404.062,170.547 399.957,176.294 391.746,176.294 "/>
    <polygon style="fill: none; fill-opacity:0; stroke-width: 2; stroke: #8b6914" points="387.641,170.547 388.462,163.979 395.851,160.694 403.241,163.979 404.062,170.547 399.957,176.294 391.746,176.294 "/>
    <polygon style="fill: none; fill-opacity:0; stroke-width: 0.2; stroke: #8b6914" points="387.641,170.547 388.462,163.979 395.851,160.694 403.241,163.979 404.062,170.547 399.957,176.294 391.746,176.294 "/>
  </g>
  <g>
    <polygon style="fill: #ffa500" points="427.641,170.547 428.462,163.979 435.851,160.694 443.241,163.979 444.062,170.547 439.957,176.294 431.746,176.294 "/>
    <polygon style="fill: none; fill-opacity:0; stroke-width: 2; stroke: #8b6914" points="427.641,170.547 428.462,163.979 435.851,160.694 443.241,163.979 444.062,170.547 439.957,176.294 431.746,176.294 "/>
    <polygon style="fill: none; fill-opacity:0; stroke-width: 0.2; stroke: #8b6914" points="427.641,170.547 428.462,163.979 435.851,160.694 443.241,163.979 444.062,170.547 439.957,176.294 431.746,176.294 "/>
  </g>
  <g>
    <polygon style="fill: #ffa500" points="467.641,170.547 468.462,163.979 475.851,160.694 483.241,163.979 484.062,170.547 479.957,176.294 471.746,176.294 "/>
    <polygon style="fill: none; fill-opacity:0; stroke-width: 2; stroke: #8b6914" points="467.641,170.547 468.462,163.979 475.851,160.694 483.241,163.979 484.062,170.547 479.957,176.294 471.746,176.294 "/>
    <polygon style="fill: none; fill-opacity:0; stroke-width: 0.2; stroke: #8b6914" points="467.641,170.547 468.462,163.979 475.851,160.694 483.241,163.979 484.062,170.547 479.957,176.294 471.746,176.294 "/>
  </g>
  <text font-size="19.7553" style="fill: #000000;text-anchor:start;font-family:sans-serif;font-style:normal;font-weight:normal" x="114" y="52">
    <tspan x="114" y="52">M1</tspan>
  </text>
  <text font-size="19.7553" style="fill: #000000;text-anchor:start;font-family:sans-serif;font-style:normal;font-weight:normal" x="377.4" y="52">
    <tspan x="377.4" y="52">M2</tspan>
  </text>
</svg>
