<?xml version="1.0" encoding="UTF-8" standalone="no"?>
<!DOCTYPE svg PUBLIC "-//W3C//DTD SVG 1.0//EN" "http://www.w3.org/TR/2001/PR-SVG-20010719/DTD/svg10.dtd">
<svg width="14cm" height="12cm" viewBox="32 -19 266 226" xmlns="http://www.w3.org/2000/svg" xmlns:xlink="http://www.w3.org/1999/xlink">
  <g>
    <polygon style="fill: #ffa500" points="60,49.8526 60.8211,43.2842 68.2105,40 75.6,43.2842 76.4211,49.8526 72.3158,55.6 64.1053,55.6 "/>
    <polygon style="fill: none; fill-opacity:0; stroke-width: 2; stroke: #8b6914" points="60,49.8526 60.8211,43.2842 68.2105,40 75.6,43.2842 76.4211,49.8526 72.3158,55.6 64.1053,55.6 "/>
    <polygon style="fill: none; fill-opacity:0; stroke-width: 0.2; stroke: #8b6914" points="60,49.8526 60.8211,43.2842 68.2105,40 75.6,43.2842 76.4211,49.8526 72.3158,55.6 64.1053,55.6 "/>
  </g>
  <g>
    <polygon style="fill: #ffa500" points="100,49.8526 100.821,43.2842 108.211,40 115.6,43.2842 116.421,49.8526 112.316,55.6 104.105,55.6 "/>
    <polygon style="fill: none; fill-opacity:0; stroke-width: 2; stroke: #8b6914" points="100,49.8526 100.821,43.2842 108.211,40 115.6,43.2842 116.421,49.8526 112.316,55.6 104.105,55.6 "/>
    <polygon style="fill: none; fill-opacity:0; stroke-width: 0.2; stroke: #8b6914" points="100,49.8526 100.821,43.2842 108.211,40 115.6,43.2842 116.421,49.8526 112.316,55.6 104.105,55.6 "/>
  </g>
  <g>
    <polygon style="fill: #ffa500" points="140,49.8526 140.821,43.2842 148.211,40 155.6,43.2842 156.421,49.8526 152.316,55.6 144.105,55.6 "/>
    <polygon style="fill: none; fill-opacity:0; stroke-width: 2; stroke: #8b6914" points="140,49.8526 140.821,43.2842 148.211,40 155.6,43.2842 156.421,49.8526 152.316,55.6 144.105,55.6 "/>
    <polygon style="fill: none; fill-opacity:0; stroke-width: 0.2; stroke: #8b6914" points="140,49.8526 140.821,43.2842 148.211,40 155.6,43.2842 156.421,49.8526 152.316,55.6 144.105,55.6 "/>
  </g>
  <g>
    <polygon style="fill: #ffa500" points="180,49.8526 180.821,43.2842 188.211,40 195.6,43.2842 196.421,49.8526 192.316,55.6 184.105,55.6 "/>
    <polygon style="fill: none; fill-opacity:0; stroke-width: 2; stroke: #8b6914" points="180,49.8526 180.821,43.2842 188.211,40 195.6,43.2842 196.421,49.8526 192.316,55.6 184.105,55.6 "/>
    <polygon style="fill: none; fill-opacity:0; stroke-width: 0.2; stroke: #8b6914" points="180,49.8526 180.821,43.2842 188.211,40 195.6,43.2842 196.421,49.8526 192.316,55.6 184.105,55.6 "/>
  </g>
  <g>
    <polygon style="fill: #ffa500" points="220,49.8526 220.821,43.2842 228.211,40 235.6,43.2842 236.421,49.8526 232.316,55.6 224.105,55.6 "/>
    <polygon style="fill: none; fill-opacity:0; stroke-width: 2; stroke: #8b6914" points="220,49.8526 220.821,43.2842 228.211,40 235.6,43.2842 236.421,49.8526 232.316,55.6 224.105,55.6 "/>
    <polygon style="fill: none; fill-opacity:0; stroke-width: 0.2; stroke: #8b6914" points="220,49.8526 220.821,43.2842 228.211,40 235.6,43.2842 236.421,49.8526 232.316,55.6 224.105,55.6 "/>
  </g>
  <g>
    <polygon style="fill: #ffa500" points="60,79.8526 60.8211,73.2842 68.2105,70 75.6,73.2842 76.4211,79.8526 72.3158,85.6 64.1053,85.6 "/>
    <polygon style="fill: none; fill-opacity:0; stroke-width: 2; stroke: #8b6914" points="60,79.8526 60.8211,73.2842 68.2105,70 75.6,73.2842 76.4211,79.8526 72.3158,85.6 64.1053,85.6 "/>
    <polygon style="fill: none; fill-opacity:0; stroke-width: 0.2; stroke: #8b6914" points="60,79.8526 60.8211,73.2842 68.2105,70 75.6,73.2842 76.4211,79.8526 72.3158,85.6 64.1053,85.6 "/>
  </g>
  <g>
    <polygon style="fill: #ffa500" points="100,79.8526 100.821,73.2842 108.211,70 115.6,73.2842 116.421,79.8526 112.316,85.6 104.105,85.6 "/>
    <polygon style="fill: none; fill-opacity:0; stroke-width: 2; stroke: #8b6914" points="100,79.8526 100.821,73.2842 108.211,70 115.6,73.2842 116.421,79.8526 112.316,85.6 104.105,85.6 "/>
    <polygon style="fill: none; fill-opacity:0; stroke-width: 0.2; stroke: #8b6914" points="100,79.8526 100.821,73.2842 108.211,70 115.6,73.2842 116.421,79.8526 112.316,85.6 104.105,85.6 "/>
  </g>
  <g>
    <polygon style="fill: #ffa500" points="140,79.8526 140.821,73.2842 148.211,70 155.6,73.2842 156.421,79.8526 152.316,85.6 144.105,85.6 "/>
    <polygon style="fill: none; fill-opacity:0; stroke-width: 2; stroke: #8b6914" points="140,79.8526 140.821,73.2842 148.211,70 155.6,73.2842 156.421,79.8526 152.316,85.6 144.105,85.6 "/>
    <polygon style="fill: none; fill-opacity:0; stroke-width: 0.2; stroke: #8b6914" points="140,79.8526 140.821,73.2842 148.211,70 155.6,73.2842 156.421,79.8526 152.316,85.6 144.105,85.6 "/>
  </g>
  <g>
    <polygon style="fill: #ffa500" points="180,79.8526 180.821,73.2842 188.211,70 195.6,73.2842 196.421,79.8526 192.316,85.6 184.105,85.6 "/>
    <polygon style="fill: none; fill-opacity:0; stroke-width: 2; stroke: #8b6914" points="180,79.8526 180.821,73.2842 188.211,70 195.6,73.2842 196.421,79.8526 192.316,85.6 184.105,85.6 "/>
    <polygon style="fill: none; fill-opacity:0; stroke-width: 0.2; stroke: #8b6914" points="180,79.8526 180.821,73.2842 188.211,70 195.6,73.2842 196.421,79.8526 192.316,85.6 184.105,85.6 "/>
  </g>
  <g>
    <polygon style="fill: #ffa500" points="220,79.8526 220.821,73.2842 228.211,70 235.6,73.2842 236.421,79.8526 232.316,85.6 224.105,85.6 "/>
    <polygon style="fill: none; fill-opacity:0; stroke-width: 2; stroke: #8b6914" points="220,79.8526 220.821,73.2842 228.211,70 235.6,73.2842 236.421,79.8526 232.316,85.6 224.105,85.6 "/>
    <polygon style="fill: none; fill-opacity:0; stroke-width: 0.2; stroke: #8b6914" points="220,79.8526 220.821,73.2842 228.211,70 235.6,73.2842 236.421,79.8526 232.316,85.6 224.105,85.6 "/>
  </g>
  <g>
    <polygon style="fill: #ffa500" points="60,109.853 60.8211,103.284 68.2105,100 75.6,103.284 76.4211,109.853 72.3158,115.6 64.1053,115.6 "/>
    <polygon style="fill: none; fill-opacity:0; stroke-width: 2; stroke: #8b6914" points="60,109.853 60.8211,103.284 68.2105,100 75.6,103.284 76.4211,109.853 72.3158,115.6 64.1053,115.6 "/>
    <polygon style="fill: none; fill-opacity:0; stroke-width: 0.2; stroke: #8b6914" points="60,109.853 60.8211,103.284 68.2105,100 75.6,103.284 76.4211,109.853 72.3158,115.6 64.1053,115.6 "/>
  </g>
  <g>
    <polygon style="fill: #ffa500" points="100,109.853 100.821,103.284 108.211,100 115.6,103.284 116.421,109.853 112.316,115.6 104.105,115.6 "/>
    <polygon style="fill: none; fill-opacity:0; stroke-width: 2; stroke: #8b6914" points="100,109.853 100.821,103.284 108.211,100 115.6,103.284 116.421,109.853 112.316,115.6 104.105,115.6 "/>
    <polygon style="fill: none; fill-opacity:0; stroke-width: 0.2; stroke: #8b6914" points="100,109.853 100.821,103.284 108.211,100 115.6,103.284 116.421,109.853 112.316,115.6 104.105,115.6 "/>
  </g>
  <g>
    <polygon style="fill: #ffa500" points="140,109.853 140.821,103.284 148.211,100 155.6,103.284 156.421,109.853 152.316,115.6 144.105,115.6 "/>
    <polygon style="fill: none; fill-opacity:0; stroke-width: 2; stroke: #8b6914" points="140,109.853 140.821,103.284 148.211,100 155.6,103.284 156.421,109.853 152.316,115.6 144.105,115.6 "/>
    <polygon style="fill: none; fill-opacity:0; stroke-width: 0.2; stroke: #8b6914" points="140,109.853 140.821,103.284 148.211,100 155.6,103.284 156.421,109.853 152.316,115.6 144.105,115.6 "/>
  </g>
  <g>
    <polygon style="fill: #ffa500" points="180,109.853 180.821,103.284 188.211,100 195.6,103.284 196.421,109.853 192.316,115.6 184.105,115.6 "/>
    <polygon style="fill: none; fill-opacity:0; stroke-width: 2; stroke: #8b6914" points="180,109.853 180.821,103.284 188.211,100 195.6,103.284 196.421,109.853 192.316,115.6 184.105,115.6 "/>
    <polygon style="fill: none; fill-opacity:0; stroke-width: 0.2; stroke: #8b6914" points="180,109.853 180.821,103.284 188.211,100 195.6,103.284 196.421,109.853 192.316,115.6 184.105,115.6 "/>
  </g>
  <g>
    <polygon style="fill: #ffa500" points="220,109.853 220.821,103.284 228.211,100 235.6,103.284 236.421,109.853 232.316,115.6 224.105,115.6 "/>
    <polygon style="fill: none; fill-opacity:0; stroke-width: 2; stroke: #8b6914" points="220,109.853 220.821,103.284 228.211,100 235.6,103.284 236.421,109.853 232.316,115.6 224.105,115.6 "/>
    <polygon style="fill: none; fill-opacity:0; stroke-width: 0.2; stroke: #8b6914" points="220,109.853 220.821,103.284 228.211,100 235.6,103.284 236.421,109.853 232.316,115.6 224.105,115.6 "/>
  </g>
  <g>
    <polygon style="fill: #ffa500" points="60,139.853 60.8211,133.284 68.2105,130 75.6,133.284 76.4211,139.853 72.3158,145.6 64.1053,145.6 "/>
    <polygon style="fill: none; fill-opacity:0; stroke-width: 2; stroke: #8b6914" points="60,139.853 60.8211,133.284 68.2105,130 75.6,133.284 76.4211,139.853 72.3158,145.6 64.1053,145.6 "/>
    <polygon style="fill: none; fill-opacity:0; stroke-width: 0.2; stroke: #8b6914" points="60,139.853 60.8211,133.284 68.2105,130 75.6,133.284 76.4211,139.853 72.3158,145.6 64.1053,145.6 "/>
  </g>
  <g>
    <polygon style="fill: #ffa500" points="100,139.853 100.821,133.284 108.211,130 115.6,133.284 116.421,139.853 112.316,145.6 104.105,145.6 "/>
    <polygon style="fill: none; fill-opacity:0; stroke-width: 2; stroke: #8b6914" points="100,139.853 100.821,133.284 108.211,130 115.6,133.284 116.421,139.853 112.316,145.6 104.105,145.6 "/>
    <polygon style="fill: none; fill-opacity:0; stroke-width: 0.2; stroke: #8b6914" points="100,139.853 100.821,133.284 108.211,130 115.6,133.284 116.421,139.853 112.316,145.6 104.105,145.6 "/>
  </g>
  <g>
    <polygon style="fill: #ffa500" points="140,139.853 140.821,133.284 148.211,130 155.6,133.284 156.421,139.853 152.316,145.6 144.105,145.6 "/>
    <polygon style="fill: none; fill-opacity:0; stroke-width: 2; stroke: #8b6914" points="140,139.853 140.821,133.284 148.211,130 155.6,133.284 156.421,139.853 152.316,145.6 144.105,145.6 "/>
    <polygon style="fill: none; fill-opacity:0; stroke-width: 0.2; stroke: #8b6914" points="140,139.853 140.821,133.284 148.211,130 155.6,133.284 156.421,139.853 152.316,145.6 144.105,145.6 "/>
  </g>
  <g>
    <polygon style="fill: #ffa500" points="180,139.853 180.821,133.284 188.211,130 195.6,133.284 196.421,139.853 192.316,145.6 184.105,145.6 "/>
    <polygon style="fill: none; fill-opacity:0; stroke-width: 2; stroke: #8b6914" points="180,139.853 180.821,133.284 188.211,130 195.6,133.284 196.421,139.853 192.316,145.6 184.105,145.6 "/>
    <polygon style="fill: none; fill-opacity:0; stroke-width: 0.2; stroke: #8b6914" points="180,139.853 180.821,133.284 188.211,130 195.6,133.284 196.421,139.853 192.316,145.6 184.105,145.6 "/>
  </g>
  <g>
    <polygon style="fill: #ffa500" points="220,139.853 220.821,133.284 228.211,130 235.6,133.284 236.421,139.853 232.316,145.6 224.105,145.6 "/>
    <polygon style="fill: none; fill-opacity:0; stroke-width: 2; stroke: #8b6914" points="220,139.853 220.821,133.284 228.211,130 235.6,133.284 236.421,139.853 232.316,145.6 224.105,145.6 "/>
    <polygon style="fill: none; fill-opacity:0; stroke-width: 0.2; stroke: #8b6914" points="220,139.853 220.821,133.284 228.211,130 235.6,133.284 236.421,139.853 232.316,145.6 224.105,145.6 "/>
  </g>
  <g>
    <polygon style="fill: #ffa500" points="60,169.853 60.8211,163.284 68.2105,160 75.6,163.284 76.4211,169.853 72.3158,175.6 64.1053,175.6 "/>
    <polygon style="fill: none; fill-opacity:0; stroke-width: 2; stroke: #8b6914" points="60,169.853 60.8211,163.284 68.2105,160 75.6,163.284 76.4211,169.853 72.3158,175.6 64.1053,175.6 "/>
    <polygon style="fill: none; fill-opacity:0; stroke-width: 0.2; stroke: #8b6914" points="60,169.853 60.8211,163.284 68.2105,160 75.6,163.284 76.4211,169.853 72.3158,175.6 64.1053,175.6 "/>
  </g>
  <g>
    <polygon style="fill: #ffa500" points="100,169.853 100.821,163.284 108.211,160 115.6,163.284 116.421,169.853 112.316,175.6 104.105,175.6 "/>
    <polygon style="fill: none; fill-opacity:0; stroke-width: 2; stroke: #8b6914" points="100,169.853 100.821,163.284 108.211,160 115.6,163.284 116.421,169.853 112.316,175.6 104.105,175.6 "/>
    <polygon style="fill: none; fill-opacity:0; stroke-width: 0.2; stroke: #8b6914" points="100,169.853 100.821,163.284 108.211,160 115.6,163.284 116.421,169.853 112.316,175.6 104.105,175.6 "/>
  </g>
  <g>
    <polygon style="fill: #ffa500" points="140,169.853 140.821,163.284 148.211,160 155.6,163.284 156.421,169.853 152.316,175.6 144.105,175.6 "/>
    <polygon style="fill: none; fill-opacity:0; stroke-width: 2; stroke: #8b6914" points="140,169.853 140.821,163.284 148.211,160 155.6,163.284 156.421,169.853 152.316,175.6 144.105,175.6 "/>
    <polygon style="fill: none; fill-opacity:0; stroke-width: 0.2; stroke: #8b6914" points="140,169.853 140.821,163.284 148.211,160 155.6,163.284 156.421,169.853 152.316,175.6 144.105,175.6 "/>
  </g>
  <g>
    <polygon style="fill: #ffa500" points="180,169.853 180.821,163.284 188.211,160 195.6,163.284 196.421,169.853 192.316,175.6 184.105,175.6 "/>
    <polygon style="fill: none; fill-opacity:0; stroke-width: 2; stroke: #8b6914" points="180,169.853 180.821,163.284 188.211,160 195.6,163.284 196.421,169.853 192.316,175.6 184.105,175.6 "/>
    <polygon style="fill: none; fill-opacity:0; stroke-width: 0.2; stroke: #8b6914" points="180,169.853 180.821,163.284 188.211,160 195.6,163.284 196.421,169.853 192.316,175.6 184.105,175.6 "/>
  </g>
  <g>
    <polygon style="fill: #ffa500" points="220,169.853 220.821,163.284 228.211,160 235.6,163.284 236.421,169.853 232.316,175.6 224.105,175.6 "/>
    <polygon style="fill: none; fill-opacity:0; stroke-width: 2; stroke: #8b6914" points="220,169.853 220.821,163.284 228.211,160 235.6,163.284 236.421,169.853 232.316,175.6 224.105,175.6 "/>
    <polygon style="fill: none; fill-opacity:0; stroke-width: 0.2; stroke: #8b6914" points="220,169.853 220.821,163.284 228.211,160 235.6,163.284 236.421,169.853 232.316,175.6 224.105,175.6 "/>
  </g>
  <g>
    <line style="fill: none; fill-opacity:0; stroke-width: 2; stroke: #000000" x1="40" y1="19.7361" x2="40" y2="200"/>
    <polygon style="fill: #000000" points="40,12.2361 45,22.2361 40,19.7361 35,22.2361 "/>
    <polygon style="fill: none; fill-opacity:0; stroke-width: 2; stroke: #000000" points="40,12.2361 45,22.2361 40,19.7361 35,22.2361 "/>
  </g>
  <g>
    <line style="fill: none; fill-opacity:0; stroke-width: 2; stroke: #000000" x1="270.264" y1="200" x2="40" y2="200"/>
    <polygon style="fill: #000000" points="277.764,200 267.764,205 270.264,200 267.764,195 "/>
    <polygon style="fill: none; fill-opacity:0; stroke-width: 2; stroke: #000000" points="277.764,200 267.764,205 270.264,200 267.764,195 "/>
  </g>
  <text font-size="19.7553" style="fill: #000000;text-anchor:start;font-family:sans-serif;font-style:normal;font-weight:normal" x="50" y="0">
    <tspan x="50" y="0">θ</tspan>
  </text>
  <text font-size="12.7998" style="fill: #000000;text-anchor:start;font-family:sans-serif;font-style:normal;font-weight:normal" x="60" y="10">
    <tspan x="60" y="10">1</tspan>
  </text>
  <text font-size="19.7553" style="fill: #000000;text-anchor:start;font-family:sans-serif;font-style:normal;font-weight:normal" x="280" y="190">
    <tspan x="280" y="190">θ</tspan>
  </text>
  <text font-size="12.7998" style="fill: #000000;text-anchor:start;font-family:sans-serif;font-style:normal;font-weight:normal" x="290" y="200">
    <tspan x="290" y="200">2</tspan>
  </text>
</svg>
