<?xml version="1.0" encoding="UTF-8" standalone="no"?>
<!DOCTYPE svg PUBLIC "-//W3C//DTD SVG 1.0//EN" "http://www.w3.org/TR/2001/PR-SVG-20010719/DTD/svg10.dtd">
<svg width="14cm" height="12cm" viewBox="45 30 266 226" xmlns="http://www.w3.org/2000/svg" xmlns:xlink="http://www.w3.org/1999/xlink">
  <g>
    <polygon style="fill: #ffa500" points="72.5361,98.5026 73.3571,91.9342 80.7466,88.65 88.1361,91.9342 88.9571,98.5026 84.8519,104.25 76.6413,104.25 "/>
    <polygon style="fill: none; fill-opacity:0; stroke-width: 2; stroke: #8b6914" points="72.5361,98.5026 73.3571,91.9342 80.7466,88.65 88.1361,91.9342 88.9571,98.5026 84.8519,104.25 76.6413,104.25 "/>
    <polygon style="fill: none; fill-opacity:0; stroke-width: 0.2; stroke: #8b6914" points="72.5361,98.5026 73.3571,91.9342 80.7466,88.65 88.1361,91.9342 88.9571,98.5026 84.8519,104.25 76.6413,104.25 "/>
  </g>
  <g>
    <polygon style="fill: #ffa500" points="95.5361,98.5026 96.3571,91.9342 103.747,88.65 111.136,91.9342 111.957,98.5026 107.852,104.25 99.6413,104.25 "/>
    <polygon style="fill: none; fill-opacity:0; stroke-width: 2; stroke: #8b6914" points="95.5361,98.5026 96.3571,91.9342 103.747,88.65 111.136,91.9342 111.957,98.5026 107.852,104.25 99.6413,104.25 "/>
    <polygon style="fill: none; fill-opacity:0; stroke-width: 0.2; stroke: #8b6914" points="95.5361,98.5026 96.3571,91.9342 103.747,88.65 111.136,91.9342 111.957,98.5026 107.852,104.25 99.6413,104.25 "/>
  </g>
  <g>
    <polygon style="fill: #ffa500" points="130.536,98.5026 131.357,91.9342 138.747,88.65 146.136,91.9342 146.957,98.5026 142.852,104.25 134.641,104.25 "/>
    <polygon style="fill: none; fill-opacity:0; stroke-width: 2; stroke: #8b6914" points="130.536,98.5026 131.357,91.9342 138.747,88.65 146.136,91.9342 146.957,98.5026 142.852,104.25 134.641,104.25 "/>
    <polygon style="fill: none; fill-opacity:0; stroke-width: 0.2; stroke: #8b6914" points="130.536,98.5026 131.357,91.9342 138.747,88.65 146.136,91.9342 146.957,98.5026 142.852,104.25 134.641,104.25 "/>
  </g>
  <g>
    <polygon style="fill: #ffa500" points="185.536,98.5026 186.357,91.9342 193.747,88.65 201.136,91.9342 201.957,98.5026 197.852,104.25 189.641,104.25 "/>
    <polygon style="fill: none; fill-opacity:0; stroke-width: 2; stroke: #8b6914" points="185.536,98.5026 186.357,91.9342 193.747,88.65 201.136,91.9342 201.957,98.5026 197.852,104.25 189.641,104.25 "/>
    <polygon style="fill: none; fill-opacity:0; stroke-width: 0.2; stroke: #8b6914" points="185.536,98.5026 186.357,91.9342 193.747,88.65 201.136,91.9342 201.957,98.5026 197.852,104.25 189.641,104.25 "/>
  </g>
  <g>
    <polygon style="fill: #ffa500" points="247.536,98.5026 248.357,91.9342 255.747,88.65 263.136,91.9342 263.957,98.5026 259.852,104.25 251.641,104.25 "/>
    <polygon style="fill: none; fill-opacity:0; stroke-width: 2; stroke: #8b6914" points="247.536,98.5026 248.357,91.9342 255.747,88.65 263.136,91.9342 263.957,98.5026 259.852,104.25 251.641,104.25 "/>
    <polygon style="fill: none; fill-opacity:0; stroke-width: 0.2; stroke: #8b6914" points="247.536,98.5026 248.357,91.9342 255.747,88.65 263.136,91.9342 263.957,98.5026 259.852,104.25 251.641,104.25 "/>
  </g>
  <g>
    <polygon style="fill: #ffa500" points="72.5361,128.503 73.3571,121.934 80.7466,118.65 88.1361,121.934 88.9571,128.503 84.8519,134.25 76.6413,134.25 "/>
    <polygon style="fill: none; fill-opacity:0; stroke-width: 2; stroke: #8b6914" points="72.5361,128.503 73.3571,121.934 80.7466,118.65 88.1361,121.934 88.9571,128.503 84.8519,134.25 76.6413,134.25 "/>
    <polygon style="fill: none; fill-opacity:0; stroke-width: 0.2; stroke: #8b6914" points="72.5361,128.503 73.3571,121.934 80.7466,118.65 88.1361,121.934 88.9571,128.503 84.8519,134.25 76.6413,134.25 "/>
  </g>
  <g>
    <polygon style="fill: #ffa500" points="95.5361,128.503 96.3571,121.934 103.747,118.65 111.136,121.934 111.957,128.503 107.852,134.25 99.6413,134.25 "/>
    <polygon style="fill: none; fill-opacity:0; stroke-width: 2; stroke: #8b6914" points="95.5361,128.503 96.3571,121.934 103.747,118.65 111.136,121.934 111.957,128.503 107.852,134.25 99.6413,134.25 "/>
    <polygon style="fill: none; fill-opacity:0; stroke-width: 0.2; stroke: #8b6914" points="95.5361,128.503 96.3571,121.934 103.747,118.65 111.136,121.934 111.957,128.503 107.852,134.25 99.6413,134.25 "/>
  </g>
  <g>
    <polygon style="fill: #ffa500" points="130.536,128.503 131.357,121.934 138.747,118.65 146.136,121.934 146.957,128.503 142.852,134.25 134.641,134.25 "/>
    <polygon style="fill: none; fill-opacity:0; stroke-width: 2; stroke: #8b6914" points="130.536,128.503 131.357,121.934 138.747,118.65 146.136,121.934 146.957,128.503 142.852,134.25 134.641,134.25 "/>
    <polygon style="fill: none; fill-opacity:0; stroke-width: 0.2; stroke: #8b6914" points="130.536,128.503 131.357,121.934 138.747,118.65 146.136,121.934 146.957,128.503 142.852,134.25 134.641,134.25 "/>
  </g>
  <g>
    <polygon style="fill: #ffa500" points="185.536,128.503 186.357,121.934 193.747,118.65 201.136,121.934 201.957,128.503 197.852,134.25 189.641,134.25 "/>
    <polygon style="fill: none; fill-opacity:0; stroke-width: 2; stroke: #8b6914" points="185.536,128.503 186.357,121.934 193.747,118.65 201.136,121.934 201.957,128.503 197.852,134.25 189.641,134.25 "/>
    <polygon style="fill: none; fill-opacity:0; stroke-width: 0.2; stroke: #8b6914" points="185.536,128.503 186.357,121.934 193.747,118.65 201.136,121.934 201.957,128.503 197.852,134.25 189.641,134.25 "/>
  </g>
  <g>
    <polygon style="fill: #ffa500" points="247.536,128.503 248.357,121.934 255.747,118.65 263.136,121.934 263.957,128.503 259.852,134.25 251.641,134.25 "/>
    <polygon style="fill: none; fill-opacity:0; stroke-width: 2; stroke: #8b6914" points="247.536,128.503 248.357,121.934 255.747,118.65 263.136,121.934 263.957,128.503 259.852,134.25 251.641,134.25 "/>
    <polygon style="fill: none; fill-opacity:0; stroke-width: 0.2; stroke: #8b6914" points="247.536,128.503 248.357,121.934 255.747,118.65 263.136,121.934 263.957,128.503 259.852,134.25 251.641,134.25 "/>
  </g>
  <g>
    <polygon style="fill: #ffa500" points="72.5361,158.503 73.3571,151.934 80.7466,148.65 88.1361,151.934 88.9571,158.503 84.8519,164.25 76.6413,164.25 "/>
    <polygon style="fill: none; fill-opacity:0; stroke-width: 2; stroke: #8b6914" points="72.5361,158.503 73.3571,151.934 80.7466,148.65 88.1361,151.934 88.9571,158.503 84.8519,164.25 76.6413,164.25 "/>
    <polygon style="fill: none; fill-opacity:0; stroke-width: 0.2; stroke: #8b6914" points="72.5361,158.503 73.3571,151.934 80.7466,148.65 88.1361,151.934 88.9571,158.503 84.8519,164.25 76.6413,164.25 "/>
  </g>
  <g>
    <polygon style="fill: #ffa500" points="95.5361,158.503 96.3571,151.934 103.747,148.65 111.136,151.934 111.957,158.503 107.852,164.25 99.6413,164.25 "/>
    <polygon style="fill: none; fill-opacity:0; stroke-width: 2; stroke: #8b6914" points="95.5361,158.503 96.3571,151.934 103.747,148.65 111.136,151.934 111.957,158.503 107.852,164.25 99.6413,164.25 "/>
    <polygon style="fill: none; fill-opacity:0; stroke-width: 0.2; stroke: #8b6914" points="95.5361,158.503 96.3571,151.934 103.747,148.65 111.136,151.934 111.957,158.503 107.852,164.25 99.6413,164.25 "/>
  </g>
  <g>
    <polygon style="fill: #ffa500" points="130.536,158.503 131.357,151.934 138.747,148.65 146.136,151.934 146.957,158.503 142.852,164.25 134.641,164.25 "/>
    <polygon style="fill: none; fill-opacity:0; stroke-width: 2; stroke: #8b6914" points="130.536,158.503 131.357,151.934 138.747,148.65 146.136,151.934 146.957,158.503 142.852,164.25 134.641,164.25 "/>
    <polygon style="fill: none; fill-opacity:0; stroke-width: 0.2; stroke: #8b6914" points="130.536,158.503 131.357,151.934 138.747,148.65 146.136,151.934 146.957,158.503 142.852,164.25 134.641,164.25 "/>
  </g>
  <g>
    <polygon style="fill: #ffa500" points="185.536,158.503 186.357,151.934 193.747,148.65 201.136,151.934 201.957,158.503 197.852,164.25 189.641,164.25 "/>
    <polygon style="fill: none; fill-opacity:0; stroke-width: 2; stroke: #8b6914" points="185.536,158.503 186.357,151.934 193.747,148.65 201.136,151.934 201.957,158.503 197.852,164.25 189.641,164.25 "/>
    <polygon style="fill: none; fill-opacity:0; stroke-width: 0.2; stroke: #8b6914" points="185.536,158.503 186.357,151.934 193.747,148.65 201.136,151.934 201.957,158.503 197.852,164.25 189.641,164.25 "/>
  </g>
  <g>
    <polygon style="fill: #ffa500" points="247.536,158.503 248.357,151.934 255.747,148.65 263.136,151.934 263.957,158.503 259.852,164.25 251.641,164.25 "/>
    <polygon style="fill: none; fill-opacity:0; stroke-width: 2; stroke: #8b6914" points="247.536,158.503 248.357,151.934 255.747,148.65 263.136,151.934 263.957,158.503 259.852,164.25 251.641,164.25 "/>
    <polygon style="fill: none; fill-opacity:0; stroke-width: 0.2; stroke: #8b6914" points="247.536,158.503 248.357,151.934 255.747,148.65 263.136,151.934 263.957,158.503 259.852,164.25 251.641,164.25 "/>
  </g>
  <g>
    <polygon style="fill: #ffa500" points="72.5361,188.503 73.3571,181.934 80.7466,178.65 88.1361,181.934 88.9571,188.503 84.8519,194.25 76.6413,194.25 "/>
    <polygon style="fill: none; fill-opacity:0; stroke-width: 2; stroke: #8b6914" points="72.5361,188.503 73.3571,181.934 80.7466,178.65 88.1361,181.934 88.9571,188.503 84.8519,194.25 76.6413,194.25 "/>
    <polygon style="fill: none; fill-opacity:0; stroke-width: 0.2; stroke: #8b6914" points="72.5361,188.503 73.3571,181.934 80.7466,178.65 88.1361,181.934 88.9571,188.503 84.8519,194.25 76.6413,194.25 "/>
  </g>
  <g>
    <polygon style="fill: #ffa500" points="95.5361,188.503 96.3571,181.934 103.747,178.65 111.136,181.934 111.957,188.503 107.852,194.25 99.6413,194.25 "/>
    <polygon style="fill: none; fill-opacity:0; stroke-width: 2; stroke: #8b6914" points="95.5361,188.503 96.3571,181.934 103.747,178.65 111.136,181.934 111.957,188.503 107.852,194.25 99.6413,194.25 "/>
    <polygon style="fill: none; fill-opacity:0; stroke-width: 0.2; stroke: #8b6914" points="95.5361,188.503 96.3571,181.934 103.747,178.65 111.136,181.934 111.957,188.503 107.852,194.25 99.6413,194.25 "/>
  </g>
  <g>
    <polygon style="fill: #ffa500" points="130.536,188.503 131.357,181.934 138.747,178.65 146.136,181.934 146.957,188.503 142.852,194.25 134.641,194.25 "/>
    <polygon style="fill: none; fill-opacity:0; stroke-width: 2; stroke: #8b6914" points="130.536,188.503 131.357,181.934 138.747,178.65 146.136,181.934 146.957,188.503 142.852,194.25 134.641,194.25 "/>
    <polygon style="fill: none; fill-opacity:0; stroke-width: 0.2; stroke: #8b6914" points="130.536,188.503 131.357,181.934 138.747,178.65 146.136,181.934 146.957,188.503 142.852,194.25 134.641,194.25 "/>
  </g>
  <g>
    <polygon style="fill: #ffa500" points="185.536,188.503 186.357,181.934 193.747,178.65 201.136,181.934 201.957,188.503 197.852,194.25 189.641,194.25 "/>
    <polygon style="fill: none; fill-opacity:0; stroke-width: 2; stroke: #8b6914" points="185.536,188.503 186.357,181.934 193.747,178.65 201.136,181.934 201.957,188.503 197.852,194.25 189.641,194.25 "/>
    <polygon style="fill: none; fill-opacity:0; stroke-width: 0.2; stroke: #8b6914" points="185.536,188.503 186.357,181.934 193.747,178.65 201.136,181.934 201.957,188.503 197.852,194.25 189.641,194.25 "/>
  </g>
  <g>
    <polygon style="fill: #ffa500" points="247.536,188.503 248.357,181.934 255.747,178.65 263.136,181.934 263.957,188.503 259.852,194.25 251.641,194.25 "/>
    <polygon style="fill: none; fill-opacity:0; stroke-width: 2; stroke: #8b6914" points="247.536,188.503 248.357,181.934 255.747,178.65 263.136,181.934 263.957,188.503 259.852,194.25 251.641,194.25 "/>
    <polygon style="fill: none; fill-opacity:0; stroke-width: 0.2; stroke: #8b6914" points="247.536,188.503 248.357,181.934 255.747,178.65 263.136,181.934 263.957,188.503 259.852,194.25 251.641,194.25 "/>
  </g>
  <g>
    <polygon style="fill: #ffa500" points="72.5361,218.503 73.3571,211.934 80.7466,208.65 88.1361,211.934 88.9571,218.503 84.8519,224.25 76.6413,224.25 "/>
    <polygon style="fill: none; fill-opacity:0; stroke-width: 2; stroke: #8b6914" points="72.5361,218.503 73.3571,211.934 80.7466,208.65 88.1361,211.934 88.9571,218.503 84.8519,224.25 76.6413,224.25 "/>
    <polygon style="fill: none; fill-opacity:0; stroke-width: 0.2; stroke: #8b6914" points="72.5361,218.503 73.3571,211.934 80.7466,208.65 88.1361,211.934 88.9571,218.503 84.8519,224.25 76.6413,224.25 "/>
  </g>
  <g>
    <polygon style="fill: #ffa500" points="95.5361,218.503 96.3571,211.934 103.747,208.65 111.136,211.934 111.957,218.503 107.852,224.25 99.6413,224.25 "/>
    <polygon style="fill: none; fill-opacity:0; stroke-width: 2; stroke: #8b6914" points="95.5361,218.503 96.3571,211.934 103.747,208.65 111.136,211.934 111.957,218.503 107.852,224.25 99.6413,224.25 "/>
    <polygon style="fill: none; fill-opacity:0; stroke-width: 0.2; stroke: #8b6914" points="95.5361,218.503 96.3571,211.934 103.747,208.65 111.136,211.934 111.957,218.503 107.852,224.25 99.6413,224.25 "/>
  </g>
  <g>
    <polygon style="fill: #ffa500" points="130.536,218.503 131.357,211.934 138.747,208.65 146.136,211.934 146.957,218.503 142.852,224.25 134.641,224.25 "/>
    <polygon style="fill: none; fill-opacity:0; stroke-width: 2; stroke: #8b6914" points="130.536,218.503 131.357,211.934 138.747,208.65 146.136,211.934 146.957,218.503 142.852,224.25 134.641,224.25 "/>
    <polygon style="fill: none; fill-opacity:0; stroke-width: 0.2; stroke: #8b6914" points="130.536,218.503 131.357,211.934 138.747,208.65 146.136,211.934 146.957,218.503 142.852,224.25 134.641,224.25 "/>
  </g>
  <g>
    <polygon style="fill: #ffa500" points="185.536,218.503 186.357,211.934 193.747,208.65 201.136,211.934 201.957,218.503 197.852,224.25 189.641,224.25 "/>
    <polygon style="fill: none; fill-opacity:0; stroke-width: 2; stroke: #8b6914" points="185.536,218.503 186.357,211.934 193.747,208.65 201.136,211.934 201.957,218.503 197.852,224.25 189.641,224.25 "/>
    <polygon style="fill: none; fill-opacity:0; stroke-width: 0.2; stroke: #8b6914" points="185.536,218.503 186.357,211.934 193.747,208.65 201.136,211.934 201.957,218.503 197.852,224.25 189.641,224.25 "/>
  </g>
  <g>
    <polygon style="fill: #ffa500" points="247.536,218.503 248.357,211.934 255.747,208.65 263.136,211.934 263.957,218.503 259.852,224.25 251.641,224.25 "/>
    <polygon style="fill: none; fill-opacity:0; stroke-width: 2; stroke: #8b6914" points="247.536,218.503 248.357,211.934 255.747,208.65 263.136,211.934 263.957,218.503 259.852,224.25 251.641,224.25 "/>
    <polygon style="fill: none; fill-opacity:0; stroke-width: 0.2; stroke: #8b6914" points="247.536,218.503 248.357,211.934 255.747,208.65 263.136,211.934 263.957,218.503 259.852,224.25 251.641,224.25 "/>
  </g>
  <g>
    <line style="fill: none; fill-opacity:0; stroke-width: 2; stroke: #000000" x1="52.5361" y1="68.3861" x2="52.5361" y2="248.65"/>
    <polygon style="fill: #000000" points="52.5361,60.8861 57.5361,70.8861 52.5361,68.3861 47.5361,70.8861 "/>
    <polygon style="fill: none; fill-opacity:0; stroke-width: 2; stroke: #000000" points="52.5361,60.8861 57.5361,70.8861 52.5361,68.3861 47.5361,70.8861 "/>
  </g>
  <g>
    <line style="fill: none; fill-opacity:0; stroke-width: 2; stroke: #000000" x1="282.8" y1="248.65" x2="52.5361" y2="248.65"/>
    <polygon style="fill: #000000" points="290.3,248.65 280.3,253.65 282.8,248.65 280.3,243.65 "/>
    <polygon style="fill: none; fill-opacity:0; stroke-width: 2; stroke: #000000" points="290.3,248.65 280.3,253.65 282.8,248.65 280.3,243.65 "/>
  </g>
  <text font-size="19.7553" style="fill: #000000;text-anchor:start;font-family:sans-serif;font-style:normal;font-weight:normal" x="62.5361" y="48.65">
    <tspan x="62.5361" y="48.65">θ</tspan>
  </text>
  <text font-size="12.7998" style="fill: #000000;text-anchor:start;font-family:sans-serif;font-style:normal;font-weight:normal" x="72.5361" y="58.65">
    <tspan x="72.5361" y="58.65">1</tspan>
  </text>
  <text font-size="19.7553" style="fill: #000000;text-anchor:start;font-family:sans-serif;font-style:normal;font-weight:normal" x="292.536" y="238.65">
    <tspan x="292.536" y="238.65">θ</tspan>
  </text>
  <text font-size="12.7998" style="fill: #000000;text-anchor:start;font-family:sans-serif;font-style:normal;font-weight:normal" x="302.536" y="248.65">
    <tspan x="302.536" y="248.65">2</tspan>
  </text>
</svg>
