<?xml version="1.0" encoding="UTF-8" standalone="no"?>
<!DOCTYPE svg PUBLIC "-//W3C//DTD SVG 1.0//EN" "http://www.w3.org/TR/2001/PR-SVG-20010719/DTD/svg10.dtd">
<svg width="22cm" height="9cm" viewBox="13 37 429 169" xmlns="http://www.w3.org/2000/svg" xmlns:xlink="http://www.w3.org/1999/xlink">
  <g>
    <line style="fill: none; fill-opacity:0; stroke-width: 2; stroke: #000000" x1="20" y1="200" x2="20" y2="51"/>
    <polygon style="fill: #000000" points="25,51 20,41 15,51 "/>
    <polygon style="fill: none; fill-opacity:0; stroke-width: 2; stroke: #000000" points="25,51 20,41 15,51 "/>
  </g>
  <g>
    <line style="fill: none; fill-opacity:0; stroke-width: 2; stroke: #000000" x1="20" y1="200" x2="429" y2="200"/>
    <polygon style="fill: #000000" points="429,205 439,200 429,195 "/>
    <polygon style="fill: none; fill-opacity:0; stroke-width: 2; stroke: #000000" points="429,205 439,200 429,195 "/>
  </g>
  <path style="fill: none; fill-opacity:0; stroke-width: 6; stroke: #a52a2a" d="M 20 180 C 40,160 73.3333,80 140,80 C 206.667,80 220,180 260,180 C 300,180 300,140 340,140 C 380,140 400,180 420,180"/>
  <line style="fill: none; fill-opacity:0; stroke-width: 2; stroke: #a52a2a" x1="85.0454" y1="100" x2="185.045" y2="100"/>
  <line style="fill: none; fill-opacity:0; stroke-width: 2; stroke: #a52a2a" x1="60" y1="130" x2="210" y2="130"/>
  <line style="fill: none; fill-opacity:0; stroke-width: 2; stroke: #a52a2a" x1="40" y1="160" x2="230" y2="160"/>
  <line style="fill: none; fill-opacity:0; stroke-width: 2; stroke: #a52a2a" x1="300" y1="160" x2="390" y2="160"/>
  <line style="fill: none; fill-opacity:0; stroke-width: 2; stroke: #a52a2a" x1="20" y1="190" x2="420" y2="190"/>
</svg>
