<?xml version="1.0" encoding="UTF-8" standalone="no"?>
<!DOCTYPE svg PUBLIC "-//W3C//DTD SVG 1.0//EN" "http://www.w3.org/TR/2001/PR-SVG-20010719/DTD/svg10.dtd">
<svg width="22cm" height="9cm" viewBox="13 37 429 169" xmlns="http://www.w3.org/2000/svg" xmlns:xlink="http://www.w3.org/1999/xlink">
  <g>
    <line style="fill: none; fill-opacity:0; stroke-width: 2; stroke: #000000" x1="20" y1="200" x2="20" y2="51"/>
    <polygon style="fill: #000000" points="25,51 20,41 15,51 "/>
    <polygon style="fill: none; fill-opacity:0; stroke-width: 2; stroke: #000000" points="25,51 20,41 15,51 "/>
  </g>
  <g>
    <line style="fill: none; fill-opacity:0; stroke-width: 2; stroke: #000000" x1="20" y1="200" x2="429" y2="200"/>
    <polygon style="fill: #000000" points="429,205 439,200 429,195 "/>
    <polygon style="fill: none; fill-opacity:0; stroke-width: 2; stroke: #000000" points="429,205 439,200 429,195 "/>
  </g>
  <g>
    <line style="fill: none; fill-opacity:0; stroke-width: 2; stroke: #000000" x1="160" y1="89.7361" x2="160" y2="170.264"/>
    <polygon style="fill: #000000" points="160,82.2361 165,92.2361 160,89.7361 155,92.2361 "/>
    <polygon style="fill: none; fill-opacity:0; stroke-width: 2; stroke: #000000" points="160,82.2361 165,92.2361 160,89.7361 155,92.2361 "/>
    <polygon style="fill: #000000" points="160,177.764 155,167.764 160,170.264 165,167.764 "/>
    <polygon style="fill: none; fill-opacity:0; stroke-width: 2; stroke: #000000" points="160,177.764 155,167.764 160,170.264 165,167.764 "/>
  </g>
  <line style="fill: none; fill-opacity:0; stroke-width: 2; stroke-dasharray: 10; stroke: #aaaaaa" x1="280" y1="180" x2="140" y2="180"/>
  <path style="fill: none; fill-opacity:0; stroke-width: 6; stroke: #a52a2a" d="M 20 180 C 40,160 73.3334,80 140,80 C 206.666,80 220,180 260,180 C 300,180 300,140 340,140 C 380,140 400,180 420,180"/>
  <g>
    <line style="fill: none; fill-opacity:0; stroke-width: 4; stroke: #000000" x1="140" y1="80" x2="140" y2="200"/>
    <path style="fill: #000000" d="M 140 80 C 142,80 144,82 144,84 C 144,86 142,88 140,88 C 138,88 136,86 136,84 C 136,82 138,80 140,80z"/>
    <path style="fill: none; fill-opacity:0; stroke-width: 4; stroke: #000000" d="M 140 80 C 142,80 144,82 144,84 C 144,86 142,88 140,88 C 138,88 136,86 136,84 C 136,82 138,80 140,80"/>
  </g>
  <g>
    <line style="fill: none; fill-opacity:0; stroke-width: 4; stroke: #000000" x1="260" y1="180" x2="260" y2="200"/>
    <path style="fill: #000000" d="M 260 180 C 262,180 264,182 264,184 C 264,186 262,188 260,188 C 258,188 256,186 256,184 C 256,182 258,180 260,180z"/>
    <path style="fill: none; fill-opacity:0; stroke-width: 4; stroke: #000000" d="M 260 180 C 262,180 264,182 264,184 C 264,186 262,188 260,188 C 258,188 256,186 256,184 C 256,182 258,180 260,180"/>
  </g>
  <g>
    <line style="fill: none; fill-opacity:0; stroke-width: 4; stroke: #000000" x1="340" y1="140" x2="340" y2="200"/>
    <path style="fill: #000000" d="M 340 140 C 342,140 344,142 344,144 C 344,146 342,148 340,148 C 338,148 336,146 336,144 C 336,142 338,140 340,140z"/>
    <path style="fill: none; fill-opacity:0; stroke-width: 4; stroke: #000000" d="M 340 140 C 342,140 344,142 344,144 C 344,146 342,148 340,148 C 338,148 336,146 336,144 C 336,142 338,140 340,140"/>
  </g>
  <g>
    <line style="fill: none; fill-opacity:0; stroke-width: 4; stroke: #000000" x1="320" y1="144" x2="320" y2="200"/>
    <path style="fill: #000000" d="M 320 144 C 322,144 324,146 324,148 C 324,150 322,152 320,152 C 318,152 316,150 316,148 C 316,146 318,144 320,144z"/>
    <path style="fill: none; fill-opacity:0; stroke-width: 4; stroke: #000000" d="M 320 144 C 322,144 324,146 324,148 C 324,150 322,152 320,152 C 318,152 316,150 316,148 C 316,146 318,144 320,144"/>
  </g>
  <g>
    <line style="fill: none; fill-opacity:0; stroke-width: 4; stroke: #000000" x1="360" y1="144" x2="360" y2="200"/>
    <path style="fill: #000000" d="M 360 144 C 362,144 364,146 364,148 C 364,150 362,152 360,152 C 358,152 356,150 356,148 C 356,146 358,144 360,144z"/>
    <path style="fill: none; fill-opacity:0; stroke-width: 4; stroke: #000000" d="M 360 144 C 362,144 364,146 364,148 C 364,150 362,152 360,152 C 358,152 356,150 356,148 C 356,146 358,144 360,144"/>
  </g>
  <g>
    <path style="fill: none; fill-opacity:0; stroke-width: 2; stroke: #168f10" d="M 140 80 C 160,60 220,60 258.586,175.757"/>
    <polyline style="fill: none; fill-opacity:0; stroke-width: 2; stroke: #168f10" points="251.387,169.973 259.293,177.879 260.874,166.811 "/>
  </g>
</svg>
