<?xml version="1.0" encoding="UTF-8" standalone="no"?>
<!DOCTYPE svg PUBLIC "-//W3C//DTD SVG 1.0//EN" "http://www.w3.org/TR/2001/PR-SVG-20010719/DTD/svg10.dtd">
<svg width="19cm" height="3cm" viewBox="58 38 379 49" xmlns="http://www.w3.org/2000/svg" xmlns:xlink="http://www.w3.org/1999/xlink">
  <g>
    <polygon style="fill: #ffa500" points="60,49.8526 60.8211,43.2842 68.2105,40 75.6,43.2842 76.4211,49.8526 72.3158,55.6 64.1053,55.6 "/>
    <polygon style="fill: none; fill-opacity:0; stroke-width: 2; stroke: #8b6914" points="60,49.8526 60.8211,43.2842 68.2105,40 75.6,43.2842 76.4211,49.8526 72.3158,55.6 64.1053,55.6 "/>
    <polygon style="fill: none; fill-opacity:0; stroke-width: 0.2; stroke: #8b6914" points="60,49.8526 60.8211,43.2842 68.2105,40 75.6,43.2842 76.4211,49.8526 72.3158,55.6 64.1053,55.6 "/>
  </g>
  <g>
    <polygon style="fill: #ffa500" points="100,49.8526 100.821,43.2842 108.211,40 115.6,43.2842 116.421,49.8526 112.316,55.6 104.105,55.6 "/>
    <polygon style="fill: none; fill-opacity:0; stroke-width: 2; stroke: #8b6914" points="100,49.8526 100.821,43.2842 108.211,40 115.6,43.2842 116.421,49.8526 112.316,55.6 104.105,55.6 "/>
    <polygon style="fill: none; fill-opacity:0; stroke-width: 0.2; stroke: #8b6914" points="100,49.8526 100.821,43.2842 108.211,40 115.6,43.2842 116.421,49.8526 112.316,55.6 104.105,55.6 "/>
  </g>
  <g>
    <polygon style="fill: #ffa500" points="140,49.8526 140.821,43.2842 148.211,40 155.6,43.2842 156.421,49.8526 152.316,55.6 144.105,55.6 "/>
    <polygon style="fill: none; fill-opacity:0; stroke-width: 2; stroke: #8b6914" points="140,49.8526 140.821,43.2842 148.211,40 155.6,43.2842 156.421,49.8526 152.316,55.6 144.105,55.6 "/>
    <polygon style="fill: none; fill-opacity:0; stroke-width: 0.2; stroke: #8b6914" points="140,49.8526 140.821,43.2842 148.211,40 155.6,43.2842 156.421,49.8526 152.316,55.6 144.105,55.6 "/>
  </g>
  <g>
    <polygon style="fill: #aaaaaa" points="180,49.8526 180.821,43.2842 188.211,40 195.6,43.2842 196.421,49.8526 192.316,55.6 184.105,55.6 "/>
    <polygon style="fill: none; fill-opacity:0; stroke-width: 2; stroke: #333333" points="180,49.8526 180.821,43.2842 188.211,40 195.6,43.2842 196.421,49.8526 192.316,55.6 184.105,55.6 "/>
    <polygon style="fill: none; fill-opacity:0; stroke-width: 0.2; stroke: #333333" points="180,49.8526 180.821,43.2842 188.211,40 195.6,43.2842 196.421,49.8526 192.316,55.6 184.105,55.6 "/>
  </g>
  <g>
    <polygon style="fill: #aaaaaa" points="220,49.8526 220.821,43.2842 228.211,40 235.6,43.2842 236.421,49.8526 232.316,55.6 224.105,55.6 "/>
    <polygon style="fill: none; fill-opacity:0; stroke-width: 2; stroke: #333333" points="220,49.8526 220.821,43.2842 228.211,40 235.6,43.2842 236.421,49.8526 232.316,55.6 224.105,55.6 "/>
    <polygon style="fill: none; fill-opacity:0; stroke-width: 0.2; stroke: #333333" points="220,49.8526 220.821,43.2842 228.211,40 235.6,43.2842 236.421,49.8526 232.316,55.6 224.105,55.6 "/>
  </g>
  <g>
    <polygon style="fill: #ffa500" points="60,79.8526 60.8211,73.2842 68.2105,70 75.6,73.2842 76.4211,79.8526 72.3158,85.6 64.1053,85.6 "/>
    <polygon style="fill: none; fill-opacity:0; stroke-width: 2; stroke: #8b6914" points="60,79.8526 60.8211,73.2842 68.2105,70 75.6,73.2842 76.4211,79.8526 72.3158,85.6 64.1053,85.6 "/>
    <polygon style="fill: none; fill-opacity:0; stroke-width: 0.2; stroke: #8b6914" points="60,79.8526 60.8211,73.2842 68.2105,70 75.6,73.2842 76.4211,79.8526 72.3158,85.6 64.1053,85.6 "/>
  </g>
  <g>
    <polygon style="fill: #ffa500" points="100,79.8526 100.821,73.2842 108.211,70 115.6,73.2842 116.421,79.8526 112.316,85.6 104.105,85.6 "/>
    <polygon style="fill: none; fill-opacity:0; stroke-width: 2; stroke: #8b6914" points="100,79.8526 100.821,73.2842 108.211,70 115.6,73.2842 116.421,79.8526 112.316,85.6 104.105,85.6 "/>
    <polygon style="fill: none; fill-opacity:0; stroke-width: 0.2; stroke: #8b6914" points="100,79.8526 100.821,73.2842 108.211,70 115.6,73.2842 116.421,79.8526 112.316,85.6 104.105,85.6 "/>
  </g>
  <g>
    <polygon style="fill: #ffa500" points="140,79.8526 140.821,73.2842 148.211,70 155.6,73.2842 156.421,79.8526 152.316,85.6 144.105,85.6 "/>
    <polygon style="fill: none; fill-opacity:0; stroke-width: 2; stroke: #8b6914" points="140,79.8526 140.821,73.2842 148.211,70 155.6,73.2842 156.421,79.8526 152.316,85.6 144.105,85.6 "/>
    <polygon style="fill: none; fill-opacity:0; stroke-width: 0.2; stroke: #8b6914" points="140,79.8526 140.821,73.2842 148.211,70 155.6,73.2842 156.421,79.8526 152.316,85.6 144.105,85.6 "/>
  </g>
  <g>
    <polygon style="fill: #aaaaaa" points="180,79.8526 180.821,73.2842 188.211,70 195.6,73.2842 196.421,79.8526 192.316,85.6 184.105,85.6 "/>
    <polygon style="fill: none; fill-opacity:0; stroke-width: 2; stroke: #333333" points="180,79.8526 180.821,73.2842 188.211,70 195.6,73.2842 196.421,79.8526 192.316,85.6 184.105,85.6 "/>
    <polygon style="fill: none; fill-opacity:0; stroke-width: 0.2; stroke: #333333" points="180,79.8526 180.821,73.2842 188.211,70 195.6,73.2842 196.421,79.8526 192.316,85.6 184.105,85.6 "/>
  </g>
  <g>
    <polygon style="fill: #aaaaaa" points="220,79.8526 220.821,73.2842 228.211,70 235.6,73.2842 236.421,79.8526 232.316,85.6 224.105,85.6 "/>
    <polygon style="fill: none; fill-opacity:0; stroke-width: 2; stroke: #333333" points="220,79.8526 220.821,73.2842 228.211,70 235.6,73.2842 236.421,79.8526 232.316,85.6 224.105,85.6 "/>
    <polygon style="fill: none; fill-opacity:0; stroke-width: 0.2; stroke: #333333" points="220,79.8526 220.821,73.2842 228.211,70 235.6,73.2842 236.421,79.8526 232.316,85.6 224.105,85.6 "/>
  </g>
  <g>
    <polygon style="fill: #aaaaaa" points="260,49.8526 260.821,43.2842 268.211,40 275.6,43.2842 276.421,49.8526 272.316,55.6 264.105,55.6 "/>
    <polygon style="fill: none; fill-opacity:0; stroke-width: 2; stroke: #333333" points="260,49.8526 260.821,43.2842 268.211,40 275.6,43.2842 276.421,49.8526 272.316,55.6 264.105,55.6 "/>
    <polygon style="fill: none; fill-opacity:0; stroke-width: 0.2; stroke: #333333" points="260,49.8526 260.821,43.2842 268.211,40 275.6,43.2842 276.421,49.8526 272.316,55.6 264.105,55.6 "/>
  </g>
  <g>
    <polygon style="fill: #aaaaaa" points="300,49.8526 300.821,43.2842 308.211,40 315.6,43.2842 316.421,49.8526 312.316,55.6 304.105,55.6 "/>
    <polygon style="fill: none; fill-opacity:0; stroke-width: 2; stroke: #333333" points="300,49.8526 300.821,43.2842 308.211,40 315.6,43.2842 316.421,49.8526 312.316,55.6 304.105,55.6 "/>
    <polygon style="fill: none; fill-opacity:0; stroke-width: 0.2; stroke: #333333" points="300,49.8526 300.821,43.2842 308.211,40 315.6,43.2842 316.421,49.8526 312.316,55.6 304.105,55.6 "/>
  </g>
  <g>
    <polygon style="fill: #ffa500" points="340,49.8526 340.821,43.2842 348.211,40 355.6,43.2842 356.421,49.8526 352.316,55.6 344.105,55.6 "/>
    <polygon style="fill: none; fill-opacity:0; stroke-width: 2; stroke: #8b6914" points="340,49.8526 340.821,43.2842 348.211,40 355.6,43.2842 356.421,49.8526 352.316,55.6 344.105,55.6 "/>
    <polygon style="fill: none; fill-opacity:0; stroke-width: 0.2; stroke: #8b6914" points="340,49.8526 340.821,43.2842 348.211,40 355.6,43.2842 356.421,49.8526 352.316,55.6 344.105,55.6 "/>
  </g>
  <g>
    <polygon style="fill: #ffa500" points="380,49.8526 380.821,43.2842 388.211,40 395.6,43.2842 396.421,49.8526 392.316,55.6 384.105,55.6 "/>
    <polygon style="fill: none; fill-opacity:0; stroke-width: 2; stroke: #8b6914" points="380,49.8526 380.821,43.2842 388.211,40 395.6,43.2842 396.421,49.8526 392.316,55.6 384.105,55.6 "/>
    <polygon style="fill: none; fill-opacity:0; stroke-width: 0.2; stroke: #8b6914" points="380,49.8526 380.821,43.2842 388.211,40 395.6,43.2842 396.421,49.8526 392.316,55.6 384.105,55.6 "/>
  </g>
  <g>
    <polygon style="fill: #ffa500" points="420,49.8526 420.821,43.2842 428.211,40 435.6,43.2842 436.421,49.8526 432.316,55.6 424.105,55.6 "/>
    <polygon style="fill: none; fill-opacity:0; stroke-width: 2; stroke: #8b6914" points="420,49.8526 420.821,43.2842 428.211,40 435.6,43.2842 436.421,49.8526 432.316,55.6 424.105,55.6 "/>
    <polygon style="fill: none; fill-opacity:0; stroke-width: 0.2; stroke: #8b6914" points="420,49.8526 420.821,43.2842 428.211,40 435.6,43.2842 436.421,49.8526 432.316,55.6 424.105,55.6 "/>
  </g>
  <g>
    <polygon style="fill: #aaaaaa" points="260,79.8526 260.821,73.2842 268.211,70 275.6,73.2842 276.421,79.8526 272.316,85.6 264.105,85.6 "/>
    <polygon style="fill: none; fill-opacity:0; stroke-width: 2; stroke: #333333" points="260,79.8526 260.821,73.2842 268.211,70 275.6,73.2842 276.421,79.8526 272.316,85.6 264.105,85.6 "/>
    <polygon style="fill: none; fill-opacity:0; stroke-width: 0.2; stroke: #333333" points="260,79.8526 260.821,73.2842 268.211,70 275.6,73.2842 276.421,79.8526 272.316,85.6 264.105,85.6 "/>
  </g>
  <g>
    <polygon style="fill: #aaaaaa" points="300,79.8526 300.821,73.2842 308.211,70 315.6,73.2842 316.421,79.8526 312.316,85.6 304.105,85.6 "/>
    <polygon style="fill: none; fill-opacity:0; stroke-width: 2; stroke: #333333" points="300,79.8526 300.821,73.2842 308.211,70 315.6,73.2842 316.421,79.8526 312.316,85.6 304.105,85.6 "/>
    <polygon style="fill: none; fill-opacity:0; stroke-width: 0.2; stroke: #333333" points="300,79.8526 300.821,73.2842 308.211,70 315.6,73.2842 316.421,79.8526 312.316,85.6 304.105,85.6 "/>
  </g>
  <g>
    <polygon style="fill: #ffa500" points="340,79.8526 340.821,73.2842 348.211,70 355.6,73.2842 356.421,79.8526 352.316,85.6 344.105,85.6 "/>
    <polygon style="fill: none; fill-opacity:0; stroke-width: 2; stroke: #8b6914" points="340,79.8526 340.821,73.2842 348.211,70 355.6,73.2842 356.421,79.8526 352.316,85.6 344.105,85.6 "/>
    <polygon style="fill: none; fill-opacity:0; stroke-width: 0.2; stroke: #8b6914" points="340,79.8526 340.821,73.2842 348.211,70 355.6,73.2842 356.421,79.8526 352.316,85.6 344.105,85.6 "/>
  </g>
  <g>
    <polygon style="fill: #ffa500" points="380,79.8526 380.821,73.2842 388.211,70 395.6,73.2842 396.421,79.8526 392.316,85.6 384.105,85.6 "/>
    <polygon style="fill: none; fill-opacity:0; stroke-width: 2; stroke: #8b6914" points="380,79.8526 380.821,73.2842 388.211,70 395.6,73.2842 396.421,79.8526 392.316,85.6 384.105,85.6 "/>
    <polygon style="fill: none; fill-opacity:0; stroke-width: 0.2; stroke: #8b6914" points="380,79.8526 380.821,73.2842 388.211,70 395.6,73.2842 396.421,79.8526 392.316,85.6 384.105,85.6 "/>
  </g>
  <g>
    <polygon style="fill: #ffa500" points="420,79.8526 420.821,73.2842 428.211,70 435.6,73.2842 436.421,79.8526 432.316,85.6 424.105,85.6 "/>
    <polygon style="fill: none; fill-opacity:0; stroke-width: 2; stroke: #8b6914" points="420,79.8526 420.821,73.2842 428.211,70 435.6,73.2842 436.421,79.8526 432.316,85.6 424.105,85.6 "/>
    <polygon style="fill: none; fill-opacity:0; stroke-width: 0.2; stroke: #8b6914" points="420,79.8526 420.821,73.2842 428.211,70 435.6,73.2842 436.421,79.8526 432.316,85.6 424.105,85.6 "/>
  </g>
  <g>
    <path style="fill: none; fill-opacity:0; stroke-width: 2; stroke: #000000" d="M 95.0158,40.1286 A 27.8626,27.8626 0 0 0 75.9597,42.4749"/>
    <polygon style="fill: #000000" points="93.8395,41.9527 100.547,42.0315 96.5856,36.618 "/>
    <polygon style="fill: none; fill-opacity:0; stroke-width: 2; stroke: #000000" points="93.8395,41.9527 100.547,42.0315 96.5856,36.618 "/>
  </g>
  <g>
    <path style="fill: none; fill-opacity:0; stroke-width: 2; stroke: #000000" d="M 101.178,64.5768 A 45.5181,45.5181 0 0 0 77.3606,49.252"/>
    <polygon style="fill: #000000" points="99.0046,65.7561 104.627,69.4158 104.181,62.7224 "/>
    <polygon style="fill: none; fill-opacity:0; stroke-width: 2; stroke: #000000" points="99.0046,65.7561 104.627,69.4158 104.181,62.7224 "/>
  </g>
  <g>
    <path style="fill: none; fill-opacity:0; stroke-width: 2; stroke: #000000" d="M 71.9962,63.3834 A 35.5865,35.5865 0 0 0 71.4021,56.3675"/>
    <polygon style="fill: #000000" points="69.7432,62.7714 71.4341,69.263 75.6129,64.0153 "/>
    <polygon style="fill: none; fill-opacity:0; stroke-width: 2; stroke: #000000" points="69.7432,62.7714 71.4341,69.263 75.6129,64.0153 "/>
  </g>
  <g>
    <line style="fill: none; fill-opacity:0; stroke-width: 2; stroke: #000000" x1="397.161" y1="77.8632" x2="412.27" y2="77.8632"/>
    <polygon style="fill: #000000" points="412.27,80.8632 418.27,77.8632 412.27,74.8632 "/>
    <polygon style="fill: none; fill-opacity:0; stroke-width: 2; stroke: #000000" points="412.27,80.8632 418.27,77.8632 412.27,74.8632 "/>
  </g>
  <g>
    <line style="fill: none; fill-opacity:0; stroke-width: 2; stroke: #000000" x1="388.684" y1="69.118" x2="388.684" y2="63.601"/>
    <polygon style="fill: #000000" points="391.684,63.601 388.684,57.601 385.684,63.601 "/>
    <polygon style="fill: none; fill-opacity:0; stroke-width: 2; stroke: #000000" points="391.684,63.601 388.684,57.601 385.684,63.601 "/>
  </g>
  <g>
    <line style="fill: none; fill-opacity:0; stroke-width: 2; stroke: #000000" x1="379.27" y1="77.8632" x2="364.161" y2="77.8632"/>
    <polygon style="fill: #000000" points="364.161,74.8632 358.161,77.8632 364.161,80.8632 "/>
    <polygon style="fill: none; fill-opacity:0; stroke-width: 2; stroke: #000000" points="364.161,74.8632 358.161,77.8632 364.161,80.8632 "/>
  </g>
</svg>
