<?xml version="1.0" encoding="UTF-8" standalone="no"?>
<!DOCTYPE svg PUBLIC "-//W3C//DTD SVG 1.0//EN" "http://www.w3.org/TR/2001/PR-SVG-20010719/DTD/svg10.dtd">
<svg width="9cm" height="7cm" viewBox="58 38 179 139" xmlns="http://www.w3.org/2000/svg" xmlns:xlink="http://www.w3.org/1999/xlink">
  <g>
    <polygon style="fill: #aaaaaa" points="60,49.8526 60.8211,43.2842 68.2105,40 75.6,43.2842 76.4211,49.8526 72.3158,55.6 64.1053,55.6 "/>
    <polygon style="fill: none; fill-opacity:0; stroke-width: 2; stroke: #333333" points="60,49.8526 60.8211,43.2842 68.2105,40 75.6,43.2842 76.4211,49.8526 72.3158,55.6 64.1053,55.6 "/>
    <polygon style="fill: none; fill-opacity:0; stroke-width: 0.2; stroke: #333333" points="60,49.8526 60.8211,43.2842 68.2105,40 75.6,43.2842 76.4211,49.8526 72.3158,55.6 64.1053,55.6 "/>
  </g>
  <g>
    <polygon style="fill: #aaaaaa" points="100,49.8526 100.821,43.2842 108.211,40 115.6,43.2842 116.421,49.8526 112.316,55.6 104.105,55.6 "/>
    <polygon style="fill: none; fill-opacity:0; stroke-width: 2; stroke: #333333" points="100,49.8526 100.821,43.2842 108.211,40 115.6,43.2842 116.421,49.8526 112.316,55.6 104.105,55.6 "/>
    <polygon style="fill: none; fill-opacity:0; stroke-width: 0.2; stroke: #333333" points="100,49.8526 100.821,43.2842 108.211,40 115.6,43.2842 116.421,49.8526 112.316,55.6 104.105,55.6 "/>
  </g>
  <g>
    <polygon style="fill: #aaaaaa" points="140,49.8526 140.821,43.2842 148.211,40 155.6,43.2842 156.421,49.8526 152.316,55.6 144.105,55.6 "/>
    <polygon style="fill: none; fill-opacity:0; stroke-width: 2; stroke: #333333" points="140,49.8526 140.821,43.2842 148.211,40 155.6,43.2842 156.421,49.8526 152.316,55.6 144.105,55.6 "/>
    <polygon style="fill: none; fill-opacity:0; stroke-width: 0.2; stroke: #333333" points="140,49.8526 140.821,43.2842 148.211,40 155.6,43.2842 156.421,49.8526 152.316,55.6 144.105,55.6 "/>
  </g>
  <g>
    <polygon style="fill: #aaaaaa" points="180,49.8526 180.821,43.2842 188.211,40 195.6,43.2842 196.421,49.8526 192.316,55.6 184.105,55.6 "/>
    <polygon style="fill: none; fill-opacity:0; stroke-width: 2; stroke: #333333" points="180,49.8526 180.821,43.2842 188.211,40 195.6,43.2842 196.421,49.8526 192.316,55.6 184.105,55.6 "/>
    <polygon style="fill: none; fill-opacity:0; stroke-width: 0.2; stroke: #333333" points="180,49.8526 180.821,43.2842 188.211,40 195.6,43.2842 196.421,49.8526 192.316,55.6 184.105,55.6 "/>
  </g>
  <g>
    <polygon style="fill: #aaaaaa" points="220,49.8526 220.821,43.2842 228.211,40 235.6,43.2842 236.421,49.8526 232.316,55.6 224.105,55.6 "/>
    <polygon style="fill: none; fill-opacity:0; stroke-width: 2; stroke: #333333" points="220,49.8526 220.821,43.2842 228.211,40 235.6,43.2842 236.421,49.8526 232.316,55.6 224.105,55.6 "/>
    <polygon style="fill: none; fill-opacity:0; stroke-width: 0.2; stroke: #333333" points="220,49.8526 220.821,43.2842 228.211,40 235.6,43.2842 236.421,49.8526 232.316,55.6 224.105,55.6 "/>
  </g>
  <g>
    <polygon style="fill: #aaaaaa" points="60,79.8526 60.8211,73.2842 68.2105,70 75.6,73.2842 76.4211,79.8526 72.3158,85.6 64.1053,85.6 "/>
    <polygon style="fill: none; fill-opacity:0; stroke-width: 2; stroke: #333333" points="60,79.8526 60.8211,73.2842 68.2105,70 75.6,73.2842 76.4211,79.8526 72.3158,85.6 64.1053,85.6 "/>
    <polygon style="fill: none; fill-opacity:0; stroke-width: 0.2; stroke: #333333" points="60,79.8526 60.8211,73.2842 68.2105,70 75.6,73.2842 76.4211,79.8526 72.3158,85.6 64.1053,85.6 "/>
  </g>
  <g>
    <polygon style="fill: #aaaaaa" points="100,79.8526 100.821,73.2842 108.211,70 115.6,73.2842 116.421,79.8526 112.316,85.6 104.105,85.6 "/>
    <polygon style="fill: none; fill-opacity:0; stroke-width: 2; stroke: #333333" points="100,79.8526 100.821,73.2842 108.211,70 115.6,73.2842 116.421,79.8526 112.316,85.6 104.105,85.6 "/>
    <polygon style="fill: none; fill-opacity:0; stroke-width: 0.2; stroke: #333333" points="100,79.8526 100.821,73.2842 108.211,70 115.6,73.2842 116.421,79.8526 112.316,85.6 104.105,85.6 "/>
  </g>
  <g>
    <polygon style="fill: #aaaaaa" points="140,79.8526 140.821,73.2842 148.211,70 155.6,73.2842 156.421,79.8526 152.316,85.6 144.105,85.6 "/>
    <polygon style="fill: none; fill-opacity:0; stroke-width: 2; stroke: #333333" points="140,79.8526 140.821,73.2842 148.211,70 155.6,73.2842 156.421,79.8526 152.316,85.6 144.105,85.6 "/>
    <polygon style="fill: none; fill-opacity:0; stroke-width: 0.2; stroke: #333333" points="140,79.8526 140.821,73.2842 148.211,70 155.6,73.2842 156.421,79.8526 152.316,85.6 144.105,85.6 "/>
  </g>
  <g>
    <polygon style="fill: #aaaaaa" points="180,79.8526 180.821,73.2842 188.211,70 195.6,73.2842 196.421,79.8526 192.316,85.6 184.105,85.6 "/>
    <polygon style="fill: none; fill-opacity:0; stroke-width: 2; stroke: #333333" points="180,79.8526 180.821,73.2842 188.211,70 195.6,73.2842 196.421,79.8526 192.316,85.6 184.105,85.6 "/>
    <polygon style="fill: none; fill-opacity:0; stroke-width: 0.2; stroke: #333333" points="180,79.8526 180.821,73.2842 188.211,70 195.6,73.2842 196.421,79.8526 192.316,85.6 184.105,85.6 "/>
  </g>
  <g>
    <polygon style="fill: #aaaaaa" points="220,79.8526 220.821,73.2842 228.211,70 235.6,73.2842 236.421,79.8526 232.316,85.6 224.105,85.6 "/>
    <polygon style="fill: none; fill-opacity:0; stroke-width: 2; stroke: #333333" points="220,79.8526 220.821,73.2842 228.211,70 235.6,73.2842 236.421,79.8526 232.316,85.6 224.105,85.6 "/>
    <polygon style="fill: none; fill-opacity:0; stroke-width: 0.2; stroke: #333333" points="220,79.8526 220.821,73.2842 228.211,70 235.6,73.2842 236.421,79.8526 232.316,85.6 224.105,85.6 "/>
  </g>
  <g>
    <polygon style="fill: #aaaaaa" points="60,109.853 60.8211,103.284 68.2105,100 75.6,103.284 76.4211,109.853 72.3158,115.6 64.1053,115.6 "/>
    <polygon style="fill: none; fill-opacity:0; stroke-width: 2; stroke: #333333" points="60,109.853 60.8211,103.284 68.2105,100 75.6,103.284 76.4211,109.853 72.3158,115.6 64.1053,115.6 "/>
    <polygon style="fill: none; fill-opacity:0; stroke-width: 0.2; stroke: #333333" points="60,109.853 60.8211,103.284 68.2105,100 75.6,103.284 76.4211,109.853 72.3158,115.6 64.1053,115.6 "/>
  </g>
  <g>
    <polygon style="fill: #aaaaaa" points="100,109.853 100.821,103.284 108.211,100 115.6,103.284 116.421,109.853 112.316,115.6 104.105,115.6 "/>
    <polygon style="fill: none; fill-opacity:0; stroke-width: 2; stroke: #333333" points="100,109.853 100.821,103.284 108.211,100 115.6,103.284 116.421,109.853 112.316,115.6 104.105,115.6 "/>
    <polygon style="fill: none; fill-opacity:0; stroke-width: 0.2; stroke: #333333" points="100,109.853 100.821,103.284 108.211,100 115.6,103.284 116.421,109.853 112.316,115.6 104.105,115.6 "/>
  </g>
  <g>
    <polygon style="fill: #aaaaaa" points="140,109.853 140.821,103.284 148.211,100 155.6,103.284 156.421,109.853 152.316,115.6 144.105,115.6 "/>
    <polygon style="fill: none; fill-opacity:0; stroke-width: 2; stroke: #333333" points="140,109.853 140.821,103.284 148.211,100 155.6,103.284 156.421,109.853 152.316,115.6 144.105,115.6 "/>
    <polygon style="fill: none; fill-opacity:0; stroke-width: 0.2; stroke: #333333" points="140,109.853 140.821,103.284 148.211,100 155.6,103.284 156.421,109.853 152.316,115.6 144.105,115.6 "/>
  </g>
  <g>
    <polygon style="fill: #aaaaaa" points="180,109.853 180.821,103.284 188.211,100 195.6,103.284 196.421,109.853 192.316,115.6 184.105,115.6 "/>
    <polygon style="fill: none; fill-opacity:0; stroke-width: 2; stroke: #333333" points="180,109.853 180.821,103.284 188.211,100 195.6,103.284 196.421,109.853 192.316,115.6 184.105,115.6 "/>
    <polygon style="fill: none; fill-opacity:0; stroke-width: 0.2; stroke: #333333" points="180,109.853 180.821,103.284 188.211,100 195.6,103.284 196.421,109.853 192.316,115.6 184.105,115.6 "/>
  </g>
  <g>
    <polygon style="fill: #aaaaaa" points="220,109.853 220.821,103.284 228.211,100 235.6,103.284 236.421,109.853 232.316,115.6 224.105,115.6 "/>
    <polygon style="fill: none; fill-opacity:0; stroke-width: 2; stroke: #333333" points="220,109.853 220.821,103.284 228.211,100 235.6,103.284 236.421,109.853 232.316,115.6 224.105,115.6 "/>
    <polygon style="fill: none; fill-opacity:0; stroke-width: 0.2; stroke: #333333" points="220,109.853 220.821,103.284 228.211,100 235.6,103.284 236.421,109.853 232.316,115.6 224.105,115.6 "/>
  </g>
  <g>
    <polygon style="fill: #aaaaaa" points="60,139.853 60.8211,133.284 68.2105,130 75.6,133.284 76.4211,139.853 72.3158,145.6 64.1053,145.6 "/>
    <polygon style="fill: none; fill-opacity:0; stroke-width: 2; stroke: #333333" points="60,139.853 60.8211,133.284 68.2105,130 75.6,133.284 76.4211,139.853 72.3158,145.6 64.1053,145.6 "/>
    <polygon style="fill: none; fill-opacity:0; stroke-width: 0.2; stroke: #333333" points="60,139.853 60.8211,133.284 68.2105,130 75.6,133.284 76.4211,139.853 72.3158,145.6 64.1053,145.6 "/>
  </g>
  <g>
    <polygon style="fill: #aaaaaa" points="100,139.853 100.821,133.284 108.211,130 115.6,133.284 116.421,139.853 112.316,145.6 104.105,145.6 "/>
    <polygon style="fill: none; fill-opacity:0; stroke-width: 2; stroke: #333333" points="100,139.853 100.821,133.284 108.211,130 115.6,133.284 116.421,139.853 112.316,145.6 104.105,145.6 "/>
    <polygon style="fill: none; fill-opacity:0; stroke-width: 0.2; stroke: #333333" points="100,139.853 100.821,133.284 108.211,130 115.6,133.284 116.421,139.853 112.316,145.6 104.105,145.6 "/>
  </g>
  <g>
    <polygon style="fill: #aaaaaa" points="140,139.853 140.821,133.284 148.211,130 155.6,133.284 156.421,139.853 152.316,145.6 144.105,145.6 "/>
    <polygon style="fill: none; fill-opacity:0; stroke-width: 2; stroke: #333333" points="140,139.853 140.821,133.284 148.211,130 155.6,133.284 156.421,139.853 152.316,145.6 144.105,145.6 "/>
    <polygon style="fill: none; fill-opacity:0; stroke-width: 0.2; stroke: #333333" points="140,139.853 140.821,133.284 148.211,130 155.6,133.284 156.421,139.853 152.316,145.6 144.105,145.6 "/>
  </g>
  <g>
    <polygon style="fill: #aaaaaa" points="180,139.853 180.821,133.284 188.211,130 195.6,133.284 196.421,139.853 192.316,145.6 184.105,145.6 "/>
    <polygon style="fill: none; fill-opacity:0; stroke-width: 2; stroke: #333333" points="180,139.853 180.821,133.284 188.211,130 195.6,133.284 196.421,139.853 192.316,145.6 184.105,145.6 "/>
    <polygon style="fill: none; fill-opacity:0; stroke-width: 0.2; stroke: #333333" points="180,139.853 180.821,133.284 188.211,130 195.6,133.284 196.421,139.853 192.316,145.6 184.105,145.6 "/>
  </g>
  <g>
    <polygon style="fill: #aaaaaa" points="220,139.853 220.821,133.284 228.211,130 235.6,133.284 236.421,139.853 232.316,145.6 224.105,145.6 "/>
    <polygon style="fill: none; fill-opacity:0; stroke-width: 2; stroke: #333333" points="220,139.853 220.821,133.284 228.211,130 235.6,133.284 236.421,139.853 232.316,145.6 224.105,145.6 "/>
    <polygon style="fill: none; fill-opacity:0; stroke-width: 0.2; stroke: #333333" points="220,139.853 220.821,133.284 228.211,130 235.6,133.284 236.421,139.853 232.316,145.6 224.105,145.6 "/>
  </g>
  <g>
    <polygon style="fill: #aaaaaa" points="60,169.853 60.8211,163.284 68.2105,160 75.6,163.284 76.4211,169.853 72.3158,175.6 64.1053,175.6 "/>
    <polygon style="fill: none; fill-opacity:0; stroke-width: 2; stroke: #333333" points="60,169.853 60.8211,163.284 68.2105,160 75.6,163.284 76.4211,169.853 72.3158,175.6 64.1053,175.6 "/>
    <polygon style="fill: none; fill-opacity:0; stroke-width: 0.2; stroke: #333333" points="60,169.853 60.8211,163.284 68.2105,160 75.6,163.284 76.4211,169.853 72.3158,175.6 64.1053,175.6 "/>
  </g>
  <g>
    <polygon style="fill: #aaaaaa" points="100,169.853 100.821,163.284 108.211,160 115.6,163.284 116.421,169.853 112.316,175.6 104.105,175.6 "/>
    <polygon style="fill: none; fill-opacity:0; stroke-width: 2; stroke: #333333" points="100,169.853 100.821,163.284 108.211,160 115.6,163.284 116.421,169.853 112.316,175.6 104.105,175.6 "/>
    <polygon style="fill: none; fill-opacity:0; stroke-width: 0.2; stroke: #333333" points="100,169.853 100.821,163.284 108.211,160 115.6,163.284 116.421,169.853 112.316,175.6 104.105,175.6 "/>
  </g>
  <g>
    <polygon style="fill: #aaaaaa" points="140,169.853 140.821,163.284 148.211,160 155.6,163.284 156.421,169.853 152.316,175.6 144.105,175.6 "/>
    <polygon style="fill: none; fill-opacity:0; stroke-width: 2; stroke: #333333" points="140,169.853 140.821,163.284 148.211,160 155.6,163.284 156.421,169.853 152.316,175.6 144.105,175.6 "/>
    <polygon style="fill: none; fill-opacity:0; stroke-width: 0.2; stroke: #333333" points="140,169.853 140.821,163.284 148.211,160 155.6,163.284 156.421,169.853 152.316,175.6 144.105,175.6 "/>
  </g>
  <g>
    <polygon style="fill: #aaaaaa" points="180,169.853 180.821,163.284 188.211,160 195.6,163.284 196.421,169.853 192.316,175.6 184.105,175.6 "/>
    <polygon style="fill: none; fill-opacity:0; stroke-width: 2; stroke: #333333" points="180,169.853 180.821,163.284 188.211,160 195.6,163.284 196.421,169.853 192.316,175.6 184.105,175.6 "/>
    <polygon style="fill: none; fill-opacity:0; stroke-width: 0.2; stroke: #333333" points="180,169.853 180.821,163.284 188.211,160 195.6,163.284 196.421,169.853 192.316,175.6 184.105,175.6 "/>
  </g>
  <g>
    <polygon style="fill: #aaaaaa" points="220,169.853 220.821,163.284 228.211,160 235.6,163.284 236.421,169.853 232.316,175.6 224.105,175.6 "/>
    <polygon style="fill: none; fill-opacity:0; stroke-width: 2; stroke: #333333" points="220,169.853 220.821,163.284 228.211,160 235.6,163.284 236.421,169.853 232.316,175.6 224.105,175.6 "/>
    <polygon style="fill: none; fill-opacity:0; stroke-width: 0.2; stroke: #333333" points="220,169.853 220.821,163.284 228.211,160 235.6,163.284 236.421,169.853 232.316,175.6 224.105,175.6 "/>
  </g>
  <g>
    <path style="fill: none; fill-opacity:0; stroke-width: 2; stroke: #000000" d="M 95.0158,40.1286 A 27.8626,27.8626 0 0 0 75.9597,42.4749"/>
    <polygon style="fill: #000000" points="93.8395,41.9527 100.547,42.0315 96.5856,36.618 "/>
    <polygon style="fill: none; fill-opacity:0; stroke-width: 2; stroke: #000000" points="93.8395,41.9527 100.547,42.0315 96.5856,36.618 "/>
  </g>
  <g>
    <path style="fill: none; fill-opacity:0; stroke-width: 2; stroke: #000000" d="M 101.178,64.5768 A 45.5181,45.5181 0 0 0 77.3606,49.252"/>
    <polygon style="fill: #000000" points="99.0046,65.7561 104.627,69.4158 104.181,62.7224 "/>
    <polygon style="fill: none; fill-opacity:0; stroke-width: 2; stroke: #000000" points="99.0046,65.7561 104.627,69.4158 104.181,62.7224 "/>
  </g>
  <g>
    <path style="fill: none; fill-opacity:0; stroke-width: 2; stroke: #000000" d="M 71.9962,63.3834 A 35.5865,35.5865 0 0 0 71.4021,56.3675"/>
    <polygon style="fill: #000000" points="69.7432,62.7714 71.4341,69.263 75.6129,64.0153 "/>
    <polygon style="fill: none; fill-opacity:0; stroke-width: 2; stroke: #000000" points="69.7432,62.7714 71.4341,69.263 75.6129,64.0153 "/>
  </g>
  <g>
    <line style="fill: none; fill-opacity:0; stroke-width: 2; stroke: #000000" x1="197.161" y1="137.863" x2="212.27" y2="137.863"/>
    <polygon style="fill: #000000" points="212.27,140.863 218.27,137.863 212.27,134.863 "/>
    <polygon style="fill: none; fill-opacity:0; stroke-width: 2; stroke: #000000" points="212.27,140.863 218.27,137.863 212.27,134.863 "/>
  </g>
  <g>
    <line style="fill: none; fill-opacity:0; stroke-width: 2; stroke: #000000" x1="188.684" y1="129.118" x2="188.684" y2="123.601"/>
    <polygon style="fill: #000000" points="191.684,123.601 188.684,117.601 185.684,123.601 "/>
    <polygon style="fill: none; fill-opacity:0; stroke-width: 2; stroke: #000000" points="191.684,123.601 188.684,117.601 185.684,123.601 "/>
  </g>
  <g>
    <line style="fill: none; fill-opacity:0; stroke-width: 2; stroke: #000000" x1="179.27" y1="137.863" x2="164.161" y2="137.863"/>
    <polygon style="fill: #000000" points="164.161,134.863 158.161,137.863 164.161,140.863 "/>
    <polygon style="fill: none; fill-opacity:0; stroke-width: 2; stroke: #000000" points="164.161,134.863 158.161,137.863 164.161,140.863 "/>
  </g>
  <g>
    <line style="fill: none; fill-opacity:0; stroke-width: 2; stroke: #000000" x1="188.684" y1="146.601" x2="188.684" y2="152.118"/>
    <polygon style="fill: #000000" points="185.684,152.118 188.684,158.118 191.684,152.118 "/>
    <polygon style="fill: none; fill-opacity:0; stroke-width: 2; stroke: #000000" points="185.684,152.118 188.684,158.118 191.684,152.118 "/>
  </g>
</svg>
