<?xml version="1.0" encoding="UTF-8" standalone="no"?>
<!DOCTYPE svg PUBLIC "-//W3C//DTD SVG 1.0//EN" "http://www.w3.org/TR/2001/PR-SVG-20010719/DTD/svg10.dtd">
<svg width="11cm" height="9cm" viewBox="32 19 220 169" xmlns="http://www.w3.org/2000/svg" xmlns:xlink="http://www.w3.org/1999/xlink">
  <g>
    <line style="fill: none; fill-opacity:0; stroke-width: 2; stroke: #000000" x1="40" y1="180" x2="240.264" y2="180"/>
    <polygon style="fill: #000000" points="247.764,180 237.764,185 240.264,180 237.764,175 "/>
    <polygon style="fill: none; fill-opacity:0; stroke-width: 2; stroke: #000000" points="247.764,180 237.764,185 240.264,180 237.764,175 "/>
  </g>
  <g>
    <line style="fill: none; fill-opacity:0; stroke-width: 2; stroke: #000000" x1="40" y1="29.7361" x2="40" y2="180"/>
    <polygon style="fill: #000000" points="40,22.2361 45,32.2361 40,29.7361 35,32.2361 "/>
    <polygon style="fill: none; fill-opacity:0; stroke-width: 2; stroke: #000000" points="40,22.2361 45,32.2361 40,29.7361 35,32.2361 "/>
  </g>
  <path style="fill: none; fill-opacity:0; stroke-width: 2; stroke: #aaaaaa" d="M 160 180 C 160,140 180,20 180,180"/>
  <path style="fill: none; fill-opacity:0; stroke-width: 4; stroke-dasharray: 10; stroke: #000000" d="M 160 180 C 160,140 180,20 180,180"/>
  <line style="fill: none; fill-opacity:0; stroke-width: 2; stroke: #ff0000" x1="40" y1="80" x2="220" y2="180"/>
  <line style="fill: none; fill-opacity:0; stroke-width: 2; stroke: #000099" x1="40" y1="140" x2="220" y2="140"/>
  <path style="fill: none; fill-opacity:0; stroke-width: 2; stroke: #11730c" d="M 40 180 C 40,-40 180.16,180 220,180"/>
</svg>
